<?xml version="1.0" encoding="utf-8"?>
<!-- Generator: Adobe Illustrator 22.0.1, SVG Export Plug-In . SVG Version: 6.00 Build 0)  -->
<svg version="1.1" id="Layer_1" xmlns="http://www.w3.org/2000/svg" xmlns:xlink="http://www.w3.org/1999/xlink" x="0px" y="0px"
	 viewBox="0 0 112 141.6" style="enable-background:new 0 0 112 141.6;" xml:space="preserve">
<style type="text/css">
	.st0{fill:none;stroke:#727272;stroke-width:3;stroke-miterlimit:10;}
	.st1{fill:none;stroke:#727272;stroke-width:2;stroke-miterlimit:10;}
	.st2{fill:#727272;}
	.st3{fill:none;stroke:#B9B9B9;stroke-width:3;stroke-miterlimit:10;}
</style>
<g id="Group_1164" transform="translate(-1328.854 1852.456)">
	<ellipse id="Ellipse_22" class="st0" cx="1398.9" cy="-1787.4" rx="21.2" ry="21.2"/>
	<ellipse id="Ellipse_23" class="st0" cx="1364.3" cy="-1720" rx="7.7" ry="7.7"/>
	<ellipse id="Ellipse_24" class="st0" cx="1431.7" cy="-1825.9" rx="7.7" ry="7.7"/>
	<ellipse id="Ellipse_25" class="st0" cx="1348.9" cy="-1843.3" rx="7.7" ry="7.7"/>
	<line id="Line_3" class="st1" x1="1354.7" y1="-1837.5" x2="1383.5" y2="-1800.9"/>
	<line id="Line_4" class="st1" x1="1427.8" y1="-1820.1" x2="1414.3" y2="-1800.9"/>
	<line id="Line_5" class="st1" x1="1389.3" y1="-1768.2" x2="1368.1" y2="-1725.8"/>
	<g id="Group_115" transform="translate(0 7.702)">
		<g id="Group_109" transform="translate(107.249 103.205)">
			<path id="Path_655" class="st2" d="M1329.8-1851l0.8,1.5h-1.7v-1h0.2l-0.2-0.2L1329.8-1851z"/>
		</g>
		<g id="Group_110" transform="translate(55.454 3.273)">
			<path id="Path_656" class="st2" d="M1329.6-1851l1,1.7l-0.8,0.4l-1-1.7L1329.6-1851z M1331.4-1847.5l1,1.7l-0.8,0.4l-1-1.7
				L1331.4-1847.5z M1333.3-1844l1,1.7l-0.8,0.4l-1.2-1.7L1333.3-1844z M1335-1840.6l1,1.7l-1,0.4l-1-1.7L1335-1840.6z
				 M1336.7-1837.1l1,1.7l-0.8,0.4l-1-1.7L1336.7-1837.1z M1338.7-1833.6l1,1.7l-0.8,0.4l-1-1.7L1338.7-1833.6z M1340.4-1830.2
				l1,1.7l-0.8,0.4l-1-1.7L1340.4-1830.2z M1342.1-1826.7l1,1.7l-0.8,0.4l-1-1.7L1342.1-1826.7z M1343.9-1823.4l1,1.7l-0.8,0.4
				l-1-1.7L1343.9-1823.4z M1345.8-1820l1,1.7l-0.8,0.4l-1-1.7L1345.8-1820z M1347.5-1816.5l1,1.7l-0.8,0.4l-1-1.7L1347.5-1816.5z
				 M1349.3-1813l1,1.7l-0.8,0.4l-1-1.7L1349.3-1813z M1351.2-1809.6l1,1.7l-0.8,0.4l-1-1.7L1351.2-1809.6z M1352.9-1806.1l1,1.7
				l-0.8,0.4l-1-1.7L1352.9-1806.1z M1354.7-1802.6l1,1.7l-0.8,0.4l-1-1.7L1354.7-1802.6z M1356.6-1799.2l1,1.7l-0.8,0.4l-1-1.7
				L1356.6-1799.2z M1358.3-1795.7l1,1.7l-1,0.4l-1-1.7L1358.3-1795.7z M1360-1792.2l1,1.7l-1,0.4l-1-1.7L1360-1792.2z M1361.8-1789
				l1,1.7l-0.8,0.6l-1-1.7L1361.8-1789z M1363.7-1785.5l1,1.7l-0.8,0.4l-1-1.7L1363.7-1785.5z M1365.4-1782l1,1.7l-0.8,0.4l-1-1.7
				L1365.4-1782z M1367.2-1778.6l1,1.7l-0.8,0.4l-1-1.7L1367.2-1778.6z M1369.1-1775.1l1,1.7l-0.8,0.4l-1-1.7L1369.1-1775.1z
				 M1370.8-1771.6l1,1.7l-0.8,0.4l-1-1.7L1370.8-1771.6z M1372.6-1768.2l1,1.7l-0.8,0.4l-1-1.7L1372.6-1768.2z M1374.3-1764.7
				l1,1.7l-0.8,0.4l-1-1.7L1374.3-1764.7z M1376.2-1761.2l1,1.7l-0.8,0.4l-1.2-1.7L1376.2-1761.2z M1378-1758l1,1.7l-0.8,0.4l-1-1.7
				L1378-1758z M1379.7-1754.5l1,1.7l-0.8,0.4l-1-1.7L1379.7-1754.5z"/>
		</g>
		<g id="Group_111" transform="translate(53.528)">
			<path id="Path_657" class="st2" d="M1329.8-1851l0.8,1.5l-0.8,0.6l0,0l-1-0.6L1329.8-1851z"/>
		</g>
		<g id="Group_112" transform="translate(1.733 3.273)">
			<path id="Path_658" class="st2" d="M1379.9-1851l0.8,0.4l-1,1.7l-0.8-0.4L1379.9-1851z M1378-1847.5l0.8,0.4l-1,1.7l-0.6-0.4
				L1378-1847.5z M1376.2-1844l1,0.4l-1,1.7l-0.8-0.4L1376.2-1844z M1374.5-1840.6l0.8,0.4l-1,1.7l-0.8-0.4L1374.5-1840.6z
				 M1372.8-1837.1l0.8,0.4l-1,1.7l-0.8-0.4L1372.8-1837.1z M1370.8-1833.6l0.8,0.4l-1,1.7l-0.8-0.4L1370.8-1833.6z M1369.1-1830.2
				l0.8,0.4l-1,1.7l-0.8-0.4L1369.1-1830.2z M1367.4-1826.7l0.8,0.4l-1,1.7l-0.8-0.4L1367.4-1826.7z M1365.4-1823.4l0.8,0.4l-1,1.7
				l-0.8-0.4L1365.4-1823.4z M1363.7-1820l0.8,0.4l-0.8,1.9l-0.8-0.4L1363.7-1820z M1362-1816.5l0.8,0.4l-1,1.7l-0.8-0.4
				L1362-1816.5z M1360.2-1813l0.8,0.4l-1,1.7l-0.8-0.4L1360.2-1813z M1358.3-1809.6l0.8,0.4l-1,1.7l-0.8-0.4L1358.3-1809.6z
				 M1356.6-1806.1l0.8,0.4l-1,1.7l-0.8-0.4L1356.6-1806.1z M1354.8-1802.6l0.8,0.4l-1,1.7l-0.8-0.4L1354.8-1802.6z M1352.9-1799.2
				l0.8,0.4l-1,1.7l-0.6-0.4L1352.9-1799.2z M1351.2-1795.7l0.8,0.4l-0.8,1.7l-1-0.4L1351.2-1795.7z M1349.5-1792.2l0.8,0.4l-1,1.7
				l-0.8-0.4L1349.5-1792.2z M1347.5-1789l0.8,0.4l-1,1.7l-0.8-0.4L1347.5-1789z M1345.8-1785.5l0.8,0.4l-1,1.7l-0.8-0.4
				L1345.8-1785.5z M1344.1-1782l0.8,0.4l-1,1.7l-0.8-0.4L1344.1-1782z M1342.3-1778.6l0.8,0.4l-1,1.7l-0.8-0.4L1342.3-1778.6z
				 M1340.4-1775.1l0.8,0.4l-1,1.7l-0.8-0.4L1340.4-1775.1z M1338.7-1771.6l0.8,0.4l-0.8,1.7l-0.8-0.4L1338.7-1771.6z
				 M1336.9-1768.2l0.8,0.4l-1,1.7l-0.8-0.4L1336.9-1768.2z M1335-1764.7l0.8,0.4l-1,1.7l-0.8-0.4L1335-1764.7z M1333.3-1761.2
				l1,0.4l-1,1.7l-0.8-0.4L1333.3-1761.2z M1331.6-1758l0.8,0.4l-1,1.7l-0.8-0.4L1331.6-1758z M1329.8-1754.5l0.8,0.4l-1,1.7
				l-0.8-0.4L1329.8-1754.5z"/>
		</g>
		<g id="Group_113" transform="translate(0 103.205)">
			<path id="Path_659" class="st2" d="M1329.6-1851l1,0.4l-0.2,0.2h0.2v1h-1.7L1329.6-1851z"/>
		</g>
		<g id="Group_114" transform="translate(3.658 103.783)">
			<path id="Path_660" class="st2" d="M1328.9-1851h1.9v1h-1.9V-1851z M1332.7-1851h1.9v1h-1.9V-1851z M1336.6-1851h1.9v1h-1.9
				L1336.6-1851z M1340.4-1851h1.9v1h-1.9V-1851z M1344.3-1851h1.9v1h-1.9L1344.3-1851z M1348.1-1851h1.9v1h-1.9V-1851z M1352-1851
				h1.9v1h-1.9V-1851z M1355.6-1851h1.9v1h-1.9V-1851z M1359.5-1851h1.9v1h-1.9V-1851z M1363.3-1851h1.9v1h-1.9L1363.3-1851z
				 M1367.2-1851h1.9v1h-1.9V-1851z M1371-1851h1.9v1h-1.9V-1851z M1374.9-1851h1.9v1h-1.9V-1851z M1378.7-1851h1.9v1h-1.9V-1851z
				 M1382.6-1851h1.9v1h-1.9L1382.6-1851z M1386.4-1851h1.9v1h-1.9V-1851z M1390.3-1851h1.9v1h-1.9V-1851z M1394.1-1851h1.9v1h-1.9
				L1394.1-1851z M1398-1851h1.9v1h-1.9L1398-1851z M1401.6-1851h1.9v1h-1.9V-1851z M1405.5-1851h1.9v1h-1.9V-1851z M1409.3-1851
				h1.9v1h-1.9V-1851z M1413.2-1851h1.9v1h-1.9V-1851z M1417-1851h1.9v1h-1.9V-1851z M1420.9-1851h1.9v1h-1.9V-1851z M1424.7-1851
				h1.9v1h-1.9L1424.7-1851z M1428.6-1851h1.9v1h-1.9V-1851z"/>
		</g>
	</g>
	<ellipse id="Ellipse_26" class="st3" cx="1384.5" cy="-1774.9" rx="45.2" ry="45.2"/>
</g>
</svg>
