<?xml version="1.0" encoding="utf-8"?>
<!-- Generator: Adobe Illustrator 22.0.1, SVG Export Plug-In . SVG Version: 6.00 Build 0)  -->
<svg version="1.1" id="Layer_1" xmlns="http://www.w3.org/2000/svg" xmlns:xlink="http://www.w3.org/1999/xlink" x="0px" y="0px"
	 viewBox="0 0 133.7 165.7" style="enable-background:new 0 0 133.7 165.7;" xml:space="preserve">
<style type="text/css">
	.st0{fill:#FFCB3E;}
	.st1{fill:#FFFFFF;}
	.st2{fill:none;stroke:#FFFFFF;stroke-width:3;stroke-miterlimit:10;}
</style>
<g id="Group_1160" transform="translate(-2376.343 1852.477)">
	<g id="Group_82" transform="translate(30.771 0)">
		<path id="Path_427" class="st0" d="M2399.2-1843.7c-1-0.2-0.6,1-0.6,1.8c-0.1,0.9-0.3,1.8-0.6,2.6c0.2,0.2,0.6,0,0.8-0.4v-0.2
			c0.2-0.2,0.2-0.6,0.2-1.2C2399-1842.1,2399.4-1843.3,2399.2-1843.7z"/>
		<path id="Path_428" class="st0" d="M2391.8-1839.9h-0.6v1.6c0,0.2,0,0.8,0.2,1c0,0.1,0.1,0.2,0.2,0.2l0,0
			C2392-1837.6,2391.8-1839,2391.8-1839.9z"/>
		<path id="Path_429" class="st0" d="M2411.1-1832h-0.4c-0.2,0.2-0.2,0.6-0.4,0.6c0,0.4-0.8,0.2-0.6,0.8
			C2410.7-1830.6,2411.1-1831,2411.1-1832z"/>
		<path id="Path_430" class="st0" d="M2386.5-1833c-0.2,0-0.2,0-0.2,0.2c0,0.8-0.2,1.8,0.4,1.8
			C2387-1831.7,2386.9-1832.4,2386.5-1833z"/>
		<path id="Path_431" class="st0" d="M2389.5-1829.2c-0.1,0-0.2,0.1-0.2,0.2l0,0c0.2,0.6,0,1.6,0.4,2.2c0.6,0.2,0.2-0.6,0.6-0.6
			C2389.9-1828,2389.9-1828.8,2389.5-1829.2z"/>
		<path id="Path_432" class="st0" d="M2396-1827.6c-0.2,0-0.2,0-0.2,0.2c0.2,1-0.6,2.6,0.4,2.8
			C2396.2-1825.6,2396.2-1826.6,2396-1827.6z"/>
		<path id="Path_433" class="st0" d="M2398.8-1825.8c-0.2,0-0.2,0.2-0.4,0.2c0,0.8-0.4,2.2,0.2,2.6c0.4,0,0.2-0.6,0.4-1
			C2399.1-1824.6,2399-1825.2,2398.8-1825.8z"/>
		<path id="Path_434" class="st0" d="M2396-1823.5c-0.2,0-0.2,0.2-0.4,0.2c0,0.5,0,1,0.2,1.4c0,0.6-0.2,1.4,0.6,1.4
			C2396.5-1821.5,2396.3-1822.6,2396-1823.5z"/>
		<path id="Path_435" class="st0" d="M2391.6-1822.3h-0.6C2390.8-1821.9,2391.8-1821.7,2391.6-1822.3z"/>
		<path id="Path_436" class="st0" d="M2392.4-1820.1c-0.6,0,0.2,1,0.4,1.2c0,0.2,0,0.4,0.2,0.6h0.2c0,0,0,0.4,0.6,0.4
			c0-0.2,0-0.2,0.2-0.2c0-0.4-0.2-0.4-0.6-0.4C2393.2-1819.3,2392.6-1819.5,2392.4-1820.1z"/>
		<path id="Path_437" class="st0" d="M2417.5-1817.7c-0.4,0-0.2,0.4-0.4,0.6c-0.2,0.4-0.6,0.6-0.8,1c-0.2,0.2-0.5,0.5-0.8,0.6
			c0.2,0.6,0.6,0,0.8-0.2c0.4-0.2,0.2,0,0.8-0.6l0.4-0.4v-0.2C2417.5-1817.1,2417.7-1817.3,2417.5-1817.7z"/>
		<path id="Path_438" class="st0" d="M2384.1-1818.7c-0.2,0.4,0.4,1.2,0.6,1.4c0.2,0.6,0.4,1.2,1,1.2c-0.1-0.6-0.4-1.1-0.8-1.4
			C2384.7-1817.9,2384.3-1818.3,2384.1-1818.7z"/>
		<path id="Path_439" class="st0" d="M2404.4-1817.7c-1,0-0.8,1.4-1,2C2404.2-1816.1,2404.6-1816.9,2404.4-1817.7z"/>
		<path id="Path_440" class="st0" d="M2408.9-1815.5h-0.4c-0.8,1.6-1.4,3.4-2.4,5c0.2,0.2,0.2-0.2,0.2-0.2c0.1,0,0.2-0.1,0.2-0.2
			l0,0v-0.4c0-0.2,0.4-0.4,0.6-0.6v-0.2c0.2-0.2,0.4-0.4,0.4-0.6s0.2-0.4,0.4-0.6v-0.2c0.2-0.2,0.4-0.8,0.8-1
			C2408.7-1814.8,2408.8-1815.1,2408.9-1815.5z"/>
		<path id="Path_441" class="st0" d="M2392.8-1815.7c0.3,0.3,0.6,0.6,0.8,1s0.4,0.8,1,0.6c0-0.8-1-1-1.2-1.8
			C2393-1815.9,2393-1815.7,2392.8-1815.7z"/>
		<path id="Path_442" class="st0" d="M2395.6-1815.7c0,0.6,0.6,1,1,1.4c0.4,0.2,1.2,0.6,1.6,0.2c0-0.4,0-0.4-0.6-0.4
			c-0.2,0-0.8-0.4-1.2-0.4C2396.2-1815.1,2396.2-1815.7,2395.6-1815.7z"/>
		<path id="Path_443" class="st0" d="M2402.6-1814.3c-0.6,0.2-0.6,1-1,1.6C2402.6-1812.7,2402.8-1813.9,2402.6-1814.3z"/>
		<path id="Path_444" class="st0" d="M2405.3-1810h-0.4c0,0.3-0.2,0.6-0.4,0.8c0,0,0,0.4-0.2,0.4c-0.2,0.2-0.2,0.2-0.2,0.4
			c0,0.2-0.2,0.2-0.2,0.4c-0.5,0.6-1,1.1-1.6,1.6l-0.6,0.6c-0.2,0.2-0.4,0.4-0.4,0.6c0.6,0,0.8-0.4,1-0.8c0.8-0.2,1.2-1,1.6-1.4
			c0.2-0.4,0.6-0.6,0.8-1c0-0.4,0.4-0.6,0.6-1.2C2405.3-1809.8,2405.3-1809.8,2405.3-1810z"/>
		<path id="Path_445" class="st0" d="M2401.8-1810.2h-0.4c-0.2,0.8-1,1-1,1.8c1,0.2,0.8-1,1.4-1.2V-1810.2z"/>
		<path id="Path_446" class="st0" d="M2403.2-1809.8h-0.4c-0.2,0.5-0.5,1-0.8,1.4c-0.1,0-0.2,0.1-0.2,0.2l0,0c0,0.4-0.8,1.2-1.2,1.6
			c-0.2,0.2,0,0.4-0.2,0.4s-0.4,0.2-0.4,0.6c0.6,0.2,0.8-0.4,1-0.6l0.8-0.8c0.4-0.7,0.9-1.4,1.4-2
			C2403.2-1809.4,2403.2-1809.6,2403.2-1809.8z"/>
		<path id="Path_447" class="st0" d="M2383.7-1809c0,0.6,0.6,0.8,1,1.2c0.4,0.4,0.4,1,1,1c0.4-0.4-0.2-0.8-0.6-1.2
			c-0.2-0.4-0.8-0.6-1-1H2383.7z"/>
		<path id="Path_448" class="st0" d="M2392.2-1807.6c-0.1,0-0.2,0.1-0.2,0.2l0,0c0.2,1.2,0.4,2.4,0.8,3.6c0,0.2,0.1,0.3,0.2,0.4
			c0,0.2-0.2,0.4,0.2,0.4c0.1-0.8-0.1-1.5-0.4-2.2c0-0.2,0-0.2-0.2-0.4c0-0.2-0.2-1-0.2-1.4
			C2392.4-1807.2,2392.3-1807.5,2392.2-1807.6z"/>
		<path id="Path_449" class="st0" d="M2388.1-1806.2c-0.1,0.8,0.1,1.7,0.4,2.4l0.6,1.2c0.2,0.4,0.2,0.8,0.6,0.8
			c0.4-0.4,0-0.8-0.2-1.2c0-0.3,0-0.6-0.2-0.8c0-0.2-0.4-0.2-0.4-0.4v-0.6l-0.2-0.2C2388.7-1805.4,2388.9-1806.4,2388.1-1806.2z"/>
		<path id="Path_450" class="st0" d="M2411.7-1804.8c-0.6,0.4-0.8,1.6-1.4,2c-0.2,0.2-0.6,0.2-0.8,0.6c0.4,0.8,0.8,0,1.2-0.4
			c0.5-0.3,0.7-0.8,0.8-1.4c0.3-0.1,0.4-0.4,0.3-0.6C2411.8-1804.7,2411.7-1804.8,2411.7-1804.8z"/>
		<path id="Path_451" class="st0" d="M2407.3-1803.6c0.8,0,1.2-0.4,1.8-1c0-0.4-0.2-0.2-0.2-0.4c-0.2,0-0.2,0.2-0.4,0.2
			C2408.1-1804.2,2407.3-1804.4,2407.3-1803.6z"/>
		<path id="Path_452" class="st0" d="M2387.3-1804.8h-0.4c-0.4,0.6,0.2,1.2,0.4,1.8c0.2,0.4,0.4,1.4,1,1.4
			C2388.3-1803,2387.5-1803.6,2387.3-1804.8z"/>
		<path id="Path_453" class="st0" d="M2414.3-1801.8c0.6,0.6,1.6-0.4,2.2-0.4c0.6-0.2,1.2-0.4,1.4-1c-0.2-0.2-0.4-0.2-0.4,0
			c-0.6,0.2-1,0.6-1.6,0.8C2415.3-1802.4,2414.8-1802.2,2414.3-1801.8z"/>
		<path id="Path_454" class="st0" d="M2395.4-1804.4h-0.6c0,0.4,0,0.6,0.2,0.8c0,0.2,0,0.2,0.2,0.2c0.2,0.2,0,1,0.4,1.2
			s0.2-0.2,0.2-0.4v-0.6c0-0.3-0.1-0.7-0.2-1C2395.4-1804.2,2395.4-1804.2,2395.4-1804.4z"/>
		<path id="Path_455" class="st0" d="M2402.6-1801.8c0.6,0,1.1-0.2,1.6-0.6c0.4-0.2,1-0.6,1.4-0.8c0-0.2,0.2-0.2,0.2-0.4
			c-0.2,0-0.2-0.2-0.4-0.2c-0.5,0.2-1,0.6-1.4,1C2403.6-1802.4,2402.8-1802.4,2402.6-1801.8z"/>
		<path id="Path_456" class="st0" d="M2403.4-1800.6c0.6-0.2,1.4-0.2,1.4-0.8c0.4,0,0.6-0.4,0.8-0.6s0.6-0.4,0.8-0.6
			c0-0.2,0.2-0.2,0.2-0.4c-0.2-0.2-0.4-0.2-0.6-0.2c-0.4,0.4-1,0.8-1.4,1.2C2404.2-1801.4,2403.6-1801.2,2403.4-1800.6z"/>
		<path id="Path_457" class="st0" d="M2403.8-1799.2c1,0,1.6-1,2.4-1.4c0.2,0,0.4,0,0.4-0.2c0.1,0,0.2-0.1,0.2-0.2l0,0v-0.4
			c-0.2-0.2-0.2,0-0.6,0c-0.2,0.6-0.8,0.8-1.4,1c-0.2,0-0.2,0.4-0.2,0.4S2403.8-1799.8,2403.8-1799.2z"/>
		<path id="Path_458" class="st0" d="M2399.4-1801.6c-0.2,0-0.2,0.2-0.4,0.2c0.4,1.6,1.2,3,1,5.2c0.6,0,0.8-1.4,0.4-2
			c-0.2-0.2-0.2-1.4-0.4-2c0-0.1-0.1-0.2-0.2-0.2l0,0C2399.7-1800.8,2399.6-1801.2,2399.4-1801.6z"/>
		<path id="Path_459" class="st0" d="M2392.6-1801.2c0.1,0.8,0.4,1.5,0.8,2.2c0.6-0.2,0.2-0.8,0-1.2l-0.6-1.2
			C2393-1801.2,2392.8-1801.2,2392.6-1801.2z"/>
		<path id="Path_460" class="st0" d="M2389.9-1798.6c0.2-0.4-0.4-0.8-0.6-1c-0.4-0.6-0.8-1-1.4-1.4c-0.2-0.2-0.2-0.4-0.6-0.4
			c0.2,0.2,0,0.6,0.4,0.4c-0.2,0.4,0.6,0.8,0.6,1.2c0,0.2,0.4,0.2,0.4,0.2s0,0.4,0.2,0.2c-0.2,0.4,0.2,0.2,0.2,0.6
			C2389.4-1798.6,2389.7-1798.5,2389.9-1798.6z"/>
		<path id="Path_461" class="st0" d="M2407.1-1800.2c-0.8,0.2-1.2,1-1.8,1.6l-1.2,0.6c0,0.2,0,0.4,0.2,0.4l0.2-0.2
			c0.2,0,0.2-0.2,0.6-0.2c0.2,0,0.2,0,0.6-0.2c0-0.1,0.1-0.2,0.2-0.2l0,0c0.2,0,0.4-0.4,0.6-0.6c0.2-0.2,0.4-0.4,0.6-0.4
			L2407.1-1800.2z"/>
		<path id="Path_462" class="st0" d="M2396.2-1799.6c-0.2,0-0.2,0.2-0.4,0.2c0.2,0.4,0.4,1,0.6,1.4c0.2,0.4,0.2,1.2,0.8,1.2
			c0.2-0.4,0.2-0.8-0.2-1c0.2-0.6-0.4-0.6-0.2-1.2C2396.4-1799.2,2396.4-1799.4,2396.2-1799.6z"/>
		<path id="Path_463" class="st0" d="M2395-1799.6c-0.2,0-0.2,0.2-0.4,0.2c0.2,0.4,0.2,1,0.6,1.2c0,0.6,0,1.4,1,1.4
			C2396-1798,2395.2-1798.6,2395-1799.6z"/>
		<path id="Path_464" class="st0" d="M2398.2-1799.4c-0.4,0,0,1,0,1.6c0,0.5,0,1,0.2,1.4c0.2,0,0.4-0.2,0.6-0.2l-0.6-2.4v-0.2
			C2398.3-1799.2,2398.2-1799.3,2398.2-1799.4L2398.2-1799.4z"/>
		<path id="Path_465" class="st0" d="M2385.7-1796.3c-0.2,0.2,0.2,0.4,0.2,0.4v0.6l0.2,0.2v0.2c0.2,0.2,0.3,0.4,0.4,0.6
			c0.2,0.4,0.2,1,0.8,0.8c0.2-0.4-0.2-0.8-0.4-1.2c-0.3-0.6-0.6-1.2-0.8-1.8C2386.1-1796.1,2385.9-1796.3,2385.7-1796.3z"/>
		<path id="Path_466" class="st0" d="M2392.8-1792.9c-0.4,0.4,0,1,0.6,1C2393.4-1792.5,2393-1792.5,2392.8-1792.9z"/>
		<path id="Path_467" class="st0" d="M2389.1-1792.9c0.3,0.6,0.7,1.2,1.2,1.6c0.4,0.5,0.9,1,1.4,1.4c0.2,0.8,0.8,1.2,1.2,1.8
			c0.2,0,0.2,0.2,0.6,0.2c0.4,0.2,0.6,0.8,1,1.2c0.2,0.4,0.6,1,1.2,0.6c0-0.4-0.2-0.4-0.4-0.6l-0.2-0.2c0-0.1-0.1-0.2-0.2-0.2l0,0
			c-0.2,0-0.8-1-1-1.4c-0.9-0.4-1.6-1.1-2-2c-0.2,0-0.4-0.2-0.6-0.4c-0.4-0.2-0.6-0.8-1-1c0-0.6-0.6-0.4-0.6-0.8
			C2389.6-1792.9,2389.4-1793,2389.1-1792.9z"/>
		<path id="Path_468" class="st0" d="M2396.2-1791.5v0.4l0.2,0.2c0,0.2-0.4,0-0.4,0.6c0,0.2,0.2,0,0.2,0.2s0.1,0.3,0.2,0.4l0.2,0.2
			c0.4,0,0.6-0.4,0.2-0.8c0-0.2,0.4-0.2,0.4-0.6C2397.2-1791.1,2397-1791.5,2396.2-1791.5z"/>
		<path id="Path_469" class="st0" d="M2417.9-1790.1c-0.6,0.3-1.1,0.8-1.4,1.4c0.4,0.8,0.8-0.8,1.4-0.8
			C2418.1-1789.9,2418.1-1790.1,2417.9-1790.1z"/>
		<path id="Path_470" class="st0" d="M2403.6-1790.7h-0.4c-0.8,0.9-1.3,2-1.6,3.2c0.6,0,0.6-0.8,0.8-1.2l0.6-0.6
			c0.2-0.2,0.2-0.6,0.4-0.8C2403.6-1790.5,2404-1790.5,2403.6-1790.7z"/>
		<path id="Path_471" class="st0" d="M2388.5-1790.9c-0.2,0-0.2,0-0.2,0.2c0.2,0.4,0.4,0.4,0.6,0.8c0.2,0.2,0,0.4,0.2,0.6
			c0,0.2,0.4,0.2,0.4,0.2c0.2,0.2,0.4,0.6,0.6,0.8c0.1,0,0.2,0.1,0.2,0.2l0,0c0,0.2,0.2,0,0.2,0.2s0,0.4,0.2,0.4
			c0.2,0.2,0.6,0.2,0.6,0.4c0.2,0,0.2,0.4,0.4,0.4c0.4,0,0.6,0.8,1.6,0.6c0-0.6-0.6-0.6-0.8-0.8c-0.4-0.2-0.6-0.4-1-0.6
			c-0.6-0.2-0.6-0.8-1.2-1C2389.8-1789.3,2389.2-1790.1,2388.5-1790.9z"/>
		<path id="Path_472" class="st0" d="M2396.8-1789.3c-0.2,0-0.2,0-0.2,0.2c0,0.6,0.6,1,1,1.4c0,0.2,0,0.4,0.2,0.4
			c0,0.1,0.1,0.2,0.2,0.2l0,0c0.2,0.2,0.2,0.6,0.6,0.6c0-0.1,0.1-0.2,0.2-0.2l0,0c0-0.1-0.1-0.2-0.2-0.2l0,0c0-0.2-0.2-0.6-0.2-0.8
			C2397.7-1788.1,2397.2-1788.6,2396.8-1789.3z"/>
		<path id="Path_473" class="st0" d="M2409.1-1787.5c-0.2,0-0.2,0-0.2,0.2c-0.1,1.6-0.8,3.1-2,4.2c0,0.1-0.1,0.2-0.2,0.2l0,0
			c0,0,0,0.4-0.2,0.4c-0.1,0.1-0.2,0.2-0.4,0.2c-0.3,0.3-0.6,0.6-0.8,1c0.4,0.2,0.8-0.4,1.2-0.8l0.6-0.6l0.2-0.2
			c0.1,0,0.2-0.1,0.2-0.2l0,0v-0.4h0.2c0.2-0.2,0-0.2,0.2-0.2c0.2-0.2,0.2-0.4,0.4-0.8s0.4-0.4,0.4-1c0.1-0.4,0.2-0.7,0.4-1
			C2409.1-1786.7,2409.3-1787.1,2409.1-1787.5z"/>
		<path id="Path_474" class="st0" d="M2395.6-1787.9c0,0.6,0.6,1.2,1,1.6c0.2,0.4,0.6,1.2,1.4,1.2c-0.4-1.2-1.4-1.6-1.8-2.8
			C2395.8-1787.7,2395.6-1787.9,2395.6-1787.9z"/>
		<path id="Path_475" class="st0" d="M2401-1783.3c0.4,0.2,0.6,0.2,0.8,0c0,0,0-0.4,0.2-0.4c0.2-0.2,0.2-0.2,0.2-0.4
			c0-0.2,0.2-0.2,0.4-0.6c-0.2-0.2-0.4-0.2-0.6-0.2C2401.8-1784.1,2401.2-1783.9,2401-1783.3z"/>
		<path id="Path_476" class="st0" d="M2385.5-1784.9c-0.2,0.4,0.6,0.6,0.6,1c0,0,0.8,1,1.2,0.4c-0.2-0.6-1.4-0.6-1.6-1.4H2385.5z"/>
		<path id="Path_477" class="st0" d="M2405.5-1784.1c-0.6,0.4-0.8,1.4-1.4,2c-0.2,0.4-1,0.6-0.8,1c0.2-0.2,0.6,0,0.8-0.2v-0.2
			c0.2,0,0.4-0.1,0.6-0.2c0-0.1,0.1-0.2,0.2-0.2l0,0c0.2-0.2,0.4-1.2,0.8-1.4C2405.9-1783.9,2405.5-1783.7,2405.5-1784.1z"/>
		<path id="Path_478" class="st0" d="M2403.6-1783.5h-0.4c0,0.8-1,0.8-1,1.8c0.4,0.2,0.6-0.4,0.8-0.6c0.1,0,0.2-0.1,0.2-0.2l0,0
			v-0.4C2403.6-1782.9,2404-1783.3,2403.6-1783.5z"/>
		<path id="Path_479" class="st0" d="M2388.1-1783.1c0,0.6,0.6,0.6,1,0.8c0,0.1,0.1,0.2,0.2,0.2l0,0c0.4,0,0.6,0.4,1.2,0.4
			c0.2-1.2-1.6-0.6-2-1.4C2388.3-1783.3,2388.3-1783.1,2388.1-1783.1z"/>
		<path id="Path_480" class="st0" d="M2399.6-1782h-0.4v1.2C2399.8-1780.6,2399.8-1781.6,2399.6-1782z"/>
		<path id="Path_481" class="st0" d="M2402.8-1781.4h-0.4c-0.2,0.7-0.6,1.4-1,2c0.6,0.2,1-0.6,1.2-1
			C2402.6-1780.6,2403-1781.2,2402.8-1781.4z"/>
		<path id="Path_482" class="st0" d="M2390.5-1781c0.4,0.6,1,0.8,1.4,1.2c0.4,0.4,0.6,0.8,1,1.2c0.2,0,0.4,0,0.4,0.2
			c0.2,0.2,0.4,0.8,1,0.6c0-0.4-0.6-0.8-0.8-1c-0.4-0.5-0.9-0.9-1.4-1.2c-0.2,0-0.2-0.2-0.4-0.2
			C2391.6-1780.4,2391.1-1781.2,2390.5-1781z"/>
		<path id="Path_483" class="st0" d="M2423.4-1776c-0.2,0-0.2,0.2-0.4,0.2c0,1-1,1.4-1,2.4c0.4,0.2,0.2-0.2,0.4-0.4
			c0.1-0.1,0.2-0.2,0.4-0.2v-0.2l0.2-0.2C2423.2-1775,2423.6-1775.6,2423.4-1776z"/>
		<path id="Path_484" class="st0" d="M2395.2-1777.2c0.4,1,1,1.8,1.4,2.8c0.4,0,0.2-0.6,0.2-0.8l-0.2-0.2l-0.2-0.2
			c0-0.2,0-0.2-0.2-0.4l-0.2-0.2C2396.2-1776.4,2395.8-1777.2,2395.2-1777.2z"/>
		<path id="Path_485" class="st0" d="M2409.7-1775.6c-0.6-0.2-0.8,0.4-1,0.6c-0.3,0.3-0.6,0.6-0.8,1c0,0.2,0.2,0.2,0.4,0.2
			s0-0.4,0.2-0.4c0.2-0.2,0.6,0,0.8-0.2c0,0,0-0.4,0.2-0.4C2409.5-1775.2,2409.7-1775.4,2409.7-1775.6z"/>
		<path id="Path_486" class="st0" d="M2394.4-1775.8c-0.2,0-0.2,0.2-0.2,0.4c0.4,0.2,0.4,0.6,0.6,1s0.6,1.2,1.2,1.4
			c0.4-0.4-0.4-1-0.8-1.4c0-0.6-0.6-0.6-0.6-1.2C2394.5-1775.6,2394.4-1775.7,2394.4-1775.8L2394.4-1775.8z"/>
		<path id="Path_487" class="st0" d="M2411.7-1775c-0.8-0.2-0.6,0.6-1,0.8c-0.2,0.2-0.2,0.4-0.4,0.6c0,0-0.6,0-0.4,0.4
			c0.2,0.2,0.4-0.2,0.6-0.2c0.4-0.2,0.8-0.6,1-1C2411.7-1774.6,2411.9-1774.8,2411.7-1775z"/>
		<path id="Path_488" class="st0" d="M2412.9-1772.8c-0.2,0-0.2,0.2-0.4,0.2c-0.2,0.8-1,1-1.4,1.6v0.2l-0.2,0.2
			c0,0.2-0.1,0.3-0.2,0.4c-0.2,0.2-0.6,0.2-0.8,0.6v0.2c-0.2,0.2-0.4,0.2-0.8,0.6c-0.3,0.4-0.7,0.7-1.2,0.8
			c-0.3,0.4-0.7,0.6-1.2,0.6c0.2,0.4,0.4,0.4,0.6,0.4c0.4,0,0.4-0.2,0.6-0.2c0,0,0.4,0,0.4-0.2c0-0.1,0.1-0.2,0.2-0.2l0,0
			c0.2-0.2,0.4-0.2,0.6-0.2c0.2-0.2,0.2-0.4,0.4-0.6c0.1-0.1,0.2-0.2,0.4-0.2l0.4-0.4c0.1-0.1,0.2-0.2,0.4-0.2
			c0.2-0.2,0-0.4,0.2-0.6h0.2v-0.2c0-0.2,0.4-0.2,0.4-0.2c0.2-0.2,0-0.4,0.2-0.4c0.4-0.6,1-0.8,1.4-1.2
			C2413-1772.1,2412.9-1772.4,2412.9-1772.8z"/>
		<path id="Path_489" class="st0" d="M2407.5-1772.4h-0.4c-0.5,0.5-1.1,0.9-1.8,1.2c-0.2,0.2-0.6,0-0.4,0.4c0.8,0.2,1-0.2,1.4-0.4
			c0.4-0.2,0.7-0.4,1-0.6C2407.3-1772.2,2407.5-1772.2,2407.5-1772.4z"/>
		<path id="Path_490" class="st0" d="M2421-1771.2c-0.6,0-0.8,0.4-0.8,1C2420.8-1770,2421.2-1770.8,2421-1771.2z"/>
		<path id="Path_491" class="st0" d="M2399.2-1772c-0.2,0-0.4,0.2-0.6,0.2c0.2,0.6-0.4,1.8,0.4,1.8
			C2399.2-1771,2399.4-1771.2,2399.2-1772z"/>
		<path id="Path_492" class="st0" d="M2409.9-1771.6c-0.2,0-0.2,0.2-0.4,0.2c-0.8,0.9-1.7,1.7-2.6,2.4c-0.4,0.2-1.2,0-1.2,0.8h0.6
			c0.6-0.3,1.2-0.6,1.8-1c0-0.1,0.1-0.2,0.2-0.2l0,0l0.2-0.2l1.4-1.4V-1771.6z"/>
		<path id="Path_493" class="st0" d="M2408.1-1771.4c0-0.2-0.2-0.2-0.2,0c-0.5,0.2-1,0.6-1.4,1c-0.2,0-0.6,0.2-0.8,0.2
			c-0.3,0-0.6,0.3-0.6,0.6c0.4,0.8,1,0,1.4-0.4c0.5-0.3,1-0.6,1.4-1C2407.9-1771,2407.9-1771.4,2408.1-1771.4z"/>
		<path id="Path_494" class="st0" d="M2398.2-1769.2c-0.2,0-0.2,0-0.2,0.2c-0.6,2-0.4,4.4-0.6,6.4c0.6,0,0.6-0.8,0.6-1.6
			c-0.1,0-0.2-0.1-0.2-0.2l0,0c0-0.2,0.2-0.2,0.2-0.6c0.2-1.3,0.2-2.5,0.2-3.8C2398.8-1768.8,2398.2-1769,2398.2-1769.2z"/>
		<path id="Path_495" class="st0" d="M2400-1768.6c-0.4,0-0.4,0.2-0.4,0.6c-0.4-0.2-0.4,0-0.6,0.2c0,1.1,0,2.2-0.2,3.2
			c0.4,0,0.4,0,0.4-0.4c0.4,0,0.6,0,0.8-0.2C2400.4-1766.2,2400.4-1767.4,2400-1768.6z"/>
		<path id="Path_496" class="st0" d="M2419.2-1766.7c-0.2,0-0.2,0-0.2,0.2c-0.3,0.7-0.6,1.3-0.8,2c-0.3,0.6-0.6,1.1-1,1.6
			c-0.2,0.2-0.4,0.2-0.2,0.4c0.4,0.2,0.6-0.6,0.8-0.8c0.1,0,0.2-0.1,0.2-0.2l0,0c0.2-0.3,0.4-0.6,0.6-1v-0.2
			c0.2-0.2,0.2-0.6,0.4-1.2C2419-1766.1,2419.6-1766.5,2419.2-1766.7z"/>
		<path id="Path_497" class="st0" d="M2393.6-1767.3c-0.2,0-0.2,0.2-0.4,0.2c0.2,0.4,0.3,0.8,0.2,1.2c0,0.2,0,0.2,0.2,0.4
			c0,0.1,0.1,0.2,0.2,0.2l0,0c0.2,0.6-0.2,1.4,0.6,1.6c0-0.8,0-1.6-0.2-2.4C2393.9-1766.5,2393.7-1766.9,2393.6-1767.3z"/>
		<path id="Path_498" class="st0" d="M2407.3-1761.5c0.8-0.2,0.6-1.2,1.2-1.6v-0.8c0-0.6,0.8-0.4,0.8-1.2c-0.2-0.2-0.4-0.2-0.6-0.2
			c-0.2,0.2-0.2,0.4-0.4,0.6s-0.4,0.2-0.4,0.4v0.6c-0.1,0-0.2,0.1-0.2,0.2l0,0c0.2,0.2,0,0.2,0,0.2
			C2407.6-1762.7,2407.5-1762.1,2407.3-1761.5z"/>
		<path id="Path_499" class="st0" d="M2400-1764.7h-0.4c0,0.8-0.2,2-0.2,3c0,0.8,0,1.6,0.6,1.8c0.2-0.6-0.2-1,0-1.8v-0.6
			c0-0.2,0.2-0.4,0.2-0.6C2400.2-1763.5,2400-1764.1,2400-1764.7z"/>
		<path id="Path_500" class="st0" d="M2402.2-1762.9h-0.4c-0.2,1,0,1.8-0.2,3h0.6C2402.2-1761.1,2402.2-1761.5,2402.2-1762.9z"/>
		<path id="Path_501" class="st0" d="M2404.6-1762.7h-0.4c-0.2,1.8-0.2,3.8-1,5.4l-0.2,0.2c-0.3,0.5-0.5,1-0.4,1.6
			c0.4,0,0.4-0.4,0.4-0.6c0.2-0.2,0.2-0.4,0.4-0.6c0-0.2,0.2-0.2,0.4-0.6c0-0.2,0.2-0.2,0.2-0.4c0-0.4,0.2-0.4,0.4-1
			c0.4-1.2,0.5-2.4,0.4-3.6C2404.9-1762.5,2404.6-1762.5,2404.6-1762.7z"/>
		<path id="Path_502" class="st0" d="M2397-1762.1c-0.2,0-0.2,0.2-0.4,0.2c0.1,0.6,0.2,1.1,0.4,1.6c0.2,0.4,0,1.2,0.6,1.2
			C2397.8-1759.9,2397.2-1761.3,2397-1762.1z"/>
		<path id="Path_503" class="st0" d="M2416.1-1759.7c0-0.2-0.4-0.2-0.6-0.2c-0.2,0.6-0.6,1-0.8,1.6c0.8,0.2,0.8-0.6,1-1
			c0.1,0,0.2-0.1,0.2-0.2l0,0L2416.1-1759.7z"/>
		<path id="Path_504" class="st0" d="M2399-1759.9c-0.6-0.2,0,0.6-0.4,0.8c-0.2,0.2,0,0.2,0,0.6c-0.1,0.9,0.1,1.8,0.4,2.6
			c0.8-0.2,0.2-1,0.2-1.6v-2C2399.1-1759.6,2399-1759.7,2399-1759.9z"/>
		<path id="Path_505" class="st0" d="M2402.4-1759.3c-0.2,0-0.2,0-0.2,0.2c0,1.6,0,2.4-0.6,3.4c1.4,0.2,1-1.8,1.2-3
			C2402.8-1759.1,2402.4-1759.1,2402.4-1759.3z"/>
		<path id="Path_506" class="st0" d="M2401-1758.5c-0.2,0-0.2,0.2-0.4,0.2c-0.2,1.3-0.2,2.6,0,3.8c0.6,0,0.6-0.8,0.4-1.4v-1
			c0-0.4-0.2-0.4-0.2-0.6C2401-1757.9,2401.4-1758.3,2401-1758.5z"/>
		<path id="Path_507" class="st0" d="M2414.5-1757.1c-0.2,0-0.2,0-0.2,0.2c-0.2,0.2-0.2,0.4-0.4,0.6s-0.4,0.2-0.4,0.4
			c-0.2,0.2,0,0.4-0.2,0.6c0,0.2-0.4,0.2-0.4,0.4l-0.6,1.2c-0.2,0.2-0.2,0.4-0.4,0.8c-0.3,0.4-0.6,0.9-0.8,1.4
			c-0.2,0.2-0.2,0.6-0.4,0.8c-0.2,0.4-0.4,0.8-0.6,1.2v0.2c-0.2,0-0.6,0.8-0.6,1.2c0.1,0,0.2-0.1,0.2-0.2l0,0c0.2-0.5,0.5-1,0.8-1.4
			c0.2-0.5,0.5-1,0.8-1.4c0.1,0,0.2-0.1,0.2-0.2l0,0c0-0.4,0.6-0.8,0.8-1l0.6-1.2c0.4-0.6,0.6-1,1-1.6c0.1,0,0.2-0.1,0.2-0.2l0,0
			c0-0.4,0.6-1,0.8-1.4C2414.5-1756.7,2414.5-1756.9,2414.5-1757.1z"/>
		<path id="Path_508" class="st0" d="M2401.6-1751.6C2401.2-1752.2,2401-1751.2,2401.6-1751.6z"/>
		<path id="Path_509" class="st0" d="M2401-1751c-0.2,0-0.2,0.2-0.4,0.2c0,0.6,0.2,1.2,0.2,1.6c0,0.6-0.2,1.2,0,1.6
			c0.6,0,0.6-1.2,0.4-2C2401.4-1750,2401.2-1750.4,2401-1751z"/>
		<path id="Path_510" class="st0" d="M2412.9-1750.2c-0.6,0-0.4,0.6-0.4,1.2C2412.7-1749.4,2413.1-1749.6,2412.9-1750.2z"/>
		<path id="Path_511" class="st0" d="M2408.5-1746.2h-0.4c-0.6,1.4-1.6,2.4-2.2,3.8c0.8,0,0.8-0.8,1-1.4c0.3-0.4,0.6-0.8,0.8-1.2
			C2408.3-1745.2,2408.9-1745.6,2408.5-1746.2z"/>
		<path id="Path_512" class="st0" d="M2410.9-1745c-0.2,0-0.2,0-0.2,0.2c-0.4,2.6-1.8,5-2.6,7.5c-0.2,0.6-0.5,1.2-0.8,1.8
			c-0.1,0-0.2,0.1-0.2,0.2l0,0c0,0.4-0.2,0.6-0.4,1c-0.1,0-0.2,0.1-0.2,0.2v0.2c0,0.2-0.1,0.3-0.2,0.4c0,0.2,0,0.2-0.2,0.4
			c-0.2,0.4-0.2,0.6-0.4,0.8c0,0.2,0,0.4-0.2,0.6s-0.8,0.6-0.4,1c0.6,0,0.6-0.6,0.8-1l0.6-1.2c0-0.1,0.1-0.2,0.2-0.2
			c0.1-0.2,0.2-0.4,0.4-0.6c0-0.2,0.2-0.4,0.4-0.6c0-0.2,0.2-0.4,0.4-0.6v-0.2c0.2-0.4,0.4-0.8,0.6-1.2c0.1,0,0.2-0.1,0.2-0.2l0,0
			c0-0.2,0.4-0.8,0.4-1c0.2-0.4,0.2-0.8,0.4-1.2c0.1,0,0.2-0.1,0.2-0.2l0,0c0-0.2,0-0.2,0.2-0.4c0.2-0.4,0.3-0.8,0.4-1.2v-0.4
			c0.1,0,0.2-0.1,0.2-0.2l0,0c0-0.2,0-0.4,0.2-0.6s0.2-0.4,0.4-0.8c0-0.6,0.6-1.4,0.6-2C2411.3-1745,2410.9-1744.8,2410.9-1745z"/>
		<path id="Path_513" class="st0" d="M2412.3-1744.4c-0.6,0.4-0.4,1.2-0.6,1.8c-0.3,0.6-0.5,1.3-0.6,2
			C2411.9-1741.4,2412.1-1742.8,2412.3-1744.4z"/>
		<path id="Path_514" class="st0" d="M2407.9-1742.4c-0.4,0.2-0.7,0.6-0.8,1c-0.2,0.4-0.4,0.4-0.2,0.6
			C2407.5-1740.8,2408.1-1741.8,2407.9-1742.4z"/>
		<path id="Path_515" class="st0" d="M2408.9-1741c-0.2,0-0.2,0-0.2,0.2c-0.3,0.5-0.6,1.1-0.8,1.6c-0.2,0.4-0.6,1-0.8,1.4
			c-0.5,1-1,2.1-1.6,3c0.6,0.4,0.8-0.2,0.8-0.6c0.2-0.2,0.2-0.4,0.4-0.6c0-0.2,0-0.4,0.2-0.6s0.4-0.6,0.6-0.8c0.2-0.2,0-0.4,0.2-0.6
			c0-0.2,0.2-0.2,0.2-0.4c0.4-0.6,0.4-1.6,1-2C2408.9-1740.5,2408.9-1740.8,2408.9-1741z"/>
		<path id="Path_516" class="st0" d="M2411.1-1739.5c-0.2,0-0.2,0.2-0.4,0.2c-0.4,1.8-1.1,3.6-2,5.2c-0.1,0-0.2,0.1-0.2,0.2l0,0
			l-0.6,1.2c0,0.2,0,0.4-0.2,0.6s-0.4,0.2-0.4,0.6c0,0.2-0.1,0.3-0.2,0.4v0.4c-0.1,0-0.2,0.1-0.2,0.2l-0.6,1.2
			c-0.2,0.4-1,0.6-0.6,1.2c0.2,0.2,0.2-0.2,0.2-0.2h0.2v-0.2l0.8-0.8c0-0.1,0.1-0.2,0.2-0.2c0.2-0.2,0.2-0.6,0.4-0.6
			c0.4-0.7,0.7-1.3,1-2c0.1,0,0.2-0.1,0.2-0.2l0,0c0.2-0.4,0.2-0.2,0.4-0.6s0.4-0.8,0.6-1.2c0.2-0.2,0.4-0.5,0.4-0.8
			c0-0.2,0.2-0.4,0.4-0.6v-0.2c0-0.2,0.2-0.2,0.4-0.6c0-0.2,0.1-0.3,0.2-0.4c0-0.2-0.2,0-0.2-0.2c0.1-0.4,0.2-0.7,0.4-1
			c0-0.2,0-0.2,0.2-0.2C2411.3-1739.1,2411.1-1739.3,2411.1-1739.5z"/>
		<path id="Path_517" class="st0" d="M2406.5-1739.3h-0.4c-0.3,0.6-0.6,1.1-1,1.6c0,0.2-0.2,0.2-0.4,0.6c-0.2,0.2-0.2,0.4-0.4,0.6
			c0,0.2-0.2,0.2-0.4,0.6c-0.2,0.6-1,1.6-1,2.4c0.6,0.2,0.6-0.6,0.8-0.8c0.4-0.8,1-2,1.4-3
			C2405.7-1737.9,2406.2-1738.6,2406.5-1739.3z"/>
		<path id="Path_518" class="st0" d="M2403.2-1738.3h-0.2c-0.6-0.2-0.6,0.6-0.8,1s-1,1.4-0.6,2
			C2402.2-1736.3,2402.8-1737.3,2403.2-1738.3z"/>
		<path id="Path_519" class="st0" d="M2409.1-1736.5h-0.4c0,0.4-0.4,0.8-0.6,1.2v0.2l-0.2,0.2v0.2c-0.3,0.5-0.6,1-0.8,1.6
			c-0.2,0.4-0.6,0.6-0.4,1.2c0.2,0,0.4-0.4,0.6-0.6c0.2-0.2,0.2-0.6,0.4-1c0.2-0.2,0.4-0.4,0.4-0.6c0.2-0.2,0-0.6,0.2-0.6
			C2408.5-1735.3,2409.1-1735.7,2409.1-1736.5z"/>
		<path id="Path_520" class="st0" d="M2404.9-1733.3c-0.2,0-0.2,0.2-0.4,0.2c0,0.2,0,0.2-0.2,0.4c-0.2,0.2-0.3,0.4-0.4,0.6
			c-0.1,0.4-0.2,0.7-0.4,1s-0.3,0.7-0.4,1c0,0.2-0.2,0.4-0.4,0.8c-0.2,0.6-0.2,1-0.4,1.6l-0.2,0.2c0,0.4-0.4,0.8-0.2,1.2
			c0.6,0.2,0.4-0.6,0.6-1l0.2-0.2v-0.2c0-0.2,0.1-0.3,0.2-0.4c0.2-0.4,0.2-0.8,0.4-1.2c0.4-1.2,1-2.5,1.6-3.6
			C2405.1-1732.9,2405.1-1733.1,2404.9-1733.3z"/>
		<path id="Path_521" class="st0" d="M2401.6-1733.3c-0.4-0.2-0.4,0-0.4,0.4c-0.6,2-1,4.1-1.2,6.2c0.6-0.2,0.4-1,0.6-1.6l0.2-0.4
			v-1.2c0.2-1,0.4-1.8,0.6-2.8c0.1,0,0.2-0.1,0.2-0.2l0,0L2401.6-1733.3z"/>
		<path id="Path_522" class="st0" d="M2403.6-1732.7h-0.4c-0.2,0.8-0.6,1.6-0.8,2.4l-0.6,2.4c-0.1,0-0.2,0.1-0.2,0.2v0.2
			c0,0.2-0.4,0.6-0.2,1c0.8-0.2,0.6-1,1-1.6c0-0.2,0.1-0.3,0.2-0.4c0.2-0.4,0-1,0.2-1.4s0.4-0.8,0.4-1.2
			C2403.5-1731.6,2403.6-1732.1,2403.6-1732.7z"/>
		<path id="Path_523" class="st0" d="M2400.8-1728.3c0.2,0,0.4,0,0.6-0.2c0.3-0.5,0.4-1.1,0.4-1.6c0.3-0.7,0.5-1.5,0.6-2.2
			c-0.8,0-0.8,1.2-1,1.8C2401.1-1729.8,2400.9-1729,2400.8-1728.3z"/>
		<path id="Path_524" class="st0" d="M2404.9-1729.1c-0.8,0-1.2,1.6-1.4,2.4c0,0,0,0.8,0.2,0.4c0.2,0,0.2,0,0.2-0.2
			c0-0.6,0.4-0.8,0.4-1.4C2404.6-1728.3,2405.3-1728.5,2404.9-1729.1z"/>
		<path id="Path_525" class="st0" d="M2406.7-1727.9c-0.5,0.5-1,1-1.4,1.6c0,0,0,0.4-0.2,0.4c-0.1,0-0.2,0.1-0.2,0.2
			c-0.2,0.4-0.4,0.6-0.6,1c-0.1,0-0.2,0.1-0.2,0.2l-0.4,0.6c0,0-0.6,0.6-0.4,0.6c0.4,0.2,0.4-0.2,0.6-0.4c0.2-0.2,0.4,0,0.6-0.2
			c0.2-0.2,0-0.4,0.2-0.6l0.2-0.2c0.2-0.2,0.2-0.4,0.4-0.6c0-0.1,0.1-0.2,0.2-0.2c0-0.2,0-0.2,0.2-0.4
			C2406.3-1726.9,2406.9-1727.1,2406.7-1727.9z"/>
		<path id="Path_526" class="st0" d="M2402-1723.2c0.6-0.2,0.8-0.6,1.4-1.2c0.1,0,0.2-0.1,0.2-0.2c0.2-0.4,0.4-0.6,0.6-1
			c0.1,0,0.2-0.1,0.2-0.2l0,0l0.2-0.2c0.2-0.2,0.2-0.4,0.4-0.8c-0.2,0-0.4-0.2-0.6,0v0.4l-1,1c-0.2,0.2-0.2,0.2-0.2,0.4
			c-0.2,0.2-0.4,0.6-0.8,1C2402.2-1723.6,2401.6-1723.6,2402-1723.2z"/>
		<path id="Path_527" class="st0" d="M2400.4-1725h-0.4c0,2.8-0.4,5.4-0.6,7.9c-0.2,0.9-0.2,1.7-0.2,2.6c0.4,0.2,0.2-0.4,0.4-0.6
			c0.2-1.2,0.4-3.2,0.6-4.2c0-0.8,0.2-1.6,0.2-2.4l0.2-0.2c-0.1,0-0.2-0.1-0.2-0.2c0-0.2,0.2-0.2,0.2-0.6l-0.2-0.2
			c0.1,0,0.2-0.1,0.2-0.2C2400.6-1723.8,2400.4-1724.4,2400.4-1725z"/>
		<path id="Path_528" class="st0" d="M2400.8-1722.8c0.6,0.2,0.4-0.6,0.6-0.8c0.2-0.4,0.4-0.6,0.4-1
			C2401.2-1725,2400.6-1723.4,2400.8-1722.8z"/>
		<path id="Path_529" class="st0" d="M2403.8-1721.8h-0.4c-0.3,1.2-0.5,2.4-0.6,3.6c0.4,0,0.4-0.4,0.4-0.6
			C2403.3-1719.8,2403.5-1720.8,2403.8-1721.8z"/>
		<path id="Path_530" class="st0" d="M2401-1717.2c-0.2,0-0.2,0.2-0.4,0.2c0,2-0.4,5-0.2,6.4c0,0.2-0.2,0.4,0,0.6
			c0.6,0,0.4-0.8,0.4-1c0.2-1.8,0.2-4,0.4-5.8C2401.2-1717,2401-1717,2401-1717.2z"/>
		<path id="Path_531" class="st0" d="M2399.4-1712.8c-0.1,0-0.2,0.1-0.2,0.2c0,2.6-0.6,4.6-0.4,7.3c0,0.2,0,0.4,0.2,0.4
			c0-1.8,0.4-3.4,0.6-5.8C2399.6-1711.3,2400-1712.2,2399.4-1712.8z"/>
		<path id="Path_532" class="st0" d="M2400.6-1707.5h-0.4c-0.2,0.8,0,1.8-0.2,2.8c0,0.1-0.1,0.2-0.2,0.2c0,0.2,0.2,0.2,0.2,0.4
			l-0.2,0.2c-0.4,2.4-0.8,5.6-1,8.3c0,0.6-0.2,1.2-0.2,1.8v1c-0.1,0-0.2,0.1-0.2,0.2c0.2,0,0.2,0.2,0.4,0.2c0.4,0,0.2-0.2,0.2-0.6
			c0.4-2.6,0.6-5.6,1-8.5c0-0.5,0-1.1,0.2-1.6c0-0.1,0.1-0.2,0.2-0.2c0-0.2-0.2-0.2-0.2-0.4c0.1-0.4,0.2-0.8,0.4-1.2
			c0.2-0.8,0-1.2,0.2-2C2400.8-1707.3,2400.6-1707.3,2400.6-1707.5z"/>
		<path id="Path_533" class="st0" d="M2397.8-1705.5c-0.6,0.4-0.2,1.8-0.4,2.6c0.4,0,0.4-0.6,0.4-1s0-1,0.2-1.2
			C2397.9-1705.2,2397.8-1705.4,2397.8-1705.5z"/>
		<path id="Path_534" class="st0" d="M2398.6-1702.5c-0.2,0-0.2,0-0.2,0.2c-0.3,0.8-0.3,1.7-0.2,2.6c0,0.6-0.2,1.1-0.4,1.6v2.2
			c0,0.2-0.2,0.2-0.2,0.4l0.2,0.2c0,0.2-0.4,0.6,0.2,0.6c0.6,0.2,0-0.4,0.2-0.6c0.1,0,0.2-0.1,0.2-0.2c0-0.9,0-1.9,0.2-2.8
			c0-0.2,0.2-0.8,0-1.2c-0.2-0.4,0.4,0,0.4-0.6C2398.6-1700.9,2398.8-1701.9,2398.6-1702.5z"/>
		<path id="Path_535" class="st0" d="M2401.4-1701.7c-0.2,0-0.2,0-0.2,0.2c0,2.6-1,5.2-0.8,7.9c0.8-0.2,0.4-1,0.4-1.6
			c0.2-1.9,0.6-3.8,1-5.6C2401.5-1701,2401.4-1701.4,2401.4-1701.7z"/>
		<path id="Path_536" class="st0" d="M2384.7-1812.7c-0.2-0.4-0.4-1-0.6-1.4c-0.5-0.9-1-1.7-1.6-2.4c-0.4-1-0.8-2-1-3
			c0-0.6-1.2-5.2,0-5c0.4,0,0.4,0.6,0.6,0.8c1,0.8,1.6,2,2.6,2.8c1.2,0.9,2.7,1.6,4.2,1.8c-0.4-0.6-1-1.2-1.4-1.8
			c-0.2-0.6-0.2-1-0.4-1.6c-0.4-1.2-1.6-1.8-2-3c-0.4-1-0.8-2.1-1-3.2c-0.5-1.6-0.5-3.4,0.2-5c0.3-1.2,0.5-2.5,0.4-3.8
			c0-0.6-0.4-2.4,0.4-2.6c0.8-0.2,2,2.8,2.2,3.4c0.2,0.5,0.5,0.8,1,1c0.1-1.4,0.3-2.7,0.6-4c0.2-1.4,0.2-2.8,0.2-4.2
			c0-0.8,0-1.6,0.2-2.4c0.8-2.2,2,1.6,2.2,2.2c0.2,0.2,0.2,1,0.4,1.2s0.5,0.5,0.8,0.6l1.8-3.6c1-1.8,0.8-3.8,1.2-5.8
			c0-0.2,0.4-0.8,0.6-0.4c0.6,0.4,0.6,1.2,0.8,1.8c0,2,2,4,3,5.8c0.4,0.8,0.8,1.5,1.2,2.2c0.3-0.5,0.5-1.1,0.6-1.6
			c0.8-1.2-0.4-5.2,1.4-5.4c1.2-0.2,0.8,2.8,0.8,3.6c-0.2,1.5-0.2,3.1,0.2,4.6c0.4,2.2,1.8,4.6,1.8,7.1c-0.1,0.5,0.2,1.1,0.6,1.4
			c0.2,0,1.6-0.8,1.8-0.8l1.8-0.6c1.2-0.4,2.1-1.3,2.6-2.4c0.2-0.4,0.2-2.4,1-2.2c0.8,0.2,0.2,2.2,0.2,2.8v3.6
			c-0.1,1.2-0.3,2.4-0.6,3.6c-0.1,1.2-0.5,2.4-1.2,3.4c-0.2,0.2-1.4,2-1.8,1.6c-0.2-0.3-0.2-0.7,0-1c-0.2-0.2,0.4-0.4,0.6-0.6
			c0-0.2,0-0.4,0.4-0.6c0.2,0,0.2-0.4,0.4-0.4c0.8-0.8,0.8-2,1-3c0.3-1,0.5-2,0.6-3c0-0.9,0-1.9,0.2-2.8c0,0-0.2-0.8-0.2-0.6
			c0,0.2,0,0.2-0.2,0.2c-0.2,0.3-0.4,0.6-0.6,0.8c-0.4,0.2-0.7,0.6-1,1c-0.2,0.4-0.8,0.4-1.2,0.4c-0.8,0.2-1.6,0.8-2.4,1
			c-0.4,0.2-0.9,0.5-1.2,0.8c-0.2,0.2-1.8,2.6-2,2.8c-0.4,0.3-0.7,0.7-0.8,1.2c0.4,0.2,0.4,0.8,0.6,1.2c0.4-0.2,0.8-1.2,1.2-1.2
			c0.8-0.2-0.2,1-0.4,1.2s-0.6,0.4-0.8,0.8c-0.2,0.2,0,0.2,0,0.6s-0.2,1.2,0.2,1.4c0.7-1.2,1.3-2.6,1.6-4c0.2-0.6,0.4-1,0.6-1.6
			c0.2-0.4,0.2-1,0.4-1.6c0.2-0.2,0.4-0.8,0.6-0.8c0.4,0,0.8,0.8,0.8,1.2c0,0.4,0.2,0.6,0.2,1c0,0.2,0,0.8,0.2,1
			c0.2,0,0.4-0.2,0.6-0.4c0.4-0.4,0.6-1,1.2-1.2c0,0.8-0.8,1.4-1.4,2c-0.8,0.6,0,1-0.2,1.6c0.8-0.5,1.3-1.3,1.4-2.2
			c0.2,0,0.4-0.6,0.6-0.4c0.4,0.2,0.2,0.4,0,0.6c-0.2,0.5-0.5,1-0.8,1.4c-0.2,0.4-0.4,0.4-0.4,0.8c0,0.2-0.4,0.2-0.6,0.4
			c-0.2,0.3-0.2,0.7,0,1c0.2,0.9,0.4,1.9,0.4,2.8c0,0.4,0,0.8,0.2,1.2c0.2,0.4,0.6,0.2,1,0c0.8-0.5,1.5-1,2.2-1.6
			c0.9-0.5,1.7-1.1,2.4-1.8c0.8-0.6,1.5-1.3,2.2-2c0.5-0.5,0.7-1.1,0.6-1.8c0.2-0.8,0.8,0,0.8,0.4c0.2,1.6-0.4,3.4-0.6,5
			c0,1.5,0,3.1,0.2,4.6c-0.3,1.3-0.9,2.6-1.8,3.6c-0.6,0.7-1.1,1.4-1.6,2.2c-0.4,0.6-0.8,0.8-0.8,1.6c0,0.4-0.4,2.2,0.2,2.4
			c0.4,0.2,1.2-0.2,1.4-0.2l1.8-0.6c0.4-0.2,0.6-0.4,1-0.6c0.5-0.2,0.9-0.4,1.4-0.6c0.4-0.2,1.2-1,1.6-0.4c0.2,0.4,0,1,0,1.6
			c-0.2,1.7-0.6,3.3-1.4,4.8c-0.8,1-1.6,1.8-2.6,2.6c-0.8,0.9-1.7,1.7-2.6,2.4c-1.3,1-2.7,1.9-4.2,2.6c-0.2,0.2-1.4,0.6-1.2,1
			c0.2,0.8,0,2,0.4,2.8c-0.4-0.4,6.6-5.2,7.5-5.6c0.4-0.4,0.8-0.6,1.2-1c0.6-0.6,2-2.2,2.8-1.8c0.4,0.2,0.6,0.2,0.6,0.8
			c0,0.4-0.2,0.6-0.2,0.8c-0.2,0.8-0.4,1.8-0.6,2.6c-0.4,1.7-0.9,3.4-1.6,5c-0.6,2.2-1,5-2.6,6.8c-0.6,0.6-1.8,1.2-1.8,2.2
			c0,0.8,0.2,1.5,0.4,2.2c0,1.2,0.6,3.2,0.2,4.4c-0.4,0.9-1,1.7-1.6,2.4c-0.8,1.4-2,2.6-2.8,4c-0.3,0.8-0.5,1.7-0.6,2.6
			c-0.2,0.8-0.4,1.8-0.6,2.6c-0.4,1-0.4,1.8-0.8,2.6c0,0.2-0.2,0.6-0.2,0.8l-1.2,2.4c-0.8,1.8-1.4,3.6-2,5.4c-0.8,2-1.3,4.1-1.4,6.2
			c0.5-0.5,1-1,1.4-1.6c0.2-0.6,0.6-0.8,1-1.4c0.8-1.4,1.6-2.6,2.4-3.8c0.2-0.2,0.2-0.6,0.4-0.8c0.2-0.2,0.4-0.4,0.4-0.6
			c0.2-0.4,0.6-0.8,0.8-1.2c0.4-1,1-2,1.6-2.8c0.6-1,1.2-2.2,1.8-3.4c0.4-0.8,0.8-1.5,1.2-2.2c0.2-0.4,0.2-1,0.4-1.6
			c0.2-0.2,0.2-0.2,0.2-0.6c0-0.2,0-0.4,0.2-0.6c0.2-0.6,0.6-1.2,0.8-1.8c0.2-0.6,0.5-1.1,0.8-1.6c0.2-0.2,0.2-0.4,0.4-0.4
			c0-0.2,0-0.2,0.2-0.4c0.4-0.2,0.4-0.8,0.6-1.2c0.2-0.4,0.4-0.8,0.4-1.2c0.6-2.2,2-4,3.2-5.8c0.4-0.7,0.9-1.4,1.4-2
			c0.2-0.2,0.4-0.2,0.6-0.6c0.2-0.4,0.4-0.8,0.8-1c0.8-0.8,1.2-1.8,2-2.6c0.7-0.8,1.4-1.5,2.2-2.2c0.4-0.4,1-0.8,1.2-1.2
			s0.6-0.2,0.6-0.6c0-0.3,0.2-0.6,0.4-0.8c0.2-0.2,0.8,0.2,0.8,0.6c-0.2,0.4-0.6,0.8-0.8,1.2c-0.4,0.6-0.6,1-1,1.6
			c-0.6,1-1.2,2.2-1.8,3.4c-1.2,2.4-2.2,5-3.4,7.5s-2.6,4.8-3.8,7.3s-2.2,5-3.2,7.6c-1.6,4.4-4,8.7-5,13.1c-0.8,3.8-1.2,7.9-2,11.7
			c-0.8,3.4-2.6,6.4-4,9.5c-1.3,2.5-2.5,5.2-3.4,7.9c-1.6,4.4-1,9.3-1,13.7c0,3.2,0.4,6.4,0,9.9l-0.6,4.8c-0.2,1.4,0,3.2-0.4,4.6
			c-0.8-1-0.6-2.8-0.4-3.8c0.4-4.8,0.4-9.9,0.4-14.7c0-3.2-0.8-6.4-0.4-9.7c0.5-3.3,1.6-6.4,3.2-9.3c0.8-1.6,1.6-3.2,2.2-4.8
			c0.6-1.6,1.4-3,2-4.6c0.9-1.7,1.5-3.5,1.8-5.4c0.2-2.2,0.6-4.2,1-6.4c0.2-1.2,0.4-2.4,0.6-3.4c0.4-1.2,0.6-2.4,1-3.8
			c0.6-1.4,1.2-2.6,1.8-4c0.2-0.6,0.5-1.2,0.8-1.8c0.2-0.2,0.2-0.4,0.4-0.6c-0.2-0.2,0-0.4,0-0.6c0.4-1.2,0.8-2.2,1.2-3.4
			c1-2.4,2-4.6,3-7.1c0.5-1.2,1.1-2.3,1.8-3.4c0.2-0.2,0.3-0.4,0.4-0.6c0.2-0.2,0.2-0.6,0.4-0.8c0.2-0.4,0.4-0.2,0.4-0.8
			c0.1-0.7,0.4-1.3,0.8-1.8c0.4-0.6,0.6-1,1-1.6c0.7-1,1.2-2.1,1.4-3.2c0.2-0.6,0.6-1,0.8-1.6c0.2-0.4,0.4-1,0.6-1.4
			c0.2-0.4,0.6-0.8,0.8-1.2c0-0.2,0-0.8,0.2-1c-2.6,2-4,5-6,7.5c-0.6,1-1.6,1.8-2.2,2.8c-0.4,0.8-0.8,1.6-1.2,2.6
			c-0.4,1.2-1,2.4-1.4,3.4c-0.4,0.7-0.8,1.4-1,2.2c-0.2,0.4-0.4,1-0.6,1.4c0,0.2,0,0.4-0.2,0.6c0,0.1-0.1,0.2-0.2,0.2
			c-0.3,1-0.7,2.1-1.2,3c-0.8,1.6-1.6,3-2.4,4.6c-0.6,1-1.2,2-1.8,3.2l-1.8,3c-0.6,0.8-1.1,1.7-1.6,2.6c-0.6,0.8-1,1.6-1.6,2.4
			c-0.4,0.6-1,1.2-1.4,1.8c-0.2,0.4-0.6,0.8-1,1.4c-0.2,0.4-0.6,0.8-0.6,1.2c-0.3,0.6-0.6,1.1-1,1.6c-0.4,0.7-0.9,1.4-1.4,2
			c-1.6,2.2-2.2,5-2.6,7.7c-0.4,1.9-0.8,3.7-1,5.6c-0.3,3.8-0.5,7.6-0.4,11.5c0,3-0.8,5.8-1.2,8.7c-0.4,3.5-0.6,7-0.6,10.5
			c0,0.7-0.2,1.4-0.4,2c0.2,1.4-0.4,2.2-0.4,0.8c0-1.4,0.2-2.8,0.4-4.2c0-1.7,0-3.4,0.2-5c0.4-3.6,1.4-7.3,1.6-10.9
			c0.2-5.4-0.4-10.7,0.2-16.1c0.2-2.8,0.8-5.6,0.6-8.5c0-1.5,0-3.1,0.2-4.6c0.1-1.4-0.1-2.8-0.4-4.2c-0.2-0.8-0.2-1.6-0.4-2.4
			c-1-2.4-2-5-2.8-7.7c-0.4-1.2-1-2.4-1.4-3.6c-0.6-1.9-1-3.7-1.4-5.6c-0.2-1.9-0.2-3.9-0.2-5.8c-0.2-1.6-0.9-3.2-2-4.4
			c-1.6-1.8-3.4-3.2-4.6-5.2c-0.8-1.2-1.4-2.8-2.2-4.2c-0.8-1.3-1.5-2.6-2-4c-0.2-0.6,0-1,0.6-0.6c0.6,0.6,1.1,1.3,1.4,2
			c1,1.6,4,2.2,5.6,2.4c0-0.6-0.8-1-1.2-1.4c-0.5-0.5-1-1.1-1.2-1.8c-0.7-1.5-1.3-3-1.6-4.6c-0.5-2.5-1.3-4.9-2.2-7.3
			c-0.2-0.4,0.2-1,0.6-0.6c0.4,0.4,0.4,0.8,1,1s0.6,0.8,1.2,1c0.4,0.2,2.2,1.8,2.6,1.4c-0.6-0.4-0.6-0.6-0.6-0.8
			c-0.2-0.2-0.2,0-0.4-0.4c-0.3-1.4-0.9-2.8-1.6-4c-1.4-2.2-3.4-3.4-4.4-5.8c-0.6-1.2-1.2-2.5-1.6-3.8c-0.3-0.7-0.5-1.5-0.6-2.2
			c0.2-2,2.6,1.2,3,1.6c1.2,1.2,2.8,1.6,4,2.6c0-0.2-0.2-0.2,0,0C2385.5-1811.7,2384.9-1812.3,2384.7-1812.7z M2401.6-1838.6
			c0.6,0.4,0.2,1.2-0.2,1.6c0,0.3-0.2,0.6-0.4,0.8c-0.2,0.2-0.4,0.5-0.4,0.8c-0.2,0.6-0.4,1.3-0.4,2c0.2-0.4,0.4-0.8,0.8-1
			c0.2,0.2,0.2,1,0,1c-0.2,0.2-0.6,0-0.8,0c0.2,0.4,0.4,1,1,1.2c0-0.4,0.4-0.8,0.4-1.2c0-0.2,0.2-0.4,0.2-0.6c0-0.3,0.2-0.6,0.4-0.8
			c0.4-0.2,0.2,0.8,0.2,1c-0.2,0.4-0.4,1-0.6,1.4c0,0.2-0.4,0.6-0.4,0.8c0.2,0.8,0.8,0.6,1,0c0.4-0.8,0.6-1.8,1-2.6
			c0.2-0.8,0.8-0.4,0.6,0.2s-0.2,1.2-0.4,1.6c0,0.1-0.1,0.2-0.2,0.2l0,0v0.4c-0.2,0.6-1,1.4-0.4,2c0.4-0.4,0.4-1,0.8-1.4
			c0.4-0.4,0.4-1.4,0.6-1.8c0.2-0.6,0.4-1.3,0.4-2c0-0.6-0.6-1.2,0.2-1.2c0,0-0.4-1.4-0.4-1.6c-0.2-0.6-0.4-1.2-0.6-2
			c-0.2-1-0.4-1.8-0.6-2.8c-0.1-0.9-0.1-1.9,0-2.8c-0.2,0-0.4,1.2-0.4,1.4c-0.1,0.6-0.3,1.1-0.6,1.6c-0.6,1-1.2,2-1.8,3.2
			c-0.4,0.7-0.6,1.4-0.8,2.2c0,0.4-0.2,0.8-0.4,1.2c-0.2,0.2-0.4,0-0.2,0.4c0,0.3,0.1,0.7,0.2,1c0.4-0.2,0.4-1,0.6-1.4
			c0-0.2,0.2-0.4,0.4-0.4s0.4,0.4,0.4,0l0,0C2401-1837,2401-1838,2401.6-1838.6z M2398.6-1846.1c-0.4-0.8-0.9-1.5-1.4-2.2
			c-0.2-0.2-0.2-0.6-0.6-0.6c-0.4,0-0.4,0.4-0.4,0.8c-0.2,0.6-0.4,1.4-0.6,2c-0.2,0.6-0.6,1.2-0.8,1.8c-0.2,0.5-0.4,1.1-0.6,1.6
			c-0.2,0.4-0.4,0.8-0.4,1.2c0,0.8,0.6,1,0.8,1.6c0,0.4,0.6,0.4,0.6,1c0.4-0.4,0-1-0.2-1.4c0-0.2,0-0.6,0.4-0.4
			c0.2,0.2,0.2,0.4,0.2,0.6s0.2,0.4,0.4,0.6v1c0,0.2,0.2,0.6,0.2,0.8c0,0.3,0.1,0.6,0.2,0.8c0.4-0.4,0.4-1.4,0.4-2
			c0-0.2,0.2-0.6-0.2-0.6c-0.2,0-0.4,0-0.2-0.4c-0.1-0.7-0.1-1.3,0-2c0-0.4,0.6-1,0.6-0.4v1.8c0,0.6,0,0.6,0.4,0.6
			c0.4,0.2,0.6,0.2,0.6,0.6c0.2,0.6,0.2,1,0.4,1.6c0,0.2,0.1,0.4,0.2,0.6c0.2,0.2,0,0.4,0.2,0.6c0.2-0.2,0.2-0.6,0.4-1
			c0-0.2,0.2-0.4,0.4-0.6c-0.4-0.4,0-1,0.2-1.4s0.8-1,0.8-1.6v-1c0,0-0.6-1.6-1-2.4C2399.2-1845,2398.9-1845.5,2398.6-1846.1z
			 M2390.1-1845.1c-0.2,0.2-0.2,1-0.2,1.2v3.8c-0.4,1.2-0.7,2.5-0.8,3.8c0,0.8,0,1.6,0.2,2.4l0.6,0.6c0.2,0.2,0.4,0.6,0.8,0.6
			c0.2,0-0.2-2.4-0.2-2.6c0.6,0,0.4,0.6,0.6,1l0.6,1.8c0.2,0.2,0.2,0.5,0.2,0.8c0.2,0.2,0.4,0.2,0.6,0.4c0.2,0.2,0,0.4,0.2,0.4
			c0.2,0.2,0.2-0.2,0.4,0.2c0.2,0.2,0.8,1.4,0.8,0.4c0-0.2-0.2-0.4-0.4-0.6c-0.4-0.2-0.4-0.4-0.4-0.8c-0.5-1.2-0.7-2.4-0.8-3.6
			c0.6,0,0.6,1.4,0.8,1.8c0.2,0.9,0.6,1.8,1,2.6c1.4-1.2,0.2-3.4-0.2-4.6c1-0.2,0.6,1.8,1.4,2c0-0.6,0.2-1.2,0.4-1.8
			c0.1-0.7-0.1-1.5-0.6-2c-0.4-0.8-0.9-1.7-1.4-2.4c-0.5-0.8-1-1.5-1.6-2.2c-0.3-0.4-0.6-0.9-0.8-1.4c-0.2-0.2,0-0.2-0.2-0.4
			c-0.2-0.2,0-0.2,0-0.4l0,0C2391-1844.3,2390.5-1845.5,2390.1-1845.1z M2385.7-1838c0,0-0.4,1.8-0.4,2c-0.2,0.8-0.2,1.6-0.2,2.4
			c-0.3,1.1-0.5,2.3-0.4,3.4c0.1,0.9,0.4,1.8,0.8,2.6c0.2,0.6,0.6,1.2,0.8,1.8c0.2,0.4,0.4,0.8,0.8,1c0.2-0.4,0-0.8,0-1.2
			c0-0.4-0.2-1-0.2-1.4c-0.2-0.5-0.3-0.9-0.4-1.4c-0.2-0.6,0.6-0.4,1-0.2c0.4,0.2,0.7,0.6,0.8,1c0.2,0.4,0.6,0.4,0.8,0.8
			c0.6,0.4,0.8,1.2,1.6,1.4c0-0.4-0.2-1,0-1.4s0.6,0.4,0.6,0.6c0,0.4,0.4,0.8,0.4,1.4c0,0.4,0.6,0.6,0.6,1c0.4-0.4,0-1.2-0.2-1.6
			c-0.2-0.5-0.2-1.1-0.2-1.6c0.6,0.2,0.6,0.8,0.6,1.2c0.3,0.4,0.4,0.9,0.4,1.4c0.3-0.8,0.3-1.6,0-2.4c0-0.2-0.6-1.8,0.2-1.2
			c0.2,0.2,0,0.6,0.4,0.8h0.2c0.4-0.6-0.2-1.2-0.4-1.8c-0.1-0.4-0.4-0.8-0.8-1c-0.8-0.6-1.6-1.2-2.2-2c-1.4-1.4-2.5-2.9-3.4-4.6v0.2
			l0,0C2386.3-1837,2386.1-1837.6,2385.7-1838z M2398.4-1834.8c-0.2-0.6-0.5-1.1-0.8-1.6c-0.2-0.4-0.2-1.2-0.6-0.4
			c-0.6,1.6-1.2,3.2-1.6,4.8c-0.6,1.6-1.4,3.2-1.2,5l0.6,3c0.2,0.8,0,1.8,0.2,2.6c0.2,0.3,0.2,0.7,0.2,1c0.2,0.2,0.4,0.2,0.6,0.4
			c0.2,0.3,0.4,0.5,0.6,0.8c0.3-0.7,0.3-1.5,0-2.2c1,0.2,0.4,2,0.8,2.6c0.6,0,0.4-1,0.4-1.2s-0.1-0.3-0.2-0.4c0-0.3,0.2-0.6,0.4-0.8
			c0.6,0.2,0.4,0.8,0.2,1.2c0,0.6,0.2,1.4,0,1.8c0.4,0,0.6,0.2,1,0.2c0.2-0.3,0.3-0.7,0.2-1c0-0.4,0-1.8,0.6-1.8s0.2,1.4,0.2,1.6
			c0,0.4-0.2,0.6-0.2,1c0.4,0,0.6,0.2,1,0.2c-0.2-0.8,0.4-1.6,0.6-2.6c0.2-0.9,0.2-1.7,0.2-2.6c0.2-1-0.2-2,0-2.8
			c0.6,0,0.4,0.8,0.6,1.2c0.1,1.6-0.1,3.2-0.4,4.8c0,0.3-0.1,0.7-0.2,1c0,0.2,0.2,0.4,0.4,0.2c0.2-0.2,0-0.4,0.4-0.6
			c0.2-0.2,0.2-0.4,0.4-0.6c0.2-0.5,0.4-0.9,0.6-1.4c0.2-0.6,0-1.2,0.2-1.6c0-1.1-0.2-2.2-0.6-3.2c-0.5-1-1.1-1.9-1.8-2.8
			c-0.4-1-1-2-1.6-3.2c-0.3-1-0.7-1.9-1.2-2.8l0,0L2398.4-1834.8L2398.4-1834.8z M2405.3-1832.8c0.2-0.2,0-1,0-1.2
			c-0.4,0.8-0.4,1.8-0.8,2.6c0,0.1-0.1,0.2-0.2,0.2l0,0v0.6c0,0.4-0.4,0.6-0.6,0.8c0,0.4,1-1.6,1.2-1.6c0.2-0.2,0.2-0.2,0.2-0.4
			c0-0.4,0.2-0.2,0.4-0.4c-0.2-0.1-0.3-0.3-0.3-0.5C2405.2-1832.7,2405.2-1832.8,2405.3-1832.8
			C2405.5-1833,2405.3-1832.6,2405.3-1832.8z M2408.1-1830.8v0.4c-0.1,0.3-0.2,0.7-0.2,1c-0.2,1-0.6,1.8-0.8,2.6
			c-0.2,0.7-0.5,1.4-0.8,2c-1.1,2.9-2.6,5.7-4.4,8.3c-0.9,1-1.6,2.2-2,3.4c-0.2,1.4-1,5.8-1,6.2c0,0.4,1,1,1.2,1.4
			c0.6,0.6,1.1,1.3,1.6,2c-0.2-0.4,2-2.2,2.2-2.4c0.4-0.6,0.4-1.2,0.8-1.6c0.7-0.7,1.4-1.4,2.2-2c0.7-0.7,1.3-1.4,1.8-2.2
			c1.6-2,1.4-4.2,1.2-6.8c-0.2-2.8-0.4-5.6-0.8-8.5c-0.2-0.7-0.2-1.3-0.2-2c0-0.3,0-0.7-0.2-1c0-0.2-0.2-0.4-0.2-0.6l0,0
			C2408.3-1830.6,2408.1-1831,2408.1-1830.8z M2388.7-1826.4c-0.2-0.2-1-1.4-1-0.4c0.2,0.6,0,1.6,0.2,2.2s0.2,1.2,0.2,1.8
			c0,1.2,1,2,1.8,2.6c0.3,0.4,0.5,0.9,0.4,1.4c-0.1,0.3,0,0.7,0.2,1c0,0.2,0.4,0.4,0.6,0.6c1,1.2,1.9,2.5,2.6,3.8
			c0.2,0.2,0.2,0.6,0.4,0.8c0.3,0.1,0.7,0.2,1,0.2c0.4,0,0.8,0.2,1.2,0.4c0.4,0.2,1.8,1,2,0c-0.9,0.1-1.8-0.1-2.6-0.6
			c0.4-0.2,0-0.4-0.2-0.6c-0.4-0.4,0-0.6,0.4-0.4c0.2,0.2,0.5,0.4,0.8,0.4s0.6,0,0.8,0.2s-0.6,0.4-0.6,0.6c0.6-0.2,1.2,0,1.8-0.2
			c0.4,0,0.2-1.6,0.2-2c0-0.2,0.2-0.4,0.4-0.6c0.2-0.4,0-0.4-0.4-0.6c-0.6-0.1-1.1-0.4-1.6-0.8c-0.2-0.2-0.5-0.5-0.8-0.6
			c0,0-0.4-0.6,0-0.4c0.2,0,0.4,0.2,0.6,0.4c0.2,0,0.4,0.2,0.6,0.2c0.4,0.4,0.8,0.2,1.2,0.6c0.4,0,0.4,0.6,0.8,0.4
			c0-1.4-1.2-1.6-2.2-2.2c-0.4-0.2-0.2-0.4-0.6-0.4c-0.3,0-0.6-0.2-0.8-0.4c-0.4-0.4-0.8-0.4-1.2-1s-0.9-1.1-1.4-1.6
			c-0.2-0.2-0.4-0.2-0.6-0.6c0-0.2-0.2-0.4-0.4-0.6s-0.2-0.4-0.4-0.6l-0.6-0.6c-0.5-0.4-1-0.9-1.4-1.4c-1-0.4,0.6,1,0,0
			C2389.5-1825.4,2389-1825.8,2388.7-1826.4z M2394.4-1822.1c-0.3-1.1-0.5-2.1-0.6-3.2c-0.4,0.4,0.4,1.8-0.4,2
			c-0.6,0.2,0.6,1.6,1,1.8C2394.2-1821.7,2394-1821.9,2394.4-1822.1C2394-1823.1,2394-1821.9,2394.4-1822.1L2394.4-1822.1z
			 M2418.5-1824.1c-0.4-0.2-0.8,0.8-1.2,1.2c-0.4,0.6-1,1.1-1.6,1.4c-1.1,1-2.3,1.8-3.6,2.4c-0.4,0.2-0.6,0.6-1,0.6
			c-0.2,0-0.8-0.2-0.8,0c-0.2,0.2,0,0.4,0,0.6v3.2c0.4,0,0.8-0.2,1.2-0.2c0.6,0,0.2,0.4-0.2,0.6c-0.3,0-0.6,0-0.8,0.2
			c0,0.4-0.2,0.8-0.2,1.2c0.5,0,1-0.1,1.4-0.4c0.6-0.2,0.8-0.4,0.8-1c-0.1-0.9,0.3-1.8,1-2.4c0.2-0.2,0.8-0.4,1,0s0.2,0.8,0.2,1.2
			v1.6c0.1,0.6,0.1,1.2,0,1.8c0.4-0.2,0.6-0.4,0.8-0.8c0.5-0.7,1-1.4,1.6-2c1.1-1.1,1.5-2.7,1.2-4.2c-0.2-0.9-0.2-1.9-0.2-2.8l0,0
			C2418.3-1822.7,2418.5-1823.4,2418.5-1824.1L2418.5-1824.1z M2393.2-1824.3c0-0.4-0.2,0.4-0.2,0.4
			C2393-1823.7,2393.2-1823.7,2393.2-1824.3L2393.2-1824.3z M2415.7-1822.5c-0.2-0.4-0.4,0.2-0.8,0.2
			C2415.1-1821.7,2415.5-1822.5,2415.7-1822.5L2415.7-1822.5z M2412.1-1820.1c0.8-0.3,1.5-0.7,2.2-1.2c0.8-0.6,0-0.6-0.2-0.2
			c-0.2,0.2-0.4,0.2-0.6,0.4c-0.4,0-0.2,0.2-0.6,0.4C2412.7-1820.5,2411.9-1820.5,2412.1-1820.1
			C2413.1-1820.5,2411.9-1820.5,2412.1-1820.1z M2383.7-1821.1c-0.3-0.3-0.6-0.6-0.8-1c0,0-0.4-1-0.6-0.6v2.6c0,0.4,0,2,0.4,2
			l0.4,0.8c0.2,0.2,0.4,0.5,0.4,0.8c0.2,0.6,0.8,1.2,1,1.8c0.4,0.8,0.8,1.4,1.2,2.2c0.6,1,1.6,2.2,2.8,2.2l-0.6-0.6
			c0-0.1-0.1-0.2-0.2-0.2l0,0c-0.4-0.2-0.6-0.2-0.8-0.6s-1-1.2-1-1.8c0.4,0,0.4,0.4,0.6,0.8s0.8,0.8,1,1s1.8,1.8,1.6,0.4
			c0-0.4-0.4-0.6-0.6-0.8c-0.2-0.4-0.5-0.7-0.8-1c-0.7-0.8-1.3-1.7-1.8-2.6c0.4-0.2,0.6,0.4,0.8,0.6c0.2,0.4,0.6,0.6,0.8,1
			c0.4,0.6,0.8,1.4,1.4,1.6c0-0.8-0.8-1.4-1.4-2c-0.2-0.2-1-1.4-0.6-1.6c0.2,0,1.2,1.2,1.4,1.4c0,0,0.4,0.6,0.6,0.6c0.2,0,0-1,0-1.2
			c-0.1-0.4,0-0.8,0.2-1.2c0.2-0.2,0.2-0.4,0.2-0.8c-0.1,0-0.2-0.1-0.2-0.2l0,0c0-0.4-1.6-1-2-1.2s-0.8-0.2-1.2-0.4
			c-0.4,0-0.4-0.4-0.8-0.6C2384.5-1820.1,2384.1-1820.5,2383.7-1821.1L2383.7-1821.1z M2410.9-1819.5
			C2410.5-1819.9,2410.5-1818.9,2410.9-1819.5z M2408.1-1803c0.6-0.4,0.6,0.4,1,0.4c-0.2-0.4,0.6-1.2,0.8-1.4
			c0.2-0.4,0.8-0.8,0.8-1.2c0-0.2,0.4-0.2,0.4-0.4c0-0.2,0-0.4,0.2-0.6c0.8-0.4,0.6,0.4,0.2,0.8c-0.6,0.9-1.3,1.7-2,2.4
			c-0.4,0.4-0.4,0.4-0.2,0.8c0,0.2,0.2,0.4,0.2,0.6c0.2,0.2,0.2,0.8,0.4,1.2c0.1-0.1,0.2-0.2,0.4-0.2c0.2-0.2,0-0.4,0.2-0.6
			s0.5-0.5,0.6-0.8c0.2-0.2,0.2-0.6,0.6-0.8c0.2-0.2,0.6,0,0.4,0.2c-0.1,0.3-0.4,0.6-0.6,0.8c0,0.4-0.4,0.4-0.6,0.6s-1,1.6-1.4,1.4
			c0,0.6,0.2,1.2,0.2,1.6c1.4-0.7,2.4-1.9,2.8-3.4c0.2-1.6,1-3,1.2-4.8c0.2-1.7,0.2-3.5,0.2-5.2c0-0.7,0-1.4-0.2-2
			c0-0.2,0.2-0.2,0.2-0.4v-0.6c0-0.4-0.2-0.8-0.2-1.2c-0.4,0.6-0.6,1.3-0.8,2l-0.6,1.8c-0.2,0.6-0.6,1.2-1,1.6c-0.4,0.5-0.7,1-1,1.6
			c-1.4,1.6-9.3,3.4-8.3,6.6c0.2,0.6,0.5,1.1,0.8,1.6s0.5,1,0.6,1.6c0,0.4,0.2,1,0,1.4c0,0.3-0.2,0.6-0.4,0.8c0,0.2,0,0.4-0.2,0.6
			c-0.2,0.4-0.6,0.4-0.6,0.8c0.4,0,0.6-0.2,1-0.2c0.6,0,0.4,0,0.8-0.4c0.5-0.7,1-1.3,1.6-1.8c0.2-0.2,0.2-0.6,0.4-0.8
			c0.1,0,0.2-0.1,0.2-0.2l0,0c0-0.2,0.2-0.2,0.2-0.4c0.2-0.5,0.5-1,0.8-1.4l0,0C2407.9-1801.2,2408.1-1802.1,2408.1-1803z
			 M2390.8-1815.7c0,0-0.4-0.6-0.4-0.4l-0.2,0.2c0,0.4,0.2,0.6,0,1c-0.4,1,0.2,2.6,0.2,3.6c0,1.3,0,2.7,0.2,4l0.6,6
			c0,0.6,0.4,2,1.2,2.2c0.2,1,1.8,1.8,2.6,2.2c0.8,0.3,1.6,0.5,2.4,0.6c0.4,0.2,0.9,0.2,1.4,0.2s1.1,0,1.6-0.2
			c0.6-0.2,1.2-0.2,1.8-0.4c1.2-0.8,0.4-3.2,0-4.4c-0.6-1.4-1.4-2.7-2.4-3.8c-0.7-0.8-1.5-1.5-2.4-2c-0.8-0.8-1.6-1.7-2.2-2.6
			c-0.7-0.9-1.3-1.9-1.8-3c-0.3-1-0.8-1.9-1.4-2.8l0.2,0.2l0,0C2391.6-1814.9,2391-1815.1,2390.8-1815.7z M2390.2-1797.6
			c0.4,0,0.4-0.4,0.6-0.6c0.2-0.4,0.2-0.8,0-1.2c-0.3-0.4-0.4-0.9-0.4-1.4c-0.2-1.2-0.4-2.6-0.6-3.8c-0.2-1,0-2.2-0.6-3.2
			c-0.6-0.9-1.4-1.6-2.4-2c-0.6-0.2-1-0.4-1.6-0.6c-0.7-0.4-1.4-0.9-2-1.4c-0.8-0.5-1.5-1-2.2-1.6c-0.2-0.2-0.6-0.8-1-0.8
			c0.1,1.7,0.7,3.3,1.8,4.6c0.3,0.6,0.6,1.1,1,1.6l1.8,1.8c0.3,0.3,0.6,0.6,0.8,1s0.6,0.4,0.8,0.8c0.2,0.8,0.6,1.5,1,2.2
			c0.3,0.4,0.4,0.9,0.4,1.4c0.2,0.5,0.6,1,1,1.4c0.2,0.2,1,0.8,1,1.2v-0.2C2389.3-1798.2,2389.7-1797.6,2390.2-1797.6L2390.2-1797.6
			z M2409.3-1811.1c0.2,0.2,0.8-0.2,1-0.2s0.3-0.1,0.4-0.2c0,0,0.4,0.2,0.2,0.2c0.6,0.4,0.8-1.2,1-1.6c-0.5,0.2-0.9,0.4-1.4,0.6
			c-0.6,0-0.4,0-0.6,0.4C2409.5-1811.7,2409.3-1811.5,2409.3-1811.1C2409.5-1810.8,2409.5-1811.5,2409.3-1811.1L2409.3-1811.1z
			 M2410.3-1810c0.2-0.4,0.6-0.4,0.6-1c-0.6,0.2-1,0.8-1.6,0.8c-0.2,0-0.4,0-0.6-0.2l-0.4,0.4c-0.2,0.2-0.4,0.6-0.6,0.8
			c0.2-0.2,0.6,0,1-0.2c0.2,0,0.2-0.2,0.6-0.2c0.2,0,0.4,0.4,0.6,0.2C2410.1-1809.6,2410.1-1809.8,2410.3-1810
			C2410.5-1810.4,2410.1-1809.8,2410.3-1810L2410.3-1810z M2394.4-1811.3c0.2,0.2,0.2,0.8,0.6,0.8
			C2395-1810.8,2394.8-1811.3,2394.4-1811.3z M2396-1810.9c-0.6,0.2-0.4,1.8,0.4,1.8C2396.2-1809.4,2396.4-1810.4,2396-1810.9
			L2396-1810.9z M2398.2-1808.4c0.6,0,0.2-1.4,0.4-1.8C2398-1810.2,2398.2-1808.8,2398.2-1808.4
			C2398.8-1808.4,2398.2-1809,2398.2-1808.4L2398.2-1808.4z M2419.6-1807.2c0.5-0.5,0.8-1,1-1.6c-0.6,0.1-1.2,0.3-1.8,0.6
			c-0.5,0.2-1.1,0.4-1.6,0.6c-0.6,0.2-1.3,0.4-2,0.4c0,0.4-0.2,1-0.2,1.4c0.6,0,1.2-0.2,2-0.2h0.8c0.8,0,0,0,0.4-0.2h0.4
			c0.2,0,0.2-0.2,0.2-0.4C2419.1-1806.7,2419.4-1806.9,2419.6-1807.2L2419.6-1807.2z M2408.1-1808.2c0.2-0.2,0.8,0,0.8-0.6
			c-0.4,0.2-0.8,0.2-1.2,0.2c-0.3,0-0.7,0.1-1,0.2c-0.2,0-0.4,0.6-0.6,0.6c-0.2,0.2-0.6,0.4-0.6,0.8
			C2406.4-1807.3,2407.3-1807.7,2408.1-1808.2C2408.3-1808.2,2407.9-1808,2408.1-1808.2z M2413.9-1799.8c0.2-0.2,0.6-0.4,0.8-0.6
			c0.4,0.6-0.4,0.8-0.8,1c-0.4,0.2-0.4,0.4-0.8,0.2c-0.2-0.2-0.4,0.4-0.6,0.4c-0.2,0.2-0.2,0.2-0.2,0.4c-0.2,0-0.2,0.2-0.4,0.2
			l-0.4,0.2v0.2c-0.4,0.4-1.2,0.4-1.2,1c0.8-0.4,2-0.8,2.6-1.2c0.4-0.2,0.8-0.4,1-0.8c0.4-0.6,1.2-1,1.6-1.6
			c0.2-0.4,0.6-0.4,0.8-0.8c0.2-0.2,0.2-0.2,0.2-0.4c0.2,0,0.2-0.2,0.4-0.2c0.6-0.4,1.2-1.2,1.8-1.6c0.4-0.2,0.8-0.6,1.2-0.8
			c0.2-0.2,0.2-0.5,0.2-0.8c0.2-0.2,0.2-0.6,0.4-0.8c0.2-0.6,0.4-1.3,0.4-2c-0.2,0-0.6,0.6-0.8,0.8l-0.8,0.8c0.2,0,0,0.2,0,0.4
			c-0.2,0-0.4,0-0.4,0.2c-0.2,0.2-0.6,0.2-0.8,0.4c-0.9,0.1-1.8,0.3-2.6,0.6c-0.4,0.2-0.8,0.2-0.8,0.6c0,0.2,0.2,0.6-0.2,0.6
			c0.4,0.4,1.2-0.6,1.2,0s-0.6,0.8-1,0.8s-0.4-0.2-0.4,0.2c0,0.2,0,0.4-0.2,0.6c0,0.4-0.1,0.7-0.4,1c0,0.2-0.2,0.4-0.2,0.6
			c0,0.3,0,0.6-0.2,0.8C2413.3-1799.2,2413.7-1799.6,2413.9-1799.8C2414.1-1800,2413.5-1799.6,2413.9-1799.8L2413.9-1799.8z
			 M2398-1807.6h-0.8C2397.4-1807.4,2398-1807,2398-1807.6z M2409.1-1800.6c0,0.4,0-0.2-0.2-0.2c0-0.2-0.2-0.2-0.2-0.4
			c-0.8,0.4-0.6,1.8-1,2.4c-0.7,1.1-1.6,2.1-2.4,3c-0.6,0.8-1.2,1.4-1.8,2.2c-0.8,1-1.5,2-2.2,3c-0.6,1.2-1,2.5-1.4,3.8
			c-0.6,1.1-1.1,2.4-1.4,3.6c-0.2,1.4-0.4,3.2,0.8,4.2c0.4,0.2,0.6,0.2,0.4-0.2c0-0.2-0.2-0.4,0-0.6c0-0.1,0.1-0.2,0.2-0.2
			c-0.1-0.5-0.1-1.1,0-1.6c0.4-1,0.8,0.2,1,0.8c0,0.7,0.2,1.3,0.6,1.8c0.2,0.3,0.2,0.7,0.2,1c0,0.4,0.4,0.6,0.4,1
			c0.6-0.8,0.6-1.8,1-2.6c0.2-0.4,0.4-0.8,0.8-1c0.6-0.4,0,0.6-0.2,0.6c-0.2,0.4-0.2,0.8-0.6,1.2c-0.2,0.4-0.2,1.2-0.4,1.6
			c0,0.2,0,0.4-0.2,0.6l-0.2,0.2c-0.2,0.4,0.2,0.6,0,1c0.3-1,0.7-1.9,1.2-2.8c0.6-0.7,1.3-1.3,2-1.8c0.7-0.6,1.4-1.2,2-1.8
			c0.4-0.4,1-0.8,1.2-1.4c0.8-1,1.2-2.2,1.4-3.4c0.2-2.4-0.6-5.2-1-7.7c0.2-0.7,0.2-1.3,0.2-2
			C2409.3-1797.6,2409.2-1799.1,2409.1-1800.6L2409.1-1800.6z M2414.7-1789.7c0.2-0.4,0.8-0.8,1-0.2c0.2,0.4,0.2,1,0,1.4
			c0,0.5,0,1,0.2,1.4c0.6-0.2,1-0.8,1.6-1.4c0.2,0.4,0,0.8-0.4,1.2c-0.2,0.2-0.4,0.2-0.4,0.4h-0.8v1.2c0,0.2,0.2,0.4,0,0.8
			c-0.2,0.2-0.2,0.6,0.2,0.6s0.2-0.2,0.4-0.4c0.2,0,0.2,0.2,0.4,0c0-0.2,0.2-0.2,0.2-0.4c0.2-0.2,0.2-0.4,0.4-0.8
			c0.5-0.3,0.7-0.8,0.8-1.4c0.2-0.6,0-1.4,0.4-1.8c0.4-0.6,0.2-1.2,0.4-1.8c0.6-1.3,1-2.7,1.4-4c0.2-0.6,0.2-1.2,0.4-1.8
			c0.3-0.7,0.5-1.5,0.6-2.2c-0.6,0.2-0.8,0.8-1.2,1.2c-0.4,0.4-0.7,0.8-1,1.2c-0.8,0.8-1.8,1.4-2.6,2.2c-0.4,0.4-0.8,0.7-1.2,1
			c-0.1,0.1-0.2,0.2-0.4,0.2c-0.2,0.2,0,0.4-0.2,0.4c-0.4,0.4-0.9,0.7-1.4,1c-0.6,0.2-1,0.6-1.6,0.8c-0.6,0.2-1.2,0.4-1.2,1
			c0,0.4,0.4,1,0.4,1.4v1.2c0,0.4,0,0.6-0.2,0.8c0,0.2,0.2,0.4,0.4,0.6c0.1,0.2,0.1,0.4-0.1,0.5c0,0-0.1,0-0.1,0.1
			c-0.4,0-0.4,0.2-0.4,0.4c0.4,0,0.8-0.2,1.2-0.2c0,0.6-0.8,0.6-0.8,1c-0.3,0-0.6,0-0.8-0.2c-0.4-0.2-0.2,0.2-0.4,0.4
			c-0.2,0.5-0.5,1-0.8,1.4c0.6,0.6,1.2-0.8,2-0.6c-0.2,0.4-0.6,0.6-0.8,0.8c-0.2,0.2-1,0.4-1,0.6c-0.4,0-0.6-0.4-1,0
			c-0.2,0.2-0.6,0.4-0.8,0.6s-0.4,0.6-0.8,0.6c-0.4,0.2-0.2,0.2-0.4,0.4c-0.4,0.6-1,0.8-1,1.6c0.8-0.2,1.4-1.2,2.2-1.2
			c0,0,0.2,0.4,0.2,0c0-0.2,0.4-0.2,0.4-0.2c0.4,0,0.2-0.2,0.6-0.4c0.2-0.2,0.4-0.2,0.6-0.4c-0.2-0.4-0.6,0.2-1,0.2
			c-0.4,0.5-1,0.7-1.6,0.6c0.4-0.6,1.2-0.6,1.8-1c0.4-0.2,1.4-1.2,1.8-0.6c0,0-0.4,0.2-0.4,0.4c0,0,0.6,0,0.6-0.2
			c0.2-0.2,0.4-0.8,0.6-1c0.5-0.7,0.9-1.4,1.2-2.2c0.2-0.4,0.4-0.6,0.4-1c0.2-0.4,0.4-0.9,0.4-1.4c0.2-0.6,0.2-1.2,0.6-1.6
			C2414.5-1788.9,2414.7-1789.1,2414.7-1789.7C2414.9-1789.9,2414.7-1789.1,2414.7-1789.7L2414.7-1789.7z M2387.5-1789.1l-0.6-1.2
			c0.6,0,0.8,0.4,1,1c0.2,0.4,0.6,0.8,0.6,1.2v0.6c0,0.4,0.2,0.4,0.4,0.6s0.2,0.6,0.6,0.6c0.4,0,0.6,0.4,0.8,0.6
			c0.3,0.1,0.7,0.2,1,0.2c0.6,0.2,1.4,0.6,2,0.8c0.2,0,2,0.4,2,0.6c-0.2-0.8-1.4-1.2-1.6-2c-0.2-0.8,0.6,0.2,0.6,0.2
			c0.2,0.2,0.4,0.6,0.8,0.6c-0.2,0.4,0.2,0.2,0.2,0.6c0.8,0.2,1.2,1,2.2,1c0.2-1,0.6-2,1-3c0.2-0.6,1.4-2,1-2.6
			c-0.2-0.4-0.4-1-0.6-1.4c-0.7-0.8-1.5-1.6-2.4-2.2c-1.4-0.8-2.8-1.4-4.2-2c-1.5-0.8-3.2-1.4-4.8-1.8c-0.7-0.3-1.4-0.6-2-1
			c-0.4-0.2-1.8-2-2.4-1.4c-0.2,0.4,0.4,1.6,0.6,2c0.3,0.9,0.5,1.9,0.6,2.8c0.2,0.4,0.2,0.6,0.4,1s0,0.8,0.2,1.2
			c0.3,1.1,0.8,2,1.6,2.8l0,0C2387.1-1789.5,2387.1-1789.1,2387.5-1789.1L2387.5-1789.1z M2419-1797c0.4,0,0.8-0.6,0.8-1
			c-0.9,0.4-1.7,1-2.4,1.6c-0.2,0.2-0.8,0.8-1,0.8s-0.6,0.4-0.8,0.6c-0.8,0.7-1.7,1.4-2.6,2c-0.4,0.2-0.4,0.6-0.8,0.8
			c-0.4,0.2-0.6,0.6-1,0.8c0.4,0.4,0.8-0.2,1.2-0.4c0.4-0.1,0.7-0.3,1-0.6c0.2-0.2,0.4-0.2,0.6-0.2l0.4-0.4l0.8-0.8
			c0.8-0.6,1.6-1.2,2.2-2C2417.7-1795.9,2418.5-1796.9,2419-1797L2419-1797z M2393.4-1796.4c0.2,0.2,0.4,0.4,0.6,0.4
			C2394-1796.1,2393.6-1796.1,2393.4-1796.4L2393.4-1796.4z M2401.6-1794.9c-0.6,0-0.2,0.6-0.4,1.2
			C2401.4-1794.1,2401.4-1794.5,2401.6-1794.9L2401.6-1794.9z M2396-1794.9c0.2,0.4,0.7,0.7,1.2,0.6
			C2397.2-1795.1,2396.2-1794.7,2396-1794.9L2396-1794.9z M2400.2-1792.5c0.2-0.8,0.2-1.4,0.4-2.2c-0.4,0-0.4,1-0.4,1.4
			c-0.2,0.6-0.2,1.2,0,1.8C2400.4-1791.7,2400.2-1792.1,2400.2-1792.5C2400.4-1792.9,2400.2-1792.1,2400.2-1792.5L2400.2-1792.5z
			 M2399.4-1792.5c0-0.6,0.2-1,0.2-1.6c0.2-0.6-0.2-0.6-0.4-0.2C2399-1793.7,2398.6-1792.5,2399.4-1792.5
			C2399.2-1793.3,2398.6-1792.5,2399.4-1792.5L2399.4-1792.5z M2398.6-1794.5c-0.4-0.4-1.2-0.2-1,0.4c0,0.4,0.4,0.4,0.6,0.8
			C2398.4-1793.7,2398.6-1794.1,2398.6-1794.5C2398.4-1794.7,2398.6-1793.9,2398.6-1794.5L2398.6-1794.5z M2400.6-1791.3
			C2400-1791.3,2400.8-1790.5,2400.6-1791.3z M2415.1-1784.1c0-0.2,0.2-3-0.2-3c0,0-1.2,3.2-1.4,3.6c-0.4,0.8-0.9,1.7-1.4,2.4
			c-0.2,0.4-0.2,0.8-0.4,1.2c-0.4,0.7-0.9,1.3-1.4,1.8c-1.7,1.4-3.5,2.7-5.4,3.6c-0.5,0.2-1,0.7-1.2,1.2c-0.2,0.4-0.6,0.6-0.4,1
			c0,0.6,0.6,1,0.8,1.6s0.6,1.2,0.8,1.8c0.6,1.2,1,2.6,1.6,3.8c-0.2-0.4,2-1.8,2.4-2v-0.2c0.6,0,1.2-1.2,1.6-1.4
			c0.6-0.3,1-0.7,1.4-1.2c1.2-1.8,3-3.4,3.6-5.6c0.2-0.9,0.2-1.8,0-2.6c-0.2-1.1-0.2-2.1-0.2-3.2c0-1-0.2-1.9-0.4-2.8
			C2415.1-1784.3,2415.1-1784.3,2415.1-1784.1L2415.1-1784.1z M2396-1771c0,0.4,0,0.8-0.4,0.4c-0.2-0.2-0.2-0.4-0.4-0.8
			c0-0.2-0.4-0.4-0.4,0s0.6,1,0.6,1.4s0.2,0.2,0.2,0.6c0,0.2,0,0.4,0.2,0.6c0.4,0.4,0.4-0.6,0.4-0.8c0.2-0.4,0.2-1,0.4-1.4
			c0.2-0.6,0-1.6,0.4-2.2s0.6-1.4,1-2c0.4-0.8,1-1.4,1.4-2.2l-1.2-1.2c-0.8-0.8-1.4-1.8-2.2-2.6c-1.1-1.4-2.6-2.5-4.2-3.2
			c-2-0.8-4-1-6-1.6c-0.5-0.2-1.1-0.4-1.6-0.6c-0.2,0-1.2-0.6-1.2-0.4s0.2,0.2,0.4,0.4c0.6,1.5,1.4,3,2.2,4.4c0.9,1.6,2.1,3,3.4,4.2
			c1.4,1.2,2.8,2.4,4.2,3.8c0.2,0.2,0.4,0.8,0.6,1c0.2,0.2,0.8,0.2,1,0.4c0.2,0.2,0,0.4,0.4,0.6l0.4,0.4c0.4,0.6-0.2-0.2,0,0
			L2396-1771z M2397.8-1782.9c-0.6-0.6-1.6-0.4-2.4-0.6c0.6,1,1.4,1.8,2.4,2.4V-1782.9C2397.4-1783.5,2397.8-1782.2,2397.8-1782.9
			L2397.8-1782.9z M2410.1-1780.2c0,0.4,0.4-0.2,0.4-0.2C2410.3-1780.4,2410.2-1780.3,2410.1-1780.2z M2408.9-1778
			c0-0.2,0-0.4,0.2-0.4c0-0.4-1.4,0.4-1.6,0.6c-0.2,0.2-1.8,0.6-1.8,0.8l-0.8,0.6c-0.4,0.2-0.2,0.2-0.4,0.6c0,0.2-0.2,0.4-0.2,0.6
			c0.8-0.4,1.4-1.4,2.4-1.6C2407.7-1777,2408.1-1777.8,2408.9-1778C2408.9-1778.2,2408.5-1777.8,2408.9-1778L2408.9-1778z
			 M2400.6-1778.6c-0.8-0.2-0.2,1.4-0.6,1.4c0,0,0,0.6-0.2,0.8c-0.2,0.4-0.6,0.6-0.8,1c-0.9,1.3-1.5,2.7-1.8,4.2v1
			c0,0.4-0.4,0.8-0.4,1.2c-0.4,2.4-1.2,4.8-0.8,7.5c0.2,1.4,0.6,2.6,0.8,4c0.2,0.8,0.4,1.5,0.8,2.2c0.2,0.4,0.2,0.8,0.4,1
			s0.2,0.4,0.4,0.6c0,0.4,0.8,2.6,1.2,2.6c-0.2-0.6,0-1.2-0.2-1.6c-0.2-0.2-0.2-0.6,0.2-0.6c0.6,0,0.6,1.6,0.6,2s0.2,1-0.2,1.2
			s-0.2,0.2,0,0.6c0.2,0.6,0.4,1.4,0.6,2c0,0.2,0.2,0.6,0.2,0.8c0,0.2,0.2,0,0.4,0c0,0.2,0.2,0.2,0.2,0.4c0.2,0,0.2-2,0.8-1.2
			c0.2,0.2,0,0.6,0,0.8c0,0.2,0.2,0.2,0.2,0.4c0,0.2-0.2,0.2,0,0.4v0.6c-0.2,0.4,0,0.6,0,1c-0.1,0.5-0.1,1.1,0,1.6
			c0,0.6-0.2,1-0.2,1.6c0.8-0.8,0.4-1.8,0.6-2.8c0-1,0.4-2.2,0-3.2c-0.2-0.5-0.2-0.9-0.2-1.4c0-0.4-0.2-0.8-0.2-1.2v-2.6
			c0-0.2,0.6-0.6,0.6-0.2v1.2c0,0.9,0,1.9,0.2,2.8c0.2,0.6,0.2,0.8,0.4,1.4v1.4c0,1.1,0,2.2-0.2,3.2c0.6,0,0.2-0.6,0.2-0.8
			c0-0.4,0.2-1,0.2-1.4c0.2-1-0.2-1.8,0.2-2.6c0.2-0.7,0.2-1.3,0.2-2c0-0.4,0.2-0.8,0.2-1.2c0-0.8,0.2-1.6,0.4-2.4
			c0.6-2,1.2-4.2,1.8-6.2c0.6-2.2-0.2-5.2-1.2-7.3c-0.2-0.5-0.4-0.9-0.6-1.4c-0.4-1.4-1.4-2.6-1.6-4c-0.4-1.8-1-3.4-1.4-5.2l0,0
			C2401-1777.8,2400.6-1778.2,2400.6-1778.6L2400.6-1778.6z M2403.8-1776.4L2403.8-1776.4
			C2403.6-1776.4,2403.6-1775.4,2403.8-1776.4z M2403-1774.6c-0.1-0.2-0.3-0.3-0.5-0.3c0,0-0.1,0-0.1,0.1c-0.2,0.2,0.2,0.6,0,0.8
			C2403-1774,2402.8-1774.6,2403-1774.6C2403-1775,2402.8-1774.6,2403-1774.6L2403-1774.6z M2392-1774.6c-0.2,0.2,0.2,0.8,0.2,1.2
			c0,0.6,0.2,1,0.2,1.6c0.1,2.6,0.3,5.1,0.8,7.7c0.2,1.6,0.8,3.1,1.6,4.4c0.2,0.4,0.2,0.8,0.4,1.2c0.2,0.6,0.5,1.2,0.8,1.8
			c0.3,1,0.7,2.1,1.2,3c0.5,1,0.9,2.1,1.2,3.2c0.2,0.6,0.4,1.2,0.6,2c0.2,1.2,0.6,2.6,0.8,3.8c0.2,2.4-0.6,4.6-0.4,7.1
			c0.4-0.9,0.6-1.8,0.6-2.8c0.2-1.2,0.2-2.2,0.4-3.4c0.1-1.2,0.1-2.4-0.2-3.6c-0.2-0.8-0.6-1.8-0.8-2.6c-0.6-2.8-2.2-5.2-2.8-7.9
			c-0.4-1.9-0.6-3.7-0.8-5.6c-0.1-0.7-0.2-1.4-0.4-2c-0.2-1.2,0.2-2.4-0.2-3.4c-0.3-1.1-0.7-2.2-1.2-3.2l-0.6-0.6
			c-0.2-0.2-0.2-0.4-0.2-0.6l0.2,0.2C2392.6-1773.8,2392.4-1774.4,2392-1774.6L2392-1774.6z M2410.9-1767.1v-0.4
			c-0.4,0.2-0.9,0.5-1.2,0.8c-0.4,0.5-0.9,0.9-1.4,1.2c-0.5,0.4-0.9,0.9-1.2,1.4c-0.2,0.4-0.4,0.2-0.4,0.6s0.2,0.6,0.2,1
			c0.1,1.4-0.1,2.9-0.6,4.2c-0.4,1-0.6,2.1-0.8,3.2c-0.1,0.6-0.3,1.1-0.6,1.6c-0.2,0.6-0.4,1.3-0.4,2c-0.1,0.7-0.2,1.4-0.4,2
			c-0.1,0.5-0.1,1.1,0,1.6c0,0.4-0.2,0.8,0,1.2c0,0.2,0.2,1,0,1.2s-0.6,0.2-0.2,0.4c-0.2,0.3-0.3,0.7-0.2,1c0.4,0,0.6-0.8,0.8-1
			s0.2-0.2,0.2-0.6c0-0.2,0-0.4-0.2-0.6v-1.6l0.6-3c0.3-0.9,0.6-1.8,1-2.6c0.2-1,0.4-1.9,0.8-2.8c0.2-0.7,0.6-1.4,1-2
			c0.2-0.4,0.2-0.8,0.4-1c0.2-0.4,0.4-0.7,0.6-1c0.4-0.6,0.6-1.3,0.8-2l-0.2-0.2c0.1,0,0.2-0.1,0.2-0.2c0.2-0.4,0.2-1,0.4-1.4
			C2410.4-1765.1,2410.7-1766.1,2410.9-1767.1C2410.9-1767.3,2410.5-1765.7,2410.9-1767.1z M2401.2-1741.8c-0.2-0.4-0.2,0.4-0.2,0.6
			C2401.2-1740.8,2401.2-1741.6,2401.2-1741.8z M2398.8-1733.9c0.2-0.9,0.4-1.9,0.4-2.8c-0.8,1.2-0.4,3-0.8,4.4
			C2398.7-1732.8,2398.9-1733.3,2398.8-1733.9C2399-1734.7,2398.8-1733.3,2398.8-1733.9z"/>
		<path id="Path_537" class="st0" d="M2387.7-1780.6c-0.2,0.4,0.8,0.8,1.2,1c0.2,0,0.2,0.4,0.2,0.4c0.2,0,0.2,0,0.4,0.2l0.6,0.6
			c0.2,0.2,0.4,0,0.6,0.2l0.8,0.8c0.2,0.2,0.2,0.2,0.4,0.2c0.2,0.2,0.6,0.8,1,0.4c0.2-0.6-0.6-0.8-0.8-1c-0.4-0.2-0.6-0.6-1-0.8
			c-0.7-0.5-1.4-1-2.2-1.4c-0.2-0.2-0.2-0.2-0.2-0.4c-0.2,0.2-0.4-0.2-0.8,0C2387.9-1780.5,2387.8-1780.6,2387.7-1780.6z"/>
		<path id="Path_538" class="st0" d="M2405.5-1741.2c-0.2,0-0.2,0.2-0.4,0.2l-0.6,1.2c-0.2,0.2-0.2,0.4-0.4,0.6
			c-0.3,0.4-0.6,0.9-0.8,1.4v0.2c-0.3,0.3-0.5,0.8-0.6,1.2c0.4-0.2,0.6-0.4,0.8-0.8v-0.4c0.1,0,0.2-0.1,0.2-0.2l0,0
			c0.2-0.2,0-0.6,0.2-0.6c0.2-0.4,0.5-0.7,0.8-1c0.2-0.4,0.2-0.8,0.6-1.2C2405.4-1740.7,2405.5-1740.9,2405.5-1741.2z"/>
	</g>
	<g id="Group_89" transform="translate(3.5 26.756)">
		<g id="Group_83" transform="translate(125.67 39.777)">
			<path id="Path_539" class="st1" d="M2378.9-1852.5l2,0.4l-1.5,1.5l-0.7-0.9h-0.2L2378.9-1852.5z"/>
		</g>
		<g id="Group_84" transform="translate(3.715 1.311)">
			<path id="Path_540" class="st1" d="M2378.9-1852.5l2.2,0.7l-0.4,0.9l-2.2-0.7L2378.9-1852.5z M2383.3-1851.2l2.2,0.7l-0.4,0.9
				l-2.2-0.7L2383.3-1851.2z M2387.4-1849.9l2.2,0.7l-0.4,0.9l-2.2-0.7L2387.4-1849.9z M2391.6-1848.5l2.2,0.7l-0.4,1.1l-2.2-0.7
				L2391.6-1848.5z M2395.7-1847.2l2.2,0.7l-0.4,1.1l-2.2-0.7L2395.7-1847.2z M2399.9-1845.9l2.2,0.7l-0.4,1.1l-2.2-0.7
				L2399.9-1845.9z M2404.3-1844.6l2.2,0.7l-0.4,1.1l-2.2-0.7L2404.3-1844.6z M2408.4-1843.3l2.2,0.7l-0.4,1.1l-2.2-0.7
				L2408.4-1843.3z M2412.6-1842l2.2,0.7l-0.4,1.1l-2.2-0.7L2412.6-1842z M2416.7-1840.7l2.2,0.7l-0.4,1.1l-2.2-0.7L2416.7-1840.7z
				 M2421.1-1839.4l2.2,0.7l-0.4,1.1l-2.2-0.7L2421.1-1839.4z M2425.2-1838.1l2.2,0.7l-0.4,1.1l-2.2-0.7L2425.2-1838.1z
				 M2429.4-1836.7l2.2,0.7l-0.4,1.1l-2.2-0.7L2429.4-1836.7z M2433.5-1835.2l2.2,0.7l-0.4,0.9l-2.2-0.7L2433.5-1835.2z
				 M2437.7-1833.9l2.2,0.7l-0.2,0.9l-2.2-0.7L2437.7-1833.9z M2442.1-1832.6l2.2,0.7l-0.4,1.1l-2.2-0.7L2442.1-1832.6z
				 M2446.2-1831.3l2.2,0.7l-0.4,1.1l-2.2-0.7L2446.2-1831.3z M2450.4-1830l2.2,0.7l-0.4,1.1l-2.2-0.7L2450.4-1830z M2454.5-1828.7
				l2.2,0.7l-0.4,1.1l-2.2-0.7L2454.5-1828.7z M2458.9-1827.3l2.2,0.7l-0.4,1.1l-2.2-0.7L2458.9-1827.3z M2463-1826l2.2,0.7
				l-0.4,1.1l-2.2-0.7L2463-1826z M2467.2-1824.7l2.2,0.7l-0.4,1.1l-2.2-0.7L2467.2-1824.7z M2471.4-1823.4l2.2,0.7l-0.4,1.1
				l-2.2-0.7L2471.4-1823.4z M2475.5-1822.1l2.2,0.7l-0.4,1.1l-2.2-0.7L2475.5-1822.1z M2479.9-1820.8l2.2,0.7l-0.4,1.1l-2.2-0.7
				L2479.9-1820.8z M2484-1819.5l2.2,0.7l-0.4,1.1l-2.2-0.7L2484-1819.5z M2488.2-1817.9l2.2,0.7l-0.4,0.9l-2.2-0.7L2488.2-1817.9z
				 M2492.3-1816.6l2.2,0.7l-0.4,1.1l-2.2-0.7L2492.3-1816.6z M2496.7-1815.3l2.2,0.7l-0.4,1.1l-2.2-0.7L2496.7-1815.3z"/>
		</g>
		<g id="Group_85">
			<path id="Path_541" class="st1" d="M2378.5-1852.5l2.2,0.4l-0.4,1.1l0,0l-1.1,0.4L2378.5-1852.5z"/>
		</g>
		<g id="Group_86" transform="translate(1.311 3.497)">
			<path id="Path_542" class="st1" d="M2378.5-1852l1.1-0.4l0.7,2.2l-1.1,0.4L2378.5-1852z M2379.8-1847.7l1.1-0.4l0.7,2.2l-1.1,0.4
				L2379.8-1847.7z M2381.3-1843.5l0.9-0.4l0.7,2.2l-1.1,0.4L2381.3-1843.5z M2382.6-1839.4l0.9-0.2l0.7,2.2l-1.1,0.4L2382.6-1839.4
				z M2383.9-1835.2l1.1-0.4l0.7,2.2l-1.1,0.4L2383.9-1835.2z M2385.2-1830.8l1.1-0.4l0.7,2.2l-1.1,0.4L2385.2-1830.8z
				 M2386.5-1826.7l1.1-0.4l0.7,2.2l-1.1,0.4L2386.5-1826.7z M2387.9-1822.5l1.1-0.4l0.7,2.2l-1.1,0.4L2387.9-1822.5z
				 M2389.2-1818.4l1.1-0.4l0.7,2.2l-1.1,0.4L2389.2-1818.4z M2390.5-1814.2l1.1-0.4l0.7,2.2l-1.1,0.4L2390.5-1814.2z
				 M2391.8-1809.9l1.1-0.4l0.7,2.2l-1.1,0.4L2391.8-1809.9z M2393.1-1805.7l1.1-0.4l0.7,2.2l-1.1,0.4L2393.1-1805.7z
				 M2394.4-1801.6l1.1-0.4l0.7,2.2l-1.1,0.4L2394.4-1801.6z M2395.7-1797.4l1.1-0.4l0.7,2.2l-1.1,0.4L2395.7-1797.4z M2397-1793
				l1.1-0.4l0.7,2.2l-1.1,0.4L2397-1793z M2398.6-1788.9l1.1-0.4l0.7,2.2l-1.1,0.4L2398.6-1788.9z M2399.9-1784.7l1.1-0.4l0.7,2.2
				l-1.1,0.4L2399.9-1784.7z M2401.2-1780.6l1.1-0.4l0.7,2.2l-1.1,0.4L2401.2-1780.6z M2402.5-1776.4l1.1-0.4l0.7,2.2l-1.1,0.4
				L2402.5-1776.4z M2403.8-1772l1.1-0.4l0.7,2.2l-1.1,0.4L2403.8-1772z M2405.1-1767.9l1.1-0.4l0.7,2.2l-1.1,0.4L2405.1-1767.9z
				 M2406.4-1763.7l1.1-0.4l0.7,2.2l-1.1,0.4L2406.4-1763.7z M2407.7-1759.6l1.1-0.4l0.7,2.2l-1.1,0.4L2407.7-1759.6z
				 M2409.1-1755.2l1.1-0.4l0.7,2.2l-1.1,0.4L2409.1-1755.2z M2410.4-1751.1l1.1-0.4l0.7,2.2l-1.1,0.4L2410.4-1751.1z
				 M2411.7-1746.9l1.1-0.4l0.7,2.2l-1.1,0.4L2411.7-1746.9z M2413-1742.8l1.1-0.4l0.7,2.2l-1.1,0.4L2413-1742.8z M2414.3-1738.6
				l1.1-0.4l0.7,2.2l-1.1,0.4L2414.3-1738.6z M2415.8-1734.2l1.1-0.4l0.7,2.2l-1.1,0.4L2415.8-1734.2z"/>
		</g>
		<g id="Group_87" transform="translate(39.996 125.452)">
			<path id="Path_543" class="st1" d="M2378.5-1852l0.9-0.4l0.2,0.2l0,0l0.9,0.7l-1.5,1.5L2378.5-1852z"/>
		</g>
		<g id="Group_88" transform="translate(42.619 42.4)">
			<path id="Path_544" class="st1" d="M2378.5-1770.7l1.5-1.5l0.9,0.9l-1.5,1.5L2378.5-1770.7z M2381.5-1773.8l1.5-1.5l0.9,0.9
				l-1.5,1.5L2381.5-1773.8z M2384.6-1777.1l1.5-1.5l0.9,0.9l-1.5,1.5L2384.6-1777.1z M2387.9-1780.1l1.5-1.5l0.9,0.9l-1.5,1.5
				L2387.9-1780.1z M2390.9-1783.2l1.5-1.5l0.9,0.9l-1.7,1.5L2390.9-1783.2z M2394-1786.3l1.5-1.5l0.9,0.9l-1.5,1.5L2394-1786.3z
				 M2397-1789.3l1.5-1.5l0.9,0.9l-1.5,1.5L2397-1789.3z M2400.1-1792.4l1.5-1.5l0.9,0.9l-1.7,1.5L2400.1-1792.4z M2403.2-1795.4
				l1.5-1.5l0.9,0.9l-1.5,1.5L2403.2-1795.4z M2406.2-1798.5l1.5-1.5l0.9,0.9l-1.5,1.5L2406.2-1798.5z M2409.3-1801.6l1.5-1.5
				l0.9,0.9l-1.5,1.5L2409.3-1801.6z M2412.3-1804.6l1.5-1.5l0.9,0.9l-1.5,1.5L2412.3-1804.6z M2415.4-1807.7l1.5-1.5l0.9,0.9
				l-1.5,1.5L2415.4-1807.7z M2418.5-1810.7l1.5-1.5l0.9,0.9l-1.5,1.5L2418.5-1810.7z M2421.5-1814l1.5-1.5l0.9,0.9l-1.5,1.5
				L2421.5-1814z M2424.8-1817.1l1.5-1.5l0.9,0.9l-1.5,1.5L2424.8-1817.1z M2427.9-1820.1l1.5-1.5l0.9,0.9l-1.5,1.5L2427.9-1820.1z
				 M2430.9-1823.2l1.5-1.5l0.9,0.9l-1.5,1.5L2430.9-1823.2z M2434-1826.3l1.5-1.5l0.9,0.9l-1.5,1.5L2434-1826.3z M2437-1829.3
				l1.5-1.5l0.9,0.9l-1.5,1.5L2437-1829.3z M2440.1-1832.4l1.5-1.5l0.9,0.9l-1.5,1.5L2440.1-1832.4z M2443.2-1835.4l1.5-1.5l0.9,0.9
				l-1.5,1.3L2443.2-1835.4z M2446.2-1838.5l1.5-1.5l0.9,0.9l-1.5,1.5L2446.2-1838.5z M2449.3-1841.6l1.5-1.5l0.9,0.9l-1.5,1.5
				L2449.3-1841.6z M2452.3-1844.6l1.5-1.5l0.9,0.9l-1.5,1.3L2452.3-1844.6z M2455.4-1847.7l1.5-1.5l0.9,0.9l-1.5,1.5L2455.4-1847.7
				z M2458.5-1851l1.5-1.5l0.9,0.9l-1.5,1.5L2458.5-1851z"/>
		</g>
	</g>
	
		<rect id="Rectangle_99" x="2393.8" y="-1815.1" transform="matrix(0.7071 -0.7071 0.7071 0.7071 1969.2283 1198.0995)" class="st2" width="74.1" height="74.1"/>
</g>
</svg>
