<?xml version="1.0" encoding="utf-8"?>
<!-- Generator: Adobe Illustrator 22.0.1, SVG Export Plug-In . SVG Version: 6.00 Build 0)  -->
<svg version="1.1" id="Layer_1" xmlns="http://www.w3.org/2000/svg" xmlns:xlink="http://www.w3.org/1999/xlink" x="0px" y="0px"
	 viewBox="0 0 169.1 113.8" style="enable-background:new 0 0 169.1 113.8;" xml:space="preserve">
<style type="text/css">
	.st0{fill:none;stroke:#727272;stroke-width:2.5;stroke-miterlimit:10;}
	.st1{fill:none;stroke:#727272;stroke-width:0.25;stroke-miterlimit:10;}
	.st2{fill:none;stroke:#727272;stroke-miterlimit:10;}
	.st3{fill:#727272;}
	.st4{fill:none;stroke:#B9B9B9;stroke-width:3;stroke-miterlimit:10;}
</style>
<g id="Group_1170" transform="translate(-1554.45 1871.778)">
	<circle id="Ellipse_2" class="st0" cx="1715.5" cy="-1806.5" r="4.6"/>
	<circle id="Ellipse_3" class="st0" cx="1619.4" cy="-1791.8" r="4.6"/>
	<circle id="Ellipse_4" class="st0" cx="1575.7" cy="-1790.4" r="4.6"/>
	<circle id="Ellipse_5" class="st0" cx="1562.5" cy="-1820.7" r="4.6"/>
	<ellipse id="Ellipse_6" class="st0" cx="1696.2" cy="-1807.3" rx="5.7" ry="5.7"/>
	<ellipse id="Ellipse_7" class="st0" cx="1665.3" cy="-1792.7" rx="4.6" ry="4.6"/>
	<path id="Path_545" class="st1" d="M1658.3-1801.6l5.3,5.9c0.4,0.3,0.4,0.9,0,1.3c0,0,0,0,0,0l0,0c-0.3,0.4-0.9,0.4-1.3,0
		c0,0,0,0,0,0l-5.3-5.9c-0.4-0.3-0.4-0.9,0-1.3c0,0,0,0,0,0l0,0c0.2-0.4,0.7-0.5,1.1-0.2C1658.2-1801.7,1658.3-1801.7,1658.3-1801.6
		z"/>
	<ellipse id="Ellipse_8" class="st0" cx="1655.6" cy="-1801.9" rx="6.4" ry="6.4"/>
	<path id="Path_546" class="st1" d="M1672.1-1813.9l-11.6,8.8c-0.4,0.3-1,0.2-1.3-0.2c0,0,0,0,0,0l0,0c-0.3-0.4-0.2-1,0.2-1.3
		c0,0,0,0,0,0l11.6-8.8c0.4-0.3,1-0.2,1.3,0.2c0,0,0,0,0,0l0,0C1672.5-1814.6,1672.5-1814.1,1672.1-1813.9z"/>
	<ellipse id="Ellipse_9" class="st0" cx="1676.5" cy="-1817.8" rx="6.4" ry="6.4"/>
	<path id="Path_547" class="st2" d="M1650.4-1804.5l-12.7-9.4c-0.4-0.3-0.5-0.9-0.2-1.3c0,0,0,0,0,0l0,0c0.3-0.4,0.9-0.5,1.3-0.2
		c0,0,0,0,0,0l12.7,9.4c0.4,0.3,0.5,0.9,0.2,1.3c0,0,0,0,0,0l0,0C1651.5-1804.3,1651-1804.3,1650.4-1804.5z"/>
	<circle id="Ellipse_10" class="st0" cx="1639.4" cy="-1827.9" r="4.6"/>
	<path id="Path_548" class="st1" d="M1638.5-1824.9l-3.3,5.1c-0.3,0.4-0.8,0.5-1.2,0.3c0,0-0.1,0-0.1-0.1l0,0
		c-0.4-0.3-0.5-0.8-0.3-1.2c0,0,0-0.1,0.1-0.1l3.3-5.1c0.3-0.4,0.8-0.5,1.2-0.3c0,0,0.1,0,0.1,0.1l0,0c0.4,0.3,0.5,0.8,0.3,1.2
		C1638.5-1825,1638.5-1824.9,1638.5-1824.9z"/>
	<ellipse id="Ellipse_11" class="st0" cx="1633.7" cy="-1817.6" rx="6.4" ry="6.4"/>
	<path id="Path_549" class="st1" d="M1630.1-1821.6l-3.1-4.8c-0.2-0.4-0.1-0.9,0.2-1.3l0,0c0.4-0.2,0.9-0.1,1.3,0.2l3.1,4.8
		c0.2,0.4,0.1,0.9-0.2,1.3l0,0C1630.9-1821.2,1630.4-1821.3,1630.1-1821.6z"/>
	<circle id="Ellipse_12" class="st0" cx="1627.1" cy="-1827.8" r="4.6"/>
	<ellipse id="Ellipse_13" class="st0" cx="1676.3" cy="-1841.8" rx="5.7" ry="5.7"/>
	<path id="Path_550" class="st1" d="M1613.9-1801.8l4.4,6.6c0.2,0.4,0.1,0.9-0.2,1.3l0,0c-0.4,0.2-0.9,0.1-1.3-0.2l-4.4-6.8
		c-0.2-0.4-0.1-0.9,0.2-1.3l0,0C1613.1-1802.3,1613.6-1802.1,1613.9-1801.8z"/>
	<path id="Path_551" class="st2" d="M1630.1-1813.7l-12.1,9.7c-0.4,0.3-1,0.2-1.3-0.2c0,0,0,0,0,0l0,0c-0.3-0.4-0.2-1,0.2-1.3
		c0,0,0,0,0,0l12.1-9.7c0.4-0.3,1-0.2,1.3,0.2c0,0,0,0,0,0l0,0C1630.4-1814.4,1630.4-1813.9,1630.1-1813.7z"/>
	<ellipse id="Ellipse_14" class="st0" cx="1637" cy="-1786.2" rx="4.6" ry="4.6"/>
	<path id="Path_552" class="st1" d="M1650.2-1789.1l-9.5,2.9c-0.4,0.2-0.9-0.2-1.1-0.6l0,0c-0.2-0.4,0.2-0.9,0.6-1.1l9.5-2.9
		c0.4-0.2,0.9,0.2,1.1,0.6l0,0c0.2,0.4,0,0.8-0.3,1C1650.4-1789.1,1650.3-1789.1,1650.2-1789.1z"/>
	<path id="Path_553" class="st1" d="M1654.3-1797.9l-5,8.8c-0.2,0.4-0.7,0.5-1.1,0.4l0,0c-0.4-0.2-0.5-0.7-0.4-1.1l5-8.8
		c0.2-0.4,0.7-0.5,1.1-0.4l0,0C1654.5-1799,1654.7-1798.5,1654.3-1797.9z"/>
	<ellipse id="Ellipse_15" class="st0" cx="1648.3" cy="-1788.3" rx="5.9" ry="5.9"/>
	<path id="Path_554" class="st1" d="M1640.5-1796.6l5.3,5.1c0.4,0.3,0.4,0.9,0,1.3c0,0,0,0,0,0l0,0c-0.3,0.4-0.9,0.4-1.3,0
		c0,0,0,0,0,0l-5.3-5.1c-0.4-0.3-0.4-0.9,0-1.3c0,0,0,0,0,0l0,0C1639.6-1797,1640.1-1797,1640.5-1796.6
		C1640.5-1796.6,1640.5-1796.6,1640.5-1796.6z"/>
	<ellipse id="Ellipse_16" class="st0" cx="1639.1" cy="-1796.5" rx="4.6" ry="4.6"/>
	<ellipse id="Ellipse_17" class="st0" cx="1612.1" cy="-1801.2" rx="6.4" ry="6.4"/>
	<path id="Path_555" class="st1" d="M1610.6-1797.4l-4,7.5c-0.2,0.4-0.7,0.5-1.1,0.4l0,0c-0.4-0.2-0.5-0.7-0.4-1.1l3.9-7.5
		c0.2-0.4,0.7-0.5,1.1-0.4l0,0c0.4,0.1,0.7,0.6,0.6,1C1610.6-1797.4,1610.6-1797.4,1610.6-1797.4z"/>
	<circle id="Ellipse_18" class="st0" cx="1605.8" cy="-1790.4" r="4.6"/>
	<path id="Path_556" class="st1" d="M1608.4-1805.3l-8.8-11.6c-0.3-0.4-0.2-1,0.2-1.3c0,0,0,0,0,0l0,0c0.4-0.3,1-0.2,1.3,0.2
		c0,0,0,0,0,0l8.8,11.6c0.3,0.4,0.2,1-0.2,1.3c0,0,0,0,0,0l0,0C1609.2-1804.9,1608.7-1804.9,1608.4-1805.3z"/>
	<ellipse id="Ellipse_19" class="st0" cx="1599.9" cy="-1844.3" rx="5.7" ry="5.7"/>
	<path id="Path_557" class="st1" d="M1571.8-1812.6l-6.8-5.1c-0.4-0.3-0.5-0.9-0.2-1.3c0,0,0,0,0,0l0,0c0.3-0.4,0.9-0.5,1.3-0.2
		c0,0,0,0,0,0l6.8,5.1c0.4,0.3,0.5,0.9,0.2,1.3c0,0,0,0,0,0l0,0C1572.9-1812.4,1572.4-1812.4,1571.8-1812.6z"/>
	<path id="Path_558" class="st1" d="M1577.2-1804.5l-0.6,10.3c0,0.5-0.3,0.9-0.8,0.9c0,0-0.1,0-0.1,0l0,0c-0.5,0-0.9-0.3-0.9-0.8
		c0,0,0-0.1,0-0.1l0.6-10.3c0-0.5,0.3-0.9,0.8-0.9c0,0,0.1,0,0.1,0l0,0C1576.7-1805.4,1577.1-1805,1577.2-1804.5z"/>
	<ellipse id="Ellipse_20" class="st0" cx="1576.4" cy="-1809.8" rx="5.9" ry="5.9"/>
	<ellipse id="Ellipse_21" class="st0" cx="1597.6" cy="-1820.7" rx="6.4" ry="6.4"/>
	<path id="Path_559" class="st1" d="M1592.4-1817.4l-10.7,5.7c-0.4,0.2-0.9,0-1.1-0.4l0,0c-0.2-0.4,0-0.9,0.4-1.1l10.7-5.7
		c0.4-0.2,0.9,0,1.1,0.4l0,0c0.2,0.3,0.1,0.8-0.2,1C1592.5-1817.4,1592.5-1817.4,1592.4-1817.4z"/>
	<path id="Path_560" class="st1" d="M1599.9-1839.2l-0.9,12.5c0,0.6-0.6,0.9-0.9,0.7l0,0c-0.6,0-0.9-0.6-0.7-0.9l0.9-12.5
		c0-0.6,0.6-0.9,0.9-0.7l0,0C1599.6-1840.1,1599.9-1839.6,1599.9-1839.2z"/>
	<path id="Path_561" class="st1" d="M1677.2-1836.5v12.7c0,0.5-0.3,0.9-0.8,0.9c0,0-0.1,0-0.1,0l0,0c-0.5,0-0.9-0.3-0.9-0.8
		c0,0,0-0.1,0-0.1v-12.7c0-0.5,0.3-0.9,0.8-0.9c0,0,0.1,0,0.1,0l0,0c0.5,0,0.9,0.3,0.9,0.8
		C1677.2-1836.5,1677.2-1836.5,1677.2-1836.5z"/>
	<path id="Path_562" class="st1" d="M1690.8-1809.3l-9.4-5.3c-0.4-0.2-0.5-0.7-0.4-1.1l0,0c0.2-0.4,0.7-0.5,1.1-0.4l9.4,5.3
		c0.4,0.2,0.5,0.7,0.4,1.1l0,0C1691.7-1809.1,1691.4-1809.1,1690.8-1809.3z"/>
	<path id="Path_563" class="st1" d="M1711.2-1806h-9.7c-0.5,0-0.9-0.3-0.9-0.8c0,0,0-0.1,0-0.1l0,0c0-0.5,0.3-0.9,0.8-0.9
		c0,0,0.1,0,0.1,0h9.7c0.5,0,0.9,0.3,0.9,0.8c0,0,0,0.1,0,0.1l0,0c0,0.5-0.3,0.9-0.8,0.9C1711.3-1806,1711.2-1806,1711.2-1806z"/>
	<g id="Group_91" transform="translate(37.339 16.342)">
		<path id="Path_564" class="st3" d="M1639.2-1785.4h-1.8v-0.9h1.8V-1785.4z M1635.5-1785.4h-1.8v-0.9h1.8L1635.5-1785.4z
			 M1631.8-1785.4h-1.8v-0.9h1.8L1631.8-1785.4z M1628.2-1785.4h-1.8v-0.9h1.8L1628.2-1785.4z M1624.5-1785.4h-1.8v-0.9h1.8
			L1624.5-1785.4z M1620.8-1785.4h-1.8v-0.9h1.8L1620.8-1785.4z M1617.1-1785.4h-1.8v-0.9h1.8L1617.1-1785.4z M1613.5-1785.4h-1.8
			v-0.9h1.8L1613.5-1785.4z M1609.8-1785.4h-1.8v-0.9h1.8L1609.8-1785.4z M1606.1-1785.4h-1.8v-0.9h1.8L1606.1-1785.4z
			 M1602.4-1785.4h-1.8v-0.9h1.8L1602.4-1785.4z M1598.8-1785.4h-1.8v-0.9h1.8L1598.8-1785.4z M1595.1-1785.4h-1.8v-0.9h1.8
			L1595.1-1785.4z M1591.4-1785.4h-1.8v-0.9h1.8L1591.4-1785.4z M1587.8-1785.4h-1.8v-0.9h1.8L1587.8-1785.4z M1584.1-1785.4h-1.8
			v-0.9h1.8L1584.1-1785.4z M1580.4-1785.4h-1.8v-0.9h1.8L1580.4-1785.4z M1576.7-1785.4h-1.8v-0.9h1.8L1576.7-1785.4z
			 M1573.1-1785.4h-1.8v-0.9h1.8L1573.1-1785.4z M1569.4-1785.4h-1.8v-0.9h1.8L1569.4-1785.4z M1565.7-1785.4h-1.8v-0.9h1.8
			L1565.7-1785.4z M1562.1-1785.4h-1.8v-0.9h1.8L1562.1-1785.4z M1558.4-1785.4h-2.2v-0.6h0.4v-0.4h1.8L1558.4-1785.4z
			 M1639.7-1787.4h-0.9v-1.8h0.9V-1787.4z M1557.1-1787.8h-0.9v-1.8h0.9L1557.1-1787.8z M1639.7-1791.1h-0.9v-1.8h0.9V-1791.1z
			 M1557.1-1791.5h-0.9v-1.8h0.9L1557.1-1791.5z M1639.7-1794.8h-0.9v-1.8h0.9V-1794.8z M1557.1-1795.2h-0.9v-1.8h0.9L1557.1-1795.2
			z M1639.7-1798.5h-0.9v-1.8h0.9V-1798.5z M1557.1-1798.8h-0.9v-1.8h0.9L1557.1-1798.8z M1639.7-1802.1h-0.9v-1.8h0.9V-1802.1z
			 M1557.1-1802.5h-0.9v-1.8h0.9L1557.1-1802.5z M1639.7-1805.8h-0.9v-1.8h0.9V-1805.8z M1557.1-1806.2h-0.9v-1.8h0.9V-1806.2z
			 M1639.7-1809.5h-0.9v-1.8h0.9V-1809.5z M1557.1-1809.8h-0.9v-1.8h0.9V-1809.8z M1639.7-1813.1h-0.9v-1.8h0.9V-1813.1z
			 M1557.1-1813.5h-0.9v-1.8h0.9V-1813.5z M1639.7-1816.8h-0.9v-1.8h0.9V-1816.8z M1557.1-1817.2h-0.9v-1.8h0.9V-1817.2z
			 M1639.7-1820.5h-0.9v-1.8h0.9V-1820.5z M1557.1-1820.9h-0.9v-1.8h0.9V-1820.9z M1639.7-1824.2h-0.9v-1.8h0.9V-1824.2z
			 M1557.1-1824.5h-0.9v-1.8h0.9V-1824.5z M1639.7-1827.8h-0.9v-1.8h0.9V-1827.8z M1557.1-1828.2h-0.9v-1.8h0.9V-1828.2z
			 M1639.7-1831.5h-0.9v-1.8h0.9V-1831.5z M1557.1-1831.9h-0.9v-1.8h0.9V-1831.9z M1639.7-1835.2h-0.9v-1.8h0.9V-1835.2z
			 M1557.1-1835.6h-0.9v-1.8h0.9V-1835.6z M1639.7-1838.9h-0.9v-1.8h0.9V-1838.9z M1557.1-1839.2h-0.9v-1.8h0.9V-1839.2z
			 M1639.7-1842.5h-0.9v-1.8h0.9V-1842.5z M1557.1-1842.9h-0.9v-1.8h0.9V-1842.9z M1639.7-1846.2h-0.9v-1.8h0.9V-1846.2z
			 M1557.1-1846.6h-0.9v-1.8h0.9V-1846.6z M1639.7-1849.9h-0.9v-1.8h0.9V-1849.9z M1557.1-1850.2h-0.9v-1.8h0.9V-1850.2z
			 M1639.7-1853.5h-0.9v-1.8h0.9V-1853.5z M1557.1-1853.9h-0.9v-1.8h0.9V-1853.9z M1639.7-1857.2h-0.9v-1.8h0.9V-1857.2z
			 M1557.1-1857.6h-0.9v-1.8h0.9V-1857.6z M1639.7-1860.9h-0.9v-1.8h0.9V-1860.9z M1557.1-1861.3h-0.9v-1.8h0.9V-1861.3z
			 M1639.7-1864.6h-0.9v-1.8h0.9V-1864.6z M1557.1-1864.9h-0.9v-1.8h0.9V-1864.9z M1639.2-1868.1h-1.7v-0.9h2.2v0.6h-0.4v0.4
			L1639.2-1868.1z M1635.7-1868.1h-1.8v-0.9h1.8V-1868.1z M1632-1868.1h-1.8v-0.9h1.8L1632-1868.1z M1628.3-1868.1h-1.8v-0.9h1.8
			L1628.3-1868.1z M1624.7-1868.1h-1.8v-0.9h1.8L1624.7-1868.1z M1621-1868.1h-1.8v-0.9h1.8L1621-1868.1z M1617.3-1868.1h-1.8v-0.9
			h1.8L1617.3-1868.1z M1613.6-1868.1h-1.8v-0.9h1.8L1613.6-1868.1z M1610-1868.1h-1.8v-0.9h1.8L1610-1868.1z M1606.3-1868.1h-1.8
			v-0.9h1.8L1606.3-1868.1z M1602.6-1868.1h-1.8v-0.9h1.8L1602.6-1868.1z M1599-1868.1h-1.8v-0.9h1.8L1599-1868.1z M1595.3-1868.1
			h-1.8v-0.9h1.8L1595.3-1868.1z M1591.6-1868.1h-1.8v-0.9h1.8L1591.6-1868.1z M1587.9-1868.1h-1.8v-0.9h1.8L1587.9-1868.1z
			 M1584.3-1868.1h-1.8v-0.9h1.8L1584.3-1868.1z M1580.6-1868.1h-1.8v-0.9h1.8L1580.6-1868.1z M1576.9-1868.1h-1.8v-0.9h1.8
			L1576.9-1868.1z M1573.3-1868.1h-1.8v-0.9h1.8L1573.3-1868.1z M1569.6-1868.1h-1.8v-0.9h1.8L1569.6-1868.1z M1565.9-1868.1h-1.8
			v-0.9h1.8L1565.9-1868.1z M1562.2-1868.1h-1.8v-0.9h1.8L1562.2-1868.1z M1558.6-1868.1h-1.8v-0.9h1.8L1558.6-1868.1z"/>
	</g>
	<path id="Path_565" class="st4" d="M1619.8-1869l-34.3,108.7l108.7-34.3L1619.8-1869z"/>
</g>
</svg>
