<svg xmlns="http://www.w3.org/2000/svg" viewBox="-2613.528 1872.908 140.723 104.318">
  <defs>
    <style>
      .cls-1 {
        fill: #727272;
      }

      .cls-2 {
        fill: #cbcbcc;
      }

      .cls-3 {
        fill: none;
        stroke: #b9b9b9;
        stroke-miterlimit: 10;
        stroke-width: 3px;
      }
    </style>
  </defs>
  <g id="Group_1220" data-name="Group 1220" transform="translate(-2613.528 1877.271)">
    <g id="Group_1165" data-name="Group 1165" transform="translate(0 0.204)">
      <g id="Group_106" data-name="Group 106">
        <g id="Group_93" data-name="Group 93" transform="translate(62.187 18.743)">
          <path id="Path_566" data-name="Path 566" class="cls-1" d="M42.647,17.648a3.217,3.217,0,0,1-.16,1.222c-.16.2-.16.611-.321.815a2.363,2.363,0,0,1-.641.611,1.189,1.189,0,0,1-.8.2c-.321,0-.641,0-.8-.2s-.481-.2-.641-.407a1.171,1.171,0,0,1-.321-.815c0-.407-.16-.815-.16-1.222a3.217,3.217,0,0,1,.16-1.222,3.352,3.352,0,0,1,.321-.815,2.363,2.363,0,0,1,.641-.611c.16-.2.481-.2.8-.2s.641,0,.8.2.481.2.641.407a1.171,1.171,0,0,1,.321.815A3.217,3.217,0,0,1,42.647,17.648Zm-.962,0v-.815c0-.2-.16-.407-.16-.611l-.321-.407c-.16,0-.321-.2-.481-.2a.514.514,0,0,0-.481.2c-.16,0-.321.2-.321.407a.886.886,0,0,0-.16.611V18.26c0,.2.16.407.16.611s.16.2.321.407c.16,0,.321.2.481.2a.514.514,0,0,0,.481-.2c.16,0,.321-.2.321-.407a.886.886,0,0,0,.16-.611Z" transform="translate(-38.8 -15)"/>
        </g>
        <g id="Group_94" data-name="Group 94" transform="translate(70.362 36.264)">
          <path id="Path_567" data-name="Path 567" class="cls-1" d="M47.266,28.49h0c0,.2,0,.2-.16.2h-.8s-.16,0-.16-.2l-.16-.2a.784.784,0,0,1-.16-.407l-.962-2.445c0-.2-.16-.2-.16-.407a.784.784,0,0,0-.16-.407h0V28.49H43.9V23.8c0-.2,0-.2.16-.2h.962s.16,0,.16.2c0,0,0,.2.16.2l.8,1.834c0,.2.16.2.16.407s.16.2.16.407.16.2.16.407,0,.2.16.407h0V23.8h.641V28.49Z" transform="translate(-43.9 -23.6)"/>
          <path id="Path_568" data-name="Path 568" class="cls-1" d="M49.585,28.486h0l-.16.2h-.481V26.652h-1.6V28.69H46.7V23.8h.641v1.834h1.6V23.8h.641Z" transform="translate(-42.212 -23.393)"/>
        </g>
        <g id="Group_95" data-name="Group 95" transform="translate(78.536 38.709)">
          <path id="Path_569" data-name="Path 569" class="cls-1" d="M51.084,28.875h0v.2H49.16V28.06l.481-.815.321-.407c0-.2.16-.2.16-.407v-.815l-.16-.2h-.641s-.16,0-.16.2H49V25h.16s.16,0,.16-.2h1.122c.16,0,.16.2.321.2a.784.784,0,0,1,.16.407v.815c0,.2,0,.2-.16.407,0,.2-.16.2-.321.407l-.481.611-.321.407h1.282a2.5,2.5,0,0,1,.16.815Z" transform="translate(-49 -24.8)"/>
        </g>
        <g id="Group_96" data-name="Group 96" transform="translate(46.48 53.785)">
          <path id="Path_570" data-name="Path 570" class="cls-1" d="M32.366,37.09h0c0,.2,0,.2-.16.2h-.8s-.16,0-.16-.2l-.16-.2a.784.784,0,0,1-.16-.407l-.962-2.445c0-.2-.16-.2-.16-.407a.784.784,0,0,0-.16-.407h0V37.09H29V32.4c0-.2,0-.2.16-.2h.962s.16,0,.16.2c0,0,0,.2.16.2l.8,1.834c0,.2.16.2.16.407s.16.2.16.407.16.2.16.407,0,.2.16.407h0V32.4h.641V37.09Z" transform="translate(-29 -32.2)"/>
        </g>
        <g id="Group_97" data-name="Group 97" transform="translate(46.801 60.304)">
          <path id="Path_571" data-name="Path 571" class="cls-1" d="M32.085,40.086h0l-.16.2h-.481V38.252h-1.6V40.29H29.2V35.4h.641v1.834h1.6V35.4h.641Z" transform="translate(-29.2 -35.4)"/>
        </g>
        <g id="Group_98" data-name="Group 98" transform="translate(38.306 36.264)">
          <path id="Path_572" data-name="Path 572" class="cls-1" d="M27.747,26.248a3.217,3.217,0,0,1-.16,1.222,3.352,3.352,0,0,1-.321.815,2.363,2.363,0,0,1-.641.611,1.189,1.189,0,0,1-.8.2c-.321,0-.641,0-.8-.2s-.481-.2-.641-.407a1.171,1.171,0,0,1-.321-.815c0-.407-.16-.815-.16-1.222a3.217,3.217,0,0,1,.16-1.222,3.351,3.351,0,0,1,.321-.815,2.363,2.363,0,0,1,.641-.611,1.189,1.189,0,0,1,.8-.2c.321,0,.641,0,.8.2s.481.2.641.407a1.171,1.171,0,0,1,.321.815A3.217,3.217,0,0,1,27.747,26.248Zm-.962,0v-.815c0-.2-.16-.407-.16-.611l-.321-.407c-.16,0-.321-.2-.481-.2a.514.514,0,0,0-.481.2c-.16,0-.321.2-.321.407a.886.886,0,0,0-.16.611V26.86c0,.2.16.407.16.611s.16.2.321.407c.16,0,.321.2.481.2a.514.514,0,0,0,.481-.2c.16,0,.321-.2.321-.407a.886.886,0,0,0,.16-.611Z" transform="translate(-23.9 -23.6)"/>
        </g>
        <g id="Group_99" data-name="Group 99" transform="translate(22.599 47.876)">
          <path id="Path_573" data-name="Path 573" class="cls-1" d="M17.466,34.19h0c0,.2,0,.2-.16.2h-.8s-.16,0-.16-.2l-.16-.2a.784.784,0,0,1-.16-.407l-.962-2.445c0-.2-.16-.2-.16-.407a.784.784,0,0,0-.16-.407h0V34.19H14.1V29.5c0-.2,0-.2.16-.2h.962s.16,0,.16.2c0,0,0,.2.16.2l.8,1.834c0,.2.16.2.16.407s.16.2.16.407.16.2.16.407,0,.2.16.407h0V29.5h.641V34.19Z" transform="translate(-14.1 -29.3)"/>
        </g>
        <g id="Group_100" data-name="Group 100" transform="translate(62.187 65.397)">
          <path id="Path_574" data-name="Path 574" class="cls-1" d="M42.647,40.548a3.217,3.217,0,0,1-.16,1.222,3.352,3.352,0,0,1-.321.815,2.364,2.364,0,0,1-.641.611,1.189,1.189,0,0,1-.8.2c-.321,0-.641,0-.8-.2s-.481-.2-.641-.407a1.171,1.171,0,0,1-.321-.815c0-.407-.16-.815-.16-1.222a3.217,3.217,0,0,1,.16-1.222,3.352,3.352,0,0,1,.321-.815,2.363,2.363,0,0,1,.641-.611,1.189,1.189,0,0,1,.8-.2c.321,0,.641,0,.8.2s.481.2.641.407a1.171,1.171,0,0,1,.321.815A3.217,3.217,0,0,1,42.647,40.548Zm-.962,0v-.815c0-.2-.16-.407-.16-.611l-.321-.407c-.16,0-.321-.2-.481-.2a.514.514,0,0,0-.481.2c-.16,0-.321.2-.321.407a.886.886,0,0,0-.16.611V41.16c0,.2.16.407.16.611s.16.2.321.407c.16,0,.321.2.481.2a.514.514,0,0,0,.481-.2c.16,0,.321-.2.321-.407a.886.886,0,0,0,.16-.611Z" transform="translate(-38.8 -37.9)"/>
        </g>
        <g id="Group_101" data-name="Group 101" transform="translate(68.278 47.876)">
          <path id="Path_575" data-name="Path 575" class="cls-1" d="M45.966,34.19h0c0,.2,0,.2-.16.2H45s-.16,0-.16-.2l-.16-.2a.784.784,0,0,1-.16-.407l-.962-2.445c0-.2-.16-.2-.16-.407a.784.784,0,0,0-.16-.407h0V34.19H42.6V29.5c0-.2,0-.2.16-.2h.962s.16,0,.16.2c0,0,0,.2.16.2l.8,1.834c0,.2.16.2.16.407s.16.2.16.407.16.2.16.407,0,.2.16.407h0V29.5h.641V34.19Z" transform="translate(-42.6 -29.3)"/>
          <path id="Path_576" data-name="Path 576" class="cls-1" d="M48.285,34.186h0l-.16.2h-.481V32.352h-1.6V34.39H45.4V29.5h.641v1.834h1.6V29.5h.641Z" transform="translate(-40.912 -29.093)"/>
        </g>
        <g id="Group_102" data-name="Group 102" transform="translate(82.382 36.264)">
          <path id="Path_577" data-name="Path 577" class="cls-1" d="M54.285,28.486h0l-.16.2h-.481V26.652h-1.6V28.69H51.4V23.8h.641v1.834h1.6V23.8h.641Z" transform="translate(-51.4 -23.393)"/>
          <path id="Path_578" data-name="Path 578" class="cls-1" d="M57.447,26.248a3.217,3.217,0,0,1-.16,1.222,3.352,3.352,0,0,1-.321.815,2.363,2.363,0,0,1-.641.611,1.189,1.189,0,0,1-.8.2c-.321,0-.641,0-.8-.2s-.481-.2-.641-.407a1.171,1.171,0,0,1-.321-.815c0-.407-.16-.815-.16-1.222a3.217,3.217,0,0,1,.16-1.222,3.351,3.351,0,0,1,.321-.815,2.363,2.363,0,0,1,.641-.611,1.189,1.189,0,0,1,.8-.2c.321,0,.641,0,.8.2s.481.2.641.407a1.171,1.171,0,0,1,.321.815A3.217,3.217,0,0,1,57.447,26.248Zm-.8,0v-.815c0-.2-.16-.407-.16-.611l-.321-.407h-.641a.514.514,0,0,0-.481.2c-.16,0-.321.2-.321.407a.886.886,0,0,0-.16.611v1.426c0,.2.16.407.16.611s.16.2.321.407c.16,0,.321.2.481.2a.514.514,0,0,0,.481-.2c.16,0,.321-.2.321-.407a.886.886,0,0,0,.16-.611A1.889,1.889,0,0,0,56.645,26.248Z" transform="translate(-50.074 -23.6)"/>
        </g>
        <g id="Group_103" data-name="Group 103" transform="translate(106.905 44.413)">
          <path id="Path_579" data-name="Path 579" class="cls-1" d="M70.066,32.49h0c0,.2,0,.2-.16.2h-.8s-.16,0-.16-.2l-.16-.2a.784.784,0,0,1-.16-.407l-.962-2.445c0-.2-.16-.2-.16-.407a.784.784,0,0,0-.16-.407h0V32.49H66.7V27.8c0-.2,0-.2.16-.2h.962s.16,0,.16.2c0,0,0,.2.16.2l.8,1.834c0,.2.16.2.16.407s.16.2.16.407.16.2.16.407,0,.2.16.407h0V27.8h.641V32.49Z" transform="translate(-66.7 -27.6)"/>
        </g>
        <g id="Group_104" data-name="Group 104" transform="translate(90.717 32.8)">
          <path id="Path_580" data-name="Path 580" class="cls-1" d="M60.447,24.548a3.217,3.217,0,0,1-.16,1.222,3.352,3.352,0,0,1-.321.815,2.363,2.363,0,0,1-.641.611,1.189,1.189,0,0,1-.8.2c-.321,0-.641,0-.8-.2s-.481-.2-.641-.407a1.171,1.171,0,0,1-.321-.815c0-.407-.16-.815-.16-1.222a3.217,3.217,0,0,1,.16-1.222,3.353,3.353,0,0,1,.321-.815,2.363,2.363,0,0,1,.641-.611,1.189,1.189,0,0,1,.8-.2c.321,0,.641,0,.8.2s.481.2.641.407a1.171,1.171,0,0,1,.321.815A2.305,2.305,0,0,1,60.447,24.548Zm-.8,0v-.815c0-.2-.16-.407-.16-.611l-.321-.407c-.16,0-.321-.2-.481-.2a.514.514,0,0,0-.481.2c-.16,0-.321.2-.321.407a.886.886,0,0,0-.16.611V25.16c0,.2.16.407.16.611s.16.2.321.407c.16,0,.321.2.481.2a.514.514,0,0,0,.481-.2c.16,0,.321-.2.321-.407a.886.886,0,0,0,.16-.611Z" transform="translate(-56.6 -21.9)"/>
        </g>
        <g id="Group_105" data-name="Group 105" transform="translate(98.891 15.28)">
          <path id="Path_581" data-name="Path 581" class="cls-1" d="M65.066,18.19h0c0,.2,0,.2-.16.2h-.8s-.16,0-.16-.2l-.16-.2a.784.784,0,0,1-.16-.407l-.962-2.445c0-.2-.16-.2-.16-.407a.784.784,0,0,0-.16-.407h0V18.19H61.7V13.5c0-.2,0-.2.16-.2h.962s.16,0,.16.2c0,0,0,.2.16.2l.8,1.834c0,.2.16.2.16.407s.16.2.16.407.16.2.16.407,0,.2.16.407h0V13.5h.641V18.19Z" transform="translate(-61.7 -13.3)"/>
          <path id="Path_582" data-name="Path 582" class="cls-1" d="M67.485,18.186h0c-.16,0-.16.2,0,0l-.16.2h-.481V16.352h-1.6V18.39H64.6V13.5h.641v1.834h1.6V13.5h.641Z" transform="translate(-59.952 -13.093)"/>
        </g>
        <rect id="Rectangle_100" data-name="Rectangle 100" class="cls-1" width="0.962" height="8.149" transform="translate(64.752 25.466)"/>
        <rect id="Rectangle_101" data-name="Rectangle 101" class="cls-1" width="0.962" height="8.149" transform="translate(62.508 25.466)"/>
        <path id="Path_583" data-name="Path 583" class="cls-1" d="M45.289,25.371l-.481,1.019L40,22.926V21.5Z" transform="translate(24.111 10.486)"/>
        <path id="Path_584" data-name="Path 584" class="cls-1" d="M36.544,27.816l-2.244.2L43.436,21.5v1.426Z" transform="translate(20.675 10.486)"/>
        <path id="Path_585" data-name="Path 585" class="cls-1" d="M35.9,36.213l-.481.2-.481-.2L34.3,24.8l2.244-.2Z" transform="translate(20.675 13.701)"/>
        <path id="Path_586" data-name="Path 586" class="cls-1" d="M32.181,34.782,31.7,33.763,36.508,30.3l.481.2v.815Z" transform="translate(19.108 19.614)"/>
        <path id="Path_587" data-name="Path 587" class="cls-1" d="M25.1,31.526V30.1l5.289,3.871-.481,1.019Z" transform="translate(15.13 19.406)"/>
        <rect id="Rectangle_102" data-name="Rectangle 102" class="cls-1" width="0.962" height="8.149" transform="translate(38.627 42.987)"/>
        <rect id="Rectangle_103" data-name="Rectangle 103" class="cls-1" width="0.962" height="8.149" transform="translate(40.871 42.987)"/>
        <path id="Path_588" data-name="Path 588" class="cls-1" d="M20.581,37.027l-.481-.407v-.611L28.114,30.1v1.426Z" transform="translate(12.116 19.406)"/>
        <path id="Path_589" data-name="Path 589" class="cls-1" d="M17,32.319l.481-1.019,4.488,3.463v.611l-.481.407Z" transform="translate(10.247 20.651)"/>
        <path id="Path_590" data-name="Path 590" class="cls-1" d="M16.3,33.722l.321-1.222,3.686,2.852-.481,1.019Z" transform="translate(9.825 21.896)"/>
        <path id="Path_591" data-name="Path 591" class="cls-1" d="M10.681,35.782l-.481-.407v-.611L14.688,31.3l.481,1.019Z" transform="translate(6.148 20.651)"/>
        <path id="Path_592" data-name="Path 592" class="cls-1" d="M10.862,44.709l-.481.2-.481-.2v-11l.481-.407.481.407Z" transform="translate(5.967 22.726)"/>
        <path id="Path_593" data-name="Path 593" class="cls-1" d="M18.214,44.4v1.222L10.2,39.715V39.1l.481-.2Z" transform="translate(6.148 28.535)"/>
        <path id="Path_594" data-name="Path 594" class="cls-1" d="M22.573,38.9l.962.611L15.2,45.623V44.4Z" transform="translate(9.162 28.535)"/>
        <path id="Path_595" data-name="Path 595" class="cls-1" d="M20.61,37.9l.481,1.019L15.481,43.2,15,42.178Z" transform="translate(9.042 27.497)"/>
        <path id="Path_596" data-name="Path 596" class="cls-1" d="M20.762,45.32l-.962-.611v-11l.481-.407.481.407Z" transform="translate(11.935 22.726)"/>
        <path id="Path_597" data-name="Path 597" class="cls-1" d="M5.2,45.623V44.4l7.533-5.5.481.2v.611Z" transform="translate(3.134 28.535)"/>
        <path id="Path_598" data-name="Path 598" class="cls-1" d="M5.581,43.2,5.1,42.178,10.71,37.9l.481,1.019Z" transform="translate(3.074 27.497)"/>
        <path id="Path_599" data-name="Path 599" class="cls-1" d="M0,39.511.962,38.9l7.373,5.5v1.222Z" transform="translate(0 28.535)"/>
        <path id="Path_600" data-name="Path 600" class="cls-1" d="M0,33.1l.962.815v11L0,45.528Z" transform="translate(0 22.518)"/>
        <rect id="Rectangle_104" data-name="Rectangle 104" class="cls-1" width="0.962" height="8.353" transform="translate(2.244 57.656)"/>
        <path id="Path_601" data-name="Path 601" class="cls-1" d="M8.334,30.1v1.426l-7.373,5.5L0,36.212Z" transform="translate(0 19.406)"/>
        <path id="Path_602" data-name="Path 602" class="cls-1" d="M5.2,31.526V30.1l8.014,5.908v.611l-.481.407Z" transform="translate(3.134 19.406)"/>
        <path id="Path_603" data-name="Path 603" class="cls-1" d="M5.1,32.819,5.581,31.8l5.61,4.278L10.71,37.1Z" transform="translate(3.074 21.17)"/>
        <path id="Path_604" data-name="Path 604" class="cls-1" d="M43.014,35.8v1.222L35,31.319V30.5l.481-.2Z" transform="translate(21.097 19.614)"/>
        <rect id="Rectangle_105" data-name="Rectangle 105" class="cls-1" width="0.962" height="8.76" transform="translate(64.752 55.211)"/>
        <rect id="Rectangle_106" data-name="Rectangle 106" class="cls-1" width="0.962" height="8.76" transform="translate(62.508 55.211)"/>
        <path id="Path_605" data-name="Path 605" class="cls-1" d="M43.006,31.9l.481,1.019L40.281,35.16l-.481-.815Z" transform="translate(23.99 21.273)"/>
        <path id="Path_606" data-name="Path 606" class="cls-1" d="M51.386,34.345l-.481.815L47.7,32.919l.481-1.019Z" transform="translate(28.752 21.273)"/>
        <path id="Path_607" data-name="Path 607" class="cls-1" d="M51.284,38.619H49.2l.16-1.019h1.923Z" transform="translate(29.656 27.186)"/>
        <path id="Path_608" data-name="Path 608" class="cls-1" d="M51.063,37.622H49.3l.16-1.222h1.6Z" transform="translate(29.717 25.941)"/>
        <path id="Path_609" data-name="Path 609" class="cls-1" d="M50.842,36.522H49.4l.16-1.222h1.282Z" transform="translate(29.777 24.8)"/>
        <path id="Path_610" data-name="Path 610" class="cls-1" d="M50.622,35.219H49.5l.16-1.019h.962Z" transform="translate(29.837 23.659)"/>
        <path id="Path_611" data-name="Path 611" class="cls-1" d="M57.874,44.5v.611l-.481.2-7.693-5.5.481-1.019Z" transform="translate(29.958 28.431)"/>
        <path id="Path_612" data-name="Path 612" class="cls-1" d="M62.814,38.7v1.222l-7.533,5.5-.481-.2v-.611Z" transform="translate(33.032 28.327)"/>
        <path id="Path_613" data-name="Path 613" class="cls-1" d="M61.87,40.4l.321,1.019L56.581,45.7,56.1,44.678Z" transform="translate(33.815 30.091)"/>
        <path id="Path_614" data-name="Path 614" class="cls-1" d="M68.134,44.812l-.8.611-7.533-5.5V38.7Z" transform="translate(36.046 28.327)"/>
        <path id="Path_615" data-name="Path 615" class="cls-1" d="M65.3,54.128l-.8-.815v-11l.8-.611Z" transform="translate(38.879 31.439)"/>
        <rect id="Rectangle_107" data-name="Rectangle 107" class="cls-1" width="0.962" height="8.353" transform="translate(100.974 75.176)"/>
        <path id="Path_616" data-name="Path 616" class="cls-1" d="M59.8,54.327V52.9l7.533-5.5.8.815Z" transform="translate(36.046 37.352)"/>
        <path id="Path_617" data-name="Path 617" class="cls-1" d="M54.5,48.215l.962-.815,7.533,5.5v1.426Z" transform="translate(32.851 37.352)"/>
        <path id="Path_618" data-name="Path 618" class="cls-1" d="M56.1,47.519l.481-1.019,5.61,4.278L61.87,51.8Z" transform="translate(33.815 36.418)"/>
        <path id="Path_619" data-name="Path 619" class="cls-1" d="M55.462,53.105l-.962.815V42.1l.481-.2.481.2Z" transform="translate(32.851 31.646)"/>
        <path id="Path_620" data-name="Path 620" class="cls-1" d="M57.754,30.1v1.426l-7.854,5.7V36.008Z" transform="translate(30.078 19.406)"/>
        <path id="Path_621" data-name="Path 621" class="cls-1" d="M54.2,26.9h2.084l-.16,1.222H54.36Z" transform="translate(32.67 16.087)"/>
        <path id="Path_622" data-name="Path 622" class="cls-1" d="M54.3,27.9h1.6v1.222H54.46Z" transform="translate(32.73 17.124)"/>
        <path id="Path_623" data-name="Path 623" class="cls-1" d="M54.5,29h1.122l-.16,1.019H54.5Z" transform="translate(32.851 18.265)"/>
        <path id="Path_624" data-name="Path 624" class="cls-1" d="M62.814,36.008v1.222l-8.014-5.7V30.1Z" transform="translate(33.032 19.406)"/>
        <path id="Path_625" data-name="Path 625" class="cls-1" d="M69.1,29.6l.481,1.019L59.8,37.749V36.527Z" transform="translate(36.046 18.888)"/>
        <path id="Path_626" data-name="Path 626" class="cls-1" d="M67.4,22.8l.962.611v7.945H67.4Z" transform="translate(40.627 11.834)"/>
        <path id="Path_627" data-name="Path 627" class="cls-1" d="M63.2,22.241,64.322,20l.641.611L64,22.852Z" transform="translate(38.095 8.93)"/>
        <path id="Path_628" data-name="Path 628" class="cls-1" d="M64.2,22.534l.962-1.834.8.611-.8,1.834Z" transform="translate(38.698 9.656)"/>
        <path id="Path_629" data-name="Path 629" class="cls-1" d="M65.3,22.93l.641-1.63.8.611L66.1,23.337Z" transform="translate(39.361 10.278)"/>
        <path id="Path_630" data-name="Path 630" class="cls-1" d="M66.3,23.222,66.781,22l.8.611L67.1,23.63Z" transform="translate(39.964 11.004)"/>
        <path id="Path_631" data-name="Path 631" class="cls-1" d="M60.181,25.6,59.7,24.578,65.47,20.3l.481,1.019Z" transform="translate(35.985 9.241)"/>
        <path id="Path_632" data-name="Path 632" class="cls-1" d="M59.381,24.5,58.9,23.482,64.83,19l.481,1.019Z" transform="translate(35.503 7.892)"/>
        <rect id="Rectangle_108" data-name="Rectangle 108" class="cls-1" width="0.962" height="7.334" transform="translate(100.173 21.799)"/>
        <path id="Path_633" data-name="Path 633" class="cls-1" d="M57.8,12.419V11.6l.481-.2,4.808,3.463-.481,1.019Z" transform="translate(34.84 0.009)"/>
        <path id="Path_634" data-name="Path 634" class="cls-1" d="M53.181,17.816,52.7,17l7.212-5.5h.962v.815Z" transform="translate(31.766 0.113)"/>
        <path id="Path_635" data-name="Path 635" class="cls-1" d="M52.7,9.419,53.181,8.4l7.212,5.3.481,1.019h-.962Z" transform="translate(31.766 -3.103)"/>
        <path id="Path_636" data-name="Path 636" class="cls-1" d="M57.5,5.8h.962V17.209l-.481.2L57.5,16.394Z" transform="translate(34.659 -5.8)"/>
        <path id="Path_637" data-name="Path 637" class="cls-1" d="M75.574,19.9l.481,1.019-7.693,5.5-.962-.611Z" transform="translate(40.627 8.826)"/>
        <path id="Path_638" data-name="Path 638" class="cls-1" d="M77.482,22.611,77,23.63l-.8-.407L76.841,22Z" transform="translate(45.931 11.004)"/>
        <path id="Path_639" data-name="Path 639" class="cls-1" d="M76.642,21.911,76,23.337l-.8-.407.641-1.63Z" transform="translate(45.328 10.278)"/>
        <path id="Path_640" data-name="Path 640" class="cls-1" d="M75.8,21.311,75,23.145l-.8-.611L75,20.7Z" transform="translate(44.725 9.656)"/>
        <path id="Path_641" data-name="Path 641" class="cls-1" d="M75.023,20.611,73.9,22.852l-.8-.611L74.222,20Z" transform="translate(44.062 8.93)"/>
        <path id="Path_642" data-name="Path 642" class="cls-1" d="M85.734,19.8v1.426l-7.533,5.3-.8-.611Z" transform="translate(46.654 8.722)"/>
        <path id="Path_643" data-name="Path 643" class="cls-1" d="M90.934,25.912l-.8.611-7.533-5.3V19.8Z" transform="translate(49.789 8.722)"/>
        <path id="Path_644" data-name="Path 644" class="cls-1" d="M88.1,35.228l-.8-.611V23.411l.8-.611Z" transform="translate(52.622 11.834)"/>
        <path id="Path_645" data-name="Path 645" class="cls-1" d="M82.821,35.119,82.5,34.1l7.693-5.5.8.611Z" transform="translate(49.728 17.85)"/>
        <path id="Path_646" data-name="Path 646" class="cls-1" d="M78.3,29.919l.321-1.019.962.407-.641,1.222Z" transform="translate(47.197 18.162)"/>
        <path id="Path_647" data-name="Path 647" class="cls-1" d="M79.2,30.826l.641-1.426.8.407L80,31.437Z" transform="translate(47.739 18.68)"/>
        <path id="Path_648" data-name="Path 648" class="cls-1" d="M80.1,31.53l.8-1.63.8.407-.8,1.834Z" transform="translate(48.282 19.199)"/>
        <path id="Path_649" data-name="Path 649" class="cls-1" d="M81,32.541l.962-2.241.962.611L81.8,33.152Z" transform="translate(48.824 19.614)"/>
        <path id="Path_650" data-name="Path 650" class="cls-1" d="M78.2,35.228l-.8-.611V22.8l.8.611Z" transform="translate(46.654 11.834)"/>
        <path id="Path_651" data-name="Path 651" class="cls-1" d="M72.7,35.323V33.9l7.533-5.3.8.611Z" transform="translate(43.821 17.85)"/>
        <path id="Path_652" data-name="Path 652" class="cls-1" d="M74.629,32.86v1.426L69.5,30.619l.481-1.019Z" transform="translate(41.892 18.888)"/>
      </g>
    </g>
    <path id="Path_654" data-name="Path 654" class="cls-2" d="M92.5,102.472H91.147v-1.019h.775l.387-.611.775.407Zm-3.293,0H87.273v-1.019H89.21Zm-3.874,0H83.4v-1.019h1.937Zm-3.874,0H79.526v-1.019h1.937Zm-3.874,0H75.653v-1.019h1.937Zm-3.874,0H71.779v-1.019h1.937Zm-3.874,0H67.905v-1.019h1.937Zm-3.874,0H64.032v-1.019h1.937Zm-3.874,0H60.158v-1.019h1.937Zm-3.874,0H56.284v-1.019h1.937Zm-3.874,0H52.411v-1.019h1.937Zm-3.874,0H48.537v-1.019h1.937Zm-3.874,0H44.664v-1.019H46.6Zm-3.874,0H40.79v-1.019h1.937Zm-3.874-1.019-.968-1.834.775-.407.968,1.834Zm55.2-1.834-.775-.407.968-1.834.775.407ZM36.916,97.99l-.968-1.834.775-.407.968,1.834Zm59.073-1.834-.775-.407.968-1.834.775.407ZM34.98,94.322l-.968-1.834.775-.407.968,1.834Zm62.946-1.834-.775-.407.968-1.834.775.407Zm-64.883-1.63-.968-1.834.775-.407.968,1.834Zm66.82-1.834-.775-.407.968-1.834.775.407ZM31.106,87.4l-.968-1.834.775-.407.968,1.834ZM101.8,85.562l-.775-.407.968-1.834.775.407Zm-72.63-1.834L28.2,81.895l.775-.407.968,1.834Zm74.567-1.834-.775-.407.968-1.834.775.407Zm-76.5-1.63-.968-1.834.775-.407.968,1.834Zm78.441-1.834-.775-.407.968-1.834.775.407ZM25.3,76.8l-.968-1.834.775-.407.968,1.834Zm82.314-1.834-.775-.407.968-1.834.775.407Zm-84.251-1.63L22.39,71.5l.775-.407.968,1.834ZM109.547,71.3l-.775-.407.968-1.834.775.407Zm-88.125-1.63-.968-1.834.775-.407.968,1.834Zm90.061-1.834-.775-.407.968-1.834.775.407Zm-92-1.63-.968-1.834.775-.407L20.26,65.8Zm93.935-1.834-.775-.407.968-1.834.775.407Zm-95.872-1.63-.968-1.834.775-.407.968,1.834Zm97.809-2.037-.775-.407.968-1.834.775.407Zm-99.745-1.63-.968-1.834.775-.407.968,1.834Zm101.682-1.834-.775-.407L117.488,55l.775.407ZM13.675,55.614l-.775-1.63.387-.815.775.407-.194.2.581,1.019ZM117.681,53.78l-.968-1.834.775-.407.968,1.834ZM15.03,52.15l-.775-.407.968-1.834.775.407Zm100.714-2.037-.968-1.834.775-.407.968,1.834Zm-98.777-1.63-.775-.407.968-1.834.775.407Zm96.84-1.834-.968-1.63.775-.407.968,1.834ZM18.9,45.02l-.775-.407.968-1.834.775.407Zm92.967-1.834-.968-1.834.968-.407.968,1.834Zm-91.03-1.63-.775-.611.968-1.834.775.407Zm89.093-1.834-.968-1.834.775-.407.968,1.834ZM22.778,37.889,22,37.482l.968-1.834.775.407ZM108,36.056l-.968-1.834.775-.407.968,1.834Zm-83.283-1.63-.775-.407.968-1.834.775.407Zm81.346-1.834-.968-1.834.775-.407.968,1.834Zm-79.409-1.63-.775-.407.968-1.834.775.407Zm77.472-1.834-.968-1.834.968-.611.968,1.834ZM28.588,27.3l-.775-.407.968-1.834.775.407Zm73.6-1.834-.968-1.834.775-.407.968,1.834Zm-71.662-1.63-.775-.407.968-1.834.775.407ZM100.25,22l-.968-1.834.775-.407.968,1.834Zm-67.788-1.63-.775-.407.968-1.834.775.407Zm65.851-1.834L97.345,16.7l.775-.407.968,1.834ZM34.4,16.7l-.775-.407.968-1.834.775.407Zm61.978-1.834-.968-1.834.968-.407.968,1.834Zm-60.041-1.63-.775-.407L36.529,11l.775.407Zm58.1-1.834-.968-1.834.968-.407L95.408,11ZM38.272,9.775,37.5,9.367l.968-1.834.775.407ZM92.5,7.941l-.581-1.222H90.179V5.7H92.5l.968,1.63ZM88.242,6.719H86.3V5.7h1.937Zm-3.874,0H82.431V5.7h1.937Zm-3.874,0H78.558V5.7h1.937Zm-3.874,0H74.684V5.7h1.937Zm-3.874,0H70.81V5.7h1.937Zm-3.874,0H66.937V5.7h1.937ZM65,6.719H63.063V5.7H65Zm-3.874,0H59.19V5.7h1.937Zm-3.874,0H55.316V5.7h1.937Zm-3.874,0H51.442V5.7h1.937Zm-3.874,0H47.569V5.7h1.937Zm-3.874,0H43.7V5.7h1.937Zm-3.874,0H39.822V5.7h1.937Z" transform="translate(1.907 -5.7)"/>
    <path id="Path_653" data-name="Path 653" class="cls-3" d="M108.156.8,20.7,50.385l87.456,49.584Z" transform="translate(27.411 -2.588)"/>
  </g>
</svg>
