<svg xmlns="http://www.w3.org/2000/svg" viewBox="-1967.738 1848.949 107.093 165.602">
  <defs>
    <style>
      .cls-1 {
        fill: #ffcb3e;
      }

      .cls-2 {
        fill: none;
        stroke: #fff;
        stroke-miterlimit: 10;
        stroke-width: 3px;
      }

      .cls-3 {
        fill: #fff;
      }
    </style>
  </defs>
  <g id="Group_1168" data-name="Group 1168" transform="translate(-1967.738 1848.949)">
    <g id="Group_7" data-name="Group 7" transform="translate(0 0)">
      <path id="Path_42" data-name="Path 42" class="cls-1" d="M36.128,34.1h5.784c.331-4.132.5-8.263.826-13.056a32.2,32.2,0,0,0,3.8.992c1.818-3.966,3.8-8.1,5.784-12.064.165-.331.826-.992.992-.992,3.14,1.157,3.636-1.322,4.3-3.305.826-2.148,1.983-3.305,4.132-1.818a22.755,22.755,0,0,0,2.81-2.479c1.983-2.314,3.8-1.818,5.289,1.157a4.918,4.918,0,0,1,.826,2.479c-.165,2.644.5,4.958,2.975,5.784-.5,1.653-.826,3.14-1.157,4.627a39.874,39.874,0,0,1-1.322,4.132c1.487.661,3.14,1.157,4.132,1.653,0,2.148.165,3.966,0,5.619-.5,3.471-1.157,6.941-1.818,10.412a19.625,19.625,0,0,1-1.322,3.636,12.287,12.287,0,0,1,2.81.5c2.644.661,2.975,1.983,1.983,4.462A55.033,55.033,0,0,0,74.8,53.267a19.317,19.317,0,0,1,3.636.5,9.659,9.659,0,0,1,2.314,2.148,18.856,18.856,0,0,1-1.818,1.818c-1.487,1.322-2.975,2.644-4.793,4.462,3.305.992,3.471,2.314,2.314,4.627-.992,1.818-1.157,3.966-1.818,6.611,4.3-4.132,7.933-7.933,11.9-11.4a15.8,15.8,0,0,1,4.958-2.644c4.132-1.322,8.263-2.314,12.395-3.471a19.823,19.823,0,0,1,3.305-.5c0,.661,0,.992-.165,1.157-3.305,4.3-3.14,9.09-2.81,14.048.5,6.28-1.322,11.9-3.8,17.683a79.14,79.14,0,0,1-10.908,18.344,11.794,11.794,0,0,1-5.619,3.8c-7.106,1.487-11.238,6.445-15.37,11.569-6.28,7.768-9.09,16.692-10.412,26.442-.165.826.5,1.653.826,2.479,1.157,3.636-2.148,11.734-5.619,13.717-3.636,1.983-6.28.5-6.28-3.8-.165-4.132-.5-8.429-.826-12.56v-2.314c.992.331,1.653.661,2.975,1.157-.165-4.132-.165-8.1-.661-11.9-.661-5.95-1.487-11.734-2.479-17.683-.661-3.8-2.975-6.115-6.28-8.263-3.636-2.479-6.28-6.611-9.09-10.081a17.286,17.286,0,0,1-2.148-3.8c-2.81-6.28-6.115-12.56-8.263-19.171-1.487-4.462-1.983-9.42-2.479-14.213a24.522,24.522,0,0,0-3.14-10.742,6.956,6.956,0,0,0-4.958-3.305c-2.975-.5-5.95-.992-9.585-1.653a32.891,32.891,0,0,1,11.4-5.454,21.131,21.131,0,0,1,15.535,1.157c3.471,1.653,7.437,2.148,11.4,3.305C37.12,41.533,39.6,37.732,36.128,34.1ZM63.4,63.679c.826,2.644,1.157,2.81,3.471.826a28.2,28.2,0,0,0,6.445-12.23c.661-2.81,1.487-5.784,2.479-9.255-1.487-.165-3.305-.661-4.958-.331C62.9,44.178,58.769,50.127,54.968,56.407c-.826,1.322.165,1.983,1.322,1.818a5.945,5.945,0,0,0,1.487-.826c.661.826,1.157,1.487,1.983,2.644.992-1.653,1.653-2.644,2.479-3.966.661,2.148-3.305,3.636.165,6.445.5-.826.992-1.653,1.818-2.81a8.979,8.979,0,0,1-.331,1.818C63.727,62.192,63.562,62.853,63.4,63.679ZM52.985,22.528c-2.81,5.289-5.784,10.577-4.3,17.188a14.293,14.293,0,0,0,7.272-8.759c.165,1.157.165,1.818.331,2.479h.331c.5-1.487.826-2.81,1.487-4.958.165,1.322.331,1.983.5,2.975.331-1.818.661-3.305.992-4.793.5.331.826.5,1.322.826-1.322-4.3-4.462-6.115-7.933-4.958,1.487-.826,2.975-1.983,4.627-2.975a12.756,12.756,0,0,1,.331,2.479h.5c.165-.661.331-1.322.661-2.479.331,1.487.331,2.479.661,3.966,1.322-4.627-2.314-11.569-5.95-12.725-2.314,3.966-5.123,7.767-4.793,12.891.331-1.157.826-2.479,1.157-3.636h.331c-.165,1.653-.5,3.471-.661,5.454C51.167,24.18,51.994,23.354,52.985,22.528Zm-.5,38.011c1.818-1.983,1.653-3.305-.5-4.627a49.8,49.8,0,0,0-5.123-2.644,8.7,8.7,0,0,0-3.14-.331c1.818,3.636,3.305,6.776,4.793,9.585l3.966-1.983c-3.305,2.81-3.305,2.81-1.487,7.437a34.781,34.781,0,0,1,.992,3.966l2.479,7.933c.331,0,.661-.165.992-.165-.165-1.487-.331-3.14-.5-4.627-.165-1.653-.331-3.305-.331-4.958H55.3c.165,2.479.5,4.958.661,7.272h.661V73.264c.661.992.826,1.487,1.157,1.983.331-3.471-.661-6.776.661-10.081l.5,7.437a1.49,1.49,0,0,0,.826-.165,32.509,32.509,0,0,1-.5-3.966c-.165-2.644.165-2.975,1.487-2.81-.165,1.487-.331,3.14-.5,4.627h.661c0-.826-.165-1.653-.165-2.644.661.331,1.157.5,1.487.661.331-3.8-1.983-6.115-4.3-8.429-1.983-1.818-3.636.5-5.454.5C52.655,60.539,52.489,60.539,52.489,60.539ZM35.3,46.326h0C31.831,45,28.2,43.517,24.559,42.194c-7.106-2.644-13.552-.165-20,2.148-.165,0-.331.331-.661.826,1.157.165,1.983.165,2.975.331,4.793.826,9.42,1.653,14.213,2.314A51.27,51.27,0,0,0,31,48.64c3.305-.331,6.28-.661,9.09,2.148C38.938,47.979,38.276,47.318,35.3,46.326Zm37.02-18.014c.331,1.487.661,2.81,1.157,4.793V21.536a14.057,14.057,0,0,0-3.636.661c-.826.165-1.322,1.157-2.148,1.487-4.627,1.487-6.611,5.123-8.263,9.09,1.983,2.644,3.8,5.123,5.784,7.6A10.258,10.258,0,0,0,67.2,39.054c-.661,1.322-.992,2.148-1.322,2.975l.661.661c.826-.661,1.983-.992,2.314-1.818,2.148-4.132,3.636-8.263,3.471-12.56ZM67.2,97.228a15.5,15.5,0,0,0,1.487-1.983l4.462-8.924a14.064,14.064,0,0,0,.992-2.81c-1.322-.331-2.975-1.322-3.8-.992-4.462,2.314-9.751,2.975-13.387,6.941-1.983,2.148-2.479,3.305-.992,5.95,1.157,2.148,2.479,4.132,3.966,6.611,2.314-1.983,4.462-3.8,6.611-5.619v.165c.165,0,.5.331.661.661-2.314,1.818-4.627,3.636-7.106,5.784.165.5.5,1.322.992,2.975C63.4,102.516,65.215,99.872,67.2,97.228Zm8.759,13.882a60.439,60.439,0,0,0,8.263-2.644A18.747,18.747,0,0,0,93.475,98.22c-.165-.331-.331-.5-.5-.826l-11.9,2.975c0-.165-.165-.5-.165-.661,3.305-.826,6.776-2.644,10.081-2.479,3.471.165,4.132-1.653,5.289-3.8a12.793,12.793,0,0,0,1.157-2.644c.826-1.983,1.653-3.8,2.479-5.784,1.818-4.462,3.305-8.924,2.81-13.717A34.569,34.569,0,0,0,97.772,73.1c-1.983.992-3.8,2.479-5.784,3.471a10.093,10.093,0,0,1-2.148.5c4.132-2.479,8.263-5.123,12.23-7.6.5-3.636.992-7.767,1.322-11.734-2.148.661-4.627,1.818-7.272,1.983-7.272.165-11.569,5.123-15.866,9.916-.661.826-1.322,1.487-1.983,2.314-2.148,2.975-4.3,5.784-6.28,8.759.331,0,.661.165.992.165.826,1.157,2.479,2.644,2.148,3.636-.5,1.818.165,2.644.992,3.966.661.992,1.157,2.148,1.818,3.305-.165,0-.331.165-.5.165-1.157-1.487-2.314-3.14-3.471-4.627-.165.165-.5.331-.661.5l2.975,4.462c-.165.165-.331.165-.5.331-.992-1.157-1.818-2.148-2.644-3.305-.331,1.157-.661,1.983-.826,2.479,1.487,1.653,2.975,3.471,4.462,5.123l-.331.331c-.331-.165-.661-.165-.992-.331.661,1.157,1.157,2.148,1.653,3.14-.165,0-.165.165-.331.165-.826-.992-1.653-1.983-2.975-3.471-.331,3.966-4.462,5.95-3.14,9.916a11.379,11.379,0,0,0-1.322-.5c.5,1.157.992,2.314,1.322,3.305-.165,0-.165.165-.331.165-.661-.661-1.157-1.322-1.818-1.983-.165.5-.331.661-.331.826a.607.607,0,0,0,.165.5c2.644,2.314,2.314,4.958.661,7.6a2.718,2.718,0,0,0-.331,1.653,20.631,20.631,0,0,0-1.983,1.322c-2.644,2.975-5.289,5.95-7.6,8.759,1.322-6.115.661-13.221,5.95-18.675,2.148-2.148,4.627-3.966,4.627-7.437-5.289,2.644-10.412,5.288-13.387,10.742-.165-.165-.5-.331-.661-.5,1.157-1.653,2.479-3.305,3.636-4.793.992-2.314-1.322-8.594-3.636-10.412,1.157,3.14,2.479,6.776,3.8,10.412-1.157-2.479-2.479-4.958-3.636-7.6-.165.165-.5.165-.661.331.5,1.157.992,2.314,1.653,3.8-.826-.5-1.157-.661-1.653-.992.661,1.983,1.322,3.8,1.818,5.454-.165,0-.331.165-.5.165-.5-.992-.826-1.818-1.322-2.81-.165.165-.5.165-.661.331.5,1.322.992,2.644,1.653,4.462-.826-.992-1.487-1.487-2.148-2.314-.992,3.14-1.818,5.784,0,8.759a11.488,11.488,0,0,1,1.487,6.611c-.5,6.445-1.322,12.891-1.983,19.336-.5-5.454-.992-11.073-1.653-16.692h-.165c-.165.5-.165,1.157-.331,1.653a59.755,59.755,0,0,1,0-9.42,47.1,47.1,0,0,1,.992-8.594c2.148-7.933,1.983-15.865,2.148-23.964.165-6.776-2.975-13.056-5.123-19.336-1.322-3.636-3.636-7.106-5.454-10.577-3.471-6.28-8.1-8.1-15.2-5.784C27.7,56.242,29.352,61.7,33.153,65a41.566,41.566,0,0,1,1.983-4.793c.661-1.487,1.487-2.81,2.314-4.3.165,0,.331.165.661.165-3.14,6.28-6.28,12.725-1.653,19.171,1.818-4.627,3.8-9.42,5.619-14.213.165.165.5.165.661.331-1.487,4.3-3.14,8.429-4.627,12.725-1.653,4.462.331,8.1,1.818,12.56.826-1.487,1.322-2.479,1.983-3.471.165,0,.165.165.331.165L40.26,88.3c.165,0,.331.165.661.165.5-.826.826-1.487,1.487-2.479.661,2.314-2.479,4.462.165,6.611.992-6.445,4.3-13.552,6.941-15.37-.992,1.983-2.314,4.132-3.305,6.445-1.818,4.3-3.14,8.594-2.479,13.386,0,.5.5.826.992,1.322-.165,3.14,1.157,6.28,2.314,9.916.661-2.809,1.157-4.793,1.818-6.941.165,0,.5.165.661.165-.5,3.14-.992,6.445-1.487,9.585a2.1,2.1,0,0,0-.992.165c-.992-2.975-1.818-5.95-2.81-8.924-2.81-8.594-5.784-17.022-8.263-25.616C33.814,69.794,32,63.018,23.4,61.035c.165-.331.5-.5.661-.826,2.314.992,4.627,2.148,7.106,3.14a39.713,39.713,0,0,1-1.818-3.8c-1.653-4.3-6.28-6.115-8.429-10.081-.992-1.653-4.132-2.148-6.28-3.14.661,1.818,1.983,2.975,2.314,4.462,1.157,4.132,2.479,8.263,2.81,12.56.661,6.115,1.818,11.9,5.123,17.188a20.573,20.573,0,0,1,2.81,6.115,41.223,41.223,0,0,0,8.263,16.031,16.973,16.973,0,0,0,5.123,4.627c4.627,2.314,6.611,5.95,7.768,10.742a126.719,126.719,0,0,1,2.479,30.574,14.843,14.843,0,0,0,1.157,4.462c.331,0,.5-.165.826-.165.331-1.157.826-2.314,1.157-3.636.331,0,.5.165.826.165-.331,2.479-.661,4.958-.992,7.6.165,0,.331.165.661.165,1.157-4.958,2.81-9.916,3.636-15.039,1.322-8.429,4.3-15.866,10.081-22.311.5-.5.5-1.487.661-2.314.5-.165,1.322,0,1.487-.331C71.991,115.572,73.974,113.424,75.957,111.11Zm-.5-46.44c-10.247,0-23.3,15.039-19.336,24.955,2.479-3.14,4.627-5.95,6.776-8.759h.165c-.661,1.322-1.322,2.479-1.983,3.8.331.165.5.5.826.661,1.487-1.818,3.14-3.636,4.627-5.454l.331.331L65.38,83.18c.165,0,.331.165.5.165,1.322-1.983,2.479-3.966,3.8-5.95.165,0,.165.165.331.165a9.316,9.316,0,0,1-.661,1.983c.165,0,.331.165.5.165l2.479-5.454c.165,0,.331.165.661.165-.661,1.983-1.487,4.132-2.148,6.115.165,0,.331.165.661.165.661-1.818,1.322-3.636,1.818-5.454.661-3.14,0-6.776,2.148-9.585C75.461,65.662,75.461,65.166,75.461,64.671Zm-21.65-8.263c1.653-3.305,3.305-6.28,5.123-9.751-.331,1.322-.5,2.148-.661,2.975.165,0,.165,0,.331.165.5-1.322.826-2.644,1.322-4.3l.661,1.322c1.157-2.148,2.148-3.966,3.305-6.115-.992-1.653-1.983-3.636-3.305-5.454A2.974,2.974,0,0,0,58.108,34.1c-3.966.826-6.28,3.8-8.594,6.941,0,.5,0,.992,0,1.322l3.471,13.387A6.459,6.459,0,0,1,53.811,56.407ZM39.268,35.253c.165,1.157.165,2.314.331,3.305.5,3.305.992,6.611,1.653,9.751.5,2.81,2.148,4.132,5.619,3.8.165-1.653.331-3.471.661-5.619.661,2.148,1.322,4.132,1.983,6.115.165,0,.5-.165.661-.165-.331-1.653-.826-3.305-1.157-4.958.165,0,.331-.165.661-.165.661,2.148,1.157,4.3,1.818,6.611C52.489,47.813,45.548,37.071,39.268,35.253Zm22.311-9.585c.165.165.5.165.661.331,1.322-2.975,5.619-2.148,6.611-5.784.826-2.975,2.148-5.95,3.471-9.585-3.636.826-6.776,1.322-9.751,2.148-1.818.661-2.81,1.983-1.983,4.462a26.157,26.157,0,0,1,.826,6.28C61.414,24.346,61.579,25.007,61.579,25.668Zm-17.518-3.14c-.165,2.644-.331,4.958-.331,7.272a36.333,36.333,0,0,0,.826,7.272c.165.661.992.992,1.653,1.653a12.326,12.326,0,0,0,1.157-1.983c.5-2.314.826-4.627,1.157-6.941a3.952,3.952,0,0,0-.331-2.81A34.805,34.805,0,0,0,44.061,22.528ZM61.744,123.009c1.487-1.653,3.305-3.305,4.627-4.958a10.9,10.9,0,0,0,1.983-4.462c.165-.826-.661-1.818-.992-2.809a8.543,8.543,0,0,0-2.148.992C62.075,114.746,61.579,118.712,61.744,123.009ZM48.688,148.956c-.165.165-.5.165-.661.331.165,3.8.331,7.437.5,11.238a3.33,3.33,0,0,0,1.157,2.644c.826.331,1.983-.331,2.644-.5-.826-2.81-1.653-5.123-2.314-7.437a.577.577,0,0,0,.331-.165c.5.661.826,1.487,1.322,2.149.165-.165.331-.165.661-.331C51.167,154.245,49.845,151.6,48.688,148.956ZM59.1,14.1h.826c.661-2.148.992-4.627,1.983-6.445.992-1.653,0-2.148-.826-2.479-.5-.165-1.653.5-1.983.992-.826,1.487-1.487,3.14-2.314,4.958C57.447,11.951,58.274,13.108,59.1,14.1ZM71.66,62.192c.165.165.331.165.661.331,2.148-2.314,4.3-4.627,6.445-7.106-1.157-1.322-2.975-1.322-4.627-.5-.992.5-.331,1.487-.331,2.314C73.809,58.886,72.321,60.539,71.66,62.192ZM68.685,5.01c.165-.165.5-.331.661-.5-.661-.992-1.157-2.479-1.983-2.644C66.7,1.7,65.38,2.7,64.554,3.357c-1.157,1.322-1.818,2.81-.5,4.627.992-.5,1.983-.826,2.975-1.322.165-.826.331-1.653.5-2.81ZM51.994,118.051c.331,4.462.5,8.759.826,13.221C54.473,127.472,54.142,121.191,51.994,118.051ZM69.677,9.141c-2.644-2.479-4.627-1.653-5.95,2.644C66.041,10.794,67.859,9.968,69.677,9.141ZM26.047,54.589c.5,0,.826-.165,1.322-.165V50.292c-.992.165-2.148.165-3.14.331A29,29,0,0,1,26.047,54.589ZM70.669,98.22a16.246,16.246,0,0,0,.826-2.644c.331.5.5.826.992,1.487V93.592a.859.859,0,0,0-.661-.331L68.52,96.567C69.347,97.228,70.008,97.724,70.669,98.22ZM57.778,151.931c-.331,0-.826-.165-1.157-.165v1.653a9.532,9.532,0,0,1-.5,2.314,21.517,21.517,0,0,1-2.479,2.975c.165.165.5.331.661.5.331-.661.826-1.322,1.487-2.644a21.426,21.426,0,0,1-.5,2.975c.165,0,.5.165.661.165C56.621,157.054,57.117,154.41,57.778,151.931Z" transform="translate(-0.1 0.079)"/>
      <path id="Path_44" data-name="Path 44" class="cls-1" d="M41.389,69.2c-3.14,1.653-4.132,4.793-5.289,7.767,0-2.81,1.322-4.958,2.975-7.106,2.314-2.644,4.627-5.454,6.776-8.263C46.016,65.236,43.537,67.054,41.389,69.2Z" transform="translate(23.396 40.335)"/>
      <path id="Path_45" data-name="Path 45" class="cls-1" d="M42.366,36.41C41.044,38.227,39.722,39.88,38.4,41.7c.165-.661.165-1.487.331-2.148,1.322-1.818,2.644-3.8,4.132-5.95C42.7,34.757,42.532,35.583,42.366,36.41Z" transform="translate(24.897 22.06)"/>
      <path id="Path_46" data-name="Path 46" class="cls-1" d="M31.963,64c-.661,4.627-1.157,9.09-1.653,13.221C28.823,72.924,30.806,68.462,31.963,64Z" transform="translate(19.27 41.901)"/>
      <path id="Path_47" data-name="Path 47" class="cls-1" d="M27.255,59.3c-3.14-2.314-6.115-4.627-9.255-6.941a2.281,2.281,0,0,0,.5-.661c3.14,2.314,6.28,4.462,9.42,6.776A2.9,2.9,0,0,0,27.255,59.3Z" transform="translate(11.583 33.873)"/>
      <path id="Path_48" data-name="Path 48" class="cls-1" d="M31.127,45.8l-3.966,6.445a1.253,1.253,0,0,0-.661-.331c1.322-2.148,2.644-4.3,3.966-6.611A2.281,2.281,0,0,0,31.127,45.8Z" transform="translate(17.13 29.696)"/>
      <path id="Path_49" data-name="Path 49" class="cls-1" d="M61.679,51.691c-1.487,2.644-2.975,5.289-4.3,8.1-1.487,3.471-2.81,6.941-4.3,10.742H55.4c-1.157.826-1.983,1.322-2.975,1.983h1.653c.165.165.165.331.331.5-1.322.826-2.644,1.653-3.966,2.314a4.381,4.381,0,0,1,.826.992c.5,0,.992-.165,1.487-.165-.992.826-1.983,1.653-3.636,2.81,1.322,0,1.818.165,2.314.165l-4.3,4.3.5.5,4.958-1.983V82.1L47.632,85.57c-1.157.661-2.314,1.322-4.132,2.479,1.322-2.314,2.479-3.966,3.305-5.784,1.322-2.81,2.479-5.619,3.8-8.429,1.487-3.14,1.653-6.115-.331-9.09a12.047,12.047,0,0,1-1.818-4.793c1.322,2.314,2.644,4.462,3.966,6.941,1.818-2.975,2.148-5.619.826-8.759a108.315,108.315,0,0,1-3.14-10.412c.165,0,.5-.165.661-.165,1.322,4.132,2.644,8.1,3.966,12.23C59.366,52.352,63,44.75,68.62,38.8Q65.4,45.245,61.679,51.691Z" transform="translate(28.225 25.454)"/>
      <path id="Path_50" data-name="Path 50" class="cls-1" d="M52.761,39.729c.5,3.305.826,6.611,1.322,9.916a1.49,1.49,0,0,0-.826.165c-.331-3.305-.826-6.776-1.157-10.081C52.265,39.564,52.6,39.729,52.761,39.729Z" transform="translate(33.838 26.012)"/>
      <path id="Path_51" data-name="Path 51" class="cls-1" d="M50.6,66.211c1.653-.661,3.305-1.487,4.793-2.148,0-.165,0-.165-.165-.331a3.222,3.222,0,0,0-1.322.165c1.322-1.487,2.644-2.975,3.966-4.3C57.045,63.566,54.9,66.376,50.6,66.211Z" transform="translate(32.859 39.029)"/>
      <path id="Path_52" data-name="Path 52" class="cls-1" d="M51.8,56.4c3.14-2.644,7.106-3.636,11.238-3.8C59.237,53.922,55.436,55.244,51.8,56.4Z" transform="translate(33.643 34.461)"/>
      <path id="Path_53" data-name="Path 53" class="cls-1" d="M65.3,48.311c-3.966,1.653-8.1,3.305-11.9,4.793C55.383,50.79,62.159,47.98,65.3,48.311Z" transform="translate(34.687 31.644)"/>
      <path id="Path_54" data-name="Path 54" class="cls-1" d="M42.911,62.246c-1.983,1.322-4.132,2.644-6.115,3.966a2.281,2.281,0,0,1-.5-.661A22.41,22.41,0,0,0,47.538,52c.331.165.661.5.992.661-1.818,3.305-3.8,6.445-5.619,9.585Z" transform="translate(23.526 34.069)"/>
      <path id="Path_55" data-name="Path 55" class="cls-1" d="M44.779,18.175c-.661,2.644-1.322,5.288-1.983,7.767a.607.607,0,0,1-.5-.165c.661-3.471,1.157-7.106,1.818-10.577h.5a20.052,20.052,0,0,1,.165,2.975Z" transform="translate(27.442 10.051)"/>
      <path id="Path_56" data-name="Path 56" class="cls-1" d="M35.871,26.231c-.992,3.305-1.983,6.445-2.975,9.751a.607.607,0,0,1-.5-.165c.826-3.305,1.818-6.611,2.644-9.916A2.792,2.792,0,0,0,35.871,26.231Z" transform="translate(20.981 17.035)"/>
      <path id="Path_57" data-name="Path 57" class="cls-1" d="M24.272,28c.331.331.661.5,1.157.992h-4.3a32.508,32.508,0,0,0-3.966.5A1.49,1.49,0,0,0,17,28.661c2.479-.165,4.958-.331,7.272-.661Z" transform="translate(10.93 18.405)"/>
      <path id="Path_58" data-name="Path 58" class="cls-1" d="M44.727,7.731c-1.322,3.305-2.644,6.611-3.966,10.081-.165-.165-.5-.165-.661-.331,1.157-3.305,2.314-6.776,3.471-10.081A2.389,2.389,0,0,1,44.727,7.731Z" transform="translate(26.006 4.961)"/>
    </g>
    <path id="Path_59" data-name="Path 59" class="cls-2" d="M99.732,107.761,52.466,16.7,5.2,107.761Z" transform="translate(3.229 11.03)"/>
    <g id="Group_8" data-name="Group 8" transform="translate(12.23 46.736)">
      <path id="Path_60" data-name="Path 60" class="cls-3" d="M50.8,115.13H49.147V114.3H50.8Zm1.653-.165v-.826a5.621,5.621,0,0,0,1.653-.165v.826A5.623,5.623,0,0,1,52.452,114.964Zm-4.958,0c-.5,0-1.157-.165-1.653-.165l.165-.826c.5,0,1.157.165,1.653.165Zm8.263-.165-.165-.826c.5,0,1.157-.165,1.653-.165l.165.826A5.622,5.622,0,0,0,55.758,114.8Zm-11.569-.331c-.5-.165-1.157-.165-1.653-.331l.165-.826c.5.165.992.165,1.653.331Zm14.874-.165-.165-.826c.5-.165.992-.165,1.653-.331l.165.826C60.055,114.138,59.559,114.138,59.063,114.3Zm-18.179-.5a5.872,5.872,0,0,0-1.653-.331l.165-.826a4.889,4.889,0,0,0,1.653.331Zm21.485-.331-.165-.826,1.487-.5.165.826A2.666,2.666,0,0,1,62.368,113.477Zm-24.625-.5c-.5-.165-.992-.331-1.653-.5l.331-.826,1.487.5Zm27.765-.5-.331-.826,1.487-.5.331.826Zm-30.9-.661c-.5-.165-.992-.5-1.487-.661l.331-.826c.5.165.992.5,1.487.661Zm33.88-.5-.331-.826c.5-.165.992-.5,1.487-.661l.331.661A4.333,4.333,0,0,1,68.483,111.329ZM31.629,110.5a6.7,6.7,0,0,1-1.487-.826l.331-.661c.5.331.992.5,1.487.826Zm39.829-.661-.331-.661c.5-.331.992-.5,1.487-.826l.5.661A15.365,15.365,0,0,0,71.458,109.841Zm-42.8-.992c-.5-.331-.992-.5-1.487-.826l.5-.661a15.25,15.25,0,0,0,1.322.826Zm45.779-.661-.5-.661c.5-.331.826-.661,1.322-.992l.5.661C75.259,107.528,74.929,107.858,74.433,108.189Zm-48.588-1.157c-.5-.331-.826-.661-1.322-.992l.5-.661c.5.331.826.661,1.322.992Zm51.233-.826-.5-.661c.5-.331.826-.661,1.322-.992l.5.661A9.164,9.164,0,0,1,77.077,106.205ZM23.2,105.049a8.277,8.277,0,0,1-1.322-1.157l.5-.661c.331.331.826.661,1.157.992Zm56.521-.992-.5-.661a7.636,7.636,0,0,0,1.157-1.157l.5.661A7.636,7.636,0,0,1,79.721,104.057Zm-59-1.157-1.157-1.157.661-.5,1.157,1.157Zm61.314-.992-.661-.5,1.157-1.157.661.5Zm-63.627-1.487c-.331-.331-.661-.826-1.157-1.322l.661-.5A7.187,7.187,0,0,0,18.9,99.76Zm65.941-.992-.661-.5c.331-.5.661-.826.992-1.322l.661.5A9.163,9.163,0,0,0,84.349,99.43ZM16.424,97.942c-.331-.5-.661-.826-.992-1.322l.661-.5c.331.5.661.826.992,1.322Zm69.908-1.157-.661-.5c.331-.5.661-.826.992-1.322l.661.5A9.171,9.171,0,0,0,86.332,96.785ZM14.441,95.133a6.7,6.7,0,0,1-.826-1.487l.661-.5a9.223,9.223,0,0,0,.826,1.322ZM88.15,93.976l-.661-.5c.331-.5.5-.992.826-1.487l.661.331A15.353,15.353,0,0,1,88.15,93.976ZM12.789,92.323c-.331-.5-.5-.992-.826-1.487l.661-.331a6.7,6.7,0,0,0,.826,1.487ZM89.8,91l-.826-.331c.165-.5.5-.992.661-1.487l.826.331C90.3,90.009,89.968,90.505,89.8,91ZM11.3,89.348c-.165-.5-.5-.992-.661-1.487l.826-.331c.165.5.5.992.661,1.487Zm79.824-1.322L90.3,87.7a5.871,5.871,0,0,1,.661-1.487l.826.33A5.871,5.871,0,0,0,91.125,88.026ZM9.979,86.208c-.165-.5-.331-.992-.5-1.653l.826-.165.5,1.487Zm82.3-1.322-.826-.331.5-1.487.826.165C92.612,83.895,92.447,84.39,92.282,84.886ZM8.987,83.068a4.889,4.889,0,0,1-.331-1.653l.826-.165A4.889,4.889,0,0,1,9.814,82.9Zm84.12-1.322-.826-.165c.165-.5.165-.992.331-1.653l.826.165A7.273,7.273,0,0,1,93.108,81.746ZM8.326,79.763c-.165-.5-.165-1.157-.331-1.653l.826-.165A7.273,7.273,0,0,0,9.153,79.6Zm85.443-1.322-.826-.165a5.622,5.622,0,0,0,.165-1.653l.826.165C93.934,77.284,93.769,77.945,93.769,78.441ZM7.831,76.623c0-.5-.165-1.157-.165-1.653h.826c0,.5.165,1.157.165,1.653ZM94.1,75.135h-.826a5.623,5.623,0,0,1,.165-1.653h.826A5.622,5.622,0,0,1,94.1,75.135ZM7.5,73.318V71.665h.826v1.653ZM94.265,71.83h-.826V70.012h.826V71.83ZM8.326,70.012H7.5a5.622,5.622,0,0,1,.165-1.653h.826A6.2,6.2,0,0,1,8.326,70.012ZM93.273,68.36c0-.5-.165-1.157-.165-1.653l.826-.165c0,.5.165,1.157.165,1.653ZM8.657,66.707l-.826-.165c0-.5.165-1.157.165-1.653l.826.165C8.822,65.55,8.657,66.211,8.657,66.707ZM92.943,65.22c-.165-.5-.165-1.157-.331-1.653l.826-.165c.165.5.165,1.157.331,1.653ZM9.153,63.567,8.326,63.4c.165-.5.165-1.157.331-1.653l.826.165C9.318,62.41,9.318,62.906,9.153,63.567Zm83.129-1.653a4.89,4.89,0,0,1-.331-1.653l.826-.165a4.889,4.889,0,0,1,.331,1.653ZM9.814,60.262,8.987,60.1c.165-.5.331-.992.5-1.653l.826.331Zm81.641-1.487-.5-1.487.826-.331c.165.5.331.992.5,1.653Zm-80.65-1.487-.826-.331a5.87,5.87,0,0,1,.661-1.487l.826.331C11.3,56.13,11.136,56.626,10.805,57.287ZM90.464,55.8c-.165-.5-.5-.992-.661-1.487l.826-.331c.165.5.5.992.661,1.487ZM12.127,54.147l-.826-.331c.165-.5.5-.992.661-1.487l.661.331A5.252,5.252,0,0,1,12.127,54.147Zm76.849-1.322a6.7,6.7,0,0,0-.826-1.487l.661-.331c.331.5.5.992.826,1.487ZM13.615,51.337l-.661-.331c.331-.5.5-.992.826-1.487l.661.5A3.6,3.6,0,0,0,13.615,51.337ZM87.489,49.85a9.225,9.225,0,0,0-.826-1.322l.661-.5a6.7,6.7,0,0,1,.826,1.487ZM15.268,48.528l-.661-.5A9.168,9.168,0,0,1,15.6,46.71l.661.5A2.57,2.57,0,0,0,15.268,48.528Zm70.4-1.322c-.331-.5-.661-.826-.992-1.322l.661-.5c.331.5.661.826.992,1.322ZM17.085,45.883l-.661-.5c.331-.5.661-.826.992-1.322l.661.5C17.747,45.057,17.416,45.388,17.085,45.883Zm66.6-1.322A7.188,7.188,0,0,0,82.7,43.4l.661-.5a8.274,8.274,0,0,0,1.157,1.322ZM19.234,43.4l-.661-.661a7.635,7.635,0,0,1,1.157-1.157l.661.5A8.278,8.278,0,0,0,19.234,43.4Zm62.305-1.322-1.157-1.157.5-.661,1.157,1.157ZM21.382,40.925l-.5-.661,1.157-1.157.5.661A3.861,3.861,0,0,1,21.382,40.925Zm57.843-.992c-.331-.331-.826-.661-1.157-.992l.5-.661a8.277,8.277,0,0,1,1.322,1.157ZM23.861,38.777l-.5-.661c.5-.331.826-.661,1.322-.992l.5.661C24.688,38.116,24.357,38.446,23.861,38.777Zm52.885-.992c-.5-.331-.826-.661-1.322-.992l.5-.661c.5.331.826.661,1.322.992Zm-50.241-.992-.5-.661a9.167,9.167,0,0,0,1.322-.992l.5.661C27.332,36.3,26.836,36.463,26.506,36.794Zm47.6-.826a15.241,15.241,0,0,0-1.322-.826l.5-.661c.5.331.992.5,1.487.826ZM29.15,35.141l-.5-.661c.5-.331.992-.5,1.487-.826l.331.661A15.244,15.244,0,0,0,29.15,35.141Zm42.143-.826c-.5-.331-.992-.5-1.487-.826l.331-.661a6.7,6.7,0,0,1,1.487.826Zm-39.168-.826-.5-.661c.5-.165.992-.5,1.487-.661l.331.826A6.8,6.8,0,0,0,32.125,33.489Zm36.193-.661c-.5-.165-.992-.5-1.487-.661l.331-.826c.5.165.992.5,1.487.661ZM35.1,32.166l-.331-.826a5.87,5.87,0,0,0,1.487-.661l.331.826A5.871,5.871,0,0,1,35.1,32.166Zm30.244-.5-1.487-.5.331-.826c.5.165.992.331,1.653.5ZM38.074,31.01l-.165-.826c.5-.165.992-.331,1.653-.5l.165.826C39.231,30.679,38.57,30.844,38.074,31.01ZM62.2,30.679a4.889,4.889,0,0,0-1.653-.331l.165-.826a5.872,5.872,0,0,0,1.653.331Zm-20.989-.5-.165-.826c.5-.165,1.157-.165,1.653-.331l.165.826C42.371,30.018,41.71,30.018,41.214,30.183Zm17.849-.331c-.5-.165-.992-.165-1.653-.331l.165-.826c.5.165,1.157.165,1.653.331ZM44.52,29.522l-.165-.826a5.622,5.622,0,0,1,1.653-.165l.165.826A6.2,6.2,0,0,1,44.52,29.522Zm11.238-.165c-.5,0-1.157-.165-1.653-.165v-.826c.5,0,1.157.165,1.653.165Zm-8.1-.165v-.826a5.622,5.622,0,0,0,1.653-.165v.826A5.622,5.622,0,0,1,47.66,29.192Zm4.958,0H50.965v-.826h1.653Z" transform="translate(-7.5 -28.2)"/>
    </g>
  </g>
</svg>
