<?xml version="1.0" encoding="utf-8"?>
<!-- Generator: Adobe Illustrator 22.0.1, SVG Export Plug-In . SVG Version: 6.00 Build 0)  -->
<svg version="1.1" id="Layer_1" xmlns="http://www.w3.org/2000/svg" xmlns:xlink="http://www.w3.org/1999/xlink" x="0px" y="0px"
	 viewBox="0 0 107.1 165.6" style="enable-background:new 0 0 107.1 165.6;" xml:space="preserve">
<style type="text/css">
	.st0{fill:#727272;}
	.st1{fill:none;stroke:#FFFFFF;stroke-width:3;stroke-miterlimit:10;}
	.st2{fill:#FFFFFF;}
</style>
<g id="Group_1168" transform="translate(-1967.738 1848.949)">
	<g id="Group_7" transform="translate(0 0)">
		<path id="Path_42" class="st0" d="M2003.8-1814.8h5.8c0.3-4.1,0.5-8.3,0.8-13.1c1.2,0.4,2.5,0.7,3.8,1c1.8-4,3.8-8.1,5.8-12.1
			c0.2-0.3,0.8-1,1-1c3.1,1.2,3.6-1.3,4.3-3.3c0.8-2.1,2-3.3,4.1-1.8c1-0.7,1.9-1.6,2.8-2.5c2-2.3,3.8-1.8,5.3,1.2
			c0.5,0.7,0.8,1.6,0.8,2.5c-0.2,2.6,0.5,5,3,5.8c-0.5,1.7-0.8,3.1-1.2,4.6c-0.4,1.4-0.8,2.8-1.3,4.1c1.5,0.7,3.1,1.2,4.1,1.7
			c0,2.1,0.2,4,0,5.6c-0.5,3.5-1.2,6.9-1.8,10.4c-0.3,1.3-0.8,2.5-1.3,3.6c1,0.1,1.9,0.2,2.8,0.5c2.6,0.7,3,2,2,4.5
			c-0.9,2.4-1.6,4.9-2.2,7.4c1.2,0.1,2.4,0.2,3.6,0.5c0.9,0.6,1.7,1.3,2.3,2.1c-0.6,0.6-1.2,1.3-1.8,1.8c-1.5,1.3-3,2.6-4.8,4.5
			c3.3,1,3.5,2.3,2.3,4.6c-1,1.8-1.2,4-1.8,6.6c4.3-4.1,7.9-7.9,11.9-11.4c1.5-1.2,3.2-2.1,5-2.6c4.1-1.3,8.3-2.3,12.4-3.5
			c1.1-0.3,2.2-0.4,3.3-0.5c0,0.7,0,1-0.2,1.2c-3.3,4.3-3.1,9.1-2.8,14c0.5,6.3-1.3,11.9-3.8,17.7c-2.8,6.6-6.5,12.7-10.9,18.3
			c-1.5,1.8-3.4,3.1-5.6,3.8c-7.1,1.5-11.2,6.4-15.4,11.6c-6.3,7.8-9.1,16.7-10.4,26.4c-0.2,0.8,0.5,1.7,0.8,2.5
			c1.2,3.6-2.1,11.7-5.6,13.7c-3.6,2-6.3,0.5-6.3-3.8c-0.2-4.1-0.5-8.4-0.8-12.6v-2.3c1,0.3,1.7,0.7,3,1.2
			c-0.2-4.1-0.2-8.1-0.7-11.9c-0.7-5.9-1.5-11.7-2.5-17.7c-0.7-3.8-3-6.1-6.3-8.3c-3.6-2.5-6.3-6.6-9.1-10.1
			c-0.9-1.2-1.6-2.4-2.1-3.8c-2.8-6.3-6.1-12.6-8.3-19.2c-1.5-4.5-2-9.4-2.5-14.2c-0.2-3.8-1.3-7.5-3.1-10.7c-1.1-1.8-2.9-3-5-3.3
			c-3-0.5-6-1-9.6-1.7c3.4-2.5,7.3-4.4,11.4-5.5c5.1-1.6,10.7-1.2,15.5,1.2c3.5,1.7,7.4,2.1,11.4,3.3
			C2004.8-1807.3,2007.2-1811.1,2003.8-1814.8z M2031-1785.2c0.8,2.6,1.2,2.8,3.5,0.8c3.1-3.5,5.3-7.7,6.4-12.2
			c0.7-2.8,1.5-5.8,2.5-9.3c-1.5-0.2-3.3-0.7-5-0.3c-7.9,1.5-12.1,7.4-15.9,13.7c-0.8,1.3,0.2,2,1.3,1.8c0.5-0.2,1-0.5,1.5-0.8
			c0.7,0.8,1.2,1.5,2,2.6c1-1.7,1.7-2.6,2.5-4c0.7,2.1-3.3,3.6,0.2,6.4c0.5-0.8,1-1.7,1.8-2.8c0,0.6-0.2,1.2-0.3,1.8
			C2031.4-1786.7,2031.2-1786,2031-1785.2z M2020.6-1826.3c-2.8,5.3-5.8,10.6-4.3,17.2c3.5-1.8,6.2-5,7.3-8.8
			c0.2,1.2,0.2,1.8,0.3,2.5h0.3c0.5-1.5,0.8-2.8,1.5-5c0.2,1.3,0.3,2,0.5,3c0.3-1.8,0.7-3.3,1-4.8c0.5,0.3,0.8,0.5,1.3,0.8
			C2027.2-1825.7,2024.1-1827.5,2020.6-1826.3c1.5-0.8,3-2,4.6-3c0.2,0.8,0.3,1.6,0.3,2.5h0.5c0.2-0.7,0.3-1.3,0.7-2.5
			c0.3,1.5,0.3,2.5,0.7,4c1.3-4.6-2.3-11.6-5.9-12.7c-2.3,4-5.1,7.8-4.8,12.9c0.3-1.2,0.8-2.5,1.2-3.6h0.3c-0.2,1.7-0.5,3.5-0.7,5.5
			C2018.8-1824.7,2019.6-1825.5,2020.6-1826.3z M2020.1-1788.3c1.8-2,1.7-3.3-0.5-4.6c-1.7-1-3.4-1.9-5.1-2.6
			c-1-0.3-2.1-0.4-3.1-0.3c1.8,3.6,3.3,6.8,4.8,9.6L2020.1-1788.3c-3.3,2.8-3.3,2.8-1.5,7.4c0.4,1.3,0.7,2.6,1,4l2.5,7.9
			c0.3,0,0.7-0.2,1-0.2c-0.2-1.5-0.3-3.1-0.5-4.6c-0.2-1.7-0.3-3.3-0.3-5h0.7c0.2,2.5,0.5,5,0.7,7.3h0.7v-4.1c0.7,1,0.8,1.5,1.2,2
			c0.3-3.5-0.7-6.8,0.7-10.1l0.5,7.4c0.3,0,0.6,0,0.8-0.2c-0.2-1.3-0.4-2.6-0.5-4c-0.2-2.6,0.2-3,1.5-2.8c-0.2,1.5-0.3,3.1-0.5,4.6
			h0.7c0-0.8-0.2-1.7-0.2-2.6c0.7,0.3,1.2,0.5,1.5,0.7c0.3-3.8-2-6.1-4.3-8.4c-2-1.8-3.6,0.5-5.5,0.5
			C2020.3-1788.3,2020.1-1788.3,2020.1-1788.3L2020.1-1788.3z M2002.9-1802.5L2002.9-1802.5c-3.5-1.3-7.1-2.8-10.7-4.1
			c-7.1-2.6-13.6-0.2-20,2.1c-0.2,0-0.3,0.3-0.7,0.8c1.2,0.2,2,0.2,3,0.3c4.8,0.8,9.4,1.7,14.2,2.3c3.3,0.6,6.6,0.9,9.9,0.8
			c3.3-0.3,6.3-0.7,9.1,2.1C2006.6-1800.9,2005.9-1801.6,2002.9-1802.5z M2040-1820.6c0.3,1.5,0.7,2.8,1.2,4.8v-11.6
			c-1.2,0.1-2.5,0.3-3.6,0.7c-0.8,0.2-1.3,1.2-2.1,1.5c-4.6,1.5-6.6,5.1-8.3,9.1c2,2.6,3.8,5.1,5.8,7.6c0.7-0.4,1.4-0.8,2-1.3
			c-0.7,1.3-1,2.1-1.3,3l0.7,0.7c0.8-0.7,2-1,2.3-1.8C2038.6-1812.1,2040.1-1816.3,2040-1820.6L2040-1820.6z M2034.8-1751.6
			c0.5-0.6,1-1.3,1.5-2l4.5-8.9c0.4-0.9,0.8-1.8,1-2.8c-1.3-0.3-3-1.3-3.8-1c-4.5,2.3-9.8,3-13.4,6.9c-2,2.1-2.5,3.3-1,5.9
			c1.2,2.1,2.5,4.1,4,6.6c2.3-2,4.5-3.8,6.6-5.6v0.2C2034.3-1752.3,2034.7-1752,2034.8-1751.6c-2.3,1.8-4.6,3.6-7.1,5.8
			c0.2,0.5,0.5,1.3,1,3C2031-1746.4,2032.9-1749,2034.8-1751.6z M2043.6-1737.8c2.8-0.7,5.6-1.6,8.3-2.6c4.3-2.1,7.6-5.8,9.3-10.2
			c-0.2-0.3-0.3-0.5-0.5-0.8l-11.9,3c0-0.2-0.2-0.5-0.2-0.7c3.3-0.8,6.8-2.6,10.1-2.5c3.5,0.2,4.1-1.7,5.3-3.8
			c0.5-0.8,0.9-1.7,1.2-2.6c0.8-2,1.7-3.8,2.5-5.8c1.8-4.5,3.3-8.9,2.8-13.7c-1.7,0.5-3.4,1.1-5,1.8c-2,1-3.8,2.5-5.8,3.5
			c-0.7,0.2-1.4,0.4-2.1,0.5c4.1-2.5,8.3-5.1,12.2-7.6c0.5-3.6,1-7.8,1.3-11.7c-2.1,0.7-4.6,1.8-7.3,2c-7.3,0.2-11.6,5.1-15.9,9.9
			c-0.7,0.8-1.3,1.5-2,2.3c-2.1,3-4.3,5.8-6.3,8.8c0.3,0,0.7,0.2,1,0.2c0.8,1.2,2.5,2.6,2.1,3.6c-0.5,1.8,0.2,2.6,1,4
			c0.7,1,1.2,2.1,1.8,3.3c-0.2,0-0.3,0.2-0.5,0.2c-1.2-1.5-2.3-3.1-3.5-4.6c-0.2,0.2-0.5,0.3-0.7,0.5l3,4.5
			c-0.2,0.2-0.3,0.2-0.5,0.3c-1-1.2-1.8-2.1-2.6-3.3c-0.3,1.2-0.7,2-0.8,2.5c1.5,1.7,3,3.5,4.5,5.1l-0.3,0.3c-0.3-0.2-0.7-0.2-1-0.3
			c0.7,1.2,1.2,2.1,1.7,3.1c-0.2,0-0.2,0.2-0.3,0.2c-0.8-1-1.7-2-3-3.5c-0.3,4-4.5,5.9-3.1,9.9c-0.4-0.2-0.9-0.4-1.3-0.5
			c0.5,1.2,1,2.3,1.3,3.3c-0.2,0-0.2,0.2-0.3,0.2c-0.7-0.7-1.2-1.3-1.8-2c-0.2,0.5-0.3,0.7-0.3,0.8c0,0.2,0,0.4,0.2,0.5
			c2.6,2.3,2.3,5,0.7,7.6c-0.3,0.5-0.4,1.1-0.3,1.7c-0.7,0.4-1.3,0.8-2,1.3c-2.6,3-5.3,6-7.6,8.8c1.3-6.1,0.7-13.2,6-18.7
			c2.1-2.1,4.6-4,4.6-7.4c-5.3,2.6-10.4,5.3-13.4,10.7c-0.2-0.2-0.5-0.3-0.7-0.5c1.2-1.7,2.5-3.3,3.6-4.8c1-2.3-1.3-8.6-3.6-10.4
			c1.2,3.1,2.5,6.8,3.8,10.4c-1.2-2.5-2.5-5-3.6-7.6c-0.2,0.2-0.5,0.2-0.7,0.3c0.5,1.2,1,2.3,1.7,3.8c-0.8-0.5-1.2-0.7-1.7-1
			c0.7,2,1.3,3.8,1.8,5.5c-0.2,0-0.3,0.2-0.5,0.2c-0.5-1-0.8-1.8-1.3-2.8c-0.2,0.2-0.5,0.2-0.7,0.3c0.5,1.3,1,2.6,1.7,4.5
			c-0.8-1-1.5-1.5-2.1-2.3c-1,3.1-1.8,5.8,0,8.8c1.1,2,1.7,4.3,1.5,6.6c-0.5,6.4-1.3,12.9-2,19.3c-0.5-5.5-1-11.1-1.7-16.7h-0.2
			c-0.2,0.5-0.2,1.2-0.3,1.7c-0.2-3.1-0.2-6.3,0-9.4c0.1-2.9,0.4-5.8,1-8.6c2.1-7.9,2-15.9,2.1-24c0.2-6.8-3-13.1-5.1-19.3
			c-1.3-3.6-3.6-7.1-5.5-10.6c-3.5-6.3-8.1-8.1-15.2-5.8c-1,5.8,0.7,11.2,4.5,14.5c0.6-1.6,1.2-3.2,2-4.8c0.7-1.5,1.5-2.8,2.3-4.3
			c0.2,0,0.3,0.2,0.7,0.2c-3.1,6.3-6.3,12.7-1.7,19.2c1.8-4.6,3.8-9.4,5.6-14.2c0.2,0.2,0.5,0.2,0.7,0.3c-1.5,4.3-3.1,8.4-4.6,12.7
			c-1.7,4.5,0.3,8.1,1.8,12.6c0.8-1.5,1.3-2.5,2-3.5c0.2,0,0.2,0.2,0.3,0.2l-2,5c0.2,0,0.3,0.2,0.7,0.2c0.5-0.8,0.8-1.5,1.5-2.5
			c0.7,2.3-2.5,4.5,0.2,6.6c1-6.4,4.3-13.6,6.9-15.4c-1,2-2.3,4.1-3.3,6.4c-1.8,4.3-3.1,8.6-2.5,13.4c0,0.5,0.5,0.8,1,1.3
			c-0.2,3.1,1.2,6.3,2.3,9.9c0.7-2.8,1.2-4.8,1.8-6.9c0.2,0,0.5,0.2,0.7,0.2c-0.5,3.1-1,6.4-1.5,9.6c-0.3,0-0.7,0-1,0.2
			c-1-3-1.8-5.9-2.8-8.9c-2.8-8.6-5.8-17-8.3-25.6c-2.1-6.9-4-13.7-12.6-15.7c0.2-0.3,0.5-0.5,0.7-0.8c2.3,1,4.6,2.1,7.1,3.1
			c-0.7-1.2-1.3-2.5-1.8-3.8c-1.7-4.3-6.3-6.1-8.4-10.1c-1-1.7-4.1-2.1-6.3-3.1c0.7,1.8,2,3,2.3,4.5c1.2,4.1,2.5,8.3,2.8,12.6
			c0.7,6.1,1.8,11.9,5.1,17.2c1.3,1.9,2.2,3.9,2.8,6.1c1.5,5.9,4.4,11.4,8.3,16c1.4,1.9,3.1,3.5,5.1,4.6c4.6,2.3,6.6,5.9,7.8,10.7
			c2.1,10.1,2.9,20.3,2.5,30.6c0.2,1.5,0.5,3,1.2,4.5c0.3,0,0.5-0.2,0.8-0.2c0.3-1.2,0.8-2.3,1.2-3.6c0.3,0,0.5,0.2,0.8,0.2
			c-0.3,2.5-0.7,5-1,7.6c0.2,0,0.3,0.2,0.7,0.2c1.2-5,2.8-9.9,3.6-15c1.3-8.4,4.3-15.9,10.1-22.3c0.5-0.5,0.5-1.5,0.7-2.3
			c0.5-0.2,1.3,0,1.5-0.3C2039.6-1733.3,2041.6-1735.4,2043.6-1737.8L2043.6-1737.8z M2043.1-1784.2c-10.2,0-23.3,15-19.3,25
			c2.5-3.1,4.6-5.9,6.8-8.8h0.2c-0.7,1.3-1.3,2.5-2,3.8c0.3,0.2,0.5,0.5,0.8,0.7c1.5-1.8,3.1-3.6,4.6-5.5l0.3,0.3l-1.5,3
			c0.2,0,0.3,0.2,0.5,0.2c1.3-2,2.5-4,3.8-5.9c0.2,0,0.2,0.2,0.3,0.2c-0.1,0.7-0.4,1.3-0.7,2c0.2,0,0.3,0.2,0.5,0.2l2.5-5.5
			c0.2,0,0.3,0.2,0.7,0.2c-0.7,2-1.5,4.1-2.1,6.1c0.2,0,0.3,0.2,0.7,0.2c0.7-1.8,1.3-3.6,1.8-5.5c0.7-3.1,0-6.8,2.1-9.6
			C2043.1-1783.2,2043.1-1783.7,2043.1-1784.2L2043.1-1784.2z M2021.4-1792.5c1.7-3.3,3.3-6.3,5.1-9.8c-0.3,1.3-0.5,2.1-0.7,3
			c0.2,0,0.2,0,0.3,0.2c0.5-1.3,0.8-2.6,1.3-4.3l0.7,1.3c1.2-2.1,2.1-4,3.3-6.1c-1-1.7-2-3.6-3.3-5.5c-0.6-0.8-1.5-1.2-2.5-1.1
			c-4,0.8-6.3,3.8-8.6,6.9c0,0.5,0,1,0,1.3l3.5,13.4C2020.9-1792.9,2021.2-1792.7,2021.4-1792.5L2021.4-1792.5z M2006.9-1813.6
			c0.2,1.2,0.2,2.3,0.3,3.3c0.5,3.3,1,6.6,1.7,9.8c0.5,2.8,2.1,4.1,5.6,3.8c0.2-1.7,0.3-3.5,0.7-5.6c0.7,2.1,1.3,4.1,2,6.1
			c0.2,0,0.5-0.2,0.7-0.2c-0.3-1.7-0.8-3.3-1.2-5c0.2,0,0.3-0.2,0.7-0.2c0.7,2.1,1.2,4.3,1.8,6.6
			C2020.1-1801.1,2013.2-1811.8,2006.9-1813.6z M2029.2-1823.2c0.2,0.2,0.5,0.2,0.7,0.3c1.3-3,5.6-2.1,6.6-5.8
			c0.8-3,2.1-5.9,3.5-9.6c-3.6,0.8-6.8,1.3-9.8,2.1c-1.8,0.7-2.8,2-2,4.5c0.5,2.1,0.8,4.2,0.8,6.3
			C2029.1-1824.5,2029.2-1823.9,2029.2-1823.2z M2011.7-1826.3c-0.2,2.6-0.3,5-0.3,7.3c0,2.4,0.3,4.9,0.8,7.3c0.2,0.7,1,1,1.7,1.7
			c0.4-0.6,0.8-1.3,1.2-2c0.5-2.3,0.8-4.6,1.2-6.9c0.2-0.9,0.1-1.9-0.3-2.8C2014.6-1823.5,2013.2-1825,2011.7-1826.3z
			 M2029.4-1725.9c1.5-1.7,3.3-3.3,4.6-5c1-1.3,1.7-2.8,2-4.5c0.2-0.8-0.7-1.8-1-2.8c-0.8,0.2-1.5,0.6-2.1,1
			C2029.7-1734.1,2029.2-1730.2,2029.4-1725.9z M2016.3-1699.9c-0.2,0.2-0.5,0.2-0.7,0.3c0.2,3.8,0.3,7.4,0.5,11.2
			c0,1,0.4,2,1.2,2.6c0.8,0.3,2-0.3,2.6-0.5c-0.8-2.8-1.7-5.1-2.3-7.4c0.1,0,0.2-0.1,0.3-0.2c0.5,0.7,0.8,1.5,1.3,2.1
			c0.2-0.2,0.3-0.2,0.7-0.3C2018.8-1694.6,2017.5-1697.3,2016.3-1699.9z M2026.7-1834.8h0.8c0.7-2.1,1-4.6,2-6.4
			c1-1.7,0-2.1-0.8-2.5c-0.5-0.2-1.7,0.5-2,1c-0.8,1.5-1.5,3.1-2.3,5C2025.1-1836.9,2025.9-1835.8,2026.7-1834.8z M2039.3-1786.7
			c0.2,0.2,0.3,0.2,0.7,0.3c2.1-2.3,4.3-4.6,6.4-7.1c-1.2-1.3-3-1.3-4.6-0.5c-1,0.5-0.3,1.5-0.3,2.3
			C2041.4-1790,2040-1788.3,2039.3-1786.7z M2036.3-1843.9c0.2-0.2,0.5-0.3,0.7-0.5c-0.7-1-1.2-2.5-2-2.6c-0.7-0.2-2,0.8-2.8,1.5
			c-1.2,1.3-1.8,2.8-0.5,4.6c1-0.5,2-0.8,3-1.3c0.2-0.8,0.3-1.7,0.5-2.8L2036.3-1843.9z M2019.6-1730.8c0.3,4.5,0.5,8.8,0.8,13.2
			C2022.1-1721.4,2021.8-1727.7,2019.6-1730.8z M2037.3-1839.7c-2.6-2.5-4.6-1.7-6,2.6C2033.7-1838.1,2035.5-1838.9,2037.3-1839.7z
			 M1993.7-1794.3c0.5,0,0.8-0.2,1.3-0.2v-4.1c-1,0.2-2.1,0.2-3.1,0.3C1992.6-1797,1993.2-1795.6,1993.7-1794.3z M2038.3-1750.7
			c0.4-0.9,0.6-1.7,0.8-2.6c0.3,0.5,0.5,0.8,1,1.5v-3.5c-0.2-0.2-0.4-0.3-0.7-0.3l-3.3,3.3C2037-1751.6,2037.6-1751.1,2038.3-1750.7
			z M2025.4-1696.9c-0.3,0-0.8-0.2-1.2-0.2v1.7c-0.1,0.8-0.2,1.6-0.5,2.3c-0.7,1.1-1.6,2.1-2.5,3c0.2,0.2,0.5,0.3,0.7,0.5
			c0.3-0.7,0.8-1.3,1.5-2.6c-0.1,1-0.3,2-0.5,3c0.2,0,0.5,0.2,0.7,0.2C2024.3-1691.8,2024.8-1694.5,2025.4-1696.9z"/>
		<path id="Path_44" class="st0" d="M2032.5-1739.4c-3.1,1.7-4.1,4.8-5.3,7.8c0-2.8,1.3-5,3-7.1c2.3-2.6,4.6-5.5,6.8-8.3
			C2037.2-1743.4,2034.7-1741.6,2032.5-1739.4z"/>
		<path id="Path_45" class="st0" d="M2035-1790.5c-1.3,1.8-2.6,3.5-4,5.3c0.2-0.7,0.2-1.5,0.3-2.1c1.3-1.8,2.6-3.8,4.1-6
			C2035.3-1792.1,2035.2-1791.3,2035-1790.5z"/>
		<path id="Path_46" class="st0" d="M2019-1743c-0.7,4.6-1.2,9.1-1.7,13.2C2015.8-1734.1,2017.8-1738.6,2019-1743z"/>
		<path id="Path_47" class="st0" d="M2006.6-1755.8c-3.1-2.3-6.1-4.6-9.3-6.9c0.2-0.2,0.4-0.4,0.5-0.7c3.1,2.3,6.3,4.5,9.4,6.8
			C2007-1756.4,2006.7-1756.1,2006.6-1755.8z"/>
		<path id="Path_48" class="st0" d="M2016-1773.5l-4,6.4c-0.2-0.2-0.4-0.3-0.7-0.3c1.3-2.1,2.6-4.3,4-6.6
			C2015.5-1773.7,2015.7-1773.6,2016-1773.5z"/>
		<path id="Path_49" class="st0" d="M2057.6-1771.8c-1.5,2.6-3,5.3-4.3,8.1c-1.5,3.5-2.8,6.9-4.3,10.7h2.3c-1.2,0.8-2,1.3-3,2h1.7
			c0.2,0.2,0.2,0.3,0.3,0.5c-1.3,0.8-2.6,1.7-4,2.3c0.3,0.3,0.6,0.6,0.8,1c0.5,0,1-0.2,1.5-0.2c-1,0.8-2,1.7-3.6,2.8
			c1.3,0,1.8,0.2,2.3,0.2l-4.3,4.3l0.5,0.5l5-2v0.2l-5,3.5c-1.2,0.7-2.3,1.3-4.1,2.5c1.3-2.3,2.5-4,3.3-5.8c1.3-2.8,2.5-5.6,3.8-8.4
			c1.5-3.1,1.7-6.1-0.3-9.1c-0.9-1.4-1.6-3.1-1.8-4.8c1.3,2.3,2.6,4.5,4,6.9c1.8-3,2.1-5.6,0.8-8.8c-1.2-3.4-2.3-6.9-3.1-10.4
			c0.2,0,0.5-0.2,0.7-0.2c1.3,4.1,2.6,8.1,4,12.2c4.6-7.4,8.3-15,13.9-21C2062.4-1780.4,2060.1-1776.1,2057.6-1771.8z"/>
		<path id="Path_50" class="st0" d="M2054.3-1783.2c0.5,3.3,0.8,6.6,1.3,9.9c-0.3,0-0.6,0-0.8,0.2c-0.3-3.3-0.8-6.8-1.2-10.1
			C2053.8-1783.4,2054.2-1783.2,2054.3-1783.2z"/>
		<path id="Path_51" class="st0" d="M2051.2-1743.7c1.7-0.7,3.3-1.5,4.8-2.1c0-0.2,0-0.2-0.2-0.3c-0.4,0-0.9,0-1.3,0.2
			c1.3-1.5,2.6-3,4-4.3C2057.6-1746.4,2055.5-1743.5,2051.2-1743.7z"/>
		<path id="Path_52" class="st0" d="M2053.2-1758.1c3.1-2.6,7.1-3.6,11.2-3.8C2060.6-1760.6,2056.8-1759.2,2053.2-1758.1z"/>
		<path id="Path_53" class="st0" d="M2067.7-1769c-4,1.7-8.1,3.3-11.9,4.8C2057.8-1766.5,2064.6-1769.3,2067.7-1769z"/>
		<path id="Path_54" class="st0" d="M2034.2-1752.6c-2,1.3-4.1,2.6-6.1,4c-0.2-0.2-0.4-0.4-0.5-0.7c5.4-2.8,9.5-7.7,11.2-13.6
			c0.3,0.2,0.7,0.5,1,0.7C2038-1758.9,2036-1755.8,2034.2-1752.6z"/>
		<path id="Path_55" class="st0" d="M2040-1820.7c-0.7,2.6-1.3,5.3-2,7.8c-0.2,0-0.4,0-0.5-0.2c0.7-3.5,1.2-7.1,1.8-10.6h0.5
			C2039.9-1822.7,2040-1821.7,2040-1820.7z"/>
		<path id="Path_56" class="st0" d="M2024.6-1805.7c-1,3.3-2,6.4-3,9.8c-0.2,0-0.4,0-0.5-0.2c0.8-3.3,1.8-6.6,2.6-9.9
			C2024-1805.9,2024.3-1805.7,2024.6-1805.7z"/>
		<path id="Path_57" class="st0" d="M2002.9-1802.5c0.3,0.3,0.7,0.5,1.2,1h-4.3c-1.3,0.1-2.7,0.3-4,0.5c0-0.3,0-0.6-0.2-0.8
			C1998.1-1802,2000.6-1802.2,2002.9-1802.5z"/>
		<path id="Path_58" class="st0" d="M2038.5-1836.3c-1.3,3.3-2.6,6.6-4,10.1c-0.2-0.2-0.5-0.2-0.7-0.3c1.2-3.3,2.3-6.8,3.5-10.1
			C2037.7-1836.6,2038.1-1836.5,2038.5-1836.3z"/>
	</g>
	<path id="Path_59" class="st1" d="M2070.7-1730.2l-47.3-91.1l-47.3,91.1H2070.7z"/>
	<g id="Group_8" transform="translate(12.23 46.736)">
		<path id="Path_60" class="st2" d="M2011-1762h-1.7v-0.8h1.7V-1762z M2012.7-1762.2v-0.8c0.6,0,1.1,0,1.7-0.2v0.8
			C2013.8-1762.2,2013.2-1762.2,2012.7-1762.2L2012.7-1762.2z M2007.7-1762.2c-0.5,0-1.2-0.2-1.7-0.2l0.2-0.8c0.5,0,1.2,0.2,1.7,0.2
			L2007.7-1762.2z M2016-1762.3l-0.2-0.8c0.5,0,1.2-0.2,1.7-0.2l0.2,0.8C2017.1-1762.5,2016.5-1762.5,2016-1762.3z M2004.4-1762.7
			c-0.5-0.2-1.2-0.2-1.7-0.3l0.2-0.8c0.5,0.2,1,0.2,1.7,0.3L2004.4-1762.7z M2019.3-1762.8l-0.2-0.8c0.5-0.2,1-0.2,1.7-0.3l0.2,0.8
			C2020.3-1763,2019.8-1763,2019.3-1762.8L2019.3-1762.8z M2001.1-1763.3c-0.5-0.2-1.1-0.3-1.7-0.3l0.2-0.8c0.5,0.2,1.1,0.3,1.7,0.3
			L2001.1-1763.3z M2022.6-1763.7l-0.2-0.8l1.5-0.5l0.2,0.8C2023.7-1763.9,2023.1-1763.7,2022.6-1763.7L2022.6-1763.7z M1998-1764.2
			c-0.5-0.2-1-0.3-1.7-0.5l0.3-0.8l1.5,0.5L1998-1764.2z M2025.7-1764.7l-0.3-0.8l1.5-0.5l0.3,0.8L2025.7-1764.7z M1994.8-1765.3
			c-0.5-0.2-1-0.5-1.5-0.7l0.3-0.8c0.5,0.2,1,0.5,1.5,0.7L1994.8-1765.3z M2028.7-1765.8l-0.3-0.8c0.5-0.2,1-0.5,1.5-0.7l0.3,0.7
			C2029.8-1766.3,2029.3-1766,2028.7-1765.8L2028.7-1765.8z M1991.9-1766.6c-0.5-0.2-1-0.5-1.5-0.8l0.3-0.7c0.5,0.3,1,0.5,1.5,0.8
			L1991.9-1766.6z M2031.7-1767.3l-0.3-0.7c0.5-0.3,1-0.5,1.5-0.8l0.5,0.7C2032.8-1767.9,2032.2-1767.6,2031.7-1767.3L2031.7-1767.3
			z M1988.9-1768.3c-0.5-0.3-1-0.5-1.5-0.8l0.5-0.7c0.4,0.3,0.9,0.6,1.3,0.8L1988.9-1768.3z M2034.7-1769l-0.5-0.7
			c0.5-0.3,0.8-0.7,1.3-1l0.5,0.7C2035.5-1769.6,2035.2-1769.3,2034.7-1769L2034.7-1769z M1986.1-1770.1c-0.5-0.3-0.8-0.7-1.3-1
			l0.5-0.7c0.5,0.3,0.8,0.7,1.3,1L1986.1-1770.1z M2037.3-1770.9l-0.5-0.7c0.5-0.3,0.8-0.7,1.3-1l0.5,0.7
			C2038.2-1771.6,2037.8-1771.2,2037.3-1770.9L2037.3-1770.9z M1983.4-1772.1c-0.5-0.3-0.9-0.7-1.3-1.2l0.5-0.7
			c0.3,0.3,0.8,0.7,1.2,1L1983.4-1772.1z M2040-1773.1l-0.5-0.7c0.4-0.3,0.8-0.7,1.2-1.2l0.5,0.7
			C2040.8-1773.8,2040.4-1773.4,2040-1773.1z M1981-1774.2l-1.2-1.2l0.7-0.5l1.2,1.2L1981-1774.2z M2042.3-1775.2l-0.7-0.5l1.2-1.2
			l0.7,0.5L2042.3-1775.2z M1978.6-1776.7c-0.3-0.3-0.7-0.8-1.2-1.3l0.7-0.5c0.3,0.4,0.6,0.8,1,1.2L1978.6-1776.7z M2044.6-1777.7
			l-0.7-0.5c0.3-0.5,0.7-0.8,1-1.3l0.7,0.5C2045.2-1778.6,2044.9-1778.2,2044.6-1777.7L2044.6-1777.7z M1976.7-1779.2
			c-0.3-0.5-0.7-0.8-1-1.3l0.7-0.5c0.3,0.5,0.7,0.8,1,1.3L1976.7-1779.2z M2046.6-1780.4l-0.7-0.5c0.3-0.5,0.7-0.8,1-1.3l0.7,0.5
			C2047.2-1781.3,2046.9-1780.8,2046.6-1780.4z M1974.7-1782c-0.3-0.5-0.6-1-0.8-1.5l0.7-0.5c0.2,0.5,0.5,0.9,0.8,1.3L1974.7-1782z
			 M2048.4-1783.2l-0.7-0.5c0.3-0.5,0.5-1,0.8-1.5l0.7,0.3C2049-1784.3,2048.7-1783.7,2048.4-1783.2z M1973-1784.8
			c-0.3-0.5-0.5-1-0.8-1.5l0.7-0.3c0.2,0.5,0.5,1,0.8,1.5L1973-1784.8z M2050-1786.1l-0.8-0.3c0.2-0.5,0.5-1,0.7-1.5l0.8,0.3
			C2050.5-1787.1,2050.2-1786.6,2050-1786.1z M1971.5-1787.8c-0.2-0.5-0.5-1-0.7-1.5l0.8-0.3c0.2,0.5,0.5,1,0.7,1.5L1971.5-1787.8z
			 M2051.4-1789.1l-0.8-0.3c0.2-0.5,0.4-1,0.7-1.5l0.8,0.3C2051.7-1790.1,2051.5-1789.6,2051.4-1789.1L2051.4-1789.1z
			 M1970.2-1790.9c-0.2-0.5-0.3-1-0.5-1.7l0.8-0.2l0.5,1.5L1970.2-1790.9z M2052.5-1792.3l-0.8-0.3l0.5-1.5l0.8,0.2
			C2052.9-1793.3,2052.7-1792.8,2052.5-1792.3L2052.5-1792.3z M1969.2-1794.1c-0.2-0.5-0.3-1.1-0.3-1.7l0.8-0.2
			c0.2,0.5,0.3,1.1,0.3,1.6L1969.2-1794.1z M2053.3-1795.4l-0.8-0.2c0.2-0.5,0.2-1,0.3-1.7l0.8,0.2
			C2053.6-1796.5,2053.5-1795.9,2053.3-1795.4L2053.3-1795.4z M1968.6-1797.4c-0.2-0.5-0.2-1.2-0.3-1.7l0.8-0.2
			c0,0.6,0.2,1.1,0.3,1.7L1968.6-1797.4z M2054-1798.7l-0.8-0.2c0.1-0.5,0.2-1.1,0.2-1.7l0.8,0.2
			C2054.2-1799.9,2054-1799.2,2054-1798.7z M1968.1-1800.5c0-0.5-0.2-1.2-0.2-1.7h0.8c0,0.5,0.2,1.2,0.2,1.7H1968.1z M2054.3-1802
			h-0.8c0-0.6,0-1.1,0.2-1.7h0.8C2054.5-1803.1,2054.5-1802.6,2054.3-1802z M1967.7-1803.8v-1.7h0.8v1.7H1967.7z M2054.5-1805.3
			h-0.8v-1.8h0.8V-1805.3z M1968.6-1807.1h-0.8c0-0.6,0-1.1,0.2-1.7h0.8C1968.7-1808.2,1968.7-1807.7,1968.6-1807.1z M2053.5-1808.8
			c0-0.5-0.2-1.2-0.2-1.7l0.8-0.2c0,0.5,0.2,1.2,0.2,1.7L2053.5-1808.8z M1968.9-1810.4l-0.8-0.2c0-0.5,0.2-1.2,0.2-1.7l0.8,0.2
			C1969.1-1811.6,1968.9-1810.9,1968.9-1810.4z M2053.2-1811.9c-0.2-0.5-0.2-1.2-0.3-1.7l0.8-0.2c0.2,0.5,0.2,1.2,0.3,1.7
			L2053.2-1811.9z M1969.4-1813.6l-0.8-0.2c0.2-0.5,0.2-1.2,0.3-1.7l0.8,0.2C1969.6-1814.7,1969.6-1814.2,1969.4-1813.6z
			 M2052.5-1815.2c-0.2-0.5-0.3-1.1-0.3-1.7l0.8-0.2c0.2,0.5,0.3,1.1,0.3,1.7L2052.5-1815.2z M1970.1-1816.9l-0.8-0.2
			c0.2-0.5,0.3-1,0.5-1.7l0.8,0.3L1970.1-1816.9z M2051.7-1818.4l-0.5-1.5l0.8-0.3c0.2,0.5,0.3,1,0.5,1.7L2051.7-1818.4z
			 M1971-1819.9l-0.8-0.3c0.2-0.5,0.4-1,0.7-1.5l0.8,0.3C1971.5-1821,1971.4-1820.5,1971-1819.9L1971-1819.9z M2050.7-1821.3
			c-0.2-0.5-0.5-1-0.7-1.5l0.8-0.3c0.2,0.5,0.5,1,0.7,1.5L2050.7-1821.3z M1972.4-1823l-0.8-0.3c0.2-0.5,0.5-1,0.7-1.5l0.7,0.3
			C1972.8-1824,1972.6-1823.5,1972.4-1823z M2049.2-1824.3c-0.2-0.5-0.5-1-0.8-1.5l0.7-0.3c0.3,0.5,0.5,1,0.8,1.5L2049.2-1824.3z
			 M1973.9-1825.8l-0.7-0.3c0.3-0.5,0.5-1,0.8-1.5l0.7,0.5C1974.3-1826.8,1974-1826.3,1973.9-1825.8z M2047.7-1827.3
			c-0.2-0.5-0.5-0.9-0.8-1.3l0.7-0.5c0.3,0.5,0.6,1,0.8,1.5L2047.7-1827.3z M1975.5-1828.6l-0.7-0.5c0.3-0.5,0.6-0.9,1-1.3l0.7,0.5
			C1976-1829.6,1975.7-1829.2,1975.5-1828.6z M2045.9-1829.9c-0.3-0.5-0.7-0.8-1-1.3l0.7-0.5c0.3,0.5,0.7,0.8,1,1.3L2045.9-1829.9z
			 M1977.3-1831.3l-0.7-0.5c0.3-0.5,0.7-0.8,1-1.3l0.7,0.5C1978-1832.1,1977.7-1831.8,1977.3-1831.3z M2043.9-1832.6
			c-0.3-0.4-0.6-0.8-1-1.2l0.7-0.5c0.3,0.5,0.7,0.9,1.2,1.3L2043.9-1832.6z M1979.5-1833.7l-0.7-0.7c0.3-0.4,0.7-0.8,1.2-1.2
			l0.7,0.5C1980.2-1834.7,1979.8-1834.2,1979.5-1833.7z M2041.8-1835.1l-1.2-1.2l0.5-0.7l1.2,1.2L2041.8-1835.1z M1981.6-1836.2
			l-0.5-0.7l1.2-1.2l0.5,0.7C1982.5-1836.9,1982.1-1836.5,1981.6-1836.2z M2039.5-1837.2c-0.3-0.3-0.8-0.7-1.2-1l0.5-0.7
			c0.5,0.3,0.9,0.7,1.3,1.2L2039.5-1837.2z M1984.1-1838.4l-0.5-0.7c0.5-0.3,0.8-0.7,1.3-1l0.5,0.7
			C1984.9-1839,1984.6-1838.7,1984.1-1838.4z M2037-1839.4c-0.5-0.3-0.8-0.7-1.3-1l0.5-0.7c0.5,0.3,0.8,0.7,1.3,1L2037-1839.4z
			 M1986.7-1840.4l-0.5-0.7c0.5-0.3,0.9-0.6,1.3-1l0.5,0.7C1987.6-1840.8,1987.1-1840.7,1986.7-1840.4L1986.7-1840.4z
			 M2034.3-1841.2c-0.4-0.3-0.9-0.6-1.3-0.8l0.5-0.7c0.5,0.3,1,0.5,1.5,0.8L2034.3-1841.2z M1989.4-1842l-0.5-0.7
			c0.5-0.3,1-0.5,1.5-0.8l0.3,0.7C1990.3-1842.6,1989.8-1842.3,1989.4-1842z M2031.5-1842.8c-0.5-0.3-1-0.5-1.5-0.8l0.3-0.7
			c0.5,0.2,1,0.5,1.5,0.8L2031.5-1842.8z M1992.4-1843.7l-0.5-0.7c0.5-0.2,1-0.5,1.5-0.7l0.3,0.8
			C1993.2-1844,1992.8-1843.9,1992.4-1843.7z M2028.6-1844.3c-0.5-0.2-1-0.5-1.5-0.7l0.3-0.8c0.5,0.2,1,0.5,1.5,0.7L2028.6-1844.3z
			 M1995.3-1845l-0.3-0.8c0.5-0.2,1-0.4,1.5-0.7l0.3,0.8C1996.4-1845.4,1995.9-1845.1,1995.3-1845z M2025.6-1845.5l-1.5-0.5l0.3-0.8
			c0.5,0.2,1,0.3,1.7,0.5L2025.6-1845.5z M1998.3-1846.1l-0.2-0.8c0.5-0.2,1-0.3,1.7-0.5l0.2,0.8
			C1999.5-1846.5,1998.8-1846.3,1998.3-1846.1z M2022.4-1846.5c-0.5-0.2-1.1-0.3-1.7-0.3l0.2-0.8c0.5,0.2,1.1,0.3,1.7,0.3
			L2022.4-1846.5z M2001.4-1847l-0.2-0.8c0.5-0.2,1.2-0.2,1.7-0.3l0.2,0.8C2002.6-1847.1,2001.9-1847.1,2001.4-1847L2001.4-1847z
			 M2019.3-1847.3c-0.5-0.2-1-0.2-1.7-0.3l0.2-0.8c0.5,0.2,1.2,0.2,1.7,0.3L2019.3-1847.3z M2004.8-1847.6l-0.2-0.8
			c0.5-0.1,1.1-0.2,1.7-0.2l0.2,0.8C2005.9-1847.7,2005.3-1847.6,2004.8-1847.6z M2016-1847.8c-0.5,0-1.2-0.2-1.7-0.2v-0.8
			c0.5,0,1.2,0.2,1.7,0.2V-1847.8z M2007.9-1848v-0.8c0.6,0,1.1,0,1.7-0.2v0.8C2009-1848,2008.5-1847.9,2007.9-1848L2007.9-1848z
			 M2012.9-1848h-1.7v-0.8h1.7L2012.9-1848z"/>
	</g>
</g>
</svg>
