<?xml version="1.0" encoding="utf-8"?>
<!-- Generator: Adobe Illustrator 22.0.1, SVG Export Plug-In . SVG Version: 6.00 Build 0)  -->
<svg version="1.1" id="Layer_1" xmlns="http://www.w3.org/2000/svg" xmlns:xlink="http://www.w3.org/1999/xlink" x="0px" y="0px"
	 viewBox="0 0 140.7 104.3" style="enable-background:new 0 0 140.7 104.3;" xml:space="preserve">
<style type="text/css">
	.st0{fill:#FFCB3E;}
	.st1{fill:#FFFFFF;}
	.st2{fill:none;stroke:#FFFFFF;stroke-width:3;stroke-miterlimit:10;}
</style>
<g id="Group_1220" transform="translate(-2613.528 1877.271)">
	<g id="Group_1165" transform="translate(0 0.204)">
		<g id="Group_106">
			<g id="Group_93" transform="translate(62.187 18.743)">
				<path id="Path_566" class="st0" d="M2617.4-1870.3c0,0.4,0,0.8-0.2,1.2c-0.2,0.2-0.2,0.6-0.3,0.8c-0.2,0.2-0.4,0.4-0.6,0.6
					c-0.2,0.2-0.5,0.2-0.8,0.2c-0.3,0-0.6,0-0.8-0.2c-0.2-0.2-0.5-0.2-0.6-0.4c-0.2-0.2-0.3-0.5-0.3-0.8c0-0.4-0.2-0.8-0.2-1.2
					c0-0.4,0-0.8,0.2-1.2c0.1-0.3,0.2-0.6,0.3-0.8c0.2-0.2,0.4-0.4,0.6-0.6c0.2-0.2,0.5-0.2,0.8-0.2c0.3,0,0.6,0,0.8,0.2
					c0.2,0.2,0.5,0.2,0.6,0.4c0.2,0.2,0.3,0.5,0.3,0.8C2617.3-1871.1,2617.4-1870.7,2617.4-1870.3z M2616.4-1870.3v-0.8
					c0-0.2-0.2-0.4-0.2-0.6l-0.3-0.4c-0.2,0-0.3-0.2-0.5-0.2c-0.2,0-0.4,0.1-0.5,0.2c-0.2,0-0.3,0.2-0.3,0.4
					c-0.1,0.2-0.2,0.4-0.2,0.6v1.4c0,0.2,0.2,0.4,0.2,0.6s0.2,0.2,0.3,0.4c0.2,0,0.3,0.2,0.5,0.2c0.2,0,0.4-0.1,0.5-0.2
					c0.2,0,0.3-0.2,0.3-0.4c0.1-0.2,0.2-0.4,0.2-0.6V-1870.3z"/>
			</g>
			<g id="Group_94" transform="translate(70.362 36.264)">
				<path id="Path_567" class="st0" d="M2616.9-1868L2616.9-1868c0,0.2,0,0.2-0.2,0.2h-0.8c0,0-0.2,0-0.2-0.2l-0.2-0.2
					c-0.1-0.1-0.1-0.3-0.2-0.4l-1-2.4c0-0.2-0.2-0.2-0.2-0.4c0-0.1-0.1-0.3-0.2-0.4l0,0v3.9h-0.6v-4.7c0-0.2,0-0.2,0.2-0.2h1
					c0,0,0.2,0,0.2,0.2c0,0,0,0.2,0.2,0.2l0.8,1.8c0,0.2,0.2,0.2,0.2,0.4s0.2,0.2,0.2,0.4s0.2,0.2,0.2,0.4c0,0.2,0,0.2,0.2,0.4l0,0
					v-3.7h0.6v4.7H2616.9z"/>
				<path id="Path_568" class="st0" d="M2620.9-1867.8L2620.9-1867.8l-0.2,0.2h-0.5v-2h-1.6v2h-0.6v-4.9h0.6v1.8h1.6v-1.8h0.6
					L2620.9-1867.8z"/>
			</g>
			<g id="Group_95" transform="translate(78.536 38.709)">
				<path id="Path_569" class="st0" d="M2615.6-1868.8L2615.6-1868.8v0.2h-1.9v-1l0.5-0.8l0.3-0.4c0-0.2,0.2-0.2,0.2-0.4v-0.8
					l-0.2-0.2h-0.6c0,0-0.2,0-0.2,0.2h-0.2v-0.6h0.2c0,0,0.2,0,0.2-0.2h1.1c0.2,0,0.2,0.2,0.3,0.2c0.1,0.1,0.1,0.3,0.2,0.4v0.8
					c0,0.2,0,0.2-0.2,0.4c0,0.2-0.2,0.2-0.3,0.4l-0.5,0.6l-0.3,0.4h1.3C2615.5-1869.4,2615.6-1869.1,2615.6-1868.8L2615.6-1868.8z"
					/>
			</g>
			<g id="Group_96" transform="translate(46.48 53.785)">
				<path id="Path_570" class="st0" d="M2616.9-1868L2616.9-1868c0,0.2,0,0.2-0.2,0.2h-0.8c0,0-0.2,0-0.2-0.2l-0.2-0.2
					c-0.1-0.1-0.1-0.3-0.2-0.4l-1-2.4c0-0.2-0.2-0.2-0.2-0.4c0-0.1-0.1-0.3-0.2-0.4l0,0v3.9h-0.6v-4.7c0-0.2,0-0.2,0.2-0.2h1
					c0,0,0.2,0,0.2,0.2c0,0,0,0.2,0.2,0.2l0.8,1.8c0,0.2,0.2,0.2,0.2,0.4s0.2,0.2,0.2,0.4s0.2,0.2,0.2,0.4c0,0.2,0,0.2,0.2,0.4l0,0
					v-3.7h0.6v4.7H2616.9z"/>
			</g>
			<g id="Group_97" transform="translate(46.801 60.304)">
				<path id="Path_571" class="st0" d="M2616.4-1868.2L2616.4-1868.2l-0.2,0.2h-0.5v-2h-1.6v2h-0.6v-4.9h0.6v1.8h1.6v-1.8h0.6
					L2616.4-1868.2z"/>
			</g>
			<g id="Group_98" transform="translate(38.306 36.264)">
				<path id="Path_572" class="st0" d="M2617.4-1870.3c0,0.4,0,0.8-0.2,1.2c-0.1,0.3-0.2,0.6-0.3,0.8c-0.2,0.2-0.4,0.4-0.6,0.6
					c-0.2,0.2-0.5,0.2-0.8,0.2c-0.3,0-0.6,0-0.8-0.2c-0.2-0.2-0.5-0.2-0.6-0.4c-0.2-0.2-0.3-0.5-0.3-0.8c0-0.4-0.2-0.8-0.2-1.2
					c0-0.4,0-0.8,0.2-1.2c0.1-0.3,0.2-0.6,0.3-0.8c0.2-0.2,0.4-0.4,0.6-0.6c0.2-0.2,0.5-0.2,0.8-0.2c0.3,0,0.6,0,0.8,0.2
					c0.2,0.2,0.5,0.2,0.6,0.4c0.2,0.2,0.3,0.5,0.3,0.8C2617.3-1871.1,2617.4-1870.7,2617.4-1870.3z M2616.4-1870.3v-0.8
					c0-0.2-0.2-0.4-0.2-0.6l-0.3-0.4c-0.2,0-0.3-0.2-0.5-0.2c-0.2,0-0.4,0.1-0.5,0.2c-0.2,0-0.3,0.2-0.3,0.4
					c-0.1,0.2-0.2,0.4-0.2,0.6v1.4c0,0.2,0.2,0.4,0.2,0.6s0.2,0.2,0.3,0.4c0.2,0,0.3,0.2,0.5,0.2c0.2,0,0.4-0.1,0.5-0.2
					c0.2,0,0.3-0.2,0.3-0.4c0.1-0.2,0.2-0.4,0.2-0.6V-1870.3z"/>
			</g>
			<g id="Group_99" transform="translate(22.599 47.876)">
				<path id="Path_573" class="st0" d="M2616.9-1868L2616.9-1868c0,0.2,0,0.2-0.2,0.2h-0.8c0,0-0.2,0-0.2-0.2l-0.2-0.2
					c-0.1-0.1-0.1-0.3-0.2-0.4l-1-2.4c0-0.2-0.2-0.2-0.2-0.4c0-0.1-0.1-0.3-0.2-0.4l0,0v3.9h-0.6v-4.7c0-0.2,0-0.2,0.2-0.2h1
					c0,0,0.2,0,0.2,0.2c0,0,0,0.2,0.2,0.2l0.8,1.8c0,0.2,0.2,0.2,0.2,0.4s0.2,0.2,0.2,0.4s0.2,0.2,0.2,0.4c0,0.2,0,0.2,0.2,0.4l0,0
					v-3.7h0.6v4.7H2616.9z"/>
			</g>
			<g id="Group_100" transform="translate(62.187 65.397)">
				<path id="Path_574" class="st0" d="M2617.4-1870.3c0,0.4,0,0.8-0.2,1.2c-0.1,0.3-0.2,0.6-0.3,0.8c-0.2,0.2-0.4,0.4-0.6,0.6
					c-0.2,0.2-0.5,0.2-0.8,0.2c-0.3,0-0.6,0-0.8-0.2c-0.2-0.2-0.5-0.2-0.6-0.4c-0.2-0.2-0.3-0.5-0.3-0.8c0-0.4-0.2-0.8-0.2-1.2
					c0-0.4,0-0.8,0.2-1.2c0.1-0.3,0.2-0.6,0.3-0.8c0.2-0.2,0.4-0.4,0.6-0.6c0.2-0.2,0.5-0.2,0.8-0.2c0.3,0,0.6,0,0.8,0.2
					c0.2,0.2,0.5,0.2,0.6,0.4c0.2,0.2,0.3,0.5,0.3,0.8C2617.3-1871.1,2617.4-1870.7,2617.4-1870.3z M2616.4-1870.3v-0.8
					c0-0.2-0.2-0.4-0.2-0.6l-0.3-0.4c-0.2,0-0.3-0.2-0.5-0.2c-0.2,0-0.4,0.1-0.5,0.2c-0.2,0-0.3,0.2-0.3,0.4
					c-0.1,0.2-0.2,0.4-0.2,0.6v1.4c0,0.2,0.2,0.4,0.2,0.6s0.2,0.2,0.3,0.4c0.2,0,0.3,0.2,0.5,0.2c0.2,0,0.4-0.1,0.5-0.2
					c0.2,0,0.3-0.2,0.3-0.4c0.1-0.2,0.2-0.4,0.2-0.6V-1870.3z"/>
			</g>
			<g id="Group_101" transform="translate(68.278 47.876)">
				<path id="Path_575" class="st0" d="M2616.9-1868L2616.9-1868c0,0.2,0,0.2-0.2,0.2h-0.8c0,0-0.2,0-0.2-0.2l-0.2-0.2
					c-0.1-0.1-0.1-0.3-0.2-0.4l-1-2.4c0-0.2-0.2-0.2-0.2-0.4c0-0.1-0.1-0.3-0.2-0.4l0,0v3.9h-0.6v-4.7c0-0.2,0-0.2,0.2-0.2h1
					c0,0,0.2,0,0.2,0.2c0,0,0,0.2,0.2,0.2l0.8,1.8c0,0.2,0.2,0.2,0.2,0.4s0.2,0.2,0.2,0.4s0.2,0.2,0.2,0.4c0,0.2,0,0.2,0.2,0.4l0,0
					v-3.7h0.6v4.7H2616.9z"/>
				<path id="Path_576" class="st0" d="M2620.9-1867.8L2620.9-1867.8l-0.2,0.2h-0.5v-2h-1.6v2h-0.6v-4.9h0.6v1.8h1.6v-1.8h0.6
					L2620.9-1867.8z"/>
			</g>
			<g id="Group_102" transform="translate(82.382 36.264)">
				<path id="Path_577" class="st0" d="M2616.4-1867.8L2616.4-1867.8l-0.2,0.2h-0.5v-2h-1.6v2h-0.6v-4.9h0.6v1.8h1.6v-1.8h0.6
					L2616.4-1867.8z"/>
				<path id="Path_578" class="st0" d="M2620.9-1870.3c0,0.4,0,0.8-0.2,1.2c-0.1,0.3-0.2,0.6-0.3,0.8c-0.2,0.2-0.4,0.4-0.6,0.6
					c-0.2,0.2-0.5,0.2-0.8,0.2c-0.3,0-0.6,0-0.8-0.2c-0.2-0.2-0.5-0.2-0.6-0.4c-0.2-0.2-0.3-0.5-0.3-0.8c0-0.4-0.2-0.8-0.2-1.2
					c0-0.4,0-0.8,0.2-1.2c0.1-0.3,0.2-0.6,0.3-0.8c0.2-0.2,0.4-0.4,0.6-0.6c0.2-0.2,0.5-0.2,0.8-0.2c0.3,0,0.6,0,0.8,0.2
					c0.2,0.2,0.5,0.2,0.6,0.4c0.2,0.2,0.3,0.5,0.3,0.8C2620.9-1871.1,2620.9-1870.7,2620.9-1870.3z M2620.1-1870.3v-0.8
					c0-0.2-0.2-0.4-0.2-0.6l-0.3-0.4h-0.6c-0.2,0-0.4,0.1-0.5,0.2c-0.2,0-0.3,0.2-0.3,0.4c-0.1,0.2-0.2,0.4-0.2,0.6v1.4
					c0,0.2,0.2,0.4,0.2,0.6c0,0.2,0.2,0.2,0.3,0.4c0.2,0,0.3,0.2,0.5,0.2c0.2,0,0.4-0.1,0.5-0.2c0.2,0,0.3-0.2,0.3-0.4
					c0.1-0.2,0.2-0.4,0.2-0.6C2620.1-1869.7,2620.1-1870,2620.1-1870.3L2620.1-1870.3z"/>
			</g>
			<g id="Group_103" transform="translate(106.905 44.413)">
				<path id="Path_579" class="st0" d="M2616.9-1868L2616.9-1868c0,0.2,0,0.2-0.2,0.2h-0.8c0,0-0.2,0-0.2-0.2l-0.2-0.2
					c-0.1-0.1-0.1-0.3-0.2-0.4l-1-2.4c0-0.2-0.2-0.2-0.2-0.4c0-0.1-0.1-0.3-0.2-0.4l0,0v3.9h-0.6v-4.7c0-0.2,0-0.2,0.2-0.2h1
					c0,0,0.2,0,0.2,0.2c0,0,0,0.2,0.2,0.2l0.8,1.8c0,0.2,0.2,0.2,0.2,0.4s0.2,0.2,0.2,0.4s0.2,0.2,0.2,0.4c0,0.2,0,0.2,0.2,0.4l0,0
					v-3.7h0.6v4.7H2616.9z"/>
			</g>
			<g id="Group_104" transform="translate(90.717 32.8)">
				<path id="Path_580" class="st0" d="M2617.4-1870.3c0,0.4,0,0.8-0.2,1.2c-0.1,0.3-0.2,0.6-0.3,0.8c-0.2,0.2-0.4,0.4-0.6,0.6
					c-0.2,0.2-0.5,0.2-0.8,0.2c-0.3,0-0.6,0-0.8-0.2c-0.2-0.2-0.5-0.2-0.6-0.4c-0.2-0.2-0.3-0.5-0.3-0.8c0-0.4-0.2-0.8-0.2-1.2
					c0-0.4,0-0.8,0.2-1.2c0.1-0.3,0.2-0.6,0.3-0.8c0.2-0.2,0.4-0.4,0.6-0.6c0.2-0.2,0.5-0.2,0.8-0.2c0.3,0,0.6,0,0.8,0.2
					c0.2,0.2,0.5,0.2,0.6,0.4c0.2,0.2,0.3,0.5,0.3,0.8C2617.4-1871.1,2617.4-1870.7,2617.4-1870.3z M2616.6-1870.3v-0.8
					c0-0.2-0.2-0.4-0.2-0.6l-0.3-0.4c-0.2,0-0.3-0.2-0.5-0.2c-0.2,0-0.4,0.1-0.5,0.2c-0.2,0-0.3,0.2-0.3,0.4
					c-0.1,0.2-0.2,0.4-0.2,0.6v1.4c0,0.2,0.2,0.4,0.2,0.6s0.2,0.2,0.3,0.4c0.2,0,0.3,0.2,0.5,0.2c0.2,0,0.4-0.1,0.5-0.2
					c0.2,0,0.3-0.2,0.3-0.4c0.1-0.2,0.2-0.4,0.2-0.6V-1870.3z"/>
			</g>
			<g id="Group_105" transform="translate(98.891 15.28)">
				<path id="Path_581" class="st0" d="M2616.9-1868L2616.9-1868c0,0.2,0,0.2-0.2,0.2h-0.8c0,0-0.2,0-0.2-0.2l-0.2-0.2
					c-0.1-0.1-0.1-0.3-0.2-0.4l-1-2.4c0-0.2-0.2-0.2-0.2-0.4c0-0.1-0.1-0.3-0.2-0.4l0,0v3.9h-0.6v-4.7c0-0.2,0-0.2,0.2-0.2h1
					c0,0,0.2,0,0.2,0.2c0,0,0,0.2,0.2,0.2l0.8,1.8c0,0.2,0.2,0.2,0.2,0.4s0.2,0.2,0.2,0.4s0.2,0.2,0.2,0.4c0,0.2,0,0.2,0.2,0.4l0,0
					v-3.7h0.6v4.7H2616.9z"/>
				<path id="Path_582" class="st0" d="M2621.1-1867.8L2621.1-1867.8C2620.9-1867.8,2620.9-1867.6,2621.1-1867.8l-0.2,0.2h-0.5v-2
					h-1.6v2h-0.6v-4.9h0.6v1.8h1.6v-1.8h0.6L2621.1-1867.8z"/>
			</g>
			<rect id="Rectangle_100" x="2678.3" y="-1847.4" class="st0" width="1" height="8.1"/>
			<rect id="Rectangle_101" x="2676" y="-1847.4" class="st0" width="1" height="8.1"/>
			<path id="Path_583" class="st0" d="M2682.9-1837.1l-0.5,1l-4.8-3.5v-1.4L2682.9-1837.1z"/>
			<path id="Path_584" class="st0" d="M2670.7-1834.6l-2.2,0.2l9.1-6.5v1.4L2670.7-1834.6z"/>
			<path id="Path_585" class="st0" d="M2670.1-1823l-0.5,0.2l-0.5-0.2l-0.6-11.4l2.2-0.2L2670.1-1823z"/>
			<path id="Path_586" class="st0" d="M2664.8-1818.5l-0.5-1l4.8-3.5l0.5,0.2v0.8L2664.8-1818.5z"/>
			<path id="Path_587" class="st0" d="M2653.8-1822v-1.4l5.3,3.9l-0.5,1L2653.8-1822z"/>
			<rect id="Rectangle_102" x="2652.2" y="-1829.9" class="st0" width="1" height="8.1"/>
			<rect id="Rectangle_103" x="2654.4" y="-1829.9" class="st0" width="1" height="8.1"/>
			<path id="Path_588" class="st0" d="M2646.2-1816.5l-0.5-0.4v-0.6l8-5.9v1.4L2646.2-1816.5z"/>
			<path id="Path_589" class="st0" d="M2640.8-1819.9l0.5-1l4.5,3.5v0.6l-0.5,0.4L2640.8-1819.9z"/>
			<path id="Path_590" class="st0" d="M2639.7-1817.3l0.3-1.2l3.7,2.9l-0.5,1L2639.7-1817.3z"/>
			<path id="Path_591" class="st0" d="M2630.4-1816.5l-0.5-0.4v-0.6l4.5-3.5l0.5,1L2630.4-1816.5z"/>
			<path id="Path_592" class="st0" d="M2630.4-1805.5l-0.5,0.2l-0.5-0.2v-11l0.5-0.4l0.5,0.4V-1805.5z"/>
			<path id="Path_593" class="st0" d="M2637.9-1800v1.2l-8-5.9v-0.6l0.5-0.2L2637.9-1800z"/>
			<path id="Path_594" class="st0" d="M2645.3-1805.5l1,0.6l-8.3,6.1v-1.2L2645.3-1805.5z"/>
			<path id="Path_595" class="st0" d="M2643.2-1807.5l0.5,1l-5.6,4.3l-0.5-1L2643.2-1807.5z"/>
			<path id="Path_596" class="st0" d="M2646.2-1804.9l-1-0.6v-11l0.5-0.4l0.5,0.4V-1804.9z"/>
			<path id="Path_597" class="st0" d="M2621.9-1798.8v-1.2l7.5-5.5l0.5,0.2v0.6L2621.9-1798.8z"/>
			<path id="Path_598" class="st0" d="M2622.2-1802.2l-0.5-1l5.6-4.3l0.5,1L2622.2-1802.2z"/>
			<path id="Path_599" class="st0" d="M2613.5-1804.9l1-0.6l7.4,5.5v1.2L2613.5-1804.9z"/>
			<path id="Path_600" class="st0" d="M2613.5-1817.3l1,0.8v11l-1,0.6V-1817.3z"/>
			<rect id="Rectangle_104" x="2615.8" y="-1815.3" class="st0" width="1" height="8.4"/>
			<path id="Path_601" class="st0" d="M2621.9-1823.4v1.4l-7.4,5.5l-1-0.8L2621.9-1823.4z"/>
			<path id="Path_602" class="st0" d="M2621.9-1822v-1.4l8,5.9v0.6l-0.5,0.4L2621.9-1822z"/>
			<path id="Path_603" class="st0" d="M2621.7-1818.9l0.5-1l5.6,4.3l-0.5,1L2621.7-1818.9z"/>
			<path id="Path_604" class="st0" d="M2677.6-1817.5v1.2l-8-5.7v-0.8l0.5-0.2L2677.6-1817.5z"/>
			<rect id="Rectangle_105" x="2678.3" y="-1817.7" class="st0" width="1" height="8.8"/>
			<rect id="Rectangle_106" x="2676" y="-1817.7" class="st0" width="1" height="8.8"/>
			<path id="Path_605" class="st0" d="M2680.5-1819.7l0.5,1l-3.2,2.2l-0.5-0.8L2680.5-1819.7z"/>
			<path id="Path_606" class="st0" d="M2693.7-1817.3l-0.5,0.8l-3.2-2.2l0.5-1L2693.7-1817.3z"/>
			<path id="Path_607" class="st0" d="M2694.5-1807.1h-2.1l0.2-1h1.9L2694.5-1807.1z"/>
			<path id="Path_608" class="st0" d="M2694.3-1809.3h-1.8l0.2-1.2h1.6L2694.3-1809.3z"/>
			<path id="Path_609" class="st0" d="M2694.1-1811.6h-1.4l0.2-1.2h1.3V-1811.6z"/>
			<path id="Path_610" class="st0" d="M2694-1814h-1.1l0.2-1h1V-1814z"/>
			<path id="Path_611" class="st0" d="M2701.4-1800v0.6l-0.5,0.2l-7.7-5.5l0.5-1L2701.4-1800z"/>
			<path id="Path_612" class="st0" d="M2709.4-1805.9v1.2l-7.5,5.5l-0.5-0.2v-0.6L2709.4-1805.9z"/>
			<path id="Path_613" class="st0" d="M2709.2-1802.4l0.3,1l-5.6,4.3l-0.5-1L2709.2-1802.4z"/>
			<path id="Path_614" class="st0" d="M2717.7-1799.8l-0.8,0.6l-7.5-5.5v-1.2L2717.7-1799.8z"/>
			<path id="Path_615" class="st0" d="M2717.7-1787.3l-0.8-0.8v-11l0.8-0.6V-1787.3z"/>
			<rect id="Rectangle_107" x="2714.5" y="-1797.7" class="st0" width="1" height="8.4"/>
			<path id="Path_616" class="st0" d="M2709.4-1781.2v-1.4l7.5-5.5l0.8,0.8L2709.4-1781.2z"/>
			<path id="Path_617" class="st0" d="M2700.9-1787.3l1-0.8l7.5,5.5v1.4L2700.9-1787.3z"/>
			<path id="Path_618" class="st0" d="M2703.4-1789l0.5-1l5.6,4.3l-0.3,1L2703.4-1789z"/>
			<path id="Path_619" class="st0" d="M2701.8-1788.2l-1,0.8v-11.8l0.5-0.2l0.5,0.2V-1788.2z"/>
			<path id="Path_620" class="st0" d="M2701.4-1823.4v1.4l-7.9,5.7v-1.2L2701.4-1823.4z"/>
			<path id="Path_621" class="st0" d="M2700.4-1829.9h2.1l-0.2,1.2h-1.8L2700.4-1829.9z"/>
			<path id="Path_622" class="st0" d="M2700.6-1827.9h1.6v1.2h-1.4L2700.6-1827.9z"/>
			<path id="Path_623" class="st0" d="M2700.9-1825.6h1.1l-0.2,1h-1V-1825.6z"/>
			<path id="Path_624" class="st0" d="M2709.4-1817.5v1.2l-8-5.7v-1.4L2709.4-1817.5z"/>
			<path id="Path_625" class="st0" d="M2718.7-1824.4l0.5,1l-9.8,7.1v-1.2L2718.7-1824.4z"/>
			<path id="Path_626" class="st0" d="M2721.6-1838.3l1,0.6v7.9h-1V-1838.3z"/>
			<path id="Path_627" class="st0" d="M2714.8-1841.7l1.1-2.2l0.6,0.6l-1,2.2L2714.8-1841.7z"/>
			<path id="Path_628" class="st0" d="M2716.4-1840.7l1-1.8l0.8,0.6l-0.8,1.8L2716.4-1840.7z"/>
			<path id="Path_629" class="st0" d="M2718.2-1839.7l0.6-1.6l0.8,0.6l-0.6,1.4L2718.2-1839.7z"/>
			<path id="Path_630" class="st0" d="M2719.8-1838.7l0.5-1.2l0.8,0.6l-0.5,1L2719.8-1838.7z"/>
			<path id="Path_631" class="st0" d="M2709.7-1838.1l-0.5-1l5.8-4.3l0.5,1L2709.7-1838.1z"/>
			<path id="Path_632" class="st0" d="M2708.4-1840.5l-0.5-1l5.9-4.5l0.5,1L2708.4-1840.5z"/>
			<rect id="Rectangle_108" x="2713.7" y="-1851.1" class="st0" width="1" height="7.3"/>
			<path id="Path_633" class="st0" d="M2706.2-1860.5v-0.8l0.5-0.2l4.8,3.5l-0.5,1L2706.2-1860.5z"/>
			<path id="Path_634" class="st0" d="M2698.5-1855l-0.5-0.8l7.2-5.5h1v0.8L2698.5-1855z"/>
			<path id="Path_635" class="st0" d="M2698-1866.6l0.5-1l7.2,5.3l0.5,1h-1L2698-1866.6z"/>
			<path id="Path_636" class="st0" d="M2705.7-1872.9h1v11.4l-0.5,0.2l-0.5-1V-1872.9z"/>
			<path id="Path_637" class="st0" d="M2729.7-1844.2l0.5,1l-7.7,5.5l-1-0.6L2729.7-1844.2z"/>
			<path id="Path_638" class="st0" d="M2736.9-1839.3l-0.5,1l-0.8-0.4l0.6-1.2L2736.9-1839.3z"/>
			<path id="Path_639" class="st0" d="M2735.5-1840.7l-0.6,1.4l-0.8-0.4l0.6-1.6L2735.5-1840.7z"/>
			<path id="Path_640" class="st0" d="M2734.1-1841.9l-0.8,1.8l-0.8-0.6l0.8-1.8L2734.1-1841.9z"/>
			<path id="Path_641" class="st0" d="M2732.6-1843.4l-1.1,2.2l-0.8-0.6l1.1-2.2L2732.6-1843.4z"/>
			<path id="Path_642" class="st0" d="M2745.9-1844.4v1.4l-7.5,5.3l-0.8-0.6L2745.9-1844.4z"/>
			<path id="Path_643" class="st0" d="M2754.3-1838.3l-0.8,0.6l-7.5-5.3v-1.4L2754.3-1838.3z"/>
			<path id="Path_644" class="st0" d="M2754.2-1825.8l-0.8-0.6v-11.2l0.8-0.6V-1825.8z"/>
			<path id="Path_645" class="st0" d="M2746.1-1819.9l-0.3-1l7.7-5.5l0.8,0.6L2746.1-1819.9z"/>
			<path id="Path_646" class="st0" d="M2739-1824.8l0.3-1l1,0.4l-0.6,1.2L2739-1824.8z"/>
			<path id="Path_647" class="st0" d="M2740.5-1823.4l0.6-1.4l0.8,0.4l-0.6,1.6L2740.5-1823.4z"/>
			<path id="Path_648" class="st0" d="M2741.9-1822.2l0.8-1.6l0.8,0.4l-0.8,1.8L2741.9-1822.2z"/>
			<path id="Path_649" class="st0" d="M2743.4-1820.8l1-2.2l1,0.6l-1.1,2.2L2743.4-1820.8z"/>
			<path id="Path_650" class="st0" d="M2738.4-1825.8l-0.8-0.6v-11.8l0.8,0.6V-1825.8z"/>
			<path id="Path_651" class="st0" d="M2730-1819.7v-1.4l7.5-5.3l0.8,0.6L2730-1819.7z"/>
			<path id="Path_652" class="st0" d="M2730-1821.2v1.4l-5.1-3.7l0.5-1L2730-1821.2z"/>
		</g>
	</g>
	<path id="Path_654" class="st1" d="M2707.9-1776.1h-1.4v-1h0.8l0.4-0.6l0.8,0.4L2707.9-1776.1z M2704.6-1776.1h-1.9v-1h1.9
		L2704.6-1776.1z M2700.8-1776.1h-1.9v-1h1.9L2700.8-1776.1z M2696.9-1776.1h-1.9v-1h1.9L2696.9-1776.1z M2693-1776.1h-1.9v-1h1.9
		L2693-1776.1z M2689.1-1776.1h-1.9v-1h1.9L2689.1-1776.1z M2685.3-1776.1h-1.9v-1h1.9L2685.3-1776.1z M2681.4-1776.1h-1.9v-1h1.9
		L2681.4-1776.1z M2677.5-1776.1h-1.9v-1h1.9L2677.5-1776.1z M2673.7-1776.1h-1.9v-1h1.9L2673.7-1776.1z M2669.8-1776.1h-1.9v-1h1.9
		L2669.8-1776.1z M2665.9-1776.1h-1.9v-1h1.9L2665.9-1776.1z M2662-1776.1h-1.9v-1h1.9L2662-1776.1z M2658.2-1776.1h-1.9v-1h1.9
		L2658.2-1776.1z M2654.3-1777.2l-1-1.8l0.8-0.4l1,1.8L2654.3-1777.2z M2709.5-1779l-0.8-0.4l1-1.8l0.8,0.4L2709.5-1779z
		 M2652.4-1780.6l-1-1.8l0.8-0.4l1,1.8L2652.4-1780.6z M2711.4-1782.5l-0.8-0.4l1-1.8l0.8,0.4L2711.4-1782.5z M2650.4-1784.3l-1-1.8
		l0.8-0.4l1,1.8L2650.4-1784.3z M2713.4-1786.1l-0.8-0.4l1-1.8l0.8,0.4L2713.4-1786.1z M2648.5-1787.8l-1-1.8l0.8-0.4l1,1.8
		L2648.5-1787.8z M2715.3-1789.6l-0.8-0.4l1-1.8l0.8,0.4L2715.3-1789.6z M2646.5-1791.2l-1-1.8l0.8-0.4l1,1.8L2646.5-1791.2z
		 M2717.2-1793l-0.8-0.4l1-1.8l0.8,0.4L2717.2-1793z M2644.6-1794.9l-1-1.8l0.8-0.4l1,1.8L2644.6-1794.9z M2719.2-1796.7l-0.8-0.4
		l1-1.8l0.8,0.4L2719.2-1796.7z M2642.7-1798.3l-1-1.8l0.8-0.4l1,1.8L2642.7-1798.3z M2721.1-1800.2l-0.8-0.4l1-1.8l0.8,0.4
		L2721.1-1800.2z M2640.7-1801.8l-1-1.8l0.8-0.4l1,1.8L2640.7-1801.8z M2723-1803.6l-0.8-0.4l1-1.8l0.8,0.4L2723-1803.6z
		 M2638.8-1805.3l-1-1.8l0.8-0.4l1,1.8L2638.8-1805.3z M2725-1807.3l-0.8-0.4l1-1.8l0.8,0.4L2725-1807.3z M2636.9-1808.9l-1-1.8
		l0.8-0.4l1,1.8L2636.9-1808.9z M2726.9-1810.8l-0.8-0.4l1-1.8l0.8,0.4L2726.9-1810.8z M2634.9-1812.4l-1-1.8l0.8-0.4l1,1.8
		L2634.9-1812.4z M2728.9-1814.2l-0.8-0.4l1-1.8l0.8,0.4L2728.9-1814.2z M2633-1815.9l-1-1.8l0.8-0.4l1,1.8L2633-1815.9z
		 M2730.8-1817.9l-0.8-0.4l1-1.8l0.8,0.4L2730.8-1817.9z M2631-1819.5l-1-1.8l0.8-0.4l1,1.8L2631-1819.5z M2732.7-1821.4l-0.8-0.4
		l1-1.8l0.8,0.4L2732.7-1821.4z M2629.1-1823l-0.8-1.6l0.4-0.8l0.8,0.4l-0.2,0.2l0.6,1L2629.1-1823z M2733.1-1824.8l-1-1.8l0.8-0.4
		l1,1.8L2733.1-1824.8z M2630.5-1826.5l-0.8-0.4l1-1.8l0.8,0.4L2630.5-1826.5z M2731.2-1828.5l-1-1.8l0.8-0.4l1,1.8L2731.2-1828.5z
		 M2632.4-1830.1l-0.8-0.4l1-1.8l0.8,0.4L2632.4-1830.1z M2729.2-1832l-1-1.6l0.8-0.4l1,1.8L2729.2-1832z M2634.3-1833.6l-0.8-0.4
		l1-1.8l0.8,0.4L2634.3-1833.6z M2727.3-1835.4l-1-1.8l1-0.4l1,1.8L2727.3-1835.4z M2636.3-1837.1l-0.8-0.6l1-1.8l0.8,0.4
		L2636.3-1837.1z M2725.4-1838.9l-1-1.8l0.8-0.4l1,1.8L2725.4-1838.9z M2638.2-1840.7l-0.8-0.4l1-1.8l0.8,0.4L2638.2-1840.7z
		 M2723.4-1842.6l-1-1.8l0.8-0.4l1,1.8L2723.4-1842.6z M2640.2-1844.2l-0.8-0.4l1-1.8l0.8,0.4L2640.2-1844.2z M2721.5-1846l-1-1.8
		l0.8-0.4l1,1.8L2721.5-1846z M2642.1-1847.6l-0.8-0.4l1-1.8l0.8,0.4L2642.1-1847.6z M2719.6-1849.5l-1-1.8l1-0.6l1,1.8
		L2719.6-1849.5z M2644-1851.3l-0.8-0.4l1-1.8l0.8,0.4L2644-1851.3z M2717.6-1853.1l-1-1.8l0.8-0.4l1,1.8L2717.6-1853.1z
		 M2646-1854.8l-0.8-0.4l1-1.8l0.8,0.4L2646-1854.8z M2715.7-1856.6l-1-1.8l0.8-0.4l1,1.8L2715.7-1856.6z M2647.9-1858.2l-0.8-0.4
		l1-1.8l0.8,0.4L2647.9-1858.2z M2713.7-1860.1l-1-1.8l0.8-0.4l1,1.8L2713.7-1860.1z M2649.8-1861.9l-0.8-0.4l1-1.8l0.8,0.4
		L2649.8-1861.9z M2711.8-1863.7l-1-1.8l1-0.4l1,1.8L2711.8-1863.7z M2651.8-1865.4l-0.8-0.4l1-1.8l0.8,0.4L2651.8-1865.4z
		 M2709.9-1867.2l-1-1.8l1-0.4l1,1.8L2709.9-1867.2z M2653.7-1868.8l-0.8-0.4l1-1.8l0.8,0.4L2653.7-1868.8z M2707.9-1870.7l-0.6-1.2
		h-1.7v-1h2.3l1,1.6L2707.9-1870.7z M2703.7-1871.9h-1.9v-1h1.9L2703.7-1871.9z M2699.8-1871.9h-1.9v-1h1.9V-1871.9z M2695.9-1871.9
		h-1.9v-1h1.9L2695.9-1871.9z M2692.1-1871.9h-1.9v-1h1.9L2692.1-1871.9z M2688.2-1871.9h-1.9v-1h1.9L2688.2-1871.9z M2684.3-1871.9
		h-1.9v-1h1.9L2684.3-1871.9z M2680.4-1871.9h-1.9v-1h1.9V-1871.9z M2676.6-1871.9h-1.9v-1h1.9L2676.6-1871.9z M2672.7-1871.9h-1.9
		v-1h1.9L2672.7-1871.9z M2668.8-1871.9h-1.9v-1h1.9L2668.8-1871.9z M2664.9-1871.9h-1.9v-1h1.9L2664.9-1871.9z M2661.1-1871.9h-1.9
		v-1h1.9L2661.1-1871.9z M2657.2-1871.9h-1.9v-1h1.9L2657.2-1871.9z"/>
	<path id="Path_653" class="st2" d="M2749.1-1874.7l-87.5,49.6l87.5,49.6V-1874.7z"/>
</g>
</svg>
