<?xml version="1.0" encoding="utf-8"?>
<!-- Generator: Adobe Illustrator 22.0.1, SVG Export Plug-In . SVG Version: 6.00 Build 0)  -->
<svg version="1.1" id="Layer_1" xmlns="http://www.w3.org/2000/svg" xmlns:xlink="http://www.w3.org/1999/xlink" x="0px" y="0px"
	 viewBox="0 0 51.3 88.5" style="enable-background:new 0 0 51.3 88.5;" xml:space="preserve">
<g id="Group_1209" transform="translate(-1690.916 3047.198)">
	<path id="Path_1358" d="M1707.4-3004.1c0-0.2,0-0.4-0.1-0.4c-0.2-0.1-0.5-0.2-0.7-0.3c0-0.1,0-0.1,0.1-0.2c0.3,0.1,0.7,0.2,1.2,0.4
		c0-0.2,0.1-0.4,0-0.5c-0.1-0.2-0.4-0.2-0.6-0.5c0.2,0,0.3,0,0.5,0c0.6,0.2,0.5-0.3,0.6-0.5c0.2-0.5,0.4-1.1,0.5-1.7
		c0.1-0.3,0.2-0.7,0.3-1.1c0.4,0.3,0.7,0.6,1,0.9c-0.8,0.7-1.7,1.3-1.6,2.5c0.4,0.2,0.8,0.4,1.2,0.5c-0.2,0-0.5,0-0.7,0
		c-0.3-0.1-0.5,0.1-0.6,0.4c0,0.1,0,0.2,0,0.3c-0.2,0.3-0.4,0.6-0.5,0.9c0,0.3,0,0.5,0.1,0.8l0.6-0.3c0.1,0,0.1,0,0.2,0
		c-0.1,0.2-0.2,0.3-0.2,0.5c0.3,0.1,0.6,0.2,0.9,0.2c0.2,0,0.4-0.3,0.5-0.5c0.1-0.1,0.1-0.3,0.1-0.5l0.1-0.5c-0.1,0-0.1,0.1-0.2,0.1
		c-0.4-0.2-0.8-0.5-1.2-0.7c0.5,0.1,1,0.2,1.5,0.4c0.1-0.2,0.2-0.4,0.2-0.5c-0.3-0.2-0.5-0.3-0.8-0.5h0.9c0.1-0.3,0.2-0.6,0.3-0.9
		l0.2,0c0,0.1-0.1,0.3-0.1,0.4c-0.2,0.4-0.2,0.7,0.3,0.8c0.8,0.2,1.7,0.4,2.6,0.6c0,0.1,0,0.3,0,0.3c-0.9-0.5-2-0.5-3-0.9
		c-0.1,0.3-0.2,0.5-0.4,0.8c1.4,0.3,2.7,0.5,4,0.8c0,0,0,0.1,0,0.1c-0.2,0-0.4,0.1-0.7,0.1v1c-0.2-0.1-0.3-0.2-0.4-0.2
		c0.1-0.2,0.3-0.4,0.3-0.5c-0.1-0.2-0.2-0.3-0.4-0.4c-0.7-0.2-1.4-0.3-2-0.4c-0.4-0.1-0.8,0.1-0.9,0.5c0,0.1,0,0.1,0,0.2
		c0,0.3-0.1,0.5-0.2,0.7c1.5,0.3,2.8,0.6,4.2,0.9c-0.8,0-0.8,0.5-0.8,1v-0.9c-1.1-0.3-2.2-0.5-3.4-0.8c-0.2,1-0.3,2-0.5,3
		c1.3,0.3,2.5,0.7,3.9,1c0-0.6-0.1-1.1-0.1-1.6c0-0.1,0-0.1,0.1-0.2c0,0,0.1-0.1,0.1,0c0.1,0.1,0.2,0.2,0.1,0.2
		c0,0.6-0.1,1.2-0.1,1.8c-1.3-0.3-2.6-0.6-3.9-1c0,0.1,0,0.2-0.1,0.3c0.8,0.2,1.6,0.5,2.4,0.7c0,0,0,0.1,0,0.2
		c-0.8-0.2-1.5-0.4-2.3-0.6c-0.3,1-0.2,1.6,0.2,1.8c-0.1,0.3-0.3,0.5-0.3,0.8c0.2,0.9-0.2,1.7-0.9,2.2c-0.1,0.1-0.2,0.3-0.3,0.4
		c0.1,0.1,0.1,0.1,0.2,0.2c0.2-0.3,0.4-0.6,0.7-0.8c0.1-0.1,0.3-0.2,0.5-0.2c0,0.2,0,0.3,0,0.5c0,0.2,0.1,0.4,0.1,0.6
		c-0.5,0.3-1.1,0.6-1,1.5c0.4-0.4,0.8-0.7,1.1-1c0,0,0.1,0.1,0.1,0.1c-0.3,0.3-0.7,0.6-0.8,0.9c-0.1,0.3,0.1,0.7,0.2,1.2
		c0.5-0.5,1.1-0.7,0.7-1.4c-0.1-0.1,0.1-0.3,0.2-0.5c0.2,0.8,0.6,1.2,1.5,1.1h-1c0.5,0.9,1,1.8,1.5,2.6c0,0.1,0,0.1-0.1,0.2
		c-0.9,1.1-0.9,1.1,0.1,2.2c0.8,0.9,1.9,1.7,3,2.1c0.2,0.1,0.4,0.2,0.6,0.4c-4.2-0.7-7-3.3-9.3-6.6c1.5,2.8,3.8,5.1,6.7,6.4
		c3,1.2,6,2.2,9.3,1.7c0,0.1,0,0.1,0,0.2l-0.6,0.1c-0.2,0-0.4,0.1-0.6,0.2c1-0.1,1.9-0.2,2.9-0.3c1.7-0.2,3.4-0.3,5.1-0.6
		c1.8-0.3,3.6-1.1,5-2.3c2.1-1.7,3.9-3.9,5-6.4c0.6-1.3,1.1-2.7,1.5-4c0.8-2.8,1-5.7,0.6-8.6c-0.2-1.9-0.6-3.8-1.3-5.6
		c-0.5-1.1-0.8-2.3-1.3-3.5c-0.2-0.6-0.5-1.2-0.8-1.7c-0.9-1.6-1.2-3.4-1-5.2c0.2-2.6,0.4-5.2,0.6-7.7c0-0.2,0-0.4,0-0.7
		c-3,0.6-6,0.8-9.1,0.5h2.9v-0.2h-2.4c-0.8,0-1.5,0-2.3-0.2c0-0.1,0-0.2,0-0.3h4.8c0-0.6-0.1-1.1-0.1-1.7h3.5v-0.1
		c-1.7-0.1-3.3-0.2-5.1-0.4c0.2-0.1,0.2-0.2,0.3-0.1c2,0.1,3.9,0.2,5.9,0.3c0.5,0,1,0.2,1.5,0.4c1,0.3,1.1,0.7,1,1.7
		c-0.1,0.8-0.2,1.6-0.3,2.4c-0.2,1.8-0.4,3.7-0.5,5.5c0,2.4,0.5,4.8,1.5,7c1,2.3,1.8,4.6,2.2,7.1c0.3,2.1,0.8,4.2,0.9,6.3
		c0.1,1.2-0.1,2.4-0.4,3.6c-0.3,1.3-0.8,2.6-1.3,3.9c-0.8,1.8-1.8,3.6-3.1,5.1c-0.8,1.2-1.7,2.3-2.7,3.3c-1.1,1-2.3,1.8-3.5,2.4
		c-1,0.6-1.7,1.5-2.2,2.5c-0.5,1-1.1,1.9-1.8,2.7c-0.7,0.7-1.1,1.7-1.1,2.7c0,2.1,0,4.2-0.1,6.3c-0.1,0.4,0.2,0.8,0.6,1
		c2.5,1.1,4.9,2.3,7.4,3.4c0.5,0.2,0.8,0.7,0.7,1.3c0,0.5-0.3,1-0.8,1.2c-2.6,1.1-5.4,1.7-8.2,1.5c-3.2-0.1-6.5-0.1-9.7-0.4
		c-1.5-0.3-3-0.7-4.5-1.3c-0.7-0.2-1-1-0.1-1.6c2.4-1.4,4.8-2.8,7.2-4.2c0.3-0.1,0.6-0.5,0.5-0.8c0-2.5,0-5,0-7.5
		c0-0.8-0.3-1.6-0.9-2.2c-0.7-0.7-1.3-1.4-1.8-2.3c-0.4-0.7-1-1.3-1.7-1.7c-1.3-0.7-2.6-1.6-3.8-2.3c-2.7-1.7-5-4.2-6.4-7
		c-1-2.1-1.8-4.3-2.3-6.5c-0.8-3.4-0.8-7,0.1-10.3c0.6-2.2,1.2-4.3,1.8-6.4c0.9-3,1.4-6,1.5-9.1c0-0.1,0-0.1,0-0.2c0,0-0.1,0-0.1,0
		c-1,0.4-1,0.4-1.8-0.4c-0.7-0.6-1.4-1.1-2.1-1.6c0.2,0.2,0.3,0.4,0.4,0.7c0,0-0.1,0.1-0.1,0.1c-0.2-0.1-0.3-0.2-0.4-0.3
		c-1.9-1.9-3.8-3.9-5.8-5.8c-1.5-1.4-3.1-2.7-4.6-4c-0.4-0.3-0.4-0.8-0.1-1.2c0.1-0.1,0.1-0.1,0.2-0.2c1.3-1,2.6-2.1,3.9-3.1
		c0.3-0.3,0.7-0.4,0.6-1c0-0.1,0.2-0.4,0.4-0.5c2.2-1.3,4.6-2.2,7-2.7c0.4-0.1,0.8-0.1,1.3-0.1c0.1,0,0.3,0.2,0.4,0.4
		c0.4-0.4,1-0.5,1.5-0.2c0.2,0.1,0.6,0,0.8,0.1c1.2,0.2,2.3,0.4,3.5,0.6c0.4,0.1,0.7,0.2,1,0.4c-0.5-0.8-0.9-1.4-1.3-2
		c-0.2,0.1-0.4,0.2-0.6,0.2c-0.2,0-0.5-0.2-0.5-0.3c-0.2-0.9-0.7-1.7-1.5-2.3c-0.2-0.2-0.4-0.4-0.5-0.6c0.2-0.6,0.5-0.7,1-0.2
		c1.5,1.5,2.8,3.2,3.8,5.1c0.1,0.2,0.4,0.4,0.6,0.5c0.8,0.4,1.6,0.8,2.3,1.3c0.3,0.2,0.4,0.6,0.6,0.8c0.4,0.4,0.9,0.7,1.4,1
		c1.2,0.6,2.3,1.6,2.9,2.8c0.4,1,0.7,2.1,0.8,3.2c0,0.2-0.3,0.6-0.5,0.8c-0.4,0.3-0.8,0.6-1.2,0.8c1.7,0.1,3.3,0.1,4.8,0.2
		c0,0.1,0,0.1,0,0.2c-0.3,0-0.7,0-1,0c-1.3,0-2.7,0-4,0c-0.2,0-0.5,0.1-0.7,0.1c0,0.1,0,0.2,0,0.2h5.9c0,0.1,0,0.2,0,0.3
		c-0.5,0-1,0.1-1.6,0.1c0,0.2,0,0.5,0,0.7c0,0.6,0.1,1,0.8,0.9c0.2,0,0.4,0.1,0.6,0.2c0,0.1,0,0.1,0,0.2c-0.2,0-0.3,0-0.5,0
		c-2.3-0.1-4.7-0.2-7-0.3c-1.7-0.1-3.5-0.2-5.2-0.4c-0.3,0-0.6-0.1-0.9-0.2c-0.4-0.2-0.8,0-1,0.4c0,0,0,0,0,0
		c-0.3,0.5-0.8,1-1.1,1.5l-0.1-0.1c0.4-0.6,0.9-1.2,1.4-1.8c-0.9-0.2-1.8-0.5-2.8-0.7c0.1,0.5,0.2,1,0.3,1.4c0.1,0.3,0.2,0.7,0.2,1
		c0,2-0.1,3.9-0.2,5.9c-0.2,1.8-0.6,3.6-1.2,5.3c-0.4,1.1-0.7,2.2-1,3.4c-0.4,1.5-0.7,2.9-1.1,4.4c-0.8,3.1-0.9,6.3-0.5,9.5
		c0.1,0.7,0.3,1.3,0.4,2c0.1,0.2,0.2,0.4,0.4,0.5c-1-3.4-1-7.1,0-10.5c0,0.4,0,0.9-0.1,1.3c0,0.5-0.1,0.9-0.2,1.4
		c-0.3,1.8-0.2,3.6,0.1,5.3c0.5,3.1,1.6,6,3.3,8.6c0.5,0.7,1.2,1.4,1.9,1.9c-0.7-1.2-1.5-2.3-2.2-3.5c-1.1-1.9-1.8-4-2.2-6.2
		c-0.4-2-0.6-4-0.4-6c0.2-1.9,0.4-3.7,0.8-5.6c0.4-1.6,1.1-3.2,1.6-4.8c0.3-1.1,0.4-2.3,0.7-3.4c0-0.2,0.1-0.3,0.1-0.4
		c0.2,1.6,0.1,3.3-0.3,4.9c0.7,0.3,1.3,0.6,1.9,1c0.2-0.8,0.5-1.5,0.7-2.3c0,0,0.1,0,0.1,0c-0.1,0.5-0.1,1-0.2,1.4
		c-0.1,0.2-0.2,0.4-0.2,0.6c0,0.1,0.2,0.3,0.2,0.4c0.1-0.1,0.3-0.3,0.3-0.4c-0.1-0.2-0.2-0.4-0.3-0.7c0.1-0.1,0.4-0.1,0.4-0.2
		c0.3-0.7,0.5-1.4,0.6-2.2c-0.1-1.1,0.3-2.1,0.2-3.2c-0.2-2.3-0.1-4.6,0-6.8c0.1-0.5-0.1-1-0.4-1.4c-0.5-0.5-0.6-0.6-1.2-0.2
		c-0.8,0.4-1.3,1.3-1.1,2.2c0,1.6,0,3.2,0.1,4.8c0,0,0,0.1-0.2,0.2v-5.2l-0.2,0c-0.1,0.3-0.2,0.5-0.2,0.8c0,1.5,0.1,3.1,0.2,4.6
		c0,0.2,0,0.4-0.1,0.5c-0.3-2.5-0.4-5.1-0.3-7.6c0.2,0.4,0.3,0.7,0.4,1c0.4-1.1,1.4-1.8,2.5-2c0-0.2,0-0.3-0.1-0.4
		c0,0,0.1-0.1,0.1-0.1l1.4,1.2c0,0,0,0.1-0.1,0.1c-0.2-0.1-0.4-0.3-0.6-0.4c0,0-0.1,0.1-0.1,0.1c0.2,0.2,0.5,0.4,0.7,0.6
		c0.2,0.2,0.3,0.4,0.5,0.6c0.7,0,1.5,0,2.2,0.1v8.3c-0.1,0-0.1,0-0.2,0c0-0.3-0.1-0.6-0.1-1c0-2,0.1-4,0.1-5.9c0-1,0-1-0.9-1
		c-0.3,0-0.6,0-1,0c-0.3-0.1-0.7-0.2-1-0.3c0,0.3,0,0.5,0,0.7c0,2.8,0,5.7,0,8.6c-0.1,1-0.3,1.9-0.6,2.9c-0.2,1.1-0.2,1.1,0.9,1.2
		c0.2-0.5,0.3-0.9,0.6-1.5c0,0.8-0.1,1.4-0.1,2l0,0c-0.5,0.4-0.4,0.8,0.1,0.9c1.2,0.3,2.3,0.5,3.5,0.8c0.4,0.1,0.7,0.2,1.1,0.4
		c-0.6,0-1.2-0.1-1.8-0.2c-0.9-0.2-1.8-0.5-2.7-0.7c-0.1,0-0.2,0-0.3,0c-0.2,0-0.4,0-0.6-0.1c-0.4,0.4-0.8,1-1.5,0.4
		c0-0.4,0.3-0.8-0.3-1.3v1.2c-0.3-0.1-0.5-0.2-0.6-0.3c0.1-0.2,0.3-0.5,0.3-0.7c0-0.3-0.2-0.4-0.6-0.4c-0.7-0.2-1.3-0.5-1.8-1
		c-0.3,0.9-0.6,1.7-0.9,2.6c0,0,0.1,0,0.2,0.1c0.2-0.3,0.4-0.7,0.5-1c0.8,0.8,1.9,0.7,2.9,1.2c-0.7-0.1-1.4-0.2-2.1-0.3
		c-0.9,2.1-1,4.5-1.4,6.8c-0.1,0-0.2,0-0.3,0c0-0.3,0.1-0.5,0-0.8c0-0.1-0.2-0.2-0.3-0.3c0.5-0.2,0.4-0.7,0.5-1.1
		c0.1-1,0.3-1.9,0.4-2.9c-0.1,0-0.1,0-0.2,0c-0.4,1.3-0.7,2.6-0.7,4c0,0.7-0.1,1.4-0.1,2.1c0.2-0.1,0.4-0.2,0.6-0.3
		c-0.3,0.4-0.7,0.7-1,1.1c-0.1,0.1,0,0.4-0.1,0.5c0.3,0.2-0.5,0.5,0.2,0.7c-0.1,0.2-0.1,0.3-0.2,0.5c0.2,0,0.4-0.1,0.5-0.1
		c-0.4,0.3-0.5,0.8-0.3,1.2c0.7-0.8,1.8-1.3,2.1-2.5c-0.3,0.1-0.5,0.1-0.6,0.2l0.7-0.8c0,0-0.1-0.1-0.1-0.1
		c-0.2,0.2-0.5,0.3-0.7,0.5c0.2-0.2,0.4-0.4,0.6-0.6c0.2-0.3,0.3-0.5,0.5-0.8c0.1-0.2,0.1-0.4,0.2-0.6
		C1707.4-3003.7,1707.4-3003.9,1707.4-3004.1z M1710.7-2989.2c-0.3,0.4-0.5,0.8-0.8,1.2c0.1,0,0.1,0.1,0.2,0.1
		C1710.4-2988.3,1711-2988.5,1710.7-2989.2c-0.1-0.1-0.3-0.2-0.4-0.3c-0.2,0.3-0.7,0.5-0.6,1.1
		C1710-2988.7,1710.4-2989,1710.7-2989.2z M1708.3-3001.8c0-0.1,0.1-0.3,0.1-0.4c-0.8-0.1-1.2,0.3-1.2,1.1
		C1707.6-3001.3,1708-3001.5,1708.3-3001.8l-0.4,0.4c-0.3,0.3-0.7,0.6-0.8,1.2c0.8-0.7,1.4-1.2,2-1.8c0-0.1-0.1-0.1-0.1-0.2
		C1708.8-3002,1708.6-3001.9,1708.3-3001.8z M1706.2-2996.1c0.4-0.2,0.5-0.7,0.3-1.1c-0.5,0.5-0.8,0.9-1.1,1.3
		c-0.3,0.4,0,0.4,0.2,0.5c0,0.1-0.1,0.3-0.1,0.4c0,0,0.1,0.1,0.1,0.1c0.3-0.3,0.5-0.5,0.8-0.8c0.1-0.1,0.1-0.2,0.2-0.3
		C1706.5-2996.2,1706.3-2996.1,1706.2-2996.1z M1708.3-2996.7c-0.1,0.2-0.3,0.4-0.4,0.6c-0.2,0.3-0.4,0.5-0.6,0.8
		c0.1,0,0.1,0.1,0.2,0.1c1.6-1.3,1.6-1.3,1.3-1.8C1708.7-2996.9,1708.5-2996.8,1708.3-2996.7c0.2-0.3,0.5-0.6,0.8-1
		c-0.5,0.3-0.8,0.4-1.1,0.6c0.3-0.3,0.5-0.6,0.8-0.9c-0.3,0-0.5,0-0.8,0c-0.2,0-0.4-0.2-0.4-0.2c-0.2,0.2-0.4,0.5-0.5,0.8
		c0,0.2,0.1,0.4,0.2,0.7c0.2-0.1,0.4-0.3,0.7-0.4c-0.1,0.2-0.2,0.4-0.3,0.7C1708-2996.6,1708.2-2996.7,1708.3-2996.7L1708.3-2996.7z
		 M1715.9-3035.9L1715.9-3035.9c-0.7-0.5-1.4-0.8-2.3-0.9c0.2,1.3,0.4,2.5,0.6,3.8c0.2,0,0.4,0.1,0.7,0.2c0.7,0.4,1.1,0.2,1.4-0.4
		c0.3-0.4,0.5-0.7,0.8-1.1c0.1,0,0.1,0.1,0.2,0.2c-0.4,0.6-0.9,1.2-1.3,1.9c0.7-0.4,1.4-0.9,2-1.4c0.1-0.1,0.2-0.4,0.1-0.5
		C1717.4-3034.8,1716.6-3035.3,1715.9-3035.9z M1715.5-3031.1c-0.2,0.1-0.3,0.1-0.4,0.3c-0.1,0.2-0.3,0.4-0.3,0.6
		c0.2,0.1,0.5,0.3,0.7,0.3c0.6,0,0.8-0.6,0.4-1.2c0.3,0.2,0.5,0.4,0.8,0.6c0-1.1-1.5-2.3-2.5-1.8c0.4,0.2,0.8,0.3,1.4,0.6
		c-0.6,0.3-1.1,0.6-1.6,0.8c-0.6,0.2-0.8,0.1-1-0.5c0-0.1-0.2-0.2-0.2-0.2c-0.3,0.1-0.9,0.2-1,0.4c-0.3,0.8-0.5,1.7-0.7,2.6
		c2,0.1,3.7,0.2,5.5,0.2c0.2,0,0.4-0.3,0.4-0.5c0.2-0.6-0.3-0.9-0.7-1.2c-0.3,0.1-0.6,0.4-0.8,0.4c-0.3,0-0.7-0.2-0.9-0.5
		c-0.2-0.4,0.1-0.8,0.5-0.9C1715.2-3031.1,1715.4-3031.1,1715.5-3031.1z M1720.7-2963.1L1720.7-2963.1c0.3-0.6,0.5-1.2,0.9-2
		c-0.5,0.1-1,0-1.2,0.2c-0.4,0.4-0.7,0.7-1,1.2c-0.5,0.6-1.1,1.2-1.6,1.8c0,0,0.1,0.1,0.1,0l-1.3,1.2c0.5,0.2,1.1,0.3,1.7,0.3
		c3,0,6.1,0,9.1,0c0.1,0,0.3-0.1,0.4-0.2l0-0.2h-5v-0.2h4.8v-0.2h-2.5v-0.1c0.7,0,1.4-0.1,2.2-0.1v-0.2c-0.5,0-1.1-0.1-1.6-0.1
		c0.2-0.2,0.4-0.1,0.6-0.2c0.2-0.1,0.4-0.3,0.5-0.5c0-0.2-0.1-0.3-0.2-0.4c-0.5-0.2-0.5-0.6-0.6-1c-0.2,0-0.4-0.1-0.5-0.1
		c0-0.9-0.3-1.2-0.8-1.1c-0.6,0.1-1.3,0.1-2,0.1c-0.5-0.1-0.9,0.2-1,0.7C1721.2-2963.8,1721-2963.4,1720.7-2963.1z M1698.1-3039.4
		c-0.2,1.1,0.8,2.1,0.8,3.5c-1.3-0.7-0.6-1.8-0.8-2.5c-0.3-0.1-0.5-0.2-0.8-0.2c-0.3,0-0.5,0.1-0.8,0.3c-1.5,1.1-2.9,2.1-4.3,3.2
		c3.7,4.1,7.8,8,12,11.5c0,0,0.1-0.1,0.1-0.2c-0.3-0.3-0.1-0.6,0.1-0.9c0.1-0.1,0.1-0.2,0.1-0.4c0.2-2.8,0.7-5.6,1.6-8.2
		c0.1-0.2,0.3-0.4,0.4-0.6c0.1,0.4,0.2,0.5,0.2,0.7c0.1,1.1,0.2,2.1,0.4,3.2c0,0.2,0.2,0.5,0.3,0.5c0.8,0.2,1.6,0.3,2.3,0.5
		c0.2-0.8,0.5-1.5,0.8-2.2c0.6-1,1.6-1.6,2.8-1.7c0.5-0.1,0.7-0.3,0.6-0.8c-0.2-0.9-0.4-1.9-0.5-2.8c-0.1-0.7-0.5-1-1.2-1
		c-0.3-0.1-0.5-0.2-0.8-0.4c0.3-0.2,0.6-0.3,0.8-0.4c0,0,0,0.1,0.1,0.1c-0.1,0.1-0.1,0.2-0.3,0.4c0.4,0.1,0.7,0.1,1.1,0.2
		c-0.1-0.5-0.2-1-0.3-1.4c-0.1-0.4-0.4-0.7-0.8-0.8c-1.5-0.5-2.9-1-4.4-1.5c-0.5-0.1-1-0.2-1.5-0.2c0.1,0.3,0.2,0.5,0.2,0.7
		c0,0-0.1,0-0.1,0c-0.1-0.2-0.3-0.4-0.4-0.6c-0.2,0.3-0.5,0.7-0.1,0.8c-0.5,0.7-1,1.5-1.6,2.4c-0.5-0.7-0.8-1.6-0.7-2.5
		c0.1,0.8,0.4,1.5,0.7,2.2c0.1-0.6,0.2-1.2,0.2-1.8c0-0.5,0-1-0.8-0.8c-1.4,0.3-2.8,0.6-4.2,0.9c0,0.1,0,0.2,0,0.3
		c0.6-0.1,1.2-0.1,1.7-0.2c0,0.1,0,0.2,0,0.2C1700.2-3039.8,1699.2-3039.6,1698.1-3039.4z M1725.4-2974.7c-0.9,0.2-1.9,0.3-2.8,0.5
		c0,0,0,0.1,0,0.1h1.5c0,0.1,0,0.2,0,0.2c-0.5,0-1.1,0.1-1.5,0.1v7.3c0,0.3,0,0.6,0.5,0.6c0.5,0,0.6-0.2,0.6-0.6
		c0-0.8,0-1.5,0.1-2.3c0.1-1.4,0.2-2.8,0.3-4.1h0.2v5.8h0.2c0.1-1.5,0.1-2.9,0.2-4.4h0.1v5.3c0.1,0,0.2,0,0.2,0.1
		c0.1-0.2,0.2-0.3,0.3-0.5c0-0.4,0.1-0.8,0-1.2C1725.4-2970.3,1725.4-2972.5,1725.4-2974.7z M1726.7-2976.9
		c-0.6,0.2-1.1,0.4-1.6,0.6c-1.2,0.2-2.4,0.1-3.5-0.3c-1.2-0.3-2.3-1-3-2c-0.2-0.2-0.4-0.4-0.7-0.5c0,0.1-0.1,0.1-0.1,0.2
		c1,1.6,2.6,2.7,4.4,3.1C1723.7-2975.5,1725.3-2975.4,1726.7-2976.9L1726.7-2976.9z M1722.9-2978.6c0.6,0.9,1.8,1.2,2.7,0.7
		c0.7-0.3,1.6-0.5,1.8-1.6C1725.8-2979.2,1724.4-2978.9,1722.9-2978.6L1722.9-2978.6z M1722-2977.7c-0.2,0.2-0.4,0.4-0.6,0.6
		c1.8,0.7,3.5,1,4.9-0.6c-0.1,0-0.2,0-0.2,0c-0.9,0.4-1.9,0.4-2.8,0c-0.9-0.2-1.8-0.4-2.8-0.5c0,0.1,0,0.1,0,0.2
		C1720.9-2977.9,1721.5-2977.8,1722-2977.7L1722-2977.7z M1713.5-3037.8c-0.1,0.1-0.1,0.1-0.2,0.2c0.2,0.2,0.4,0.5,0.7,0.5
		c1.7,0.5,3.2,1.4,4.5,2.6c0.4,0.3,0.5,0.2,0.8-0.1C1717.9-3036.6,1715.7-3037.1,1713.5-3037.8z M1711.9-2961.8
		c0.4,0.4,1,0.6,1.6,0.4c0.1-0.1,0.2-0.2,0.2-0.3c1.2-0.9,2.4-1.8,3.6-2.7c0,0,0-0.1-0.1-0.1
		C1715.5-2963.6,1713.7-2962.7,1711.9-2961.8z M1731.7-2961.4l-5.7-4.2c1.3,1.4,2.7,2.6,4,3.9
		C1730.5-2961.3,1731.2-2961.1,1731.7-2961.4L1731.7-2961.4z M1728.1-2964.6C1728-2964.6,1728-2964.6,1728.1-2964.6
		c0.1,0.2,0.2,0.3,0.3,0.4c1.1,0.8,2.2,1.6,3.3,2.5c0.3,0.3,0.9,0.3,1.3,0.1c0.1-0.1,0.3-0.2,0.2-0.3c0-0.1-0.2-0.2-0.3-0.3
		c-0.6-0.3-1.3-0.4-1.9-0.7C1730-2963.5,1729-2964.1,1728.1-2964.6z M1721.7-2966v-1.1c-0.2-0.6-0.8-1-1.5-0.9
		c-0.1,0-0.1,0.1-0.1,0.1c-0.3,0.6-0.1,1.3,0.4,1.6C1720.9-2966.2,1721.3-2966.1,1721.7-2966z M1721.2-2980.7c0,0,0-0.1,0-0.2
		l-0.5,0c-0.6-0.1-0.5,0.5-0.6,0.8c-0.1,0.5,0.3,0.4,0.6,0.4c0.5,0,1,0,1.6,0c0.2,0,0.5-0.1,0.7-0.2c-0.6-0.5-1.2-0.5-1.5-0.1
		c-0.2-0.2-0.4-0.3-0.6-0.5C1720.9-2980.6,1721.1-2980.6,1721.2-2980.7L1721.2-2980.7z M1717.1-2961.6c-0.1-0.1-0.3-0.2-0.5-0.3
		c-0.5-0.2-1-0.1-1.4,0.3c-0.1,0.2-0.2,0.4-0.2,0.5c0.3,0.1,0.7,0.2,1.2,0.3c0,0,0-0.1,0-0.1c-0.1-0.1-0.2-0.1-0.2-0.1
		C1716.3-2961.1,1716.7-2961.3,1717.1-2961.6z M1727.8-2961.1v0.2h1.9v0.2h-1.7c0,0.1,0,0.2,0,0.3c0.8,0,1.6-0.1,2.6-0.2
		C1729.7-2961.7,1728.7-2960.9,1727.8-2961.1L1727.8-2961.1z M1724.9-2975c-1.7,0-3.4,0.3-5-0.4
		C1721.5-2974.6,1723.3-2974.5,1724.9-2975z M1720.7-3028.2c-0.1-0.5-0.1-0.9-0.2-1.3c-0.4,0.1-1-0.2-1,0.5
		C1719.5-3028.4,1719.7-3028.2,1720.7-3028.2z M1711.9-3040.6c-0.1-0.7-2-1.2-2.9-0.8C1709.9-3041.2,1710.9-3040.9,1711.9-3040.6z
		 M1709.2-3000.3c-1,0-1.2,0.1-1.4,0.8c0,0.1,0.2,0.4,0.3,0.4C1708.5-2999.1,1709.1-2999.9,1709.2-3000.3z M1728-2959.6
		c0-0.1,0-0.2,0-0.3l-4.9,0.3C1724.7-2959.5,1726.4-2959.5,1728-2959.6z M1705.3-2996.1c0.4-0.7,1.3-1,1.3-1.9
		C1705.6-2997.6,1705.1-2996.9,1705.3-2996.1z M1721.7-2968.5c0-0.1,0.1-0.2,0.1-0.3c-0.3-0.1-0.6-0.2-0.9-0.3
		c-0.8-0.2-0.9-0.1-0.7,0.8c0.2,0,0.5,0.1,0.8,0.1c0.2,0,0.5,0.1,0.7,0.2c0-0.1,0-0.1,0-0.2c-0.5-0.2-0.9-0.3-1.4-0.4
		c0-0.1,0-0.1,0.1-0.2C1720.8-2968.7,1721.2-2968.6,1721.7-2968.5L1721.7-2968.5z M1712.6-3041c0,0.7,0.5,1,0.8,1.3
		c0.2,0.1,0.3,0.2,0.5,0.2c0-0.2,0-0.5-0.2-0.7C1713.4-3040.5,1713-3040.8,1712.6-3041L1712.6-3041z M1726.3-2980.6
		c-0.3,0-0.7,0.1-1,0.1c-0.3,0.1-0.7-0.1-0.8,0.4c0.3,0.1,0.6,0.1,0.9,0.1C1725.7-2980,1726.2-2979.9,1726.3-2980.6L1726.3-2980.6z
		 M1710.7-2985.7l0.1-0.1c-0.5-0.7-1-1.3-1.6-2.1c0,0.4-0.1,0.7,0,0.8C1709.6-2986.6,1710.2-2986.2,1710.7-2985.7L1710.7-2985.7z
		 M1695.3-3031.4c0,0,0.1-0.1,0.1-0.1c-0.8-0.8-1.6-1.5-2.4-2.2l-0.1,0.1C1693.7-3032.9,1694.5-3032.2,1695.3-3031.4z
		 M1732.9-3029.3c0,0.4,0.1,0.7,0.1,1.1c0.3,0,0.5,0,0.7,0C1733.7-3029.2,1733.7-3029.2,1732.9-3029.3L1732.9-3029.3z
		 M1707.5-2993.6c1.1-0.7,1.5-1.1,1.3-1.7C1708.4-2994.8,1707.8-2994.5,1707.5-2993.6z M1719.9-2978.6
		C1719.9-2978.5,1719.9-2978.5,1719.9-2978.6c0.9,0.2,1.8,0.3,2.7,0.4c0.1-0.1,0.1-0.2,0.2-0.2c-0.2-0.1-0.3-0.2-0.5-0.2
		C1721.5-2978.6,1720.7-2978.6,1719.9-2978.6z M1713.7-3032.5c-0.6,0.2-1,0.3-1.5,0.5c0,0,0,0.1,0,0.1c0.5,0.1,1,0.2,1.5,0.3
		L1713.7-3032.5z M1719.3-3028.3c0.1-1.2,0-1.3-0.6-1.1v1.1H1719.3z M1710-2990.4c-0.3,0.3-0.5,0.6-0.8,0.9c0,0.1,0.1,0.4,0.2,0.4
		C1709.8-2989.1,1710.3-2990,1710-2990.4L1710-2990.4z M1722-2971.7c0-0.1,0-0.2,0-0.3c-0.6-0.2-1.2-0.4-1.9-0.6l-0.1,0.3
		C1720.7-2972.2,1721.4-2972,1722-2971.7z M1720.9-2959.5l-2.6-0.3c0,0.1,0,0.2,0,0.3C1719.2-2959.3,1720.1-2959.3,1720.9-2959.5z
		 M1691.5-3034.6c-0.1,0.1-0.1,0.1-0.2,0.2c0.4,0.7,0.9,1.2,1.7,1.4L1691.5-3034.6z M1707.3-2994.5c0.6-0.5,1.1-1,1.6-1.4
		c0,0,0,0,0,0C1708.4-2995.4,1707.9-2995,1707.3-2994.5L1707.3-2994.5z M1721.9-2967.3c0.3-0.5,0.4-1.1,0.2-1.7h-0.2V-2967.3z
		 M1722-2970.6c0-0.2,0-0.5,0.1-0.8c-0.6-0.2-1.2-0.3-1.8-0.5C1720.7-2971.1,1721.9-2971.7,1722-2970.6z M1719.4-3033.5
		c-0.3,0.3-0.4,0.7-0.3,1.1c0.1,0.2,0.3,0.2,0.5,0.3c0,0,0.1-0.1,0.2-0.1C1719.7-3032.6,1719.6-3033,1719.4-3033.5z M1728.9-2980.9
		l-0.1-0.2c-0.8-0.1-1.1,0.1-1.1,0.8C1728.1-2980.6,1728.5-2980.8,1728.9-2980.9L1728.9-2980.9z M1706.8-2995.4
		c-0.1,0-0.1-0.1-0.2-0.2c-0.3,0.3-0.6,0.6-0.8,1c0,0,0.1,0.3,0.2,0.3c0.1,0,0.2,0,0.3-0.1
		C1706.5-2994.8,1706.6-2995.1,1706.8-2995.4z M1717.4-2980.3c0-0.1,0.1-0.2,0.1-0.3c-0.5-0.2-1-0.3-1.6-0.4l-0.1,0.3
		C1716.4-2980.6,1716.9-2980.4,1717.4-2980.3z M1715.3-2982.1c0,0.1,0,0.1-0.1,0.2l2.5,0.8c0-0.1,0-0.2,0.1-0.2
		C1716.9-2981.6,1716.1-2981.8,1715.3-2982.1z M1720.2-2973.5c0.6,0.2,1.2,0.3,1.8,0.5C1722-2973.3,1721.1-2973.7,1720.2-2973.5z
		 M1706.3-2999.4c-0.7,0.1-1.3,0.7-1.5,1.4C1705.4-2998.5,1705.8-2998.9,1706.3-2999.4z M1722.2-3029.5l-0.3,0
		c0.2,0.5-0.2,1,0.5,1.6C1722.2-3028.5,1722.2-3029,1722.2-3029.5L1722.2-3029.5z M1716.2-3038l-0.1,0.2c0.6,0.3,1.2,0.7,1.9,1
		l0.1-0.2C1717.5-3037.3,1716.9-3037.7,1716.2-3038z M1714.5-3039.8c0.2,0.4-0.2,1,0.5,1.2
		C1715.1-3039.2,1715.3-3039.7,1714.5-3039.8z M1729.7-2961.5v-0.1h-2.2v0.1H1729.7z M1712.1-2983.4c0,0,0,0.1-0.1,0.2
		c0.8,0.3,1.7,0.7,2.5,1c0-0.1,0-0.1,0.1-0.2L1712.1-2983.4z M1720.5-2965.9c0,0.1,0,0.2-0.1,0.2c0.6,0.1,1.3,0.3,1.9,0.4
		c0-0.1,0-0.2,0.1-0.2C1721.7-2965.6,1721.1-2965.8,1720.5-2965.9L1720.5-2965.9z M1731.2-2961c0,0.1,0.1,0.2,0.1,0.3
		c0.7-0.2,1.4-0.4,2-0.6c0-0.1,0-0.1-0.1-0.2C1732.6-2961.3,1731.9-2961.1,1731.2-2961L1731.2-2961z M1705-3024.5
		c0.3-0.4,0.6-0.7,0.9-1.1c-0.1,0-0.1-0.1-0.2-0.2C1705.4-3025.4,1704.8-3025.2,1705-3024.5z M1707.8-2993.3
		c0.1,0.1,0.1,0.1,0.2,0.2c0.4-0.4,0.8-0.8,1.1-1.2c0,0-0.1-0.1-0.1-0.1C1708.6-2994,1708.2-2993.6,1707.8-2993.3z M1708.2-2992
		c0.1,0,0.1,0.1,0.2,0.2c0.3-0.3,0.9-0.5,0.9-1.3C1708.8-2992.7,1708.5-2992.4,1708.2-2992z M1734.1-3029.2c-0.1,0-0.2,0-0.3,0.1
		c0,0.3,0,0.7,0.1,1l0.3,0c0.1-0.2,0.1-0.4,0.1-0.6C1734.3-3028.9,1734.2-3029.1,1734.1-3029.2L1734.1-3029.2z M1721.5-3029.5
		c-0.1,0-0.1,0-0.2,0c0.1,0.4,0.1,0.9,0.2,1.3c0.1,0,0.1,0,0.2,0C1721.6-3028.6,1721.9-3029.1,1721.5-3029.5L1721.5-3029.5z
		 M1720.2-2974.3c0,0.1,0,0.2-0.1,0.3c0.4,0.1,0.9,0.2,1.3,0.3c0-0.1,0-0.2,0.1-0.3C1721.1-2974.1,1720.6-2974.2,1720.2-2974.3z
		 M1719.7-2965.3c-0.4-0.4-0.7-0.3-1.4,0.6C1718.8-2964.9,1719.3-2965.1,1719.7-2965.3z M1704.9-3007.3c0.1,0,0.1,0,0.2,0.1
		c0.1-0.5,0.3-1,0.4-1.6c-0.1,0-0.1,0-0.2,0C1705.2-3008.4,1705-3007.8,1704.9-3007.3L1704.9-3007.3z M1710.4-3012.3
		c-0.1,0.2-0.3,0.5-0.3,0.7c0,0.1,0.2,0.2,0.2,0.3c0.1-0.2,0.2-0.3,0.3-0.5C1710.6-3011.9,1710.5-3012,1710.4-3012.3L1710.4-3012.3z
		"/>
	<path id="Path_1359" d="M1736.5-3026.3c-0.1,2.8-0.2,5.6-0.4,8.4c0,1.1,0.3,2.2,0.8,3.2c0.5,1.3,1,2.6,1.4,3.9
		c0.5,1.3,0.9,2.5,1.3,3.8c0.7,2.2,0.9,4.4,0.7,6.7c-0.2,2.6-0.7,5.1-1.5,7.6c-1.6,6.1-7.2,10.3-13.6,10.2c-0.7,0.1-1.3,0.1-2,0.3
		c-0.7,0.2-1.4,0.2-2-0.2c-0.4-0.3-1.2,0-1.7,0c-0.6,0-1.1-0.1-1.7-0.3c-0.4-0.1-0.7-0.3-1.1-0.5c-0.7-0.3-1.4-0.7-1.9-1.3
		c-0.6-0.6-1.3-1.3-2-1.8c-0.1-0.1-0.1-0.3-0.1-0.4c0.1,0,0.1,0,0.2-0.1c0.7,0.7,1.5,1.4,2.2,2.1c0.8,0.9,2,0.7,3,0.9
		c0.7,0,1.3,0,2,0v0.3c-1,0-2.1-0.1-3.1-0.2c0.1,0.1,0.2,0.2,0.3,0.3c1.3,0.1,2.6,0.1,3.8,0.1c0.1,0,0.2-0.1,0.2-0.1
		c1,0.1,2-0.6,2.2-1.6c0,0,0.1,0.1,0.2,0.1c-0.1,0.2-0.1,0.3-0.2,0.5c-0.1,0.2-0.2,0.3-0.3,0.5c0.9,0.1,1.7-0.4,2.1-1.2
		c-0.1,0.3-0.2,0.5-0.3,0.8c0,0,0.1,0.1,0.1,0.1c0.3-0.3,0.6-0.5,0.8-0.8c0.6-0.8,1.2-1.6,1.7-2.5c-0.1,0.2-0.2,0.4-0.3,0.6
		c-0.4,0.7-0.9,1.4-1.3,2.1c0.1,0.1,0.1,0.1,0.2,0.2c0.4-0.3,0.8-0.7,1.2-1c0.1,0.1,0.2,0.3,0.3,0.4l0,0c-0.5,0-0.7,0.3-0.9,0.8
		c2.5-0.7,3.4-2.6,4.2-4.8c-0.6,0.2-1.2,0.3-1.8,0.5c0.3-0.3,0.5-0.7,0.7-1c0-0.1-0.1-0.1-0.1-0.2c-0.3,0.2-0.6,0.3-1,0.4h0
		c0.1-0.5,0.2-0.6,0.7-0.5c0.3,0,0.5-0.2,0.7-0.4c0.1-0.2,0.2-0.5,0.2-0.8c-0.3,0-0.6,0-1.1-0.1c0.8-0.2,1.5-0.1,1.4-1.1
		c-0.2,0-0.5,0-0.9-0.1c0.4-0.1,0.8-0.1,1-0.2c0.2-0.2,0.2-0.5,0.4-0.9c-1.1,0.1-2,0.2-3,0.2c0,0,0-0.1,0-0.2
		c0.7-0.1,1.4-0.1,2.1-0.2c0.6,0,1-0.1,1-0.8c0-0.1,0.1-0.2,0.3-0.4c0.1,0.4,0.1,0.6,0.2,0.9c0.9,0.3,0.7-0.5,0.8-1
		c-0.9,0.2-1.3-0.2-1.2-1.1c-1.2,0.1-2.3,0.2-3.4,0.4c0-0.1,0-0.1,0-0.2c1.1-0.2,2.2-0.3,3.4-0.5c0-0.3,0-0.7,0.1-1.2
		c-1.8,0.2-3.4,0.4-5.1,0.6c0,0,0-0.1,0-0.2l4.5-0.6c0.4-0.1,0.9,0,0.7-0.8c-1.3,0.2-2.5,0.4-3.7,0.6c0,0,0-0.1,0-0.1
		c1-0.2,2.1-0.4,3.1-0.7c0.8-0.2,0.8-0.2,0.6-1.2l-2,0.4c0,0,0-0.1,0-0.2c0.5-0.1,1-0.2,1.5-0.3c0.8-0.2,0.8-0.2,0.5-1.1
		c-0.6,0.1-1.1,0.2-1.7,0.3c0,0,0-0.1,0-0.1c1-0.2,1.9-0.5,3-0.7c0-0.2,0-0.3,0-0.5c0-0.6-0.2-0.7-0.8-0.5c-0.8,0.2-1.7,0.5-2.5,0.7
		c0-0.1,0-0.1-0.1-0.2l3-1c0-0.8-0.1-0.9-0.9-0.7c-0.4,0.1-0.8,0.2-1.3,0.3c-0.1,0-0.3,0-0.4-0.1c0.9-0.3,1.5-0.5,2.4-0.8
		c-0.3-0.3-0.5-0.5-0.7-0.7c0-0.1,0.2-0.2,0.2-0.4c0-0.1-0.2-0.4-0.3-0.4c-0.2,0-0.6,0.1-0.6,0.3c0,0.3,0.1,0.6,0.2,0.9
		c-0.1,0-0.3,0-0.3-0.2c-0.1-0.4-0.2-0.9-0.3-1.3c-0.7-2.1-1-4.3-0.9-6.5c0-0.1,0-0.2,0-0.3c-0.8-0.2-0.9-0.1-0.9,0.6
		c0,0.6,0,1.2,0,1.7h-0.3v-2.4h-0.2c-0.1,0.7-0.1,1.3-0.2,2c-0.1,0-0.1,0-0.2,0v-1.8c-2.4-0.1-4.7-0.2-7-0.2v-0.1h4.5
		c0.7,0,1.4,0,2.2-0.1c0.2-0.1,0.3-0.2,0.3-0.3c0.1-0.5,0.2-1,0.3-1.5v1.8l0.3,0c0.1-0.3,0.2-0.6,0.3-1.1c0,0.4,0.1,0.7,0.1,1.1
		c0.3-0.1,0.5-0.1,0.9-0.2v-1.7c0,0,0.1,0,0.1,0c0,0.2,0,0.5,0,0.7c0,1,0,1,1.1,0.9v-2.8c-3.3,0.1-6.7,0.2-10.1,0.3v-0.2
		c1.1,0,2.2,0,3.3,0c1.1,0,2.2-0.1,3.3-0.1c1.2-0.1,2.3-0.2,3.5-0.4c-0.1-0.1-0.3-0.2-0.4-0.2c-2.6,0.3-5.2,0.5-7.9,0.3
		c-1,0-2.1-0.2-3.1-0.4c1.2,0.1,2.5,0.2,3.7,0.2c1.3,0,2.6-0.1,3.9-0.1c1.2,0,2.5-0.1,3.7-0.3v-0.2c-0.4,0-0.8,0-1.2,0
		c-0.4,0-0.6-0.1-0.6-0.5c0.1-2.5,0.1-4.9,0.2-7.4c0-0.2,0.1-0.3,0.1-0.5c0.1,0,0.1,0,0.2,0c0.1,0.8,0.2,1.7,0.3,2.5
		c0.1,0.9,0,1.8,0,2.8c0,0.4,0.2,0.8-0.4,1c-0.1,0-0.1,0.3,0,0.4c0.1,0.5,0.2,1,0.3,1.4h1c0,0,0-0.1,0-0.1c-0.2,0-0.3-0.1-0.5-0.2
		l0,0c0,0,0,0,0.1,0c0.4,0,0.6-0.1,0.6-0.5c0-1.3-0.1-2.6,0-3.9c0-1,0.1-2.1,0.2-3.1c0-0.4-0.1-0.7-0.5-0.7c-0.6,0-1.2-0.2-1.9-0.3
		v8.4h-0.2c-0.5-2.8,0-5.5,0-8.3c-0.1,0-0.1-0.1-0.2-0.1c-0.1,0.2-0.3,0.3-0.3,0.5c0,2.4,0.1,4.8,0.1,7.2c0,0.4,0,0.8-0.1,1.1
		c-0.1-0.1-0.2-0.3-0.2-0.4c-0.1-1-0.1-2.1-0.1-3.1c0-1.7,0-3.4-0.1-5.1c-0.1,0.2-0.1,0.4-0.2,0.6c0,2.6,0,5.1,0,7.7
		c0,0.1,0,0.2-0.1,0.3c-0.4-2.9-0.4-5.9,0-8.8c1-0.4,2.2-0.4,3.2-0.1c0.3,0.1,0.6,0.1,0.9,0c0.9-0.2,1.8,0.1,2.5,0.7
		c-0.2-0.1-0.5-0.1-0.7-0.2c-0.9-0.3-1.2-0.1-1.1,1c0,0.3,0,0.6,0,0.9c0,1,0,2.1,0,3.1c0,0.1,0.2,0.2,0.3,0.3l0,0
		c-0.1,0.5-0.2,1-0.3,1.5c0,0.1,0.2,0.2,0.3,0.3c-0.1,0.3-0.2,0.5-0.3,0.8c0.1,0,0.1,0.1,0.2,0.2c0.4-0.3,0.7-0.7,1.1-1
		c0.1-0.6,0.3-1.2,0.5-2c-0.3,0.1-0.4,0.2-0.5,0.2c0.1-0.3,0.3-0.5,0.4-0.8c0.1-0.2,0.1-0.4,0.2-0.7c0,0,0.1,0,0.1,0.1
		c0,1-0.1,2-0.2,2.9h0.2c0.2-0.3,0.3-0.7,0.5-1c0,0,0,0,0.1,0.1c0,0.5-0.1,0.9-0.1,1.4l0.3,0c0.1-0.2,0.1-0.4,0.2-0.6
		c-0.1-1.7,0.2-3.4,0.3-5.1c0-0.2-0.2-0.5-0.3-0.7l0,0c0.3-0.5,0.6-1,0.9-1.5C1736.3-3026.4,1736.4-3026.4,1736.5-3026.3
		L1736.5-3026.3z M1735.2-2998.3c0.1-0.2,0.1-0.3,0.3-0.7c-0.5,0.4-0.9,0.6-1.3,0.9c0,0,0-0.1-0.1-0.1c0.1-0.1,0.3-0.3,0.4-0.5
		c-0.9,0-1,0.2-0.8,0.9c0.2-0.1,0.5-0.1,0.7-0.2C1734.8-2998,1735-2998.2,1735.2-2998.3L1735.2-2998.3c0,0.1,0,0.1,0,0.1
		c0.4-0.1,0.8-0.3,1.2-0.4c-0.1,0.2-0.1,0.4-0.2,0.6c-0.4,0.2-0.8,0.3-1.2,0.5c-0.3,0-0.6-0.1-0.8,0c-0.4,0.2-0.7,0.7-0.7,1.2
		c0.3-0.2,0.5-0.3,0.7-0.4c0,0.1-0.1,0.2-0.1,0.3c1.2-0.1,2.4-0.6,3.4-1.3l-0.3,0.5c-0.1,0.1-0.2,0.3-0.3,0.4
		c-0.7,0.4-1.4,0.8-2.1,1.2c0,0.1,0.1,0.2,0.2,0.3c0.5-0.2,0.9-0.4,1.3-0.6c0,0,0,0.2,0,0.4c0.7-0.3,1.2-0.5,1.8-0.8
		c-0.1,0.1-0.1,0.2-0.2,0.3c-0.6,0.5-1.2,1-1.8,1.4c0,0.1,0.1,0.1,0.1,0.2c0.6-0.3,1.1-0.6,1.7-0.8c0.1,0.5,0.1,0.5-0.3,0.7
		c-0.6,0.3-1.2,0.7-1.8,1.1c0,0.1,0.1,0.1,0.1,0.2c0.1,0,0.2,0,0.2,0c-0.1,0.1-0.3,0.2-0.4,0.3c-0.4,0.2-0.8,0.5-1.2,0.7
		c0,0,0,0.2,0,0.3c-0.7,0.5-1.7,0.7-2,1.6c0.1,0.1,0.1,0.1,0.2,0.2c0.7-0.6,1.5-1.1,2.2-1.7c0,0-0.1-0.1-0.1-0.1h-0.2
		c0.7-0.4,1.4-0.7,2.2-1.2c-0.3,0-0.5-0.1-0.6-0.1c0.5-0.3,1.1-0.5,1.6-0.8c0.4-0.2,0.9-0.4,1-0.8c0.2-0.6,0.4-1.3,0.5-2
		c-0.1,0-0.3,0-0.4,0c0.8-0.6,0.7-1.5,0.9-2.4c-0.3,0.1-0.5,0.2-0.8,0.4c0.1-0.1,0.1-0.2,0.2-0.2c1-0.5,1-1.3,0.8-2.3
		c-0.1-0.5-0.1-1-0.2-1.5c-0.7,0.5-1.5,1.1-2.3,1.6c0,0-0.1,0.2-0.1,0.2c0.3,0.5-0.2,0.6-0.4,0.6c-0.9-0.1-1.3,0.7-2,1
		c0,0.1,0.1,0.1,0.1,0.2c0.4-0.3,0.9-0.5,1.4-0.8c0,0.2-0.1,0.2-0.1,0.4c0.3-0.2,0.5-0.3,0.7-0.4c0.1,0.2,0.1,0.5,0.2,0.7
		c-0.3,0.1-0.5,0.3-0.8,0.4c0.1-0.1,0.2-0.2,0.3-0.3c0-0.1-0.1-0.1-0.1-0.2C1736.2-2998.9,1735.7-2998.6,1735.2-2998.3
		L1735.2-2998.3z M1739.2-3005c0-0.1-0.1-0.2-0.1-0.4c0.1-0.3,0.1-0.7,0.2-1.1c-0.1,0-0.1,0-0.2-0.1c-0.5,0.8-0.9,1.5-1.4,2.3
		c0.1,0,0.2,0.1,0.3,0.2c-0.5,0.4-1,0.7-1.5,1.1c0.3-0.5,1.2-0.7,0.9-1.5c0,0,0,0,0-0.1c0.4-0.7,0.9-1.3,1.3-2
		c0.2-0.3,0.3-0.6,0.5-1c-0.1,0-0.1,0-0.2-0.1c-0.8,0.7-0.9,1.9-2,2.6c0.3-0.5,0.4-0.8,0.6-1.2c-0.7,0.4-1.4,0.8-2,1.3
		c-0.1,0.1-0.3,0.2-0.3,0.2c0.3,0.5-0.2,0.4-0.4,0.5c-0.2,0.1-0.4,0.1-0.6,0.2c-0.5,0.2-0.9,0.6-1,1.2c1.1-0.4,2.1-0.8,3.2-1.2
		c-0.3,0.3-0.5,0.5-0.8,0.7c-0.6,0.4-1.2,0.8-1.8,1.2c-0.1,0.1-0.2,0.3-0.3,0.5l0.1,0.1c0.3-0.1,0.5-0.3,0.8-0.4
		c0.6-0.4,1.2-0.7,1.7-1.1c-0.2,0.2-0.4,0.4-0.7,0.6c0.4,0.1,0.7,0.2,1,0.3c-0.2,0.2-0.4,0.3-0.6,0.5c-0.1-0.1-0.2-0.2-0.3-0.2
		c-0.4,0.1-0.9,0.2-1.3,0.4c-0.8,0.3-0.8,0.3-0.5,1.2c0.4-0.2,0.7-0.5,1.1-0.7c-0.1,0.2-0.2,0.4-0.3,0.5c0.9,0.1,1.5-0.6,2.2-1
		c0.6-0.4,1.2-0.9,1.7-1.5c0.7,0.2,1.2-0.5,1-1.4c-0.3,0.3-0.5,0.7-0.8,1c-0.2,0-0.3-0.1-0.4-0.1c0.4-0.5,0.8-1,1.1-1.5
		C1739.4-3004.6,1739.3-3004.9,1739.2-3005L1739.2-3005z M1734.5-2994.3c0.1-0.2,0.3-0.3,0.4-0.6c-0.8,0-1.2,0.6-1.6,1
		c0,0.1,0.1,0.1,0.1,0.2C1733.8-2993.9,1734.1-2994.1,1734.5-2994.3c0,0.1,0,0.2,0,0.4c0.8-0.2,1.5-0.6,2-1.3
		c-0.6,0.2-1.1,0.5-1.6,0.8C1734.7-2994.3,1734.6-2994.3,1734.5-2994.3L1734.5-2994.3z M1732.1-3023.3c0,0.4-0.5,0.9-0.1,1.5
		c0.1-0.3,0.2-0.6,0.3-0.8c0,0,0-0.1,0-0.1C1732.3-3023,1732.2-3023.1,1732.1-3023.3c0.1-0.8,0.3-1.6,0.4-2.4
		c-0.7-0.1-0.7,0.3-0.7,0.7c0,0.5,0.1,1,0.1,1.5C1731.9-3023.4,1732-3023.4,1732.1-3023.3L1732.1-3023.3z M1734.1-3012.8
		c-0.1-0.1-0.2-0.2-0.2-0.2c-0.5,0-0.7,0.3-0.9,0.7c-0.4,0.6-0.5,1.3-0.2,2C1733.2-3011.1,1733.7-3012,1734.1-3012.8
		c-0.3,0.7-0.5,1.5-0.8,2.2c0,0,0.1,0,0.2,0.1l2.6-2.8C1735.4-3013.4,1734.7-3013.2,1734.1-3012.8L1734.1-3012.8z M1733.3-3014.9
		c0.2-0.4,0.4-0.9,0.6-1.3c0-0.1,0-0.1-0.1-0.2c-0.3,0.1-0.6,0.3-0.9,0.5c-0.1,0.1-0.1,0.4-0.2,0.8c-0.3,0.3-0.4,0.9,0,1.2
		c0,0,0.1,0.1,0.1,0.1l-0.1,0.5l0.1,0.1c0.3-0.2,0.6-0.5,0.9-0.7c0,0.1-0.1,0.3-0.1,0.6c0.6-0.2,1.3-0.4,1.9-0.5
		c1.1-0.2,1.2-0.4,0.7-1.4c-0.2,0.1-0.4,0.3-0.6,0.4c0,0-0.1-0.1-0.1-0.1c0.2-0.3,0.4-0.5,0.6-0.8c-0.8,0.5-0.8-0.5-1.1-0.6
		c-0.2,0.3-0.4,0.6-0.5,0.9c0-0.1,0-0.1-0.1-0.2c-0.2,0-0.4,0-0.6,0.1C1733.6-3015.2,1733.5-3015.1,1733.3-3014.9L1733.3-3014.9z
		 M1731.4-3006.2c-0.1,0.2-0.5,0.4-0.2,0.7c0.1,0.1,0.4,0,0.6-0.1c0.1,0,0.1-0.3,0.2-0.4C1731.8-3006,1731.6-3006.1,1731.4-3006.2
		c0.3-0.1,0.5-0.4,0.4-0.8c0,0,0,0,0,0c0.3,0.1,0.5,0.3,0.8,0l0,0c0.4,0.5,0.8-0.3,1.3,0c-0.6,0.3-1.1,0.5-1.6,0.7
		c0.1,0.2,0.2,0.3,0.3,0.6c0.6-0.4,1.1-0.8,1.7-1.3c-0.3,0.6-0.6,1.1-1.2,1.2c-0.4,0.1-0.6,0.2-0.5,0.6c0.1,0.4,0.4,0.3,0.7,0.2
		c0.5-0.2,1.1-0.3,1.6-0.5c-0.2,0.8-1.4,0.6-1.5,1.5c0.7-0.3,1.4-0.6,2-1.1c1.1-0.9,2.5-1.3,3.1-2.7c0.1-0.3,0.2-0.6,0.1-0.9
		c-0.2-0.7-0.4-1.3-0.7-1.9c-0.4,0.7-0.8,1.3-1.1,1.9c-0.1-1,1.1-1.6,1-2.6c-0.1,0-0.1-0.1-0.2-0.2c-0.1,0.2-0.1,0.4-0.2,0.5
		c0,0-0.1-0.1-0.1-0.1c0-0.1-0.1-0.2-0.1-0.3c-0.2,0.1-0.3,0.2-0.4,0.3c0.2-0.7,1-1.2,0.2-2c-0.6,0.6-1.1,1.1-1.7,1.7
		c-0.3,0.3-0.6,0.5-0.8,0.7c0.1-0.1,0.1-0.3,0.2-0.4c0.7-0.7,1.3-1.3,2-2c0.1-0.2,0.2-0.4,0.3-0.6c-0.1,0-0.2-0.1-0.2-0.1
		c-1.7,1.9-3.4,3.7-5.2,5.7c-0.1-1.4-0.1-2.7-0.2-3.9c0.7,0.1,0.6-0.4,0.8-0.8c-0.5,0-0.9,0.1-1.3,0.1c-0.5,0-0.7,0.3-0.7,0.7
		c0,0.2,0,0.4,0,0.7c0.2,1.5,0.4,3.1,0.6,4.6C1730.9-3006.3,1731-3006.1,1731.4-3006.2L1731.4-3006.2z M1731.4-2991.4
		c0,0.1,0.1,0.1,0.1,0.2c1.2-0.5,2-1.6,3-2.3c0-0.1-0.1-0.1-0.1-0.2c-0.3,0.2-0.7,0.5-1.1,0.7c0-0.2-0.1-0.3-0.1-0.5
		c-1.3,0.2-1.3,0.2-1.5,1.3C1731.6-2991.9,1731.5-2991.6,1731.4-2991.4L1731.4-2991.4z M1736.7-2990.3c-1.2,0.9-2.7,1.5-3.3,3
		C1734.5-2988.3,1735.9-2988.9,1736.7-2990.3L1736.7-2990.3z M1731.7-2988.3c0,0,0.1,0.1,0.1,0.1c1-0.8,2-1.7,3-2.5
		c-0.3,0.1-0.5,0.3-0.8,0.4C1732.8-2990.1,1732.3-2989.2,1731.7-2988.3L1731.7-2988.3z M1734.5-2991.1c1.1,0.1,2.2-0.7,2.4-1.8
		C1736-2992.3,1735.2-2991.7,1734.5-2991.1L1734.5-2991.1z M1718.9-2982.8c1.8,0.3,3.6,0.2,5.3-0.4
		C1722.4-2983,1720.6-2982.9,1718.9-2982.8L1718.9-2982.8z M1731.8-3010c0.4-1,0.8-1.9,1.2-2.8
		C1732.1-3012.7,1731.5-3011.1,1731.8-3010L1731.8-3010z M1733.3-2997.3c-1.2,0-1.4,0.2-1.1,1.3c0.3,0,0.6-0.1,0.9-0.1
		C1733.2-2996.6,1733.3-2996.9,1733.3-2997.3L1733.3-2997.3z M1733.5-2999.5c-1.4,0-1.4,0-1.2,1
		C1733.3-2998.4,1733.6-2998.7,1733.5-2999.5L1733.5-2999.5z M1732.1-3000.6c0,1,0.2,1,1.4,0.6c-0.1-0.3-0.2-0.6-0.3-0.9
		C1732.9-3000.8,1732.5-3000.7,1732.1-3000.6L1732.1-3000.6z M1737-2992.4c0.8-0.1,1.4-0.8,1.4-1.7c-0.5,0.4-1,0.7-1.5,1
		c0,0,0,0.1,0.1,0.1c0.2,0,0.3-0.1,0.5-0.1C1737.3-2992.8,1737.2-2992.6,1737-2992.4L1737-2992.4z M1734.2-2992.8
		c0.1,0.1,0.1,0.2,0.2,0.2c0.7-0.4,1.3-0.9,2-1.3C1735.3-2994,1734.7-2993.4,1734.2-2992.8L1734.2-2992.8z M1732.5-3010.7
		c-0.6,0.5-0.8,1.3-0.6,2C1732.4-3009.1,1732.7-3009.9,1732.5-3010.7L1732.5-3010.7z M1733.2-2987.5l-0.1-0.1
		c-0.6,0.6-1.2,1.1-1.8,1.7C1732.4-2985.9,1732.5-2986.9,1733.2-2987.5L1733.2-2987.5z M1732.3-2991.1c-1,0-1.3,0.3-1.2,1.4
		C1731.5-2990.1,1731.8-2990.6,1732.3-2991.1L1732.3-2991.1z M1734.7-2987.6c-1,0.1-1.4,1.1-2.1,1.5
		C1733.5-2986.2,1733.9-2987.1,1734.7-2987.6L1734.7-2987.6z M1732.2-3021.7c-0.1,0-0.2,0-0.3,0c-0.1,0.8-0.1,1.7-0.2,2.5
		c0.1,0,0.1,0,0.2,0C1732.3-3019.9,1732-3020.8,1732.2-3021.7z M1732.2-2997.5c1,0,1.2-0.1,1-0.8
		C1732.8-2998.2,1732.1-2998.4,1732.2-2997.5L1732.2-2997.5z M1733.8-2998.7c0.5-0.4,0.9-0.7,1.4-1.1
		C1734-2999.8,1733.7-2999.6,1733.8-2998.7L1733.8-2998.7z M1733.1-2995.9c-0.4,0.1-0.6,0.2-0.9,0.2v0.7
		C1732.9-2994.8,1733-2995.2,1733.1-2995.9L1733.1-2995.9z M1733.7-2995.3c0,0.1,0.1,0.1,0.1,0.2c0.7,0,1.1-0.6,1.5-1
		c0-0.1-0.1-0.1-0.2-0.2C1734.7-2996,1734.2-2995.6,1733.7-2995.3L1733.7-2995.3z M1737.9-2992.2c-0.1-0.1-0.1-0.2-0.2-0.2
		c-0.6,0.5-1.2,1-1.9,1.5c0.1,0.1,0.1,0.1,0.2,0.2C1736.7-2991.2,1737.3-2991.7,1737.9-2992.2L1737.9-2992.2z M1731.1-2984.6
		c-0.1-0.1-0.2-0.2-0.2-0.4l-1.3,0.9l0.2,0.3C1730.2-2984.1,1730.6-2984.3,1731.1-2984.6L1731.1-2984.6z M1733.7-2989.3
		c0.1,0.1,0.1,0.1,0.2,0.2c0.6-0.5,1.1-0.9,1.7-1.4c0-0.1-0.1-0.1-0.1-0.2C1734.8-2990.2,1734.2-2989.7,1733.7-2989.3L1733.7-2989.3
		z M1731.7-2989.8c-1.1,0.5-1.1,0.5-1.1,0.8C1731.1-2989,1731.6-2989,1731.7-2989.8L1731.7-2989.8z"/>
	<path id="Path_1360" d="M1716.8-2986.1c0.3,0,0.5,0,0.9-0.1c-1.1-1.2-1.9-2.7-2.3-4.2c0.5,1,1,1.9,1.6,2.9c0.2,0.3,0.4,0.6,0.7,0.8
		c0.4,0.6,1.1,0.8,1.8,0.7c0.3,0,0.7,0.1,1,0.2c0,0.1,0,0.1,0,0.2c-0.5,0-1-0.1-1.6-0.2c1,1.2,2.3,0.3,3.3,0.8
		c-0.5,0.1-1,0.2-1.7,0.3c0.4,0.2,0.7,0.3,1.2,0.5h-3.7v-0.1h2.2c0-0.1,0-0.2,0-0.2c-1-0.2-2-0.3-3-0.5v-0.1h1.6
		C1718.4-2985.8,1718.3-2985.9,1716.8-2986.1z"/>
	<path id="Path_1361" d="M1723.8-2986.8c0.2-0.4,0.4-0.9,0.6-1.3c0.3-0.5,0.8-1,1.2-1.5c0,0,0.1,0.1,0.2,0.1c-0.3,0.3-0.5,0.7-0.8,1
		c0.5,0.2,0.7-0.2,0.8-0.5c0.2-0.3,0.4-0.5,0.6-0.8c0.1,0,0.1,0.1,0.2,0.1c-0.2,0.4-0.5,0.8-0.7,1.2c0.9,0.2,0.5-0.9,1.2-1.1
		c-0.2,0.4-0.3,0.7-0.5,1.1c0.2,0,0.4-0.1,0.6-0.1c-1.2,0.2-1.4,1.4-2.1,2.1l-0.1-0.1c0.4-0.5,0.7-1.1,1.1-1.6
		c-0.1,0-0.1-0.1-0.2-0.2c-0.3,0.3-0.5,0.6-0.8,0.9c-0.3,0.3-0.5,0.7-0.8,1l-0.8,1.1c-0.1,0-0.1-0.1-0.2-0.1
		c0.6-0.9,1.3-1.9,1.9-2.8c-0.1-0.1-0.2-0.1-0.2-0.2C1724.6-2987.8,1724.2-2987.3,1723.8-2986.8L1723.8-2986.8z"/>
	<path id="Path_1362" d="M1715-3025.9c0.5-0.2,0.9-0.4,1.3-0.6c0-0.3-0.1-0.7,0.5-0.4l-0.2,0.5c0.1,0,0.2,0.1,0.2,0
		c0.5-0.2,1-0.6,1.6,0c0.1,0.1,0.3,0,0.5-0.1c0.5-0.2,1.1-0.4,1.6-0.5c0.4,0,0.9,0,1.3,0.1c-2.3,0.5-4.4,0.9-6.5,1.4
		C1715.3-3025.5,1715.2-3025.7,1715-3025.9z"/>
	<path id="Path_1363" d="M1736.5-3026.4c-0.3-0.2-0.8-0.2-1.1,0c-1.9-0.1-3.8-0.2-5.6-0.2v-0.3h1.5c0.7,0,1.5,0,2.2,0
		c0.2,0,0.4,0,0.7,0c0.7,0,1.4,0,2.1,0c0.2,0,0.4,0.1,0.6,0.1C1736.7-3026.6,1736.6-3026.5,1736.5-3026.4
		C1736.5-3026.3,1736.5-3026.4,1736.5-3026.4z"/>
	<path id="Path_1364" d="M1723.7-3017l-5.9-0.5c-0.4,0-0.8-0.2-1.2-0.1c-0.6,0.2-0.4-0.1-0.5-0.3c0.8-0.1,1.6,0.5,2.4,0.2
		C1720.3-3017.4,1722-3017.4,1723.7-3017z"/>
	<path id="Path_1365" d="M1726.8-3017c-0.1-2.3-0.2-4.7-0.3-7.1h0.2c0.1,2.4,0.2,4.7,0.3,7.1C1727-3017,1726.9-3017,1726.8-3017z"/>
	<path id="Path_1366" d="M1714.7-3017.1c-0.5-0.7-0.5-3.5,0-6V-3017.1z"/>
	<path id="Path_1367" d="M1715.8-3017.3c-0.1-0.2-0.1-0.3-0.2-0.6c-0.2,0.2-0.3,0.3-0.4,0.6v-4.1h0.1v3.4c0.1,0,0.2,0,0.3,0
		c0-0.4,0.1-0.7,0.1-1.1c0-0.4,0-0.8,0.1-1.2L1715.8-3017.3C1715.9-3017.3,1715.8-3017.3,1715.8-3017.3z"/>
	<path id="Path_1368" d="M1725.6-2993.8c1-0.1,1.8-0.3,2.6-0.4c0.8-0.1,1.6-0.2,2.5-0.4C1730.2-2994.1,1727.6-2993.7,1725.6-2993.8z
		"/>
	<path id="Path_1369" d="M1711.8-3011.6c0.3,0,0.6,0.1,0.9,0.1c1.3,0.3,2.5,0.6,3.7,0.8c0.1,0,0.2,0,0.3,0.1c0,0.1,0,0.1,0,0.2
		c-0.6-0.1-1.2-0.2-1.8-0.3C1713.8-3011,1712.8-3011.3,1711.8-3011.6C1711.8-3011.6,1711.8-3011.6,1711.8-3011.6z"/>
	<path id="Path_1370" d="M1728.3-2987.9c0-0.1,0-0.3,0-0.4c-0.2,0.1-0.4,0.3-0.7,0.4c0-0.2,0.1-0.4,0.2-0.6c0.1-0.2,0.3-0.4,0.5-0.6
		h-0.9c0,0,0-0.1,0-0.1c0.4-0.1,0.9-0.2,1.5-0.4c-0.1,0.2-0.2,0.3-0.3,0.4c-0.1,0.2-0.2,0.3-0.3,0.5c0,0,0.1,0.1,0.1,0.2
		c0.2-0.2,0.4-0.4,0.7-0.6h0C1729.1-2988.5,1728.5-2988.3,1728.3-2987.9z"/>
	<path id="Path_1371" d="M1725.4-3016.8v-3.7h0.1v3.7C1725.5-3016.8,1725.5-3016.8,1725.4-3016.8z"/>
	<path id="Path_1372" d="M1722.8-2989.5c0,0.1,0.1,0.1,0.1,0.2c-0.6,0.4-1,1.1-1.7,1.3c-0.2,0-0.5-0.2-0.7-0.4
		C1721.6-2988,1722-2989.3,1722.8-2989.5z"/>
	<path id="Path_1373" d="M1713.5-3022.3v5h-0.1v-5C1713.4-3022.3,1713.5-3022.3,1713.5-3022.3z"/>
	<path id="Path_1374" d="M1725.3-3028.5c0.2,0.3,0.3,0.7,0.5,1.2c-0.5-0.1-0.9-0.2-1.3-0.3c0-0.1,0-0.2,0-0.2
		C1724.9-3027.9,1725.5-3027.8,1725.3-3028.5z"/>
	<path id="Path_1375" d="M1711.9-2989.6l2.4,0.2c0,0.1,0,0.1,0,0.2l-2.4-0.2C1711.9-2989.4,1711.9-2989.5,1711.9-2989.6z"/>
	<path id="Path_1376" d="M1726-3028.2c0-0.5-0.1-1-0.1-1.4c0-0.1,0.4-0.1,0.5-0.1c-0.1,0.6-0.2,1.1-0.2,1.5
		C1726.1-3028.3,1726-3028.3,1726-3028.2z"/>
	<path id="Path_1377" d="M1726.7-3030.3c0.7-0.3,1.4-0.3,2.1,0c0,0.1,0,0.2,0,0.2L1726.7-3030.3z"/>
	<path id="Path_1378" d="M1713.9-2989.6c-0.9-0.1-1.8-0.2-2.7-0.3c0-0.1,0-0.1,0-0.2l2.7,0.2
		C1713.9-2989.7,1713.9-2989.7,1713.9-2989.6z"/>
	<path id="Path_1379" d="M1734.1-3022.8c0.2-0.8,0.6-1.4,1.2-2l0,0c-0.1,0.2-0.1,0.4-0.2,0.7c-0.2,0.5-0.5,0.9-0.8,1.4
		C1734.3-3022.7,1734.2-3022.7,1734.1-3022.8L1734.1-3022.8z"/>
	<path id="Path_1380" d="M1732.8-3020.4c0.4-0.8,0.9-1.6,1.3-2.4l0,0C1733.7-3022,1733.2-3021.2,1732.8-3020.4L1732.8-3020.4z"/>
	<path id="Path_1381" d="M1726.9-3025.6c-0.5,0.1-1.1,0.3-1.7,0.4C1725.6-3025.8,1726.4-3025.9,1726.9-3025.6z"/>
	<path id="Path_1382" d="M1727.7-2988c-0.4,0.6-0.8,1.3-1.2,1.9c0,0.1-0.2,0.1-0.3,0.1L1727.7-2988z"/>
	<path id="Path_1383" d="M1724.5-3030.5h1.2v0.2c-0.4,0-0.8,0-1.2,0.1V-3030.5z"/>
	<path id="Path_1384" d="M1727.3-3026.3c-0.6-0.1-1.3-0.2-1.9-0.3c0-0.1,0-0.1,0-0.2c0.6,0.1,1.3,0.2,1.9,0.3
		C1727.4-3026.4,1727.3-3026.4,1727.3-3026.3z"/>
	<path id="Path_1385" d="M1723.8-2986.8c-0.3,0.5-0.7,1.1-1,1.7c-0.1-0.1-0.2-0.1-0.2-0.2C1723-2985.8,1723.4-2986.3,1723.8-2986.8z
		"/>
	<path id="Path_1386" d="M1739.2-3005c-0.3,0.5-0.7,0.9-1,1.4c-0.1,0.2-0.1,0.3-0.1,0.5c0-0.2-0.1-0.3-0.1-0.5c0-0.2,0-0.3-0.1-0.4
		c0.4-0.4,0.8-0.9,1.2-1.3C1739.2-3005.3,1739.2-3005.1,1739.2-3005z"/>
	<path id="Path_1387" d="M1703.2-3025l0.8-6.5c0.1,0,0.2,0,0.3,0c-0.3,2.2-0.5,4.4-0.8,6.5C1703.4-3025,1703.3-3025,1703.2-3025z"/>
	<path id="Path_1388" d="M1696.5-3035.4v0.7c0,0.2,0,0.4,0,0.6c-0.6,0.2-1.3-0.2-1.5-0.8c-0.1-0.2-0.1-0.4,0-0.5
		c0.4,0.3,0.7,0.5,1,0.7c0.1-0.3,0.2-0.6,0.3-0.9c0-0.1,0.5-0.1,0.5-0.1c0.1,0.4,0.3,0.8,0.4,1.3c-0.1,0-0.2,0-0.2,0.1
		c-0.1-0.3-0.2-0.6-0.3-1L1696.5-3035.4z"/>
	<path id="Path_1389" d="M1700.8-3036.4c-0.5-0.5-0.8-1.3-0.8-2c0.1-0.1,0.3-0.2,0.4-0.2C1701-3038,1701.1-3037.2,1700.8-3036.4z"/>
	<path id="Path_1390" d="M1707.7-3039.5c0.1,0.2,0.1,0.4,0.2,0.4c0.1-0.1,0.3-0.2,0.4-0.3c0.1,0.2,0.2,0.3,0.2,0.5
		c-0.1,0.6-0.3,1.2-0.5,1.7l-0.2,0L1707.7-3039.5z"/>
	<path id="Path_1391" d="M1712.1-3038.9c-1-0.4-2-0.8-2.9-1.2c0,0,0-0.1,0-0.2c1,0.4,2,0.7,2.9,1.1
		C1712.1-3039.1,1712.1-3039,1712.1-3038.9z"/>
	<path id="Path_1392" d="M1707.4-3031.6c0.1,0.7,0.2,1.3,0.3,2c-0.1,0-0.2,0-0.2,0c-0.1-0.7-0.2-1.3-0.3-2
		C1707.2-3031.6,1707.3-3031.6,1707.4-3031.6z"/>
	<path id="Path_1393" d="M1708.6-3037.7c0.1-0.4,0.1-0.7,0.1-1c0.3,0.1,0.4,0.1,0.7,0.2C1709.6-3038,1709.1-3038,1708.6-3037.7z"/>
	<path id="Path_1394" d="M1706.6-3035c0.2,0.7,0.4,1.3,0.6,2c-0.1,0-0.1,0-0.2,0.1c-0.2-0.6-0.4-1.3-0.6-1.9
		C1706.5-3035,1706.6-3035,1706.6-3035z"/>
	<path id="Path_1395" d="M1702.2-3038.7c-0.1-0.3-0.1-0.7-0.2-1.2c0.7,0.3,0.5,0.8,0.4,1.1
		C1702.4-3038.7,1702.3-3038.7,1702.2-3038.7z"/>
	<path id="Path_1396" d="M1720.7-2963.1c-0.4,0.8-0.8,1.6-1.2,2.4c-0.1,0-0.2-0.1-0.3-0.1
		C1719.7-2961.6,1720.2-2962.3,1720.7-2963.1L1720.7-2963.1z"/>
	<path id="Path_1397" d="M1715.9-3035.9c-0.3,0.4-0.7,0.8-1.1,1.2c0,0-0.1-0.1-0.2-0.1c0-0.2,0.1-0.4,0.1-0.4
		C1715.2-3035.5,1715.5-3035.7,1715.9-3035.9L1715.9-3035.9z"/>
	<path id="Path_1398" d="M1731.7-3006.9c-0.1,0-0.2,0-0.5,0c0.4-0.5,0.7-0.9,1-1.3c0.6-0.7,1.2-1.3,1.7-2c0.1-0.1,0.3-0.2,0.5-0.2
		c-0.3,0.5-0.7,0.9-1.1,1.4c-0.6,0.7-1.1,1.3-1.7,2C1731.7-3007.2,1731.7-3007,1731.7-3006.9z"/>
	<path id="Path_1399" d="M1732.5-3007c0.2-0.3,0.4-0.6,0.7-0.9c-0.1,0-0.3-0.1-0.5-0.2c0.4-0.2,0.8-0.3,1.1-0.5c0,0,0.1,0.1,0.1,0.2
		L1732.5-3007C1732.5-3007,1732.5-3007,1732.5-3007z"/>
	<path id="Path_1400" d="M1736.3-3006.3c0.3-0.4,0.6-0.8,0.9-1.2l0.1,0.1c-0.3,0.4-0.5,0.9-0.8,1.3
		C1736.5-3006.2,1736.4-3006.2,1736.3-3006.3z"/>
	<path id="Path_1401" d="M1727.8-2984.8c0-0.1,0-0.2,0-0.2c0.7-0.6,1.3-1.2,2-1.8C1729.4-2986.1,1728.7-2985.4,1727.8-2984.8
		L1727.8-2984.8z"/>
</g>
</svg>
