<?xml version="1.0" encoding="utf-8"?>
<!-- Generator: Adobe Illustrator 22.0.1, SVG Export Plug-In . SVG Version: 6.00 Build 0)  -->
<svg version="1.1" id="Layer_1" xmlns="http://www.w3.org/2000/svg" xmlns:xlink="http://www.w3.org/1999/xlink" x="0px" y="0px"
	 viewBox="0 0 43.2 68.9" style="enable-background:new 0 0 43.2 68.9;" xml:space="preserve">
<g id="Group_1208" transform="translate(-2184.393 3066.591)">
	<path id="Path_1326" d="M2224.8-3001.2c0.1,0.7,0.2,1.3,0.3,2.1c-1.7,0.3-3.3,0.6-5,0.8c-6.6,0.8-13.2,0.5-19.7,0.6
		c-0.3,0-0.6-0.3-1-0.3c-0.4,0-0.8,0-1.2,0c-0.3,0-0.5,0.3-0.8,0.3c-2.2-0.3-4.4-0.6-6.5-0.9c-0.9-0.1-1.7-0.3-2.6-0.6
		c-0.3-0.1-0.7-0.3-0.8-0.6c-0.2-0.4-0.1-0.9,0.1-1.3c0.2-0.3,0.8-0.4,1.3-0.6c2.3-0.7,3.2-2.6,3.7-4.7c0-0.2,0-0.4-0.1-0.5
		c-1.2-0.8-1.5-2.1-1.9-3.3c-0.7-2-1.3-4.1-1.8-6.2c-0.4-1.8-0.6-3.7-1-5.5c-0.2-1.4-0.5-2.8-0.7-4.3c-0.1-0.8-0.1-1.6-0.2-2.4
		c-0.4-2.6-0.9-5.2-1.2-7.8c-0.5-3.5-0.9-7.1-1.2-10.6c-0.2-2.1-0.2-2.1,2.2-2.5c2.9-0.5,5.8-0.6,8.7-0.4c2.5,0.1,5,0.2,7.5,0.3
		c0.1,0,0.3,0,0.5,0c-0.8-1.2-1.5-2.3-2.2-3.3c0-0.1,0.1-0.1,0.1-0.2c0.4,0.1,0.9,0.2,1.3,0.3c0.8,0.3,1.6,0.7,2.3,1
		c0.1,0,0.2,0.1,0.2,0.1c1-0.4,1.4,0.5,2.1,0.7c0.1,0,0.2,0.1,0.4,0.2c-0.2-0.5-0.4-0.9-0.6-1.3c-1.3-2.5-2-5.2-2-8
		c0-0.6-0.1-1.1-0.3-1.7c-0.1-0.6,0.1-0.9,0.7-0.7c1.3,0.6,2.5,1.2,3.7,1.9c0.2-0.2,0.4-0.3,0.8,0.1c1.2,1.2,2,2.7,3.1,4
		c0.5,0.8,1,1.6,1.3,2.5c0.1-0.5,0.3-1,0.5-1.5c0.1-0.4,0.1-0.9,0.7-1.1c0.3-0.1,0.4-0.7,0.5-1c0.7-1.4,1.2-3,2.3-4.1
		c1.9-1.9,3.8-4,6.7-4.6c0.6-0.1,1.1-0.3,1.7-0.4c-0.9,1.2-1.5,2.6-1.8,4c-0.2,0.6-0.1,1.3-0.2,1.9c-0.3,1.2-0.9,2.3-1.1,3.5
		c-0.4,1.6-1,3.2-1.8,4.6c1.7-1.1,3.7-1.7,5.8-1.5c-1.2,1.8-2.7,3.1-3.4,4.9c0.9,0.3,1.8,0.5,2.7,0.8c0.9,0.3,1,0.7,0.9,1.6
		c-0.3,2.5-0.5,5-0.9,7.6c-0.3,2.6-0.7,5.3-1.2,7.9c-0.4,2.8-0.9,5.7-1.4,8.5c-0.4,2.4-0.8,4.8-1.2,7.2c-0.3,1.7-0.5,3.4-1,5
		c-0.3,1-0.8,2-1.4,2.8c-0.4,0.6-0.6,1-0.2,1.6c0.7,1.2,1.4,2.5,2.2,3.6C2223-3001.6,2223.8-3001.2,2224.8-3001.2z M2195.4-3013.4
		c-0.3,0.2-0.5,0.4-0.8,0.5c0.1-0.4,0-0.6-0.4-0.5c-0.2,0.1-0.4,0.5-0.5,0.7c0.1,0.1,0.1,0.1,0.2,0.2c0.2-0.1,0.3-0.2,0.5-0.3
		c0,0.3,0,0.6,0.1,1C2194.9-3012.5,2195.1-3013,2195.4-3013.4c0.1-0.2,0.3-0.4,0.5-0.7c0.1-0.1,0-0.2,0-0.4c-0.1,0-0.2,0-0.4,0
		c-0.1,0-0.2,0.1-0.3,0.2c-0.5-0.6-0.7-0.4-1,0.7c0.3-0.2,0.6-0.3,0.9-0.5C2195.3-3013.8,2195.3-3013.6,2195.4-3013.4L2195.4-3013.4
		z M2196.1-3012.8c0-0.1,0-0.3,0-0.4c-0.2,0-0.4,0-0.5,0.1c-0.3,0.5-0.6,1-0.8,1.6c-0.1,0.2,0.1,0.4,0.2,0.6
		c0.4-0.5,0.7-0.9,0.9-1.3c0,0.4,0.1,0.9,0.1,1.5c0.6-0.5,0.9-1.4,0.5-2.1H2196.1z M2221.3-3050.7c0.1,0,0.3,0,0.3,0
		c0.3-0.5,0.6-1,0.9-1.5l-0.3-0.2l-0.7,1c-0.1-0.1-0.2-0.4-0.3-0.4c-0.7,0.6-1.1,1.5-1.1,2.4
		C2220.6-3049.8,2220.9-3050.2,2221.3-3050.7z M2194.8-3015.3c0,0.2,0,0.4-0.1,0.6c0.7,0.1,0.7,0.1,1.1-1
		C2195.4-3015.5,2195.1-3015.4,2194.8-3015.3c0.1-0.3,0.2-0.5,0.4-0.8c0.4-0.4,0.6-1,0.3-1.6c-0.2,0.1-0.3,0.1-0.4,0.2
		c-0.5-0.4-0.8-0.3-1.1,0.3c-0.1,0.2-0.3,0.5-0.5,0.7c0.1-0.2,0.2-0.4,0.2-0.6c0-0.3,0.1-0.5,0.1-0.8c0-0.1,0-0.3,0-0.4
		c-0.1-0.5,0.3-0.8,0.6-1.1c0,0.2,0.1,0.3,0.1,0.5c0.1,0,0.1,0,0.2,0.1c0.2-0.3,0.4-0.6,0.6-0.9c-0.1,0-0.1-0.1-0.2-0.2
		c-0.2,0.2-0.5,0.3-0.7,0.5c0.2-0.3,0.5-0.5,0.8-0.9c0-0.3-0.1-0.9-0.1-1.6c-0.5,0.7-0.8,1.3-1.2,1.9c0.1-0.3,0.2-0.5,0.3-0.8
		c1-1.2,0.7-2.5,0.5-4c-0.2,0.2-0.3,0.4-0.4,0.5c0.1-0.4,0.3-0.9,0.4-1.3l0,0c0.1,0,0.2-0.1,0.2,0c0.1,0.9,0.2,1.8,0.3,2.7
		c0.3,0,0.6,0.1,0.9,0.1c-0.3-3.4-1.2-6.7-1.2-10.1c0.3,1.3,0.4,2.6,0.6,3.9c0.3,1.9,0.6,3.8,0.8,5.7c0.1,0.5,0.1,0.5,0.6,0.3
		c0-0.5-0.1-1-0.1-1.5c0.1,0,0.1,0,0.2,0c0.1,0.4,0.2,0.8,0.2,1.2c0,0.5,0.2,0.5,0.5,0.5c0.3,0,0.6,0,0.9,0c0,0.1,0,0.2,0,0.2h-1.3
		c0.5,1.1,1.4,0.4,2.1,0.8h-2c0.4,0.4,0,1.2,0.7,1.2c-0.1,0.2-0.2,0.3-0.3,0.5c0.3,0.1,0.7,0.3,0.9,0.4c-0.2,0-0.5,0-0.8,0
		c0,0.6,0,0.7,0.5,0.7c0.9,0,1.7,0,2.6,0v0.2h-3c-0.1,0.5,0,0.8,0.5,0.8c0.9,0,1.8,0.1,2.7,0.1c0,0,0,0.1,0,0.1h-3.1
		c0,0.3,0,0.6,0.1,0.7c0.8,0.2,1.5,0.3,2.1,0.4c-0.4,0-0.9,0-1.5,0c-0.4,0-0.6,0.1-0.5,0.5c0.1,0.5,0.2,1,0.3,1.6h3.1v0.2h-4
		c-0.5,0-0.7,0.3-0.8,0.9c0.4-0.1,0.7-0.2,1-0.2c0,0,0,0.1,0.1,0.1c1.7,0,3.5,0,5.2,0c-2.1,0.3-4.2,0.4-6.3,0.3c0,0.2,0,0.4,0.1,0.7
		c0.2-0.1,0.3-0.2,0.5-0.3c0,0.2,0.1,0.3,0.1,0.5c0.2-0.1,0.4-0.2,0.6-0.3c0.2,0.2,0.4,0.3,0.6,0.3c1.4,0,2.8,0,4.3,0v0.1h-4.6
		c0,1.3,0.2,1.6,1.3,1.6c1.6,0,3.1,0,4.7,0.1c0.2,0,0.5,0.1,0.7,0.1c0,0.1,0,0.1,0,0.2h-6v0.2c2.2,0.2,4.4,0.2,6.6,0.1
		c-0.1,0.1-0.1,0.1-0.2,0.1l-5.4,0c-0.3,0-0.5,0-0.8,0.1c0,0.1,0,0.2,0,0.3c0.4,0,0.9,0.1,1.4,0.1c-0.5,0-0.9,0.1-1.3,0.1
		c0.1,0.2,0.2,0.4,0.2,0.7c0,0.8,0.5,0.9,1.2,0.9c0.4,0,0.7,0,1.1,0v0.2h-1.8c0,0.1,0,0.2-0.1,0.3c0.3,0.1,0.5,0.4,0.8,0.4
		c2.4,0.1,4.9,0.1,7.3,0.2c0.4,0,0.8,0,1.2,0.1c-0.2,0.2-0.4,0.3-0.7,0.3c-0.2,0-0.4,0-0.6,0c-4.2,0.1-8.4-0.2-12.6-1.1
		c-1-0.1-1.9-0.5-2.6-1.2c-0.2-0.3-0.5-0.6-0.7-1c0,0.9,0.5,1.7,1.2,2.3c1.9,0.6,3.9,1.1,5.9,1.5c2.2,0.3,4.4,0.3,6.6,0.4
		c3,0,6-0.2,9-0.7c1.5-0.1,3.1-0.5,4.4-1.2c0.5-0.3,0.9-0.7,1.2-1.2c0.5-1.3,0.9-2.7,1.2-4.1c0.5-2.7,0.9-5.5,1.4-8.2
		c0.5-2.9,1.2-5.7,1.7-8.6c0.5-3,0.8-6,1.2-8.9c0.2-1.9,0.4-3.9,0.7-5.8c0.1-0.7,0.2-1.4,0.4-2.1c-2.5,0.7-5,1.1-7.6,1.2
		c-2.2,0.1-4.4,0.2-6.6,0.4c-1,0-2.1,0.1-3.1,0.1c-0.2,0-0.3-0.2-0.5-0.3c0.1-0.1,0.3-0.2,0.5-0.3c0.3,0,0.5,0,0.8,0v0
		c-0.8-0.1-1.6-0.1-2.5-0.2c0.2,0.2,0.2,0.4,0.4,0.5c-0.7,0-1.5,0-2.2,0c-0.3,0-0.5-0.4-0.7-0.6c-0.2,0.1-0.5,0.5-0.9,0.6
		c-1.1,0-2.2,0-3.4,0c-3.9,0.2-7.8-0.7-11.6-1.4c-1.4-0.3-2.8-0.6-4.3-1c0.1,0.7,0.2,1.3,0.2,1.9c0.2,1.7,0.3,3.4,0.5,5
		c0.3,2.1,0.7,4.2,0.9,6.3c0.2,1.3,0.2,2.6,0.4,4c0.2,1.5,0.4,3,0.6,4.5c0.1,0,0.2,0,0.3,0c-0.2-1.7-0.4-3.4-0.7-5
		c0,0,0.1-0.1,0.2-0.1c0.2,0.2,0.5,0.4,0.7,0.6l0,0c0.2,0.7,0.4,1.4,0.6,2.1v1.6c0,0,0.1,0,0.2,0c0.6-1.2,1.3-2.4,1.9-3.6
		c0.1,0,0.1,0.1,0.2,0.1c-0.5,0.9-1,1.8-1.5,2.8c-0.4,0.6-0.6,1.4-0.6,2.1c0.2,2.2,0.6,4.3,1,6.4c0,0.1,0.3,0.1,0.4,0.2v1.6
		c0.1,0,0.2,0,0.2,0l0.5-1c0.1,0.6,0.1,0.9,0.1,1.3c0.3-0.3,0.5-0.6,0.7-0.9c0.6-0.9,1.1-1.8,1.7-2.8c-0.1,0.4-0.2,0.8-0.4,1.1
		c-0.5,0.9-1.1,1.8-1.6,2.8c-0.1,0.3-0.2,0.6-0.2,0.9l0.1,0c0.3-0.5,0.6-0.9,0.9-1.4c-0.2,0.5-0.5,1-0.7,1.5c-0.1,0.3-0.2,0.7-0.2,1
		c0.1,0,0.2,0,0.3,0.1c0.1-0.2,0.1-0.4,0.2-0.6c0.4-0.6,0.8-1.1,1.2-1.6c-0.1,0.2-0.2,0.5-0.4,0.8c-0.7,1.1-0.7,1.1-0.3,1.7
		c0.1-0.1,0.2-0.2,0.3-0.2c-0.1,0.4-0.2,0.9-0.3,1.3c0.1,0,0.2,0.1,0.3,0.1c0.3-0.6,0.7-1.2,1-1.8c-0.2-0.1-0.3-0.2-0.4-0.3
		C2194.4-3014.4,2194.4-3015.2,2194.8-3015.3z M2194.4-3047.4c0.1-0.3,0.2-0.6,0.3-1c0-0.1-0.1-0.1-0.1-0.2
		c-0.6,0.1-1.5-0.1-1.8,0.3c-0.3,0.6-0.2,1.3,0.3,1.7c0.2-0.1,0.5-0.2,0.7-0.3c0,0.1,0,0.2-0.1,0.3c0.4,0,0.7,0,1.1,0.1
		c0,0,0.1-0.1,0.1-0.2L2194.4-3047.4z M2198.3-3046.5c-0.1-0.7-0.3-1.3-0.5-2c-0.6,0.2-1.3-0.4-1.3,0.8c-0.1-0.8-0.2-0.9-1.3-0.7
		v1.9c0.6-0.2,1.2,0.5,1.6-0.4C2196.9-3046.2,2197.6-3046.1,2198.3-3046.5c0.4-0.5,0.4-1.7-0.1-1.9
		C2198.2-3047.7,2198.3-3047.1,2198.3-3046.5z M2217.9-3053.7L2217.9-3053.7c-0.1,0.2-0.2,0.3-0.3,0.6c1-0.7,1.9-1.4,2.7-2
		c0,0,0,0.1,0.1,0.1c-1.1,0.9-2.1,1.8-3.3,2.8c0.2,0.1,0.3,0.1,0.4,0.1c-0.1,0.2-0.2,0.4-0.4,0.6c0.3-0.1,0.4-0.1,0.8-0.3
		c-0.4,0.4-0.6,0.6-0.9,0.8c0,0,0,0.1,0.1,0.1c0.3-0.2,0.7-0.3,1-0.5c0,0,0,0.1,0.1,0.1c-0.6,0.4-1.1,0.8-1.7,1.3c0,0,0,0.1,0.1,0.1
		c0.2,0,0.4-0.1,0.8-0.2c-0.5,0.4-0.9,0.8-1.4,1.1c0,0,0.1,0.1,0.1,0.1c0.3-0.1,0.6-0.2,0.9-0.4c-0.2,0.3-0.5,0.5-0.8,0.7
		c-0.3,0.2-0.5,0.5-0.7,0.7c0,0.1,0.1,0.1,0.2,0.2c1.3-1.2,3.2-1.4,4.2-3.2c1.1-1.6,2.1-3.3,3-5.1c-0.1-0.2-0.1-0.4,0-0.7
		c0.3-0.5,0.6-1,0.8-1.6c0.3-0.7,0.5-1.5,0.7-2.2c0-0.2-0.3-0.6-0.2-0.8c0.3-1,0.6-2,0.9-2.9c0.3-0.7,0.7-1.4,1-2.1
		c0,0-0.1-0.1-0.1-0.1c-1,0.5-2,1.1-2.9,1.6c0-0.1,0-0.2,0-0.4c-1.9,1.2-3.6,2.8-5,4.6c-0.6,0.9-1.1,1.9-1.4,2.9
		c-0.2,0.5-0.4,1.1-0.7,1.6c-0.1,0.3-0.5,0.4-0.6,0.7c-0.3,1.1-0.6,2.3-0.9,3.4c-0.2,0.6-0.3,1.3-0.5,1.9c-0.1,0-0.2,0-0.3,0
		c-0.1-0.3-0.1-0.5,0-0.8c0.3-1.2,0.7-2.3,0.1-3.5c-0.3-0.5-0.7-1-1-1.5c-0.9-1.3-1.7-2.6-2.5-3.9c-0.1-0.1-0.4-0.3-0.5-0.3
		c-0.5,0.3-0.8,0-1.1-0.3c-1.1-0.7-2.1-1.3-3.3-2c0.1,0.9,0.2,1.4,0.3,2c0.1,1,0.2,2.1,0.4,3.1c0.4,1.5,1,3,1.6,4.4
		c0.5,1,1.1,2,1.7,3c0,0,0,0.1-0.1,0.2c-0.2-0.1-0.6-0.1-0.7-0.2c-0.7-1-1.9-1.1-2.8-1.8c-0.1,0.2-0.1,0.3-0.1,0.3
		c-1.2-0.5-2.3-0.9-3.5-1.4c0,0.1-0.1,0.1-0.1,0.2c0.2,0.4,0.4,0.8,0.7,1.1c0.6,0.8,1.3,1.5,1.9,2.4c0.3,0.4,0.3,1,0.6,1.4
		c0.7,0.7,1.6,1.1,2.6,0.9c-0.1,0-0.3-0.1-0.4-0.1c0,0,0-0.1,0.1-0.2c0.8,0.2,1.5,0.5,2.5,0.8c-0.4-0.8-1.4-1.2-1.1-2.1
		c0.4,0.4,0.8,0.8,1.3,1.4c0.2-1.1-0.8-1.3-1.1-1.9c0.4-0.4,0.8-0.2,1.1,0c0.3,0.3,0.5,0.5,0.8,0.8c0.1,0.2,0.3,0.4,0.4,0.6
		c-0.4-0.1-0.6-0.2-0.8-0.2c0.1,0.5,0.3,0.9,0.4,1.4c0.4-0.1,0.8-0.3,1.2-0.5c0-0.1-0.1-0.4-0.2-0.7c0.6,0.2,1.1,0.3,1.7,0.4v-0.1
		c-0.5-0.2-1-0.5-1.5-0.8c0,0,0-0.1,0.1-0.1c0.3,0.1,0.7,0.3,1,0.4c0.1,0,0.1-0.1,0.2-0.2c-0.2-0.4-0.3-0.7-0.5-1.1
		c-0.2-0.3-0.4-0.6-0.6-0.9c0.5,0.1,0.9,0.2,1.4,0.3c0.2,0.1,0.4,0.2,0.5,0.4c0.1,0.5,0.2,0.9,0.2,1.4h0.2c0.1-0.5,0.2-1.1,0.3-1.6
		c0.5-0.1,0.7-0.3,0.6-0.8c-0.1-0.4-0.2-0.7-0.3-1.1c0-1.1,0.1-2.2,0.2-3.3h0.2c0.1,1.3-0.4,2.6,0.3,3.8h0.2c0-0.4,0-0.8,0.1-1.3
		c0.1,0.2,0.2,0.3,0.3,0.4c0.1,0,0.1,0,0.2,0v-3.6h0.1c0.1,0.7,0.2,1.5,0.3,2.4c0.1-0.4,0.3-0.7,0.5-1
		C2217.4-3053.5,2217.6-3053.6,2217.9-3053.7L2217.9-3053.7z M2200.8-3000.6h1.4c0.1-0.8,0.1-1.5,0.2-2.2c0.1-1,0.1-1-0.9-1.1
		c-0.2,0-0.3,0-0.5-0.1c-1.1-0.2-2.1-0.5-3.3-0.8c-0.2,1-0.4,1.9-0.6,2.8c-0.1,0.4,0,0.5,0.4,0.5c1,0,2,0,3,0c0.2,0,0.3-0.2,0.5-0.3
		C2200.8-3001.3,2200.8-3001,2200.8-3000.6z M2218.1-3047c0,0.1,0,0.2,0.1,0.2c1.4-0.1,2.7-0.6,3.9-1.3c0.4-0.3,1.1-0.6,1.2-1
		c0.2-0.8,0.9-1.2,1.2-1.8c0.5-0.8,1.1-1.5,1.7-2.4c-1.7,0.7-2,1-1.9,1.3c-0.8,0.4-1.5,0.9-2.2,1.3c0,0,0,0.1,0.1,0.1
		c0.2,0,0.4,0.1,0.6,0.1c-0.5,0.2-1,0.4-1.6,0.6c0,0,0,0.1,0.1,0.2c0.1,0,0.2,0.1,0.3,0.1c-1.3,0.4-1.3,0.4-1,0.9
		c-0.3,0.2-1,0-0.9,0.7c-0.2,0-0.4,0.1-0.6,0.1c0,0,0,0.1,0,0.1c0.3,0,0.6,0.1,0.9,0.1C2219.3-3047.3,2218.7-3047.2,2218.1-3047z
		 M2218.9-3003.9v-0.2c-0.2,0-0.3-0.1-0.5,0c-1.1,0.3-2.1,0.6-3.2,0.9c-0.1,0-0.3,0-0.4,0c-0.1-0.1-0.2-0.2-0.3-0.3
		c-0.1,0.2-0.2,0.4-0.2,0.5c0.2,0.6,0.4,1.3,0.6,1.9c0.1,0.2,0.3,0.3,0.5,0.3c1.7,0.1,3.2-0.6,4.7-1.1c-0.4-1.1-1.2-0.8-1.9-0.5
		c-0.2,0.1-0.4,0.2-0.7,0.2c-0.5,0.1-0.9,0.2-1.4,0.3c0,0,0-0.1,0-0.1c1-0.3,2-0.6,3.1-1c-0.2-0.2-0.3-0.4-0.4-0.5l-3.4,0.8
		c0-0.1,0-0.1,0-0.2C2216.6-3003.3,2217.8-3003.6,2218.9-3003.9L2218.9-3003.9z M2189.7-3047.3
		C2189.7-3047.3,2189.7-3047.3,2189.7-3047.3c0.1-0.3,0.1-0.6,0.1-0.9c0.3,0.5-0.1,1.4,1.1,1.1v-1.6c1.6,0.2,3.1-0.6,4.8-0.1
		c1.2,0.2,2.4,0.2,3.7,0c0.7,0,1.3,0,2,0h2v-0.2c-5.8-0.2-11.6-0.7-17.4,0v0.2h2.9c0,0.5,0.1,0.9,0.1,1.2c0.1,0,0.1,0,0.2,0v-1
		c0.1,0,0.1,0,0.2,0C2189.5-3048.1,2189.6-3047.7,2189.7-3047.3z M2211-2999.1L2211-2999.1l-2.7-0.1c-0.1,0-0.4,0.1-0.4,0.2
		c0,0.2,0,0.4,0,0.5c0.2,0.1,0.4,0.2,0.6,0.1c2.3-0.1,4.6-0.3,6.9-0.4c0.2,0,0.3-0.2,0.5-0.4c-0.2-0.1-0.4-0.2-0.6-0.2L2211-2999.1z
		 M2206-2998.2c0-0.4,0-0.6,0-0.9h-5.2v0.9H2206z M2207.2-3001.6c-0.3,0-0.6-0.1-0.9-0.1v-0.1c0.2,0,0.4-0.1,0.8-0.1
		c-1.2,0-2.2,0-3.3,0c-0.9,0-1.1,0.2-0.9,1.2h4.4C2207.3-3001.1,2207.3-3001.4,2207.2-3001.6L2207.2-3001.6z M2199.4-3048.5
		c0,0.7,0,1.3,0,1.8c0,0.1,0.1,0.2,0.2,0.3c0.7,0,1.4-0.2,1.9-0.6c0.3-0.4,0.2-1.3-0.1-1.4
		C2200.8-3048.4,2200.1-3048.4,2199.4-3048.5L2199.4-3048.5z M2191.9-3001.6c1.7,0.5,1.7,0.5,2.2-1c0.1-0.2,0.1-0.4,0.2-0.7
		c0.1-0.3,0.1-0.6-0.3-0.6c-0.2,0-0.4,0-0.6,0.2C2192.8-3003.1,2192.4-3002.4,2191.9-3001.6z M2223.3-3000.6
		c-0.6-0.7-1.2-1.4-1.8-2.1c-0.5-0.8-0.9-1.6-1.3-2.4c-0.1-0.1-0.3-0.2-0.4-0.4c-0.1,0.2-0.1,0.4-0.1,0.6c0.5,1.5,1.4,2.8,2.5,3.9
		C2222.4-3000.8,2222.8-3000.8,2223.3-3000.6L2223.3-3000.6z M2215.5-3045.8v0.2c1.1-0.1,2.3-0.2,3.4-0.2c2.6,0.1,5.1-0.6,7.6-1
		c0.1,0,0.3-0.2,0.4-0.4c-0.2,0-0.4-0.2-0.5-0.1c-2.5,0.9-5.1,1.3-7.7,1.2C2217.6-3046,2216.6-3045.9,2215.5-3045.8z M2213.6-3000.5
		l0.1-0.3c-0.2-0.1-0.4-0.4-0.5-0.4c-1.4,0-2.8,0-4.2,0c0,0.6,0.1,0.9,0.8,0.9c0.6-0.1,1.3-0.1,1.9-0.1
		C2212.3-3000.5,2212.9-3000.5,2213.6-3000.5z M2193.8-2999.2c0-0.1,0-0.3-0.1-0.3c-1.8-0.3-3.6-0.5-5.4-0.8
		C2188.4-2999.7,2192.1-2998.9,2193.8-2999.2z M2196.4-3021.8c0,0-0.1,0-0.1,0c-0.3-0.1-0.5-0.1-0.8-0.2c0.1,0.2,0.1,0.5,0.2,0.7
		c0,0.1,0,0.2,0,0.2c-0.1,0.4,0.2,0.5,0.5,0.4c0.3,0,0.6-0.1,0.9-0.1c-0.1-0.6-0.1-1.2-0.2-1.9c-0.5,0.4-1.1-0.4-1.6,0.5
		c0.4,0,0.6,0,0.9,0C2196.4-3022.2,2196.4-3022.2,2196.4-3021.8z M2207.8-3002.2c-0.8,0.5,0.1,1.1-0.1,1.7h0.8
		c-0.1-0.9-0.2-1.7-0.2-2.6c0-0.7-0.3-0.7-0.9-0.5C2207.6-3003.1,2207.7-3002.7,2207.8-3002.2z M2202.8-2999.8
		c2,0.3,4.1,0.3,6.1,0.3C2208.5-3000,2203.7-3000.2,2202.8-2999.8z M2202.2-2999.8c0-0.1,0-0.1,0-0.2c-0.1,0-0.1-0.1-0.2-0.2
		c-1.7-0.1-3.3-0.2-5-0.3c-0.1,0-0.3,0.1-0.5,0.2c0.1,0.1,0.3,0.3,0.5,0.3c1.5,0.1,3,0.2,4.5,0.2
		C2201.7-2999.8,2201.9-2999.8,2202.2-2999.8z M2222.5-3051.2c1.1-0.7,1.8-1.7,3-2c0.1,0,0.1-0.1,0.2-0.3
		C2222.8-3053.1,2222.8-3052.7,2222.5-3051.2L2222.5-3051.2z M2214.2-2999.6c-0.3-0.4-1.7-0.5-4.3-0.4c-0.2,0-0.4,0.1-0.5,0.2
		c0,0.1,0,0.1,0,0.2C2211-2999.6,2212.5-2999.6,2214.2-2999.6z M2214.8-3000.8c-0.2-0.8-0.5-1.6-0.7-2.4c0-0.1-0.3-0.2-0.5-0.3
		c-0.1,0-0.1,0.1-0.2,0.2c0.2,0.7,0.4,1.4,0.5,2.2C2214-3000.5,2214.3-3000.6,2214.8-3000.8L2214.8-3000.8z M2197-3019.9
		c0-0.6,0-0.6-1.4-0.5c0,0.3,0,0.6,0,0.9c0,0.1,0.1,0.4,0.2,0.4c0.5,0.1,0.9,0.1,1.4,0.2c0.2-1-0.7-0.5-1-0.8
		C2196.5-3019.8,2196.8-3019.9,2197-3019.9z M2188.5-3048.3c0,0.2-0.1,0.3-0.1,0.6c-0.2-0.8-1.2-0.9-2.6-0.4c0.7,0.2,1.3,0.5,2,0.7
		C2188.5-3047.2,2188.7-3047.5,2188.5-3048.3z M2191.8-3009.8l-2.2-6.7C2190-3014.2,2190.7-3011.9,2191.8-3009.8z M2207.3-3002.4
		c-1.4-0.4-2.8-0.4-4.2,0H2207.3z M2198.1-3014.6c-0.1-0.3-0.2-0.8-0.4-0.9c-0.5-0.1-1-0.2-1.4-0.1c-0.1,0.1-0.1,0.3-0.1,0.4
		c0.1,0.2,0.3,0.5,0.5,0.7C2197.1-3014.5,2197.6-3014.6,2198.1-3014.6L2198.1-3014.6z M2213.9-3004.6c0-0.1,0-0.2,0-0.4
		c-1.7,0.2-3.3,0.5-4.9,0.7l0,0.3C2210.6-3004.2,2212.3-3004.4,2213.9-3004.6L2213.9-3004.6z M2219.8-3049.6
		c-0.8,0.9-2.2,1.1-2.6,2.4C2218-3048.1,2219.5-3048.2,2219.8-3049.6L2219.8-3049.6z M2198.1-3007.7c0.2,0.6,0.6,0.7,1.3,0.5
		c-0.2-0.5-0.4-1-0.5-1.5c-0.1-0.7-0.5-0.6-1-0.4c0.2,0.1,0.4,0.3,0.5,0.4c0.1,0.4,0.1,0.7,0.2,1.1
		C2198.5-3007.6,2198.3-3007.6,2198.1-3007.7z M2218.4-3000.5l0,0.1c1.1-0.1,2.1-0.1,3.2-0.2c0-0.1,0-0.2,0-0.3
		c-0.3-0.1-0.6-0.3-0.9-0.3C2220-3001,2219.2-3000.8,2218.4-3000.5L2218.4-3000.5z M2190.8-3000.7c1,0.5,2.1,0.4,2.3-0.2
		C2192.3-3000.8,2191.6-3001.7,2190.8-3000.7z M2195.8-3017.9h1.6c-0.1-0.8-0.3-0.9-1.2-0.8
		C2195.7-3018.7,2195.7-3018.4,2195.8-3017.9L2195.8-3017.9z M2197.7-3016.6c-0.4,0-0.8,0-1.2-0.1c-0.1,0-0.3,0-0.4,0
		c0.1,0.9,0.3,1,1.8,0.8C2197.8-3016.1,2197.7-3016.3,2197.7-3016.6L2197.7-3016.6z M2197.7-3016.9c0-0.5-0.1-0.8-0.7-0.8
		c-0.5-0.1-0.9,0.3-1,0.8c0,0,0,0,0,0H2197.7z M2197.5-3010.6c0.2-0.3,0.4-0.6,0.5-1c0-0.2,0-0.4-0.2-0.5c-0.2-0.1-0.4-0.1-0.6-0.1
		c-0.1,0.1-0.2,0.2-0.2,0.4C2197.2-3011.4,2197.3-3011.1,2197.5-3010.6L2197.5-3010.6z M2194.5-3002.8c0.4,0.1,0.9,0.2,1.4,0.4
		c-0.1-0.3-0.2-0.6-0.2-0.9c-0.3-0.1-0.5-0.2-0.8-0.2C2194.7-3003.3,2194.6-3003.1,2194.5-3002.8z M2195.8-3002.1l-1.5-0.5
		c0,0,0,0.1-0.1,0.1c0.1,0.1,0.1,0.2,0.2,0.2c-0.1,0-0.3,0.1-0.4,0.1v0.1c0.5,0.1,1.1,0.2,1.6,0.4
		C2195.7-3001.8,2195.8-3001.9,2195.8-3002.1L2195.8-3002.1z M2206.9-3003v-0.1h-3.5v0.1H2206.9z M2200.4-3000.6l0-0.3
		c-1-0.2-2-0.1-2.9,0L2200.4-3000.6z M2196.2-3001.4c0.1,0,0.2,0,0.3,0.1c0.2-1.1,0.4-2.1,0.5-3.2c-0.1,0-0.1,0-0.2,0
		C2196.7-3003.5,2196.4-3002.4,2196.2-3001.4L2196.2-3001.4z M2203.7-3046.2c0.3-0.2,0.6-0.2,0.7-0.3c0.1-0.2,0.1-0.5,0.1-0.7
		c0-0.1-0.3-0.2-0.5-0.2c0,0.2-0.1,0.4-0.1,0.6C2203.8-3046.7,2203.8-3046.6,2203.7-3046.2z M2190.5-3001.7
		c-0.5,0.3-0.9,0.5-1.2,0.7c0,0.1,0,0.1,0.1,0.2c0.5-0.1,1-0.2,1.7-0.3C2190.7-3001.4,2190.6-3001.5,2190.5-3001.7z M2200.6-3004.6
		c0-0.1,0-0.1,0-0.2l-3-0.4c0,0.1,0,0.2,0,0.2C2198.6-3004.9,2199.6-3004.7,2200.6-3004.6z M2192.5-3046.7c0.2-1.2,0.1-1.5-0.2-1.8
		C2192-3047.9,2192.1-3047.2,2192.5-3046.7z M2218.6-3004.5c0-0.1,0-0.1-0.1-0.2c-0.8,0.3-1.5,0.5-2.3,0.8c0,0.1,0,0.1,0.1,0.2
		C2217.1-3004,2217.8-3004.3,2218.6-3004.5L2218.6-3004.5z M2220.4-3002.6c-0.2-0.5-0.4-0.9-0.6-1.4
		C2219.4-3003.6,2219.5-3003.2,2220.4-3002.6L2220.4-3002.6z M2194.6-3017.9c0.7,0.1,0.8-0.2,0.9-0.8
		C2194.9-3018.8,2194.9-3018.8,2194.6-3017.9z M2220-2999.1c0-0.1,0.1-0.1,0.1-0.2c-0.2-0.1-0.4-0.4-0.5-0.4c-0.4,0-0.7,0.1-0.5,0.6
		C2219.4-2999.1,2219.7-2999.1,2220-2999.1z M2191.3-3002.2c0.7-0.2,1.3-0.8,1.3-1.6L2191.3-3002.2z M2224.6-2999.5
		c-0.3-0.4-0.5-0.6-0.7-0.8c-0.1,0.3-0.2,0.5-0.3,0.8H2224.6z M2209.8-3001.8L2209.8-3001.8l3.1,0.1v-0.1H2209.8z M2192.9-3012.8
		c-0.1,0-0.3,0-0.4,0c0,0.4,0,0.8,0.1,1.2h0.3C2192.8-3012,2192.9-3012.4,2192.9-3012.8z M2193.4-3012.6v1.2
		C2194-3011.8,2194-3012.2,2193.4-3012.6z"/>
	<path id="Path_1327" d="M2193.9-3017.9c-0.2,0.3-0.5,0.6-0.7,0.8c-0.1,0.2-0.3,0.3-0.5,0.5c0.4-0.6,0.8-1.1,1.1-1.7
		C2193.9-3018.2,2193.9-3018.1,2193.9-3017.9z"/>
	<path id="Path_1328" d="M2217.3-3023.1c-0.3,0.2-0.5,0.4-0.8,0.6v0.9c1.3,0.1,1.6-0.1,1.7-1.4c0.3-2.9,0.7-5.8,1-8.7
		c0.1-1.2,0.3-2.5,0.4-3.7c0-0.2,0.3-0.3,0.4-0.5c0.1-0.1,0.3-0.2,0.4-0.3l3.3-4.8c0.1-0.1,0.3-0.3,0.4-0.4
		c-0.9,1.4-1.8,2.8-2.8,4.2c-1.1,1.4-1.7,3.1-1.7,4.9c0,0.1,0.1,0.2,0.1,0.4c1-1.5,2-2.9,3-4.4c0,0.2,0.1,0.3,0.1,0.3
		c-1,1.6-2.1,3.2-3.1,4.7c-0.1,0.3-0.3,0.5-0.3,0.8c0.2,0,0.3-0.1,0.4-0.2c1-1.5,2.1-3,3.1-4.5c0.6-0.8,1.6-1.5,1.1-2.7
		c0-0.1,0.1-0.2,0.1-0.2l0.9-3.8c0-0.1,0-0.2-0.1-0.3c0.2-0.5,0.3-1,0.5-1.5c0,0-0.1-0.1-0.1-0.1c-0.2,0.1-0.5,0.3-0.7,0.5
		c-0.1-0.5-0.4-0.3-0.7-0.1c-0.2,0.2-0.5,0.4-0.7,0.6l0,0l0.1-0.7c-0.4,0.2-0.9,0.4-1.3,0.6c-0.4,0.1-0.9-0.1-1.4,0
		c-0.6,0.1-1.1,0.3-1.7,0.4c-1.5,0.2-3.1,0.3-4.6,0.4c-2,0.1-4,0.2-6,0.3c-0.2,0-0.3,0.1-0.5,0.1l0,0.2c0.2,0.1,0.5,0.2,0.8,0.3
		c2.6-0.2,5.2-0.4,7.9-0.6c0.8-0.1,1.6,0,2.4,0.1c-3.6,0.2-7.2,0.4-10.8,0.7c-0.1,9.2-0.3,18.3-0.4,27.4h0.1
		c0.4-7.4,0.8-14.8,1.2-22.2c0.1,0,0.1,0,0.2,0c-0.1,2.4-0.2,4.8-0.3,7.2c-0.2,5.8-0.4,11.5-0.6,17.3c0,0.9-0.1,1.8-0.1,2.6
		c0,0.2,0.2,0.4,0.3,0.5c0.1-0.1,0.2-0.3,0.3-0.4c0.1-0.3,0.2-0.6,0.2-0.9h0.2c0,0.4-0.1,0.8-0.1,1.2c0,0.2-0.1,0.4-0.1,0.5
		c0,0.1,0.1,0.2,0.2,0.4c0.1-0.1,0.2-0.2,0.2-0.3c0.1-0.6,0.2-1.3,0.3-1.9c0.1,0,0.1,0,0.2,0c-0.1,0.9-0.2,1.7-0.2,2.5
		c-0.5-0.1-0.9-0.1-1.2-0.2c0.1-0.2,0.2-0.4,0.4-0.7c0-0.1-0.1-0.1-0.1-0.2c-0.7,0.5-1.3-0.1-2,0c-0.3,0.1-0.5,0.1-0.8,0.2
		c-0.3-0.1-0.6-0.2-1-0.2c-1.3,0-2.6,0-3.9-0.1c-0.1,0-0.1,0-0.2-0.1c1.4,0,2.8,0,4.2,0c0.3,0,0.5-0.1,0.7-0.2
		c-0.2-0.1-0.5-0.2-0.8-0.2c-1.1,0-2.2,0-3.3,0v-0.2h5.3v0.1l-1,0.2c0,0.1,0,0.2,0,0.2h1.6c-0.5-10.9,0.3-21.8,0.3-32.8h-1.2
		c0,0.6,0,1.1-0.1,1.7c-0.1,0-0.1,0-0.2,0c-0.1-0.2-0.2-0.4-0.2-0.5c0-0.3,0-0.7,0-1.1c0-0.4,0.1-0.5,0.5-0.4c0.3,0.1,0.6,0.1,0.9,0
		v-0.8c0.3-0.1,0.7-0.1,1-0.1c1.6,0.3,3-0.3,4.5-0.5c0.6,0,1.3-0.1,1.9-0.1c1-0.1,2-0.1,3-0.2c1.2-0.1,2.3-0.3,3.5-0.4
		c0.3,0,0.6-0.1,0.8-0.3c-6.2,0.5-12.4,0.7-18.7,0.5c0.2-0.1,0.2-0.2,0.3-0.2c1.2,0,2.5,0,3.7,0.1c0.2,0,0.4,0,0.6,0l3.5-0.3
		c3.4-0.3,6.8-0.5,10.2-0.8c0.8-0.1,1.7-0.3,2.5-0.4c0.6,0,1.2,0,1.8,0.1c-0.1,0.7-0.2,1.3-0.3,1.8c-0.3,1.9-0.5,3.8-0.9,5.7
		c-0.5,2.8-1,5.7-1.5,8.5c-0.5,3-1.1,5.9-1.6,8.9c-0.2,1.5-0.3,3-0.6,4.5c-0.2,2.3-0.8,4.5-1.8,6.7c-0.4,1-1.3,1.7-2.4,1.8
		c-1.6,0.2-3.3,0.4-4.9,0.7c0.2-0.8,0.4-1.3,0.6-1.9c-0.1,0-0.2,0-0.2-0.1l-0.7,1.9c-0.1,0-0.1,0-0.2-0.1c0.5-1.9,1-3.8,1.5-5.7
		c0.1,0,0.1,0,0.2,0c0,0.2-0.1,0.5-0.1,0.8c0,0,0.1,0.1,0.2,0.1c0.2-0.3,0.4-0.6,0.6-0.9c0,0.3,0,0.6,0,0.9
		c-0.1,0.2-0.1,0.5-0.2,0.7c0.1,0,0.2,0.1,0.3,0.1c0.2-0.7,0.4-1.5,0.5-2.2c0,0-0.3-0.2-0.3-0.2c0.2-0.4,0.5-0.8,0.9-1.4h-1.7
		c1.6-0.4,1.6-0.4,1.5-1.3l-2.6,0.2c0,0,0-0.1,0-0.1c0.6-0.1,1.3-0.2,1.9-0.3c0.9-0.1,0.9-0.1,0.9-1.1c-1.4,0.2-2.7,0.4-4.1,0.6
		c0,0,0-0.1,0-0.2c0.6-0.1,1.3-0.3,1.9-0.4c0.6-0.1,1.1-0.1,1.7-0.2c0.5-0.2,0.9-0.7,0.7-1.3c0-0.1,0-0.1-0.1-0.2
		c0-0.1-0.2-0.1-0.1,0c0.2-0.4,0.3-0.8,0.6-1.3c-0.9,0.1-1.6,0.1-2.3,0.2c0,0,0-0.1,0-0.1c0.5-0.1,1.1-0.2,1.6-0.3
		c0.5,0,0.7-0.3,0.5-0.9c-0.7,0.1-1.4,0.2-2.1,0.3c0-0.1,0-0.1,0-0.2l2.2-0.5c0-0.3,0.1-0.6,0.2-1c-0.6,0.1-1.1,0.2-1.7,0.3
		c0,0,0-0.1,0-0.1c0.3-0.1,0.6-0.2,0.9-0.3c0.6-0.1,0.9-0.7,0.8-1.3c0-0.1-0.1-0.3-0.2-0.4c0.2-0.4,0.3-0.8,0.4-1.2
		c0-0.1-0.1-0.1-0.1-0.2c-0.6,0.1-1.1,0.3-1.7,0.4c0.4-0.7,1.6-0.1,1.8-1.3c-0.8,0.1-1.4,0.2-2.1,0.3c0.6-0.6,1.6-0.2,2.1-0.9
		c0-0.1,0-0.1-0.1-0.2c-0.5,0.1-1.1,0.2-1.6,0.3c0,0,0-0.1,0-0.1c0.8-0.2,1.5-0.4,2.3-0.6l0,0.1c-0.2,0.2-0.4,0.3-0.6,0.5
		c0.1,0.1,0.3,0.2,0.4,0.4c-0.1,0.2-0.3,0.4-0.5,0.7c0.3,0.1,0.5,0.1,0.6,0.1c-0.8,0.9-0.4,2-0.7,3.1
		C2216.8-3023,2217.1-3023,2217.3-3023.1L2217.3-3023.1z M2216.6-3018.9c0-0.1,0.1-0.2,0.2-0.2c0.8-0.1,0.9-0.6,1.1-1.3
		c-0.4,0-0.8,0.1-1.1,0.2c-0.2,0.1-0.4,0.3-0.5,0.6C2216.2-3019.4,2216.2-3019,2216.6-3018.9c-0.8,0.2-0.5,0.9-0.5,1.4
		c1.3,0,1.4-0.1,1.5-1.5C2217.3-3019,2216.9-3018.9,2216.6-3018.9L2216.6-3018.9z M2217.9-3011.6c-0.7-0.3-1-0.2-1.2,0.7
		C2217.1-3011.2,2217.5-3011.4,2217.9-3011.6c0,0.2,0,0.3,0.1,0.5c-0.3,0.2-0.6,0.5-0.9,0.7c0.1,0.1,0.1,0.2,0.2,0.2
		c0.3-0.2,0.7-0.3,1-0.5c0.2,0,0.4,0.1,0.6,0.1c0,0,0,0.1,0.1,0.1c-0.2,0.1-0.3,0.1-0.5,0.2c-0.7,0-0.8,0.6-1.1,0.9
		c0.1,0.1,0.2,0.1,0.3,0.2c0.3-0.4,0.5-0.8,0.8-1.2c-0.1,0.3-0.1,0.5-0.2,0.8c0.7,0.1,0.8,0.1,1-0.5c0.4-1.1,0.8-2.2,1.2-3.4
		c-0.3,0.2-0.5,0.4-0.8,0.5c0.3-0.5,0.6-1,0.9-1.5l-0.2-0.2c-0.4,0.3-0.8,0.5-1.2,0.8c0-0.2,0-0.3,0-0.5c0.9-0.6,1.6-1.6,2-2.6
		c-0.7-0.3-0.9,0.3-1.2,0.6c0-0.6-0.3-0.5-0.6-0.3c-0.2,0.2-0.5,0.5-0.6,0.8c0.3,0,0.6,0,0.8-0.1c0.2-0.1,0.3-0.3,0.5-0.4
		c0,0.2,0.1,0.4,0.2,0.6c-0.9,0-1,0.9-1.5,1.5c0.2,0,0.4,0,0.6,0c-0.7,0.7-1.4,1.3-2.1,2c0.1,0.1,0.1,0.2,0.2,0.3
		c0.3-0.1,0.6-0.2,0.9-0.4c0.4-0.5,0.8-0.9,1.1-1.4C2219-3012.8,2218.5-3012.1,2217.9-3011.6z M2220.7-3021.7c0.3-0.7,0.7-1.4,1.2-2
		c0.8-0.8,0.4-1.7,0.7-2.5c-0.6,0.7-1.2,1.5-1.7,2.3c-0.6,0.7-1.2,1.5-1.6,2.3c-0.3,0.8-1.2,1.2-1.4,2.3c0.3,0,0.6-0.1,0.8-0.2
		c0.3-0.2,0.5-0.3,0.7-0.5c0.1,0.3-0.1,0.6-0.3,0.8c-0.4,0.4-0.8,0.8-1.1,1.3c1-0.1,2.1,0.1,2.5-1.1c0,0,0.1-0.1,0.1-0.1
		c1.2-1.2,1.3-2.8,1.5-4.3C2221.7-3022.9,2221.2-3022.3,2220.7-3021.7L2220.7-3021.7z M2219.7-3024c-0.4,0.7-0.9,1.4-1.3,2.1
		c0.2,0.1,0.4,0.2,0.6,0.2c1.1-1.5,2.1-3.1,3.3-4.6c0.6-0.6,0.9-1.5,0.8-2.4c-0.2,0.3-0.4,0.6-0.6,0.8c-0.4,0.5-0.8,0.9-1.2,1.4
		c0.5-0.7,0.9-1.5,1.4-2.2c0.5-0.8,0.8-1.6,0.7-2.6c-0.5,0.7-1,1.2-1.4,1.8c0.1-0.2,0.2-0.4,0.3-0.6c0.4-0.8,0.9-1.6,1.3-2.4
		c0.1-0.2,0-0.5,0-0.8c0-0.4,0.1-0.8,0.2-1.2c-0.1,0-0.2,0.1-0.3,0.2c-1.4,2-2.8,4-4.2,6.1c-0.1,0.2-0.2,0.5-0.2,0.7
		c-0.1,0.6-0.2,1.1-0.2,1.7c0,0.2,0.2,0.4,0.3,0.5c-0.5,0.7-0.7,1.5-0.5,2.3C2219-3023.3,2219.3-3023.7,2219.7-3024L2219.7-3024z
		 M2224-3035.8c-0.1,0-0.1-0.1-0.2-0.1c0,0-0.1,0.1-0.1,0.1c-1.4,2-2.8,4.1-4.2,6.1c-0.1,0.2-0.2,0.5-0.2,0.7c1.5-2,2.9-3.9,4.3-5.9
		C2223.7-3035.1,2223.9-3035.4,2224-3035.8L2224-3035.8z M2214.9-3010.9c0.4,0,1,0.1,0.8-0.4c-0.2-0.5,0.1-0.8,0.3-1.2
		c0.1-0.3,0.2-0.5,0.3-0.8c-0.5,0.1-1-0.2-1.1,0.6C2215.1-3012.1,2215-3011.5,2214.9-3010.9L2214.9-3010.9z M2219.5-3017.7
		c-0.4,0.1-0.8,0.1-1.2,0.2c-0.7,0.1-0.9,0.3-0.7,1C2218.4-3016.6,2219.3-3016.6,2219.5-3017.7L2219.5-3017.7z M2216.5-3014.7
		c-1-0.1-1.2,0.1-1,1.3l1.4-0.3v-0.9c-0.1,0.3,0,0.8-0.7,0.5C2216.3-3014.3,2216.4-3014.5,2216.5-3014.7L2216.5-3014.7z
		 M2215.7-3010.7c-0.3,0.1-0.7,0-0.8,0.2c-0.2,0.6-0.4,1.2-0.6,1.8c0.8,0.1,1.1-0.1,0.9-0.6c-0.1-0.4-0.1-0.6,0.2-0.8
		C2215.6-3010.2,2215.6-3010.4,2215.7-3010.7z M2217.1-3016c-1.4-0.1-1.5,0-1.4,1C2216.6-3014.9,2217-3015.2,2217.1-3016
		L2217.1-3016z M2218-3021.3c-1.2-0.2-1.5,0-1.5,0.8C2217.6-3020.4,2217.9-3020.6,2218-3021.3L2218-3021.3z M2215.2-3008.6
		c-0.6,0-1.1,0.1-1.7,0.1v0.6C2214.8-3007.7,2214.9-3007.7,2215.2-3008.6L2215.2-3008.6z M2217.4-3008.2c0.7-0.1,1.3-0.2,2-0.3
		C2218.3-3009.3,2218-3009.3,2217.4-3008.2L2217.4-3008.2z M2217.4-3013.9c0.7,0.1,1.3-0.4,1.6-1.4
		C2218.5-3015.3,2218.5-3015.3,2217.4-3013.9L2217.4-3013.9z M2217.1-3017.2c-1.2,0-1.3,0.1-1.2,1
		C2216.7-3016.1,2216.7-3016.8,2217.1-3017.2L2217.1-3017.2z M2218.7-3016.4c-0.8,0.1-1.3,0.3-1.4,1
		C2218.2-3015.2,2218.3-3015.9,2218.7-3016.4L2218.7-3016.4z M2221.5-3019.9c-0.4,0.6-0.7,1-1,1.5
		C2221.4-3018.4,2221.6-3018.6,2221.5-3019.9L2221.5-3019.9z M2219.4-3016.9c0.9,0.1,1.1-0.5,1.6-0.9
		C2220-3018.2,2219.9-3017.4,2219.4-3016.9L2219.4-3016.9z M2217.6-3010.1c-0.9,0-1,0.6-1.4,1.1
		C2217-3008.9,2217.1-3009.6,2217.6-3010.1L2217.6-3010.1z M2214.9-3007.7c-0.6-0.1-1.1-0.1-1.2,0.7
		C2214.2-3007.1,2214.7-3006.9,2214.9-3007.7L2214.9-3007.7z"/>
	<path id="Path_1329" d="M2188.4-3030.1c-0.2-0.4-0.1-1-0.8-1.1c-0.2,0-0.3-0.7-0.3-1.1c-0.2-2.9-0.4-5.9-0.7-8.8
		c-0.1-0.9-0.3-1.9-0.6-2.8c-0.1-0.4-0.2-0.8-0.2-1.3c0-0.4,0.2-0.7,0.6-0.7c0.1,0,0.2,0,0.3,0.1c2.6,0.7,5.3,1,8,1.1
		c0.8,0,1.6,0.2,2.4,0.5c-2-0.2-4.1-0.3-6.1-0.5c0,0.1,0,0.1,0,0.2c3.7,0.8,7.4,1.1,11.2,1h-8.1c0.1,1.7,0.2,3.4,0.3,5.1
		c-0.1,0-0.2,0-0.4,0c-0.1-1.7-0.3-3.3-0.4-5c-2-0.4-4.1-0.9-6.4-1.3v2.2c0,0-0.1,0-0.1,0v-1.6c-0.5,0.5-0.6,1.1-0.1,2.6
		c0.2-0.3,0.3-0.4,0.4-0.7c0.4,0.4-0.4,1.1,0.4,1.3c-0.5,1.3,0.1,2.5,0.2,3.8c0.3-0.4,0.6-0.8,0.9-1.2c-0.3,0.9-0.6,1.7-0.9,2.5
		c0.1,0,0.1,0,0.2,0c0.1,0.4,0.1,0.8,0.1,1.1c0,0.3-0.1,0.7-0.1,1c0,0.5,0.1,0.9,0.2,1.4C2188.3-3031.6,2188.4-3030.8,2188.4-3030.1
		L2188.4-3030.1z M2187.3-3039.6c-0.1,0-0.1,0-0.2,0c0.1,0.7,0.1,1.4,0.2,2V-3039.6z"/>
	<path id="Path_1330" d="M2223.3-3043.1c-0.6,0.9-1.2,1.9-1.9,2.9c-0.8,0.8-1.2,1.9-1.4,3c-0.1,0-0.1,0-0.2-0.1
		c0.2-0.9,0.3-1.9,0.5-2.9c-0.2,0-0.3,0-0.3,0c0.2-0.8,0.5-1.7,0.7-2.6v1c0.2-0.2,0.4-0.3,0.7-0.5c-0.6,0.8-0.9,1.8-0.8,2.7
		c0.8-1.2,1.6-2.2,2.3-3.3C2223-3042.9,2223.2-3043,2223.3-3043.1C2223.3-3043.1,2223.3-3043.1,2223.3-3043.1z"/>
	<path id="Path_1331" d="M2217.3-3023.1c0.7-0.5,0.5-1.2,0.6-1.9c0.3-2.6,0.6-5.3,0.9-7.9c0.1,0,0.1,0,0.2,0
		c-0.1,1.1-0.2,2.1-0.3,3.2c-0.2,1.6-0.4,3.2-0.6,4.8c0,0.5-0.1,1-0.3,1.4C2217.8-3023.2,2217.5-3023.2,2217.3-3023.1L2217.3-3023.1
		z"/>
	<path id="Path_1332" d="M2196-3042.8c1.5,0.2,2.9,0.3,4.5,0.5c-0.4,0.4-3.5,0.1-4.5-0.3C2196-3042.6,2196-3042.7,2196-3042.8z"/>
	<path id="Path_1333" d="M2194.7-3025.6c-0.6-0.5-0.2-1.2-0.4-1.8c-0.2-0.8-0.3-1.7-0.4-2.5c0-0.4-0.1-0.9-0.1-1.3
		c0.1,0,0.1,0,0.2,0C2194.3-3029.4,2194.5-3027.5,2194.7-3025.6L2194.7-3025.6z"/>
	<path id="Path_1334" d="M2201.1-3041.7c1.5-0.7,2.9,0,4.4,0v0.2C2204-3041.6,2202.5-3041.7,2201.1-3041.7z"/>
	<path id="Path_1335" d="M2218-3033.9c-1.4,0.3-2.8,0.6-4.2,0.9c0-0.1,0-0.2-0.1-0.3c1.4-0.3,2.8-0.6,4.2-0.9
		C2217.9-3034.1,2218-3034,2218-3033.9z"/>
	<path id="Path_1336" d="M2212.6-3010.3c-0.4,0.1-0.8,0.1-1.3,0.1c-0.6-0.1-0.6,0.2-0.7,0.6c-0.1,0.9-0.3,1.8-0.4,2.6l-0.2,0
		c0.1-0.6,0.2-1.3,0.4-1.9c0-0.2,0.1-0.5,0.1-0.7c0.1-0.9,0.1-0.9,0.9-1c0.4,0,0.7,0,1.1,0
		C2212.6-3010.4,2212.6-3010.4,2212.6-3010.3z"/>
	<path id="Path_1337" d="M2223.7-3042.2c-0.9,1.5-1.9,2.9-2.8,4.4c-0.1,0-0.1-0.1-0.2-0.1c0.9-1.5,1.9-2.9,2.8-4.4
		C2223.6-3042.3,2223.7-3042.2,2223.7-3042.2z"/>
	<path id="Path_1338" d="M2218.9-3041.4c-1.8,0.1-3.5,0.3-5.2,0.5c0-0.1,0-0.1,0-0.2c1.8-0.1,3.5-0.3,5.2-0.5
		C2218.9-3041.5,2218.9-3041.4,2218.9-3041.4z"/>
	<path id="Path_1339" d="M2217.1-3029.5c-1,0.2-1.9,0.5-2.9,0.7c0-0.1,0-0.2-0.1-0.3c1-0.2,2-0.5,2.9-0.7
		C2217-3029.7,2217.1-3029.6,2217.1-3029.5z"/>
	<path id="Path_1340" d="M2201.7-3015.5h-2.7c0,0,0,0,0,0l2.7-0.1C2201.7-3015.6,2201.7-3015.6,2201.7-3015.5z"/>
	<path id="Path_1341" d="M2207.3-3007.3h-4.6v-0.1L2207.3-3007.3L2207.3-3007.3z"/>
	<path id="Path_1342" d="M2212.3-3009.5c-0.2,0.8-0.4,1.6-0.6,2.3c-0.1,0-0.2,0-0.2-0.1l0.6-2.4L2212.3-3009.5z"/>
	<path id="Path_1343" d="M2194.5-3033.7c-0.1-0.6-0.1-1.3-0.2-1.9c0.1,0,0.2,0,0.2,0c0.1,0.6,0.2,1.2,0.3,1.9
		C2194.7-3033.8,2194.6-3033.8,2194.5-3033.7z"/>
	<path id="Path_1344" d="M2193-3022.2c-0.4,0.7-0.9,1.4-1.3,2.2C2192.1-3020.8,2192.6-3021.5,2193-3022.2z"/>
	<path id="Path_1345" d="M2194.3-3024.3c-0.4,0.7-0.9,1.4-1.3,2.2C2193.4-3022.9,2193.9-3023.6,2194.3-3024.3z"/>
	<path id="Path_1346" d="M2191.7-3020.1c-0.2,0.7-0.6,1.4-1.2,1.9C2191-3018.8,2191.3-3019.4,2191.7-3020.1z"/>
	<path id="Path_1347" d="M2217.9-3053.7c-0.4-0.8-0.6-1.6-0.4-2.5c0.1-0.8,0.2-1.6,0.5-2.4c-0.1,1.1-0.1,2.3-0.2,3.4
		c0.1,0,0.1,0,0.2,0c0.5-0.7,0.1-1.7,0.4-2.6c0,0.5,0.1,0.9,0.1,1.3l0.2,0c0.2-0.4,0.3-0.9,0.4-1.3c0.2-0.9,0.3-1.8,0.4-2.8
		c0.1,0,0.1,0,0.2,0l-0.2,2.1c0.1,0,0.2,0,0.2,0.1c0.6-1.3,1.2-2.7,1.8-4.1c0.1,0.2,0.1,0.4,0.2,0.6c0.8-0.9,1.6-1.8,2.4-2.6
		c0,0,0.1,0,0.1,0.1c-0.1,0.1-0.1,0.2-0.2,0.3c-0.5,0.8-1,1.5-1.5,2.3c0.2-0.1,0.5-0.2,0.7-0.3c-0.7,0.7-1.5,1.4-2.2,2.2l0.2,0.2
		c-0.4,0.4-0.8,0.8-1.1,1.2c0,0,0,0.1,0.1,0.1c0.6-0.4,1.2-0.7,1.7-1.1c0,0,0,0.1,0.1,0.1c-0.8,0.7-1.6,1.3-2.3,1.9
		c0,0,0.1,0.1,0.1,0.1c0.5-0.3,1-0.6,1.5-0.9c0,0,0,0.1,0.1,0.1l-2,1.5c0,0.1,0.1,0.1,0.1,0.2c0.3-0.2,0.6-0.3,0.9-0.5
		C2219.4-3055.8,2218.6-3054.8,2217.9-3053.7L2217.9-3053.7z"/>
	<path id="Path_1348" d="M2210.8-3052.6c0.1-0.6,0.2-1.2,0.3-1.8c0.1,0,0.1,0,0.2,0c-0.1,0.5-0.2,1-0.2,1.5c0,0.5,0.1,1.1,0.3,1.6
		c0.1,0.3,0.5,0.5,0.9,0.8c-0.6,0.2-1.1,0.5-1.4-0.2c0.1,0,0.2-0.1,0.4-0.1c-0.5-1.1-0.9-2.2-2-2.7c0-0.2,0.1-0.5,0-0.7
		c-0.3-1-1.1-1.5-1.8-2.1c-0.1-0.1-0.3-0.2-0.4-0.3c0-0.1,0.1-0.1,0.1-0.2c0.4,0.3,0.8,0.6,1.4,1c-1-1.8-1.9-3.5-2.8-5.4
		c0.7,0.3,0.7,0.3,1,1c0.1,0.3,0.4,0.4,0.6,0.7c0.4,0.6,0.8,1.3,1.3,1.9c0-0.4,0.1-0.7,0.1-1.1c0.4,0.9-0.3,1.9,0.7,2.5v-1.1
		c0,0.1,0.1,0.3,0.1,0.5h0.2c0-0.4,0.1-0.9,0.1-1.3c0.3,1-0.4,2.2,0.3,3.3c0-0.3,0.1-0.5,0.1-0.8h0.1c0,0.7-0.1,1.3-0.2,2l0.2,0
		c0.2-0.7,0.4-1.5,0.5-2.2h0c-0.1,1-0.2,2.1-0.3,3.1C2210.7-3052.6,2210.8-3052.6,2210.8-3052.6z"/>
	<path id="Path_1349" d="M2207.7-3049.2C2207.6-3049.3,2207.7-3049.3,2207.7-3049.2c0.4,0.4,0.5,1,0,1.3c-0.3,0.2-0.9-0.1-1.4-0.3
		c-0.2-0.1-0.5-0.3-0.7-0.4c0,0,0.2,0,0.3,0c0-0.1,0-0.1,0-0.2c-0.4-0.1-0.8-0.2-1.1-0.3c0,0,0.1-0.1,0.3-0.2
		c-0.8-0.7-1.6-1.4-2.3-2c0-0.1,0.1-0.1,0.1-0.2c0.7,0.5,1.3,1,2,1.5c0.1-0.1,0.1-0.2,0.2-0.3c0.1,0,0.1,0,0.1,0.1
		c0.5,0.5,1,0.9,1.6,1.3C2207-3048.9,2207.4-3049.1,2207.7-3049.2z"/>
	<path id="Path_1350" d="M2212.9-3050.1c0.1-0.6,0.3-1.2,0.5-1.8c0,0,0.1,0,0.1,0c-0.1,0.6-0.2,1.2-0.4,1.8
		C2213-3050.1,2212.9-3050.1,2212.9-3050.1z"/>
	<path id="Path_1351" d="M2218.9-3002c-0.8,0.3-1.6,0.6-2.4,0.9c0-0.1,0-0.1-0.1-0.2c0.8-0.3,1.6-0.6,2.4-0.9
		C2218.9-3002.1,2218.9-3002.1,2218.9-3002z"/>
	<path id="Path_1352" d="M2209.5-3001h3.6v0.1h-3.6V-3001z"/>
	<path id="Path_1353" d="M2195.2-3017.5c-0.2,0.9-0.7,1.7-1.4,2.3C2194.2-3016,2194.7-3016.7,2195.2-3017.5z"/>
	<path id="Path_1354" d="M2221.3-3026.5c-0.5,0.7-1,1.5-1.4,2.2C2220.4-3025,2220.8-3025.7,2221.3-3026.5z"/>
	<path id="Path_1355" d="M2220.8-3021.8c-0.4,0.6-0.9,1.2-1.3,1.7C2219.9-3020.6,2220.3-3021.2,2220.8-3021.8z"/>
	<path id="Path_1356" d="M2218.2-3010.7l-0.3-0.4c0.6-0.6,1.2-1.1,1.7-1.7C2219.1-3012.1,2218.7-3011.4,2218.2-3010.7z"/>
</g>
</svg>
