<?xml version="1.0" encoding="utf-8"?>
<!-- Generator: Adobe Illustrator 22.0.1, SVG Export Plug-In . SVG Version: 6.00 Build 0)  -->
<svg version="1.1" id="Layer_1" xmlns="http://www.w3.org/2000/svg" xmlns:xlink="http://www.w3.org/1999/xlink" x="0px" y="0px"
	 viewBox="0 0 42.1 96.2" style="enable-background:new 0 0 42.1 96.2;" xml:space="preserve">
<style type="text/css">
	.st0{enable-background:new    ;}
</style>
<path id="Path_2497" class="st0" d="M5.7,65.2c0.1-0.2,0.1-0.3,0.2-0.4c0.5,0.4,1,0.7,1.5,1c0.1,0,0.1-0.1,0.2-0.1v-6.4
	c0.1,0,0.2,0,0.2,0c0.1,0.2,0.1,0.5,0.1,0.7c0,1.8,0,3.5,0,5.3c0,0.3,0.1,0.5,0.3,0.7c0,0.1,0.1,0.2,0.1,0.3c-0.1,0.5-0.1,1.1,0,1.6
	c0,0.1-0.1,0.2-0.3,0.5c1,0.1,1.9,0,2.9-0.2V68H8.9c0-0.1,0-0.1,0-0.2c0.6-0.1,1.2-0.1,1.9-0.2c-0.7-0.3-1.4,0.2-2.2-0.3
	c0.5-0.2,0.9-0.2,1.5-0.4c-0.3,0-0.5,0-0.8-0.1c-0.2-0.1-0.3-0.2-0.5-0.4c0.2-0.1,0.4-0.2,0.5-0.2c0.5,0.1,1,0.2,1.5,0.3
	c0-0.9,0.1-1.7,0.1-2.5h0v2.7c0.3-0.3,0.6-0.5,0.7-0.7c0.3,1.1,0,2.3-0.8,3.1c-0.1,0.1-0.2,0.3-0.3,0.5c-0.7,0.6-1.4,1.3-2.1,1.9
	c0.1,0.1,0.1,0.2,0.2,0.3c0.3-0.1,0.5-0.3,0.7-0.5c0.4-0.4,0.8-0.9,1.2-1.3l-1,1.6c0.9,0.2,0.9,0.2,1.6-1c0,0.4-0.1,0.8-0.2,1.3
	c-0.2,0.5-0.4,1-0.6,1.5c0,0.1,0.2,0.3,0.2,0.4c-0.2,0-0.6,0.1-0.5,0.7c0.2,0,0.4,0,0.6,0.1c0,1,0,1,0.2,1.1H9.9
	c-0.2,1-0.1,1.1,1.1,1.3c0,0.1,0,0.1,0.1,0.2c-0.2,0.1-0.4,0.1-0.6,0.1c-0.8-0.1-1-0.5-1-1.5H8.8c0,0.1-0.1,0.1-0.1,0.1
	c0,0.6,0.1,1.2,0,1.8c0,0.4,0.2,0.5,0.5,0.5c0.4,0,0.9,0.1,1.3,0.1c0.5,0,0.5,0.3,0.4,0.7c-0.1,0.1-0.2,0.3-0.2,0.5
	c0,1.5,0,3.1,0,4.6c0,0.1,0,0.2,0.1,0.3H11c0.2-4.7,0.4-9.5,0.6-14.2h0.2c0,2.2,0,4.5,0,6.7c-0.1,2.5-0.2,5-0.3,7.4
	c0,0.9-0.1,0.9,0.9,1.1c-0.4,0.1-0.6,0.1-1.1,0.2c0.4,0.2,0.6,0.3,0.9,0.4c-0.2,0.1-0.5,0.1-0.7,0.2c0,0,0,0.1,0,0.1
	c0.4,0.1,0.8,0.2,1.2,0.4v0.1h-1.1c0,0.1,0,0.1,0,0.2c0.5,0.1,0.9,0.2,1.4,0.2c1.4,0.1,2.7,0.2,4.1,0.2c2.3,0.1,4.6-0.1,6.9-0.6
	c1.1-0.1,2.2-0.2,3.4-0.1c-1.3,0.2-2.6,0.4-3.8,0.5c1.8,0.2,3.5-0.3,5.3-0.4c0,0.1,0,0.2,0,0.3c-0.5,0.1-1,0.3-1.6,0.4
	c-6,1.2-12.1,0.7-18.2,0.4c-1.2-0.1-2.4-0.4-3.5-0.6c-0.4-0.1-0.8-0.1-1.2-0.2c0,0.1-0.1,0.1-0.1,0.2c0.2,0.1,0.3,0.4,0.5,0.4
	c1.8,0.4,3.7,0.9,5.6,1.1c3.6,0.4,7.2,0.5,10.8,0.3c1.8-0.1,3.7-0.3,5.5-0.5c0.9-0.1,1.7-0.3,2.6-0.4c0.2-2.6,0.3-5,0.5-7.5h-0.1
	v7.3c0,0,0.1,0,0.1,0.1c0.1-0.2,0.2-0.4,0.3-0.6c0.2-3.3,0.4-6.6,0.6-10c0.1-0.3,0.2-0.7,0.4-1c0.2-0.4,0.3-0.7,0.5-1.2
	c-0.9-0.1-0.7-0.6-0.7-1.1c0.1-4.7,0.1-9.5,0.3-14.2c0.2-6.9,0.5-13.8,0.8-20.8c0.2-4.1,0.4-8.2,0.6-12.3c0-0.2,0-0.5,0-0.7
	c-0.1,0-0.1-0.1-0.2-0.1c-0.8,0.5-1.7,0.3-2.5,0.4c-4.4,0.5-8.8,0.7-13.3,0.5c-3-0.1-6-0.2-9-0.3c-1.6-0.1-3.2-0.1-4.7-0.2
	c-0.6,0-1.2-0.2-1.9-0.3C0.9,36,1.2,45.8,1.5,55.7c-0.3-0.2-0.6-0.4-1-0.6c0,0,0-0.1,0-0.1c-0.1-7.4-0.3-14.9-0.4-22.3
	c0-2.5,0-4.9-0.1-7.3c0-1,0.3-1.5,1.4-1.7c1.5-0.3,3-0.5,4.6-0.6c2.5-0.1,5.1,0,7.7-0.1c3.2,0,6.4-0.1,9.6-0.2c0.7,0,1.4,0,2.1,0
	c0.3-0.1,0.5-0.2,0.6-0.4c0.1-0.2,0.1-0.5,0-0.7c-0.5-1-1.7-1.3-2.6-0.9c-0.2,0.1-0.4,0.2-0.5,0.4c-0.2,0.1-0.3,0.2-0.5,0.2
	c-0.1-0.1-0.1-0.3-0.1-0.5c0.4-1.4-0.2-2.8-1.5-3.4c-0.2-0.1-0.4-0.2-0.6-0.3c-0.6-0.5-1.5-0.4-2,0.2c-0.2,0.1-0.3,0.2-0.5,0.3
	c-0.1-0.8,0.5-1,0.9-1.4c0.4-0.2,0.6-0.7,0.4-1.2c-0.4,0.2-0.7,0.3-1,0.5c-0.1,0.1-0.3,0.2-0.4,0.2c-0.2,0-0.5-0.1-0.7-0.2
	c0.1-0.2,0.2-0.4,0.4-0.5c1.6-1,3.2-2,4.8-2.9c3.4-2,6.7-4,10.1-5.9C33,6,33.4,5.3,33.5,4.5c0.2-1.1,0.5-2.2,0.8-3.3
	c0.1-0.3,0.3-0.6,0.5-0.9C35,0.1,35.3,0,35.4,0c0.2,0.1,0.3,0.3,0.3,0.6c0,0.8-0.1,1.5-0.3,2.3c-0.3,1.2-0.7,2.3-1.1,3.4
	c0,0.2,0,0.4,0.1,0.6c0.9,1.8,1.8,3.6,2.7,5.4c1.5,2.8,3.1,5.6,4.6,8.4c0.1,0.2,0.2,0.4,0.3,0.7c-0.4-0.3-0.9-0.4-1.4-0.5
	c-0.3,0-0.7,0.4-1.1,0.6c-0.1-0.3-0.2-0.6-0.4-0.9c-0.2-0.3-0.5-0.5-0.9-0.6c-0.2-0.1-0.5,0.2-0.7,0.3c-0.2-0.3-0.3-0.3-0.4,0.1
	c0,0.2-0.1,0.4-0.1,0.5l1.5,0.2c0,0.1,0,0.1,0,0.2c-0.3,0-0.6,0-1.1-0.1c0.5,0.3,0.9,0.5,1.3,0.7c0,0,0,0.1,0,0.1
	c-0.1,0-0.3,0-0.3,0c-0.6-0.4-1.4-0.4-1.8,0.2c-0.9,0.6-1.4,1.6-1.3,2.7c0,0.3,0,0.7,0,1c-0.8-0.2-0.8-0.9-1-1.3
	c-0.2-0.9-0.9-1.6-1.7-2c-0.7-0.3-1.4-0.1-1.9,0.5c-0.1,0.2,0,0.5,0.1,0.7c0.3,0.2,0.6,0.3,0.9,0.4c1.1,0.4,1.3,0.6,1.3,1.8
	c0,2.9-0.1,5.8-0.2,8.8c-0.2,9.9-0.4,19.8-0.7,29.7c-0.1,5.2-0.2,10.4-0.4,15.6c-0.1,4.3-0.2,8.7-0.3,13c0,0.5-0.3,0.9-0.7,1.1
	c-1.4,0.8-2.9,1.2-4.4,1.4c-1.7,0.2-3.4,0.5-5.1,0.7c-3.2,0.3-6.4,0.2-9.6-0.2c-0.7-0.1-1.5-0.1-2.2-0.2c-0.4-0.1-0.9,0.1-1.1-0.5
	c0,0-0.2,0-0.4,0c-0.4,0.1-0.8,0.1-1.3,0.1c-1.4-0.3-2.7-0.7-4.1-1.1c-0.6-0.2-1.1-0.8-1.1-1.5c-0.1-2.4,0-4.8-0.2-7.2
	C0.6,78.1,1,70.6,0.6,63.2c0-0.5,0.1-1.1,0.2-1.6c0-0.2,0-0.4-0.1-0.6c-0.1-0.6-0.1-1.2-0.1-1.8c0.6,0.3,0.9,0.9,1,1.5
	c0.4,6,0.5,12,0.5,18c0,2.6,0.2,5.1,0.4,7.7c0,0.4,0.6,0.7,1,1.1l0.2-0.1c0-0.2,0.1-0.5,0-0.6c-0.5-1.2-0.7-2.5-0.6-3.8
	C3,79.1,3,75.3,2.9,71.5c0-1.6-0.2-3.2-0.2-4.7c-0.1-2-0.1-3.9-0.2-5.9c0-0.3,0-0.6,0.4-0.7c0.2,0,0.3-0.3,0.4-0.5
	c0.1-0.2,0.2-0.4,0.3-0.6c0.1,0,0.1,0,0.2,0.1c-0.3,0.8-0.5,1.7-0.8,2.5c0.1,0,0.2,0,0.2,0.1c0.4-0.9,0.8-1.8,1.2-2.7
	c0.1,0,0.1,0,0.2,0.1c-0.3,0.8-0.6,1.6-1,2.4l0.2,0.1c0.5-0.8,1-1.7,1.5-2.5c0,0,0.1,0.1,0.1,0.1c0.2-0.2,0.5-0.4,0.7-0.7
	c0.2-0.4,0.5-0.7,0.7-1c-0.5,1.6-1,3.2-1.4,4.8c-0.1,0-0.1,0-0.2-0.1c0.3-1,0.6-2,0.9-3.1c-1.7,1.8-3.1,3.7-2.9,6.5
	c0.2-0.2,0.4-0.3,0.5-0.4c-0.9,0.7-0.2,1.7-0.5,2.7c0.2-0.1,0.3-0.2,0.4-0.2c-0.2,0.4-0.3,0.8-0.5,1.2c0.1,0,0.1,0.1,0.2,0.1
	c0.3-0.2,0.6-0.4,0.9-0.6c-0.3,0.3-0.5,0.6-0.7,1c-0.1,0.3-0.2,0.6-0.2,1l0.8-0.6c-0.2,0.2-0.3,0.5-0.5,0.7
	c-0.1,0.4-0.2,0.7-0.3,1.1c0.1,0,0.1,0,0.2,0.1c0.5-0.6,1.1-1.2,1.6-1.8c0,0.1,0,0.3-0.1,0.4c-0.5,0.6-1.1,1.2-1.6,1.9
	c-0.1,0.1-0.1,0.4-0.1,0.6c0.1,0,0.2,0,0.4,0c-0.1,0.4-0.3,0.8-0.4,1.2c0,0,0.1,0,0.2,0c0.3-0.2,0.6-0.5,0.9-0.8
	c-0.2,0.3-0.4,0.5-0.6,0.8C3.6,74,3.5,74.6,3.7,75c0.2-0.2,0.4-0.3,0.6-0.4C4.2,74.8,4.1,75,4,75.4c0.6-0.2,1-0.3,1.4-0.4
	c0.1,0.1,0.2,0.3,0.4,0.4c0.6,0.2,1-0.2,1.3-0.7c-0.3-0.1-0.6-0.1-0.9-0.2c1.2,0.1,1.6-0.3,1.3-1.5c-0.3,0.2-0.5,0.3-0.8,0.4
	c0.6-0.5,0.9-1.3,0.8-2c-0.3,0.3-0.6,0.5-0.9,0.8c0.1-0.2,0.2-0.4,0.4-0.6c0.5-0.4,0.7-1.1,0.5-1.7c-0.2,0.1-0.4,0.3-0.6,0.4
	c0.2-0.4,0.5-0.8,0.7-1.2c0,0-0.1-0.1-0.2-0.1C7.3,69,7.2,69,7.1,69.1c0.7-0.9,0.3-1.9,0.5-3c-0.3,0.2-0.5,0.3-0.6,0.4
	C7.1,65.7,6.6,66,6.2,66C6,65.7,5.9,65.4,5.7,65.2z M3.9,76.5c-0.1,0.5-0.2,1-0.2,1.5l0.2,0c0.3-0.3,0.5-0.6,0.8-0.9
	c0.5-0.5,1-1,1.6-1.5c-0.7,0.8-1.4,1.6-2.1,2.5c-0.2,0.3-0.4,0.7-0.5,1.1c0.1,0.1,0.2,0.1,0.3,0.2c0.5-0.6,1-1.1,1.6-1.7
	c-0.5,0.6-0.9,1.1-1.3,1.7c-0.2,0.2-0.4,0.7-0.3,0.9C4,80.9,4,81.6,4,82.2C4,82.3,4,82.5,4,82.6c0.3-0.3,0.6-0.5,1-0.8
	c-0.1,0.3-0.3,0.5-0.5,0.7C4,82.9,4.1,83.4,4.2,84c0.5-0.6,1-1,1.5-1.5c-0.4,0.5-0.8,1-1.1,1.6c-0.2,0.3-0.4,0.7-0.5,1l0.2,0.1
	c0.1,0,0.3-0.1,0.4-0.1c-0.1,0.3-0.7,0.5-0.3,0.9c0.1,0.1,0.4,0,0.6,0c0.1,0.1,0.1,0.3,0.2,0.4c0.2,0,0.3-0.1,0.4-0.2
	c0.2-0.2,0.4-0.5,0.6-0.7c0-0.1,0-0.1-0.1-0.2c-0.2,0.1-0.4,0.2-0.6,0.3c-0.2,0.1-0.4,0.3-0.5,0.5l1.8-2.1l-0.4,0.8
	c0.8-0.2,1.4-0.9,1.5-1.7c-0.4,0.3-0.7,0.6-1.1,0.9c0.5-0.7,1-1.4,1.5-2.2v2.7c0.1,0,0.2,0,0.3,0c0-0.2,0.1-0.3,0.1-0.5
	c0-0.5-0.1-0.9-0.1-1.4c0-1.2,0.1-2.5,0.1-3.8c0-0.2-0.1-0.4-0.2-0.6l-0.2,0c0,0.2-0.1,0.4-0.1,0.6c0,0.7,0.1,1.4,0.1,2.1
	c0,0.2-0.1,0.4-0.2,0.5c-0.2,0.2-0.5,0.3-0.7,0.5c0.2-0.5,0.9-0.9,0.5-1.7c-0.2,0.1-0.3,0.2-0.5,0.3c0.3-0.5,0.8-0.8,0.6-1.5
	c0-0.1-0.2-0.1-0.3-0.2c0.1-0.2,0.3-0.5,0.3-0.8c0-0.8,0-1.6,0-2.5c-0.3,0.1-0.4,0.2-0.5,0.2c-0.2-0.8-0.7-0.2-1.1-0.2
	c-0.4-0.4-1-0.4-1.3,0c0,0,0,0,0,0c-0.3,0.2-0.5,0.5-0.8,0.7c0.2-0.3,0.4-0.7,0.6-1H3.7C3.7,75.7,3.8,76.1,3.9,76.5z M9.1,72
	c-0.3-0.2-0.6-0.5-0.9-0.1C8,72.2,8,72.5,7.9,72.8c0.1,0,0.1,0,0.2,0C8.4,72.6,8.8,72.3,9.1,72c-0.3,0.9-0.3,0.9,0.4,0.9
	c-0.3,0.1-0.6,0.2-0.9,0.3c-0.3,0.3-0.5,0.6-0.6,0.9c0.3,0,0.6,0.1,0.9,0.2c0.1,0,0.1,0.1,0,0c0,0.4,0,0.8,0.1,0.9
	c0.5,0.3,0.7-0.1,0.8-0.5c-0.1-0.1-0.2-0.1-0.3-0.2c0.7-0.8,1.1-1.8,1.1-2.9C10,71.8,9.6,71.9,9.1,72L9.1,72z M16,94.9
	c0-0.1,0-0.1,0-0.2c0.2-0.1,0.4-0.1,0.6-0.1c1,0,2-0.1,3.1-0.1c1.1,0,2.2-0.1,3.3-0.2c0.2,0,0.5-0.2,0.5-0.3c0.1-1,0.2-2.1,0.2-3.2
	c-0.8,0.1-1.6,0.1-2.3,0.2c2.1-0.3,2.2-0.4,2.2-0.9c-1.3,0.1-2.6,0.2-3.9,0.3c-1.1,0.1-2.2,0.1-3.3,0.1c-0.5,0-0.7,0.2-0.7,0.7
	c0,0.8,0,1.6,0,2.5h-0.2v-3.1c-2.1-0.2-4.1-0.3-6.1-0.4c0,0.1,0,0.2,0,0.3c0.5,0.1,1,0.2,1.5,0.3v0.1H9.6v2.4c0,1,0,1,1,1.1
	c1.2,0.1,2.4,0.2,3.7,0.3v0.1H8.9c0.1,0.1,0.3,0.2,0.5,0.2c2.1,0.2,4.2,0.4,6.4,0.4c2.9,0,5.8-0.2,8.7-0.4c1.6-0.1,3.1-0.5,4.7-0.8
	c0.1-0.1,0.3-0.1,0.4-0.2c0-0.1,0-0.1-0.1-0.2C25,94.5,20.5,95,16,94.9z M32.2,7.4c-4,2.4-7.9,5.1-11.6,7.9c0.7,0.4,1.3,0.8,2,1.3
	c0.5,0.5,0.9,1.1,1.3,1.7C26.6,14.7,29.3,11.1,32.2,7.4z M32.6,7.7c-3,3.4-5.7,7.1-8.1,10.9c0.8,0.4,1.6,0.8,2.4,1.2
	c0.9-2,2-4,2.8-6.1S32.2,10,32.6,7.7z M31.4,20.7c0.4,0,0.9,0,1.3,0c0.4,0.1,0.8,0.2,1.2,0.4C33.7,17.1,33.4,13,33.2,9h-0.1
	c-0.8,4-1.6,8-2.3,12.1c0.1,0,0.2,0,0.2,0.1c0.1-0.3,0.2-0.6,0.4-1C31.4,20.4,31.4,20.6,31.4,20.7z M10.3,25.5c0.2,0,0.4,0,0.7,0
	c2.7-0.1,5.5-0.1,8.2-0.2c1.1,0,1.1-0.1,1.1-1.2v-0.7c-0.2,0-0.5,0-0.7,0.1v1.6c-0.1,0-0.1,0-0.2,0v-1.5h-9.1
	C10.3,24.3,10.3,24.9,10.3,25.5z M30.3,20.8c0.8-3.9,1.5-7.6,2.3-11.5c-1.7,3.7-3.3,7.3-5,10.9C28.7,20.1,29.6,19.8,30.3,20.8z
	 M36,19.9c0.9-0.3,1.7-0.6,2.5-0.9c-0.7-1.7-1.3-3.4-2.1-5.3c-0.8,2.3-1.7,4.3-1.3,6.7c0.3-0.3,0.5-0.6,0.8-0.9
	C35.9,19.6,35.9,19.7,36,19.9L36,19.9z M34.5,17.6c0.1,0,0.1,0,0.2,0.1c0.5-1.4,1-2.8,1.6-4.2c0-0.2,0-0.3,0-0.5
	c-0.3-0.6-0.6-1.2-0.9-1.8c-0.4-1-0.7-2-1.1-3c-0.1,0-0.2,0-0.3,0.1c0.1,2.7,0.3,5.4,0.7,8l0.7-2c0,0,0.1,0,0.1,0
	C35.2,15.4,34.9,16.5,34.5,17.6L34.5,17.6z M6.2,90c0,0.2,0,0.4,0,0.6c0,0.9,0,1.8,0,2.7c0,0.5-0.2,0.8-0.8,0.6
	c-0.8-0.2-1.6-0.4-2.4-0.6c0.8,1,2.2,0.4,3.1,1.2c0.2,0.2,0.8-0.1,1.2-0.2c-0.2-0.1-0.5-0.2-0.7-0.4c0-0.1,0-0.1,0.1-0.2
	c0.6,0.1,1.3,0.1,2,0.2c-0.1-1.1-0.1-2.1-0.2-3.2c0-0.2-0.3-0.3-0.5-0.4c-0.1,0-0.2,0.1-0.2,0.1v2.6H7.4c0-0.7,0-1.5,0-2.2
	c0.1-0.3-0.1-0.7-0.4-0.7c0,0-0.1,0-0.1,0C6.6,90.2,6.5,90.1,6.2,90z M23.2,89.7H12.6v-0.2c0.1-0.1,0.2-0.1,0.1-0.1
	C9.9,89,7,88.6,4.2,88.2c0,0,0,0.2,0.1,0.2c1.4,0.5,2.8,0.9,4.3,1.2c1.7,0.3,3.5,0.3,5.2,0.5C16.9,90.4,20,90.2,23.2,89.7L23.2,89.7
	z M20,14.9c3.9-2.6,7.8-5.2,11.7-7.8c0,0-0.1-0.1-0.1-0.1c-4,2.4-8.1,4.9-12.2,7.4C19.8,14.7,19.9,14.8,20,14.9z M23.8,94.2
	c0.7-0.2,1.4-0.3,2.1-0.5c0.1,0,0.2-0.1,0.2-0.2c0-1,0-2,0-2.9c-0.1,0-0.1,0-0.2,0c-0.5,0.8,0.1,2-0.6,2.8v-2.7
	c-0.5,0.1-1,0.2-1.5,0.2C23.8,91.9,23.8,92.9,23.8,94.2L23.8,94.2z M26.5,23.6C26,23.9,25,23,25,24.3c0-0.2-0.1-0.5-0.1-0.8h-2
	c-0.1,0.4-0.1,0.9-0.2,1.4c0,0.2,0.2,0.4,0.4,0.4c1.1,0,2.2-0.1,3.4-0.1C26.5,24.7,26.5,24.2,26.5,23.6L26.5,23.6z M31.3,25.6
	c-1,0-2,0-3,0c-2.5,0.1-5,0.2-7.4,0.3c-1.1,0-2.2,0-3.3,0h-6.9C14.6,26.5,30.7,26.2,31.3,25.6z M31.5,59.3c0.1,0,0.2,0,0.3,0
	c0-2.2,0-4.5,0-6.7c0.1-2.3,0.3-4.5,0.4-6.8c0.1-2.2,0-4.4,0-6.7h-0.1C31.9,45.8,31.7,52.6,31.5,59.3L31.5,59.3z M2.5,88.4
	c0.1,1.1,0.1,2.1,0.2,3.1c0.1,0.8,0,1.7,1.2,1.7c0,0,0.1,0,0.1,0c0-0.9,0-1.9,0-2.8C4,89.4,3.4,88.9,2.5,88.4z M5.7,86.4
	c0.8,0.6,7.5,1.4,9.1,1.1c-2.2-0.2-4.2-0.4-6.2-0.6c0.1-0.7-0.4-0.6-0.8-0.7c-0.1-0.2-0.2-0.5-0.4-0.6C6.7,85.3,6.3,85.5,5.7,86.4
	L5.7,86.4z M23,19.7c0.4-0.4,0.5-1,0.2-1.5c-0.7-1.4-2.2-2.2-3.8-1.8c0.8,0.3,1.5,0.8,2.1,1.3C22.2,18.2,22.6,18.9,23,19.7z
	 M28.8,89.9l-0.4-0.1c-0.2,1-0.2,2.1-0.2,3.1c0.2,0,0.4,0,0.6,0c0.3-0.1,0.7-0.3,0.7-0.5c0.1-0.9,0.2-1.9,0.2-3
	c-0.3,0.2-0.6,0.3-0.7,0.5C29,90.1,29,90.4,29,90.7c0,0.5-0.1,1-0.2,1.5c-0.1,0-0.2,0-0.2,0C28.7,91.4,28.7,90.6,28.8,89.9z
	 M27.1,21.6c1.2-0.6,2.1,0,2.9,0.9c0.5-1.3,0.2-1.4-0.7-1.5c-0.4-0.1-0.9-0.1-1.3-0.1C27.4,20.7,27.2,21,27.1,21.6z M6.8,25.6
	c0-0.7-0.1-1.2-0.1-1.8c-0.4,0-1-0.1-1.1,0.1c-0.2,0.4-0.2,0.9-0.1,1.3C5.7,25.5,6.3,25.5,6.8,25.6z M26.4,21.6
	c0.3-1.1,0.2-1.4-0.8-1.9c-0.7-0.4-1.3-0.3-2,0.4C24.8,19.9,25.9,20.5,26.4,21.6L26.4,21.6z M0.9,24.5c0,0.1,0,0.2,0,0.3
	c0.8,0.2,1.5,0.3,2.4,0.5c0-0.5,0-0.9-0.1-1.4C2.4,24.1,1.6,24.3,0.9,24.5z M9.3,94.2c0-1.1,0-2,0-2.9c0-0.4-0.2-0.6-0.7-0.6
	c0.1,1,0.1,2.1,0.2,3.1C8.8,93.9,9,94,9.3,94.2z M31.2,22c1.1-0.5,2,0,2.8,0.7c0.1-0.9-0.3-1.3-1.4-1.4C31.8,21.1,31.3,21.3,31.2,22
	z M35.2,22.8c0.3-1,1.7-1.3,1.7-2.6C35.7,20.5,35,21.6,35.2,22.8L35.2,22.8z M28.5,21.8c-0.7-0.3-1.4,0.1-1.7,1.1
	c0.4,0.1,0.8,0.1,1.2,0.2C28.2,22.7,28.4,22.2,28.5,21.8L28.5,21.8z M4.1,89.3c0,1.3,0,2.5,0,3.7c0,0.1,0.2,0.3,0.3,0.5
	C4.7,92.2,4.6,89.7,4.1,89.3z M9,83.4c0,0.5,0.1,0.8,0.1,1.1c0.4,0.1,0.8,0.1,1.2,0.1c0.1,0,0.2-0.5,0.3-1
	C10.1,83.6,9.6,83.5,9,83.4L9,83.4z M27.8,23.8c-1.1-0.4-1.2-0.2-1,1.4C27.6,25.3,27.6,25.3,27.8,23.8L27.8,23.8z M5.3,25.4v-1.6
	c-0.4,0-0.7,0.1-1,0.1v1.3C4.7,25.3,5,25.4,5.3,25.4z M30.5,24.2c-0.3,0.2-0.5,0.5-0.8,0.7c0-0.1-0.1-0.1-0.2-0.2
	c0-0.1,0.1-0.2,0.1-0.3c0-0.2,0-0.4,0-0.6c-0.2,0.2-0.5,0.3-0.6,0.5c-0.1,0.3-0.1,0.6-0.2,0.8C30.4,25.4,30.6,25.3,30.5,24.2
	L30.5,24.2z M5.5,93.6c0.1,0,0.2,0,0.3,0c0-1.1,0-2.2,0-3.3c0-0.2-0.2-0.3-0.2-0.5c-0.1,0-0.1,0-0.2,0.1C5.3,91.1,5.4,92.3,5.5,93.6
	L5.5,93.6z M8.5,78v-2.4C8.4,75.7,8,75.8,8,75.8c0,0.2,0.1,0.4,0.1,0.6c-0.1,0.4-0.1,0.9-0.1,1.3C8,77.8,8.3,77.9,8.5,78L8.5,78z
	 M27.8,90.1c-0.4,1-0.4,2.2,0,3.2V90.1z M33.7,5.3C34.2,5,35,1.6,34.7,1C34.4,2.5,34,3.8,33.7,5.3L33.7,5.3z M26.7,90.3
	c-0.5,0.4-0.6,2.7-0.2,3.3C26.6,92.5,26.6,91.5,26.7,90.3z M27.3,90.3c-0.1,0-0.3,0-0.4,0c0,1,0,2.1,0,3.1c0.1,0,0.2,0,0.2,0
	C27.2,92.4,27.3,91.3,27.3,90.3L27.3,90.3z M9.6,23.6c-0.1,0-0.1,0-0.2,0.1c0,0.5,0,1.1,0,1.7c0,0.1,0.1,0.2,0.2,0.3
	c0.1-0.1,0.3-0.2,0.3-0.3c0-0.5,0-0.9,0-1.4C9.9,23.8,9.7,23.7,9.6,23.6z M20.6,25.5c0.4-0.5,0.6-1.3,0.4-2c-0.1-0.1-0.4,0-0.4,0
	C20.6,24.2,20.6,24.8,20.6,25.5z M9.9,82.8l0.1-0.1c0.1,0,0.2,0,0.3,0c0.1,0,0.2-0.1,0.4-0.2c-0.1-0.1-0.2-0.2-0.3-0.3
	c-0.1-0.1-0.2-0.1-0.3-0.1c-0.3,0-0.7,0.1-1,0.2C9.3,82.4,9.6,82.6,9.9,82.8z M4.1,25.3V24C4,24,4,23.9,3.9,23.9
	c-0.1,0.2-0.4,0.3-0.4,0.5C3.5,24.8,3.4,25.3,4.1,25.3z M9.8,82.7c0,0,0,0.1,0,0.1c-0.1,0-0.2,0-0.3,0C9.3,82.8,9.1,82.9,9,83
	c0.1,0.1,0.2,0.2,0.3,0.3c0.1,0,0.2,0,0.3,0c0.3,0,0.6-0.1,1-0.2C10.3,83,10.1,82.8,9.8,82.7z M9,25.6c0.3-1,0.2-1.7-0.2-2
	C8.8,24.3,8.6,25,9,25.6z M5,93.4C5,93.4,5,93.4,5,93.4l0-3.6H4.8C4.8,90.9,4.9,92.1,5,93.4L5,93.4z M8.3,23.6
	c0,0.6-0.2,1.3,0.2,1.9C8.5,24.8,8.8,24.2,8.3,23.6L8.3,23.6z M23.9,90.3c0.5,0.2,1.2,0,1.5-0.4C24.8,89.7,24.3,89.9,23.9,90.3z
	 M30.7,89h-0.1c-0.1,1.1-0.2,2.2-0.3,3.3c0.1,0,0.2,0,0.2,0C30.7,91.2,30.7,90.1,30.7,89z M21.2,25.2c0.1,0,0.2,0,0.3,0
	c0-0.5,0.1-1,0.1-1.5c0-0.1-0.1-0.1-0.2-0.2c-0.1,0.1-0.2,0.2-0.2,0.3C21.2,24.3,21.2,24.7,21.2,25.2z M7.4,89.9c0-0.1,0-0.2,0-0.2
	c-0.7-0.2-1.3-0.3-2-0.5c0,0.1,0,0.2-0.1,0.2C6.1,89.3,6.6,90.1,7.4,89.9z M7.9,68.8v0.1h2.4c0,0,0-0.1,0-0.1H7.9z M9.4,69.5v-0.2H8
	c0,0.1,0,0.2,0,0.3C8.4,69.5,8.9,69.5,9.4,69.5L9.4,69.5z M35.3,1.4c0,0-0.1,0-0.2,0c-0.2,0.7-0.3,1.4-0.5,2.1c0.1,0,0.1,0,0.2,0
	C35,2.9,35.2,2.1,35.3,1.4z M7.9,23.7H7.8v1.7h0.1V23.7z M22.4,23.5h-0.1v1.7h0.1V23.5z M22,23.7h-0.2c0,0.5,0,1-0.1,1.6H22V23.7z
	 M9.1,84.7c0,0.1,0,0.2-0.1,0.4l1.3,0.1c0-0.1,0-0.1,0-0.2C9.9,84.8,9.5,84.8,9.1,84.7z M9.1,85.3c0,0.1,0,0.2,0,0.2
	c0.4,0.2,0.8,0.3,1.2,0.2c0-0.1,0-0.2,0-0.2C9.9,85.4,9.5,85.4,9.1,85.3z"/>
</svg>
