<?xml version="1.0" encoding="utf-8"?>
<!-- Generator: Adobe Illustrator 22.0.1, SVG Export Plug-In . SVG Version: 6.00 Build 0)  -->
<svg version="1.1" id="Layer_1" xmlns="http://www.w3.org/2000/svg" xmlns:xlink="http://www.w3.org/1999/xlink" x="0px" y="0px"
	 viewBox="0 0 62.7 72.6" style="enable-background:new 0 0 62.7 72.6;" xml:space="preserve">
<style type="text/css">
	.st0{fill:#FFCB3E;}
</style>
<g id="Group_1193" transform="translate(-2450.62 3762.769)">
	<path id="Path_1405" class="st0" d="M2484.4-3728.3c-0.1,0.2-0.1,0.4-0.2,0.6c1.4-0.1,2.8-0.2,4.2-0.2c0,0.1,0,0.2,0,0.2
		c-0.7,0.1-1.4,0.3-2,0.3c-0.8,0.1-1.7,0-2.5,0.1c-0.5,0.1-0.9,0.3-1.3,0.6c0.2,0.2,0.3,0.3,0.4,0.3c1.7-0.1,3.3-0.3,5-0.4
		c0.7-0.2,1.4-0.3,2.2-0.3c1.5,0.1,1.8-1.2,2.8-2.3c-1.7,0.2-3.1,0.3-4.5,0.4c0-0.1,0-0.2-0.1-0.3c0.2-0.1,0.5-0.2,0.8-0.3
		c2.7-0.4,5.4-0.7,8-1.1c1.1-0.2,2.1-0.4,3.2-0.7c0.5-0.2,0.9-0.4,1.3-0.8c-7.8,0.7-15.6,1.6-23.4,1.3c-7.8-0.3-15.7,0.1-23.6-1.4
		c0.3,2.9,0.7,5.7,1.1,8.7c-1.6-1-1.3-2.7-1.6-4.2c-0.4-1.9-0.8-3.8-1.1-5.8c-0.2-1.2-0.1-1.6,1-1.9c1.3-0.4,2.7-0.5,4.1-0.8
		c0.6-0.1,1.3-0.2,2.1-0.4c-0.9-0.5-1.6-0.9-2.5-1.5c0.8-0.3,1.4-0.6,2-0.9c-0.4-0.6-1-1-1.7-1c-0.5-0.1-1-0.3-1.4-0.6
		c-0.6-0.5-1.2-1-1.6-1.7h2.4c0-0.1,0.1-0.1,0.1-0.2c-0.4-0.4-0.9-0.7-1.4-1.1c0-0.1,0.1-0.3,0.3-0.6c-0.9-0.3-1.8-0.6-2.8-0.9
		c0.9-0.9,2.1-1.4,3.4-1.2c-1.6-1.1-3.3-2.2-5-3.3c0-0.1,0-0.2,0.1-0.3c0.5-0.1,1-0.3,1.8-0.5c-0.8-0.5-1.4-1-2.1-1.5
		c0.8-0.2,1.3-0.4,2.1-0.7c-0.7-0.9-1.3-1.8-2.1-2.8h2.2c-1.6-2.1-2.8-4.6-3.3-7.2c1.8,1.6,3.4,3.4,4.6,5.4
		c-0.1-0.7-0.1-1.1-0.1-1.6c0-0.9,0.1-1.7,0.1-2.6c0-0.2,0.3-0.4,0.5-0.4c0.1,0,0.3,0.2,0.4,0.4c0.4,0.6,0.7,1.1,1,1.7
		c0.4,0.8,0.6,1.7,1,2.6c0.3-0.5,0.7-1,1.1-1.6c0.4,1.4,0.8,2.6,1.2,3.8c0.9,0.9,0.7,2.3,1.3,3.5c0.3-1.8,0.5-3.4-0.4-4.9
		c-0.3,0.5-0.6,0.9-0.9,1.4c0.3-0.8,0.6-1.6,0.9-2.4c0.1,0,0.2,0,0.3,0.1c0.8,1.9,1.1,4,0.8,6c0.3-0.2,0.6-0.4,1.1-0.8
		c0.1,1.1,0.2,1.9,0.3,2.8c0.9,0.2,0.3,1.3,0.9,1.9c0.9-0.8,1-1.2,0.4-2.2c-0.4-0.6-0.3-1.4,0.2-1.8c0.1-0.2,0.3-0.3,0.4-0.4
		c0.4-0.3,1-0.6,1.1-1c0-0.8-0.1-1.5-0.3-2.2c-0.2-1.3-0.3-2.6-0.4-4c0-0.3,0.1-0.6,0.3-0.8c1-0.9,2.5-1.1,3.7-0.4
		c0.4,0.5,0.7,1.1,0.8,1.7c0.6,3.3,1.2,6.7,1.8,10c0.7,3.4,1.4,6.8,2.1,10.2h7.3c0.8,0,1.6-0.2,2.4-0.1c0.8,0.1,1.1-0.4,1.1-1.1
		c0.2-2.7,1.2-5.4,2.8-7.6c3-4.2,8.2-6.2,13.3-5.1c4.9,1.3,8.2,4.6,10.2,9.5c0.9,2.3,1.4,4.7,1.4,7.2c-0.1,1.8-0.5,3.6-1.2,5.3
		c-0.2,0.6-0.7,0.9-1.3,0.8c0,0-0.1,0-0.1,0c-2.2-0.6-4.4-1.2-6.6-1.8c-0.3-0.1-0.6-0.1-0.8-0.1c-0.2,2-0.3,3.9-0.5,5.8
		c-0.3,2.6-0.6,5.2-1,7.7c-0.7,4.2-1.1,8.5-1.2,12.7c0,2.9-0.4,5.7-1.3,8.4c-0.5,1.2-1.5,2.2-2.8,2.7c-4,2-8.3,3.2-12.7,3.5
		c-1.3,0.1-2.6,0.2-4,0.3c-0.3,0-0.6-0.2-0.9-0.3c0.2-0.2,0.5-0.3,0.7-0.6c0.2-0.3,0.5-0.6,0.7-1c-0.1-0.1-0.1-0.2-0.2-0.3
		c-2.7-0.2-5.4-0.4-8-0.6c-0.3,0.9,0.1,1.1,0.7,1.2l4.4,0.3c0.3,0,0.6,0,1,0.1c0.2,0.8,0,1.3-0.8,1.2c-3.4-0.2-6.9-0.6-10.2-1.4
		c-2.2-0.5-4.3-1.3-6.4-2.4c-1.5-0.8-2.5-2.4-2.6-4.1c-0.4-3.5-0.9-7.1-1.4-10.6c-0.3-2-0.5-3.9-0.8-5.9c-0.2-1.7-0.5-3.4-0.8-5.2
		c0-0.2,0-0.4-0.1-0.7c-0.1-1.1-0.2-2.2-0.3-3.4c0.6,0.5,1,1.2,1.2,2c0.2,1.8,0.5,3.5,0.7,5.3c0.4,2.8,0.9,5.7,1.3,8.6
		c0.2,1.6,0.4,3.3,0.7,4.9c0.1,0.5,0.4,0.9,0.8,1.2c0.1-1.3-0.7-2.5-0.1-3.9c-1-0.6-0.6-1.9-0.8-3c-0.3-1.7-0.4-3.4-0.6-5.1
		c-0.3-2.5-0.7-5.1-1-7.6c-0.1-0.4-0.2-0.8-0.3-1.2c0.4,0.2,0.7,0.4,1,0.6c-0.1-0.6-0.1-0.9-0.1-1.3c2.3,0.9,4.7,1.6,7.2,1.9
		c0-0.1,0.1-0.2,0.1-0.3c-2.2-0.6-4.3-1.2-6.5-1.8c0-0.1,0-0.2,0.1-0.3c2.1,0.5,4.2,1,6.2,1.5c0-0.1,0.1-0.3,0.1-0.4
		c-2.4-0.9-5-1-7.1-2.4c1.1,0.3,2.3,0.5,3.5,0.6c1.1,0,2.3,0.7,3.4,0v-0.4l-2.2-0.1c-0.7,0-1.4-0.1-2.2-0.1v-0.2h4.1v-0.2l-3-0.3
		c0-0.1,0-0.2,0-0.3c0.3,0,0.6-0.1,1.1-0.2c-0.6-0.2-1-0.4-1.5-0.5c0,0,0-0.1,0-0.1h1.9c0.5,0.1,1,0.1,1.7,0.2
		c-0.6-0.8-1.2-0.8-1.7-0.2c0.1-0.4,0.3-0.8,0.4-1.3c-0.2-0.1-0.5-0.2-0.8-0.3v-0.1h2.3c0.4,5.1,0.7,10.3,1.1,15.5
		c-0.3-0.1-0.7-0.2-1.1-0.2c-0.2,0.1-0.4,0.4-0.6,0.7c0.6,0.2,1.2,0.3,1.7,0.5c-0.8,0.6-1.8-0.5-2.5,0.4l0,0v-0.6
		c-1.4-0.4-2.7-0.8-4-1.2l-0.2,0.1c0.2,0.3,0.4,0.6,0.6,0.9c0.1,0.2,0.3,0.3,0.5,0.4l0,0c-0.2,0-0.5-0.1-0.7-0.2
		c-0.1,0.1-0.1,0.1-0.2,0.2c0.1,0.3,0.3,0.6,0.5,0.9c0.3,0.2,0.6,0.4,0.9,0.5c-0.4-0.1-0.8-0.1-1.2-0.2c0.1,0.8,0.1,1.6,0.2,2.3
		c0,0.2,0.3,0.3,0.5,0.5c-0.2,0.1-0.3,0.2-0.5,0.3c0.2,0.2,0.3,0.6,0.5,0.7c0.7,0.3,1.4,0.6,2.2,0.8c1.3,0.3,2.5,0.6,4,0.9
		c-0.2,0.2-0.4,0.4-0.6,0.7c0.2,0.1,0.4,0.2,0.7,0.4c-0.5,0.2-1,0.3-1.5,0.5c-0.1-0.2-0.3-0.5-0.4-0.6c-0.6-0.2-1.2-0.3-1.8-0.5
		c-0.9-0.2-1.7-0.5-2.6-0.7c0,0.4,0.1,0.6,0.3,0.7c0.9,0.4,1.8,0.7,2.8,1c0.6,0.1,1.2,0.7,1.8,0c0.4,1,0.9,0.5,1.4,0.2
		c0.2,0.2,0.5,0.4,0.6,0.4c0.6-0.4,0.9-1.1,0.6-1.8c-0.2,0.4-0.4,0.6-0.5,0.9c-0.1,0-0.1-0.1-0.2-0.1c0.2-0.3,0.4-0.7,0.5-1
		c0.1-0.3,0.1-0.6,0.1-1c-0.1-1.1-0.3-2.2-0.5-3.2c-0.1-0.8-0.4-1.6-0.6-2.5c0-0.2,0-0.4,0-0.7c0.1-1.2,0.1-2.3,0.1-3.5
		c-0.1-0.3-0.1-0.6-0.3-0.8c0.1-0.2,0.3-0.4,0.3-0.7c0-1.8-0.1-3.6-0.2-5.3c-0.1-1-0.3-1.9-0.4-2.9c0-0.4,0-0.9,0.1-1.3
		c-0.1-0.1-0.3-0.2-0.5-0.4c0-0.1,0-0.2,0-0.3c1.4,0.4,2.7,1.7,4.3,0.2c-0.6-0.1-1-0.2-1.5-0.3h1.2c0-0.4,0-0.8,0.1-0.9
		c0.2,0.3,0.5,0.9,0.9,1.2c0.4,0.2,1,0,1.6,0c1.1,0,2.3,0,3.4,0c1.8,0,3.6,0.1,5.3,0.2c0.9,0.1,1.8-0.3,2.4-1
		c-0.1,0.3-0.2,0.5-0.3,0.8l0.1,0.1C2483.6-3727.8,2484-3728,2484.4-3728.3z M2475.9-3735.5c0.2,0.6,0.3,1.2,0.5,1.8
		c0.1,0,0.3,0,0.5,0.1c0.7-0.1,1.4-0.2,2.2-0.3v-1.8c0.1,0.5,0.2,1,0.3,1.5c0.1,0.2,0.4,0.3,0.6,0.4c0,0,0.3-0.3,0.3-0.5
		c-0.1-0.8-0.2-1.6-0.3-2.4h-3.4c0.1,1.1,0.1,2.1,0.2,3c-0.1-0.6-0.3-1.2-0.4-1.8c-0.1-0.4-0.1-0.8-0.2-1.2c-0.1,0-0.2,0-0.3,0
		L2475.9-3735.5c-0.1-0.4-0.2-0.7-0.3-1.1c-0.1,0-0.2,0-0.3,0.1l0.5,2.9h0.1C2475.9-3734.3,2475.9-3734.9,2475.9-3735.5z
		 M2487-3722.7c0,0.9,0.6,0.5,0.9,0.5c0.8-0.1,0.6-0.7,0.5-1.3L2487-3722.7c0.3-0.2,0.6-0.3,0.9-0.5c-0.1-0.1-0.2-0.2-0.3-0.4
		c-0.7-0.1-1.4,0.2-1.8,0.8c0.1-0.2,0.1-0.5,0.2-0.7c-1.3-0.1-2.6-0.2-3.8-0.2c0.2-0.2,0.5-0.3,0.8-0.4c1.7,0,3.3,0.1,5,0.1
		c0.6,0,0.6,0,0.4-0.8c-3.2,0.3-6.3,0-9.4-0.8c0.4,0,0.8,0,1.2,0.1c0.9,0,1.8,0.6,2.7-0.2c0.1,0.2,0.2,0.5,0.4,0.6
		c0.3,0,0.7-0.1,1-0.1c1.2,0,2.4,0.1,3.6,0.1c0.2,0,0.4-0.3,0.6-0.4c-0.2,0-0.4-0.1-0.6-0.2c-0.7-0.3-1.6,0.5-2.1-0.6l4.6,0.1
		c0.1,0,0.2,0,0.3-0.1c0.1-0.2,0.2-0.4,0.3-0.6c-0.2-0.1-0.4-0.1-0.5-0.1c-0.5,0-0.9,0.2-1.4,0.2c-1.1,0.2-2.3,0.3-3.4,0.5
		c-0.4,0.2-1,0.7-1.2,0.6c-0.7-0.7-1.2,0-1.8,0c-0.2-0.1-0.4-0.3-0.6-0.3c-1.4-0.1-2.8-0.1-4.1-0.2c-0.5,0-1.1,0-1.7,0
		c0.2,0.6,0.3,0.9,0.4,1.3l-0.2,0.1c-0.2-0.6-0.4-1.1-0.7-1.7c-0.1-0.3-0.3-0.7-0.5-0.7c-1.1-0.2-2.2-0.1-3.2-0.3
		c-1.2-0.2-2.1,0.6-3.1,0.8c-0.8,0.2-1.6,0.4-2.4,0.6c0.2,0.6,0.3,1.1,0.4,1.6c0.2,0,0.4,0.1,0.5,0.1c-0.2,0.1-0.4,0.2-0.6,0.4
		c0.1,0.1,0.1,0.2,0.2,0.3c1.4-0.4,2.1-1.9,3.5-2.4c-0.7,1.2-1.3,1.7-3.7,2.9c0,0.4,0,0.8,0,1.1c0.3,4.3,0.6,8.5,1,12.8
		c0.1,0.5,0.2,1.1,0.4,1.6c0.2,0.6,0.3,1.1,0.5,1.7c0.4,0.8,0.7-0.3,1.2-0.1c-1.7,1.2-0.5,2.7-0.6,4.4c0.6-0.6,1-1,1.5-1.5
		c-0.5,1.3-1.7,2.1-2,3.6c-0.9-0.1-1.8-0.2-2.6-0.3c-2.1-0.4-4.2-1-6.4-1.5c-0.1,0-0.2,0.1-0.3,0.2c-0.1-0.1-0.2-0.1-0.3-0.1
		c-0.4,2.2,1,4.2,3.1,4.7c0.2-1.5,0.2-1.6-0.9-2.5c-0.5-0.4-1.1-0.8-1.7-1.2c-0.2-0.2-0.2-0.6-0.3-0.9c0.1,0,0.2,0,0.3,0.1
		c1.2,0.8,2.4,1.4,3.7,1.9c2.8,0.8,5.6,1.4,8.5,2c1.1,0.2,2.2,0.3,3.2,0.4c1.1,0.1,2.1,0.1,3.1,0.2c0,0,0,0.1,0,0.1
		c-4.6-0.8-9.2-1.7-13.7-2.5c0-0.1,0-0.2,0-0.3c1.8,0.3,3.6,0.6,5.4,0.9c3.7,0.8,7.4,1.1,11.2,1.1c4.7,0.1,9.3-0.7,13.7-2.3
		c1-0.4,2.1-0.8,3.1-1.2c0-0.1,0-0.3,0.1-0.5c0-0.2,0.1-0.3,0.2-0.7c-3.4,2.4-7.1,2.3-10.9,2.4c2.9-0.6,5.7-1.5,8.4-2.6
		c-0.7,0.1-1.3,0.2-2,0.4c-1.2,0.5-2.4,0.8-3.7,0.9c-1.2,0-2.3,0.7-3.6,0.4c-0.8-0.1-1.7-0.1-2.5,0c0.3-0.2,0.6-0.3,0.9-0.2
		c0.8,0.1,1.2-0.3,1.2-1.2c0-0.6,0.2-1.2,0.2-1.8c0.1-2,0.3-4,0.4-6c0-1,0-2.1,0-3.1h0.2v8.5c0.3,0,0.6-0.1,0.8-0.1
		c0.1-2.3,0.1-4.5,0.2-6.7c0.1-2.2,0.3-4.4,0.4-6.9c-0.3,0.6-0.5,0.9-0.8,1.5v-1.2c-0.5,0-1.1,0.1-1.7,0.2c-0.1-0.1-0.3-0.3-0.5-0.5
		c0.3-0.2,0.5-0.5,0.9-0.8c-0.1-0.1-0.1-0.2-0.2-0.3c-0.7,0.4-1.3,0.8-2,1.2c0,0,0-0.1-0.1-0.1c0.3-0.3,0.6-0.6,0.9-1
		c-0.4,0-0.6-0.1-0.9-0.1c0.1-0.2,0.3-0.4,0.5-0.4c0.5,0,1,0,1.4,0l1.8-0.1c0,0,0,0.1,0.1,0.3c0.1-0.2,0.3-0.5,0.4-0.7
		c-0.1-0.1-0.2-0.2-0.3-0.4c-0.7,0.3-1.4,0.6-2.1,0.9c0.1-0.2,0.2-0.4,0.5-0.8c-1.1,0.1-2.1,0.3-2.8,0.4c-0.4-0.2-0.7-0.5-1.1-0.7
		c0.3-0.3,0.7-0.6,1.1-0.8c0-0.1-0.1-0.2-0.1-0.2h-1.4c0.7-0.4,1.1-0.7,1.8-1.1c-0.3,0.4-0.5,0.6-0.7,0.8c0,0.1,0.1,0.2,0.1,0.3
		c0.6-0.3,1.2-0.5,1.8-0.8c-0.1,0.2-0.2,0.4-0.3,0.5c0,0.1,0.1,0.2,0.1,0.2C2485.9-3722.2,2486.5-3722.4,2487-3722.7z
		 M2463.1-3704.8c0.9,0.1,1.8,0.2,3,0.3C2465-3705.6,2463.8-3705.6,2463.1-3704.8c0-0.3,0.1-0.8,0-0.8c-0.9-0.4-1.8-0.7-2.7-1
		c-0.1,1.1,0.6,1,1.1,1.2C2462-3705.2,2462.5-3705,2463.1-3704.8z M2462-3746.7c0.8-0.2,1.2-1,1.1-2.2c-0.3,0.6-0.7,1.1-1,1.8
		c0.3-1.2,0.7-2.3,1-3.5c-0.1,0-0.2-0.1-0.3-0.1c-0.7,1.4-1.3,2.8-1.9,4.2c-0.1,0.2,0.3,0.5,0.4,0.8
		C2461.5-3746.1,2461.7-3746.4,2462-3746.7z M2495.1-3703.5c-0.1,0.3-0.3,0.7-0.4,1.1c0.5-0.1,1-0.3,1.5-0.5
		c0.2-0.1,0.3-0.3,0.4-0.5c0.1-0.9,0.1-1.8,0.2-2.8c-0.3,0.3-0.7,0.6-1,0.8c1-0.9,1.5-2.2,1.3-3.5c-1.3,1.4-2.7,2.7-4.1,4.2
		c0.3,0,0.6-0.1,0.9-0.1c-0.1,0.2-0.3,0.4-0.5,0.5c-0.4,0.2-0.8,0.3-1.2,0.5c-0.3,0.1-0.5,0.1-0.8,0.1c-0.6-0.1-0.8,0.2-0.7,1
		c1.4-0.8,3.1-0.4,4.1-1.9c0.3-0.3,0.6-0.6,0.9-0.9c-0.2,0.2-0.4,0.5-0.6,0.8c-0.1,0.3-0.2,0.6-0.2,0.9c-0.6,0.4-1.2,0.8-1.8,1.1
		c0-0.1,0.1-0.3,0.1-0.6c-0.6,0.2-1.2,0.4-1.9,0.5c-0.8,0.1-0.9,0.5-0.7,1.2C2492.3-3701.7,2494-3701.8,2495.1-3703.5L2495.1-3703.5
		z M2461.9-3717L2461.9-3717c-1-0.5-2-1-3.1-1.5c0.2,1.3,0,2.6,1.3,2.8c-0.3,0-0.6-0.1-0.9-0.1c0,0.1,0,0.2-0.1,0.3
		c1.1,0.4,2.2,0.8,3.4,1.2c0-0.1,0-0.2,0.1-0.2c-0.5-0.3-0.9-0.6-1.4-0.8c0.8,0,1.7,1,2.4-0.2c-0.3,0.6-0.2,1,0.5,0.9
		c0.2,0,0.3,0.1,0.5,0.1c0.3,0,0.5-0.1,0.8-0.1c-0.1-0.3-0.3-0.6-0.4-0.8c-0.1-0.1-0.2-0.2-0.2-0.4l0.5-0.4
		c-0.1-0.1-0.3-0.2-0.5-0.3c-0.3-0.1-0.7-0.2-1.1-0.2C2463.1-3716.9,2462.5-3717,2461.9-3717z M2509.1-3743c0.1,0.3,0.1,0.7,0.2,1
		c0.8,1.9,0.4,2.8-1,3.7c-0.1,0,0,0.3-0.1,0.4c-0.4,0.3-0.8,0.5-1.2,0.7c-1.4,0.6-2.8,1.2-4.3,1.9c1.3,0.6,1.3,0.6,0.9,2
		c0,0.3-0.1,0.6-0.1,0.8c1.2,0.3,2.4,0.7,3.5,0.9c1.3,0.2,1.8-0.1,2.4-1.4c0.7-1.5,1-3.2,0.8-4.8c0.1,0,0.2,0.1,0.2,0.2
		c0.5,0.9,0.2,1.8,0.1,2.8c-0.3,1.6-0.4,3.3-2.2,4c0.5,0,1.3,0.1,1.4-0.1c0.7-1.4,1.2-3,1.5-4.6c0.4-3.2-0.3-6.5-2-9.2
		c-0.3-0.4-0.6-0.7-0.9-1c-0.2-0.4-0.5-0.8-0.7-1.2c-1.2-2.2-3.4-3.6-5.8-4c-1.4-0.3-2.8-0.4-4.3-0.5v-0.1l2.2-0.1
		c0-0.1,0-0.2,0-0.2c-1.6,0.1-3.2,0.3-4.8,0.8c-1.4,0.7-2.6,1.6-3.8,2.7c-0.9,0.7-1.8,1.5-2.6,2.3c-1.6,2-1.9,4.6-2.2,7.2
		c-0.1,0.8,0,1.5,1.1,1.6c0.5,0,1,0.1,1.5,0.3c2.9,0.9,5.8,1.8,8.8,2.7c0.4,0.1,0.9,0.1,1.3,0.2c-0.2-0.5-0.4-0.9-0.6-1.2
		c-1,0.1-2-0.1-2.9-0.5c-0.1,0-0.2,0-0.3-0.1c-2-0.6-4-1.1-6-1.7c-0.6-0.3-1.1-0.7-1.6-1.1c3.1,1,6.3,2,9.4,3
		c-1.6-2.3-3.1-4.7-4.7-7.1c-0.3,1-0.3,1-0.7,0.7c0.1-0.3,0.3-0.5,0.3-0.7c0-1.2-0.9-1.9-1.5-2.7c-0.1-0.1-0.6,0-0.7,0.2
		c-1.1,2.1-1.8,4.3-2.1,6.7c-0.7-0.4-0.6-0.9-0.4-1.5c0.6-1.6,1.2-3.1,1.8-4.7c0.5-1.4,0.7-1.5,1.8-0.8c0,0,0.1,0,0.2,0
		c0-0.3,0.1-0.5,0.2-0.8c0.8-1.7,4.3-3.7,6-3.4c0.5,0.1,1,0.3,1,1c0,0.2,0.1,0.3,0.1,0.2c0.6-0.3,1.1-0.5,1.7-0.7
		c1.8-0.2,3.3,0.7,4.8,1.6c1,0.6,1,1.4,0.4,2.4c-0.1,0.2-0.3,0.5-0.4,0.8c1.2-0.9,2.4-1.4,3.5,0.1
		C2508.6-3744,2508.8-3743.5,2509.1-3743z M2493.4-3719.3c-0.1-0.2-0.2-0.5-0.3-0.5c-0.7,0.1-1.3,0.2-2,0.4c-0.1,0-0.3,0.3-0.3,0.5
		c0,0.1,0.3,0.4,0.3,0.4C2491.8-3719,2492.9-3718.3,2493.4-3719.3c0,0.7,0.4,0.4,0.8,0.3c0.7-0.2,1.4-0.2,2.1-0.4c0,0.1,0,0.2,0,0.4
		c-0.6,0.1-1.2,0.2-1.8,0.3c-1.6,0.3-1.6,0.3-2,1.1l1.1-0.1c0,0.1,0,0.2,0,0.2c-0.9,0.3-1.9,0.1-2.4,1.3c0-0.3,0.1-0.6,0.1-0.9
		c-0.2,0-0.4,0.1-0.4,0.1c-0.3,1.5,0.2,3-0.1,4.4c0,0.1,0.3,0.2,0.5,0.3c-0.2,0.3-0.6,0.8-0.5,1c0.4,0.6-0.1,1.1-0.1,1.7
		c0,0.9,0,1.9,0,2.9c0.1,0.3,0.2,0.5,0.3,0.8c0,0.1-0.2,0.4-0.3,0.6c0.3,0,0.5,0,0.8,0c0.4-0.2,0.7-0.4,1-0.7
		c0.1,0.7,0.4,0.7,0.8,0.2c0.8-1,1.7-1.9,2.6-2.8c1-1,1.6-2.4,1.6-3.8c0.1-0.5-0.2-1.1,0-1.4c0.8-1,0.4-2.1,0.5-3.2
		c0.3-2.1,0.4-4.3,0.7-6.5c0.1-0.4,0.1-0.7,0.2-1c-1-0.3-1.5,0.3-2.1,0.8c0.1-0.2,0.1-0.5,0.2-0.7c-1.3,0.2-2.6,0.3-3.9,0.5
		c-0.4,0.1-0.8,0.6-1.1,0.9c0.1,0.1,0.1,0.2,0.2,0.3c0.5,0,1-0.1,1.4-0.2c1.1-0.2,2.3,0.1,3.3-0.9c0.1,0.2,0.2,0.4,0.3,0.4
		c0.3,0,0.7,0,1,0c-0.9,0.4-1.7,0.7-2.5,1c-0.2-0.1-0.3-0.4-0.5-0.4c-1,0.1-2,0.2-3,0.3c-0.5,0.1-0.7,0.4-0.5,1c1.3-0.5,2.8,0,4-1
		c0.2,0.2,0.4,0.5,0.6,0.7l-1.6,0.6c-1.1-0.1-2.3-0.2-3.1,0.6c-0.2-0.1-0.5-0.3-0.6-0.2c-0.2,0.3-0.3,0.5-0.4,0.8
		c1.1-0.1,2-0.2,2.9-0.3c0.2,0,0.4-0.4,0.7-0.5c0.2-0.1,0.4-0.3,0.6-0.4c-0.1,0.2-0.2,0.4-0.3,0.7h1.9
		C2495.5-3719.9,2494.3-3720.1,2493.4-3719.3z M2498.1-3735.7c0.4-0.6,0.7-0.9,1-1.3c1.4-2,2.8-4,4.1-6c0.5-0.8,1.5-1.3,1-2.4
		c0.2,0,0.4,0,0.5,0c0-0.3,0-0.6,0-0.9c-0.4,0.2-0.3-0.1-0.3-0.4c0-0.2-0.1-0.5-0.3-0.6c-0.9-0.7-1.9-1.2-2.9-1.7
		c-1.7-0.6-2.1-0.3-2.6,1.6c0,0.2,0,0.3-0.1,0.5c-0.2,1.3-0.3,2.7-0.6,4C2497.5-3740.4,2497.5-3738,2498.1-3735.7L2498.1-3735.7z
		 M2501.3-3735.6c0.5,0,1-0.1,1.4-0.2c1.9-1,3.8-2,5.6-3c0.8-0.3,1.3-1.2,1-2c0,0,0-0.1,0-0.1c-0.5-1.3-1.2-2.6-1.9-3.8
		c-0.1-0.2-0.6-0.2-0.8-0.1c-1.9,1.1-3.2,2.9-4.5,4.7c-0.4,0.4-0.4,1.2,0,1.6c0,0,0,0,0,0c-0.3-0.1-0.6-0.2-0.9-0.2
		c-0.6,1.3-2.1,2.2-2.1,4.1c0.8-0.1,1.5-0.2,2.3-0.3C2501.4-3735.2,2501.3-3735.4,2501.3-3735.6L2501.3-3735.6z M2497-3736.8
		c0.2-1.2,0.4-2.5,0.4-3.8c0-2.7-0.1-5.3-0.2-8c0-0.1,0-0.2,0-0.3c-0.2-0.2-0.5-0.5-0.7-0.5c-1.7,0.2-3.2,1.1-4.3,2.4
		c-0.5,0.6-0.6,1.5-0.2,2.3c1,1.7,2,3.4,3,5.1C2495.5-3738.6,2496.2-3737.7,2497-3736.8L2497-3736.8z M2489.7-3693
		c0-0.1,0-0.1,0-0.2c1.4-0.6,2.7-1.1,4.1-1.7c0.3-0.1,0.4-0.5,0.6-0.8c-0.1-0.1-0.1-0.2-0.2-0.2c-4.4,1.2-9,1.7-13.6,1.3v1.8h3.2
		v0.4c-0.8,0-1.6,0.1-2.4,0.1c-0.3,0.1-0.5,0.2-0.8,0.4c0.3,0.2,0.5,0.5,0.8,0.4c2.8-0.3,5.6-0.6,8.4-1.1c1.3-0.3,2.6-0.7,3.9-1.2
		l-0.1-0.3C2492.3-3693.6,2491-3693.3,2489.7-3693z M2499.5-3719.3c0.1,0,0.1,0,0.2,0c0.6-4,1.2-8,1.7-11.9c-2.6,0.7-5.1,1.3-7.6,2
		v-0.8c-0.6,0.9-1.2,1.6-1.7,2.3c0,0,0.1,0.1,0.1,0.1c0.2-0.1,0.4-0.2,0.8-0.4c-0.4,0.6-0.6,0.9-0.9,1.4c2.3-0.2,4.4-0.5,6.6-0.7
		c0,0.1,0,0.2,0.1,0.3c-1.4,0.5-3,0.1-4.3,1.1c0.3,0.1,0.6,0.1,0.9,0c0.8-0.2,1.7-0.7,2.5-0.4c1.4,0.4,1.4-0.6,1.6-1.4
		c0.2-0.7,0.1-1.4,0.3-2.1c0-0.2,0.4-0.3,0.6-0.4c0.1,0.2,0.2,0.4,0.2,0.7c0,0.4-0.2,0.9-0.2,1.3c-0.2,1.5-0.3,3-0.5,4.5
		C2499.7-3722.3,2499.6-3720.8,2499.5-3719.3L2499.5-3719.3z M2489.7-3718.2c0.4-0.3,1.2-0.1,0.8-1.1h-1.4
		c-0.2,4.6-0.4,9.1-0.6,13.5c1.7,0,1.8,0,1.8-1.7c0-0.6,0.1-1.3,0.1-1.9c0-2.5,0-5.1,0-7.7c-0.1,0-0.3,0-0.4-0.1
		c0.2-0.3,0.4-0.6,0.8-1L2489.7-3718.2z M2480.1-3692.7c-0.1-0.9-0.1-1.7-0.2-2.6c-2.8-0.1-5.5-0.2-8.3-0.4v0.8
		c0,1.4,0.1,1.5,1.4,1.6c0.7,0,1.5,0.1,2.2,0.2C2476.9-3693,2478.4-3692.9,2480.1-3692.7z M2498.3-3699.2c0.1,0.1,0.2,0.1,0.3,0.2
		c0.1-0.2,0.3-0.3,0.3-0.5c0.2-1.5,0.4-3.1,0.5-4.7c0.2-2.2,0.3-4.3,0.5-6.5c0.3-3.8,0.5-7.5,0.8-11.3c0-0.8,0-1.5,0-2.3
		c-0.1,0-0.2,0-0.3,0L2498.3-3699.2z M2471-3755.3c-0.1-0.1-0.2-0.1-0.3-0.2c-0.7,0.9-1.5,1.9-2.1,2.7c0.4,1.5,0.8,2.9,1.1,4.2
		l0.2,0.1c0.5-0.8,0.9-1.8,1.2-2.7c0-1-0.2-2.1-0.5-3c0.1,0,0.1,0,0.2,0l0.2,0.5c0,0,0.1,0,0.1,0
		C2471.1-3754.3,2471-3754.8,2471-3755.3z M2469.6-3693.7c-0.1-0.8-0.1-1.4-0.2-1.9c0-0.2-0.2-0.5-0.3-0.6c-1.4-0.4-2.8-0.8-4.3-1.2
		c0,0.4,0,0.9,0,1.3c0,0.3,0.1,0.7,0.3,0.8C2466.5-3694.8,2467.9-3694.3,2469.6-3693.7z M2495.1-3697.4c0-0.1-0.1-0.2-0.1-0.2
		c-0.6,0.2-1.1,0.4-1.7,0.6c-2.1,0.4-4.2,0.9-6.3,1.1c-2,0.3-4,0.4-6,0.6c-0.2,0.1-0.4,0.2-0.5,0.3c0.2,0.1,0.4,0.4,0.5,0.4
		c0.5,0,1-0.2,1.5-0.2c3.3,0.1,6.6-0.4,9.7-1.4C2493.2-3696.6,2494.2-3697,2495.1-3697.4L2495.1-3697.4z M2498.3-3710.7
		c-1.2,2.3-0.6,5-1.3,7.4c0.1,0.1,0.3,0.1,0.4,0.2c0.2-0.3,0.4-0.7,0.5-1c0.2-1.8,0.4-3.6,0.6-5.4c0.1-1.5,0.3-3,0.4-4.5
		c0.1-1.9,0.2-3.9,0.3-5.8c-0.1,0-0.1,0-0.2,0c-0.1,1-0.3,1.9-0.4,2.9c-0.2,1.9-0.4,3.8-0.5,5.7
		C2498.1-3711.1,2498.2-3710.9,2498.3-3710.7z M2491-3733.2c-5-0.6-10.1,0-15.1,0.4c0,0.2,0,0.3,0,0.5
		C2481-3732.4,2486-3732.7,2491-3733.2L2491-3733.2z M2460.6-3704.3c-0.1,0.5,0.1,0.8,0.2,1.2c0,1.1,0.7,1.5,1.8,1.7
		c1.1,0.2,2.3-0.4,3.4,0c0.1,0,0.2-0.3,0.4-0.4c-1.2-0.3-2.2-0.6-3.3-0.8c0.6-0.5,1.2,0.5,1.6-0.3
		C2463.2-3703.4,2461.9-3703.9,2460.6-3704.3z M2480.5-3736.8c0.1,1,0.1,1.9,0.2,2.7c0,0.1,0.3,0.4,0.4,0.4c0.7,0,1.3-0.1,2-0.2
		c0.1,0,0.2-0.2,0.2-0.2c0-0.8,0-1.6,0-2.4c0-0.1-0.2-0.2-0.3-0.3C2482.2-3736.8,2481.4-3736.8,2480.5-3736.8L2480.5-3736.8z
		 M2459.3-3752.2c0.8-1.7,0.7-3.6-0.2-5.2c-1.2,1.7-1.6,4.8-0.7,5.9c0-0.5,0.1-1,0.1-1.7c0.2,0.4,0.2,0.6,0.3,0.9
		c0.1-0.3,0.2-0.5,0.3-0.9C2459.2-3752.8,2459.3-3752.5,2459.3-3752.2z M2465.3-3717c0-0.5,0-1-0.6-1.1c-1.2-0.3-2.4-0.6-3.7-1
		c-0.8-0.2-1.6-0.5-2.6-0.8C2458.9-3718.5,2460.5-3717.8,2465.3-3717z M2466.9-3738.8c0.1,0,0.1,0.1,0.2,0.2
		c0.8-1.7,0.9-3.6,0.4-5.4c-1.3,1.6-1.8,3.1-1.4,4.1c0.2-0.5,0.3-0.9,0.5-1.3c0.1,0,0.2,0,0.2,0.1c-0.2,1-0.4,1.9-0.6,3.1
		C2466.5-3738.4,2466.7-3738.6,2466.9-3738.8z M2468.2-3734.2c0.1-0.5,0.2-1.1,0.4-1.8c0.1,0.4,0.2,0.5,0.2,0.7c0.1,0,0.1,0,0.2,0
		c0.2-1.7,0.4-3.5,0.6-5.5C2468-3739.1,2467.4-3736.5,2468.2-3734.2L2468.2-3734.2z M2455.6-3753.9c-0.8-0.8-1.9-1.2-3-1
		c0.4,0.5,0.7,1,1.1,1.4c0.9,1.3,2.4,2.1,4,2.1c-0.8-0.8-1.7-1.5-2.5-2.3C2455.3-3753.8,2455.4-3753.9,2455.6-3753.9z M2458-3722.8
		c0.2,0.5,0.3,0.9,0.5,1.1c0.3,0.2,0.6,0.3,1,0.4c1.8,0.5,3.6,1,5.5,1.6c0.3-0.8,0.1-1.1-0.5-1.2c-0.4,0-0.9-0.1-1.3-0.2
		C2461.5-3721.6,2459.9-3722.2,2458-3722.8z M2472.4-3745.1c-0.1,0-0.1,0-0.2,0c-0.2,0.5-0.5,0.9-0.7,1.4c-0.2,0.3-0.2,0.7-0.2,1
		c0.4,1.3,0.9,2.6,1.3,3.8h0.2c0.1-0.5,0.2-1.1,0.2-1.6c-0.1-1.1-0.2-2.2-0.4-3.3C2472.7-3744.2,2472.5-3744.7,2472.4-3745.1
		L2472.4-3745.1z M2469.5-3692.1c0.3-0.9,0-1.2-0.6-1.2c-0.4,0-0.8-0.1-1.1-0.2c-1.4-0.4-2.8-0.8-4.1-1.2c-0.2,0.4-0.1,0.8,0.3,1
		c0.1,0,0.2,0.1,0.2,0.1C2465.9-3693.1,2467.7-3692.6,2469.5-3692.1z M2458.5-3721.2l-0.2,0.2c0.2,0.2,0.3,0.6,0.5,0.7
		c2.1,0.7,4.1,1.3,6.2,2c0.3-0.9,0.1-1.1-0.6-1.3c-1-0.2-2-0.4-3-0.7C2460.5-3720.6,2459.5-3720.9,2458.5-3721.2z M2460.2-3745.4
		c-1.1-0.8-4.8-0.6-5.4,0.2c3.8,1.1,4.2,1.1,5,0.6c-0.2-0.1-0.3-0.2-0.5-0.4C2459.6-3745.2,2459.8-3745.3,2460.2-3745.4z
		 M2455.1-3755.9l0.3-0.3c-1.2-1.7-2.5-3.4-3.8-5.1c0.2,2,2.4,5.6,3.7,6.2c-0.3-0.5-0.5-1-0.8-1.4c0,0,0.1,0,0.1,0
		C2454.7-3756.3,2454.9-3756.1,2455.1-3755.9z M2469.3-3759.1c-0.5,0.5-0.9,1.1-1.3,1.7c-0.1,0.7-0.2,1.4-0.1,2.1h-0.1
		c0-0.4-0.1-0.8-0.1-1.3c-0.1,0-0.2,0-0.3,0c-0.1,0.3-0.2,0.7-0.1,1.1c0.2,0.9,0.4,1.8,0.7,2.7c0.3-0.7,0.6-1.4,0.7-2.1
		C2468.9-3756.2,2469.1-3757.5,2469.3-3759.1z M2476.3-3727c-0.1,0.9,0.3,0.9,0.8,0.9c1.5,0,3-0.1,4.6-0.2c0.3,0,0.7-0.3,1-0.5
		c0-0.1,0-0.1-0.1-0.2L2476.3-3727z M2464.5-3713.1c0-0.1-0.1-0.3-0.1-0.4c-1.8,0.1-3.3-1.2-5-1.5c-0.2,0.5,0,1.1,0.5,1.4
		c0.1,0,0.2,0.1,0.3,0.1c1.1,0.3,2.3,0.6,3.5,0.9C2463.9-3712.6,2464.2-3712.9,2464.5-3713.1z M2457.1-3753.4
		c0.5-2.8-0.4-4.9-1.4-7.2C2455.6-3758.1,2456.1-3755.7,2457.1-3753.4z M2463.8-3737c-0.2-0.1-0.3-0.2-0.4-0.2
		c0.1-0.1,0.3-0.2,0.6-0.5c-1.6-0.4-3.3-0.5-4.9-0.2C2461.5-3736.5,2462.4-3736.3,2463.8-3737L2463.8-3737z M2498.5-3725.6
		c0-0.1,0-0.2,0-0.3c-2.1,0.4-4.2,0.7-6.3,1.1c0,0.1-0.1,0.2-0.1,0.3c0.2,0.1,0.4,0.3,0.6,0.3c0.8,0,1.6-0.1,2.4-0.2
		C2496.2-3724.8,2497.5-3724.4,2498.5-3725.6z M2463.7-3738.7c-0.2-0.2-0.4-0.4-0.6-0.6c0.4-0.6-0.2-0.6-0.4-0.8
		c-1-0.8-1.9-0.3-3.1,0.2C2460.9-3738.9,2462.4-3739,2463.7-3738.7L2463.7-3738.7z M2483.4-3696.2c3.4-0.1,6.7-0.6,9.9-1.6
		c0-0.1,0-0.2,0-0.3C2489.9-3697.4,2486.6-3696.8,2483.4-3696.2z M2487.9-3701.2c1.7,0.2,2.2-0.1,2.2-1c-0.3,0-0.5-0.1-0.8-0.2
		c0.5-0.2,1.2-0.1,0.8-1.3c-0.6,0.2-1.2,0.4-1.7,0.7c0.1,0.3,0.1,0.6,0.2,0.8C2488.4-3701.9,2488.2-3701.6,2487.9-3701.2z
		 M2469.4-3733.2c0.1,0,0.2,0,0.4,0.1c1.3-1,2.2-2.4,2.4-4c-0.9,0.8-1.8,1.8-2.6,2.8C2469.4-3734.1,2469.5-3733.6,2469.4-3733.2z
		 M2465.9-3736.7c-1.4,0.5-2.6,0.9-3.7,1.3l0.1,0.2l1.9-0.3c0,0,0,0.1,0,0.1c-0.3,0.1-0.5,0.2-0.9,0.4c1.2,0.4,2.6-0.2,3.2-1.3
		c-0.3,0.1-0.5,0.1-0.8,0.2C2465.7-3736.2,2465.8-3736.3,2465.9-3736.7L2465.9-3736.7z M2460.4-3752.2c-0.7,1.6-0.8,3.3-0.5,4.9
		C2460.9-3748.8,2461.1-3750.6,2460.4-3752.2z M2457.7-3743.5c0,0.2-0.1,0.3-0.1,0.4c0.9,0.4,1.7,0.8,2.6,1.1c0-0.1,0.1-0.1,0.1-0.2
		c-0.1-0.1-0.2-0.2-0.4-0.4c0.6-0.2,1.1-0.4,1.8-0.6C2460.3-3744.4,2458.9-3743.1,2457.7-3743.5z M2458.3-3749.6
		c-1.2-0.6-2.3-1.3-3.5-1.8c-0.5-0.1-1-0.2-1.5-0.2C2454.6-3750.3,2456.4-3749.5,2458.3-3749.6z M2459.8-3697
		c0.2,0.6,0.2,1.2,0.4,1.3c0.9,0.6,1.8,1,2.9,1.6v-0.9C2462.1-3695.6,2461.1-3696.2,2459.8-3697z M2466.8-3757.4
		c0.9-0.8,1.5-1.5,2.3-2.3c-0.8-0.4-1.7-0.2-2.3,0.4C2466.5-3759.2,2466.8-3758.2,2466.8-3757.4z M2463.7-3741.9l0.3-0.1
		c0.1,0.4,0.3,0.8,0.4,1.2c0,0,0.1,0,0.1,0v-3.6c-1.2,1.7-1.3,3.8-0.3,4.6C2464-3740.6,2463.9-3741.2,2463.7-3741.9L2463.7-3741.9z
		 M2456.2-3741.8c0.8,1.5,1.9,1.6,4.5,0.5C2459.1-3741.5,2457.7-3741.6,2456.2-3741.8L2456.2-3741.8z M2471.4-3693.7
		c-0.1-0.8-0.2-1.4-0.2-2.1c-0.5-0.1-0.9-0.1-1.4-0.2c0,0.8,0.1,1.4,0.1,2C2470.4-3693.8,2470.8-3693.8,2471.4-3693.7z M2454.5-3749
		c0,0.1-0.1,0.2-0.1,0.3c1.2,1.1,2.7,1.7,4.3,1.8c0-0.1,0.1-0.2,0.1-0.4C2457.3-3747.8,2455.9-3748.4,2454.5-3749z M2462.8-3734.3
		l-2.4-0.6c0.1,0.8,0.2,1.4,0.2,1.8c0.5,0.1,0.8,0.1,1.2,0.2C2461.2-3733.9,2462.3-3733.7,2462.8-3734.3L2462.8-3734.3z
		 M2488.4-3721c0.2-0.8,0-1-0.7-0.9c-0.3,0.1-0.6,0.1-0.9,0c-0.7,0-1.2,0.4-1.6,1C2486.4-3720.9,2487.4-3721,2488.4-3721
		L2488.4-3721z M2463.9-3747.6c-0.1-0.1-0.2-0.1-0.2-0.2c-0.3,0.5-0.7,1.1-1,1.6c-0.7,0.7-0.8,1.8-0.2,2.5
		C2462.9-3745,2463.4-3746.3,2463.9-3747.6z M2483.7-3736.9v3c0.4-0.1,1-0.2,1-0.3c0.1-0.8,0-1.7,0-2.5h-0.4v2
		C2484-3735.4,2484.8-3736.4,2483.7-3736.9z M2471.2-3745.4c0.1,0,0.2,0,0.2,0c-0.1-1.3-0.2-2.7-0.3-4
		C2469.8-3748,2471.1-3746.8,2471.2-3745.4z M2489-3722.5c1.3,0.2,1.9,0.1,1.6-1.1h-0.8l-0.9,0.1
		C2489-3723.1,2489-3722.8,2489-3722.5z M2458.4-3733.4c-0.2-0.5-0.4-1-0.6-1.4c0-0.1-0.5,0.2-0.9,0.3c-0.1,0-0.3-0.2-0.4-0.4
		C2456.6-3733.5,2456.8-3733.4,2458.4-3733.4z M2486.2-3734c0.1,0,0.2-0.1,0.3-0.2c0-0.7,0-1.4-0.1-2.1c-0.1-0.8-0.4-0.7-1-0.3
		C2486.2-3735.9,2485.3-3734.6,2486.2-3734z M2463.5-3696.1c0.1,0,0.1-0.1,0.2-0.2c0.1,0.1,0.2,0.1,0.3,0.2c0.2,0.2,0.3,0.3,0.5,0.6
		c0.3-2.2,0.2-2.4-1-2.3C2463.5-3697.2,2463.5-3696.7,2463.5-3696.1L2463.5-3696.1z M2466.9-3733.4c-1.6-1.7-3-0.3-4.4,0.3
		C2463.9-3734,2465.4-3733.6,2466.9-3733.4z M2497.1-3701.7l-0.1-0.3c-1.6,0.5-3.2,1.1-4.8,1.6c0,0.1,0,0.2,0.1,0.2
		C2493.8-3700.8,2495.6-3700.8,2497.1-3701.7L2497.1-3701.7z M2459.1-3734.8c-0.1,0-0.1,0-0.2,0.1v1.4c0.3,0.2,0.6,0.3,1,0.4
		c0.1,0,0.3-0.3,0.3-0.4c-0.1-0.5-0.2-0.9-0.3-1.5c-0.2,0.2-0.4,0.4-0.5,0.5C2459.3-3734.5,2459.2-3734.7,2459.1-3734.8z
		 M2490.5-3722.1c-1.6-0.1-1.6-0.1-1.4,1C2490.6-3720.9,2490.6-3720.9,2490.5-3722.1z M2502.4-3733.7c0-0.1,0-0.2-0.1-0.2
		c-1.4,0.3-2.8,0.6-4.1,0.8l0.1,0.3C2499.6-3733.2,2501.1-3732.8,2502.4-3733.7z M2465.7-3747.3c-0.9,0.8-1.5,1.6-0.3,2.7
		C2465.5-3745.6,2465.6-3746.5,2465.7-3747.3z M2468.2-3732.4c0-0.1,0-0.3,0-0.4l-4.3-0.4c0,0.1,0,0.2,0,0.3
		C2465.3-3732.7,2466.7-3732.6,2468.2-3732.4L2468.2-3732.4z M2467.9-3751.2c-0.1,0-0.4,0-0.5,0.1c-0.1,0.6-0.2,1.3-0.2,1.9
		c0,0.6-0.1,1.1-0.1,1.6h0.1C2467.5-3748.7,2467.7-3749.9,2467.9-3751.2z M2488.9-3725.6c0,0.2,0.1,0.3,0.1,0.4
		c0.8-0.1,1.5-0.2,2.3-0.4c0-0.1,0-0.2,0-0.3C2490.5-3725.8,2489.6-3726.2,2488.9-3725.6z M2488.9-3724.1c0.1,0.1,0.1,0.2,0.2,0.2
		c0.5,0,0.9-0.1,1.4-0.2c0.1,0,0.2-0.4,0.3-0.6c-0.5-0.1-1-0.1-1.4,0C2489.1-3724.7,2489-3724.3,2488.9-3724.1L2488.9-3724.1z
		 M2490.4-3720.9c-0.5,0.3-1,0.5-1.4,0.8c0.2,0.2,0.4,0.5,0.6,0.4C2490-3719.7,2490.8-3719.6,2490.4-3720.9L2490.4-3720.9z
		 M2469-3742.2c-0.2,0-0.3-0.1-0.5-0.1c-0.2,0.9-0.3,1.9-0.5,2.8c0.1,0,0.2,0.1,0.4,0.1C2468.5-3740.4,2468.8-3741.3,2469-3742.2z
		 M2469.3-3754.9c0,0,0.1,0,0.1,0c0.2-1.5,0.3-2.9,0.5-4.4c-0.1,0-0.2,0-0.4,0C2469.5-3757.8,2469.4-3756.3,2469.3-3754.9z
		 M2485.5-3721.7l-0.1-0.3c-0.6,0.3-1.2,0.5-1.7,0.8c0,0.1,0.1,0.2,0.1,0.3C2484.4-3720.7,2485.2-3721,2485.5-3721.7L2485.5-3721.7z
		 M2491.6-3725.9c0,0.1,0,0.3,0.1,0.4c0.8-0.4,1.9,0.3,2.6-0.5c0-0.1,0-0.2-0.1-0.3C2493.3-3726.1,2492.4-3726,2491.6-3725.9
		L2491.6-3725.9z M2486.3-3701.1c0.1,0.1,0.1,0.2,0.2,0.3c0.5,0,1,0.2,1.1-0.6c0-0.2-0.2-0.4-0.3-0.6
		C2487-3701.7,2486.7-3701.4,2486.3-3701.1z M2471.4-3691.7c0-1.2-0.2-1.3-1.4-1.2C2469.9-3691.6,2471-3692.5,2471.4-3691.7
		L2471.4-3691.7z M2466.3-3746.3c-0.1,0-0.2,0-0.4,0c-0.1,1-0.2,1.9-0.3,2.9c0.1,0,0.2,0,0.3,0
		C2466-3744.4,2466.1-3745.4,2466.3-3746.3z M2454.7-3734.4v0.2c0.4,0.2,0.8,0.3,1.3,0.5v-1.2
		C2455.5-3734.7,2455.1-3734.6,2454.7-3734.4z M2502.7-3732.5c-0.1,0-0.2,0-0.4,0c-0.1,1.2-0.1,2.4-0.2,3.6c0,0,0.1,0,0.1,0
		C2502.4-3730,2502.5-3731.2,2502.7-3732.5L2502.7-3732.5z M2459.3-3709.8c-0.1,0-0.3,0-0.4,0c0.2,1.1,0.3,2.2,0.5,3.3
		c0,0,0.1,0,0.1,0C2459.5-3707.6,2459.4-3708.7,2459.3-3709.8z M2488.4-3704.6c0.6-0.1,1.2-0.2,1.6-0.3c0.1-0.1,0.1-0.3,0.1-0.5
		C2489.8-3705.7,2488.7-3705.3,2488.4-3704.6z M2488.4-3704c0,0.1,0.1,0.3,0.1,0.4c0.6-0.1,1.2-0.2,1.7-0.4c0-0.1-0.1-0.3-0.1-0.4
		C2489.6-3704.3,2488.9-3704.5,2488.4-3704z M2463-3698.3c-0.1,0-0.2,0-0.3,0c0,0.6,0,1.2,0,1.8c0,0.1,0.2,0.2,0.3,0.3
		c0.1-0.1,0.2-0.2,0.2-0.3C2463.1-3697.1,2463-3697.8,2463-3698.3L2463-3698.3z M2498.1-3699.7c-0.6,0.2-1.2,0.4-1,1.3
		C2497.9-3698.4,2498.2-3698.8,2498.1-3699.7L2498.1-3699.7z M2469.5-3735.4c0.1,0.1,0.1,0.2,0.2,0.2c0.6-0.7,1.3-1.4,1.9-2.1
		c0,0-0.1-0.1-0.1-0.1C2470.8-3736.8,2470.1-3736.1,2469.5-3735.4z M2457.4-3748.4c0-0.1,0.1-0.2,0.1-0.3c-1-0.3-2.1-0.6-3.1-0.9
		l-0.1,0.3L2457.4-3748.4z M2488-3702.9c-0.1-0.2-0.3-0.3-0.4-0.5c-0.3,0.2-0.5,0.4-0.7,0.7c0,0,0.2,0.4,0.4,0.5
		C2487.5-3702.4,2487.8-3702.6,2488-3702.9z M2493.4-3733.6c0.1-0.1,0.2-0.1,0.3-0.2c0.1-1,0.1-1-1-0.9
		C2493-3734.3,2493.2-3733.9,2493.4-3733.6L2493.4-3733.6z M2488.3-3734.3c0.1,0,0.2,0,0.3,0c-0.1-0.7-0.2-1.4-0.2-2.1
		c-0.1,0-0.2,0-0.3,0C2488.2-3735.7,2488.3-3735,2488.3-3734.3z M2457.8-3718.7c0.1,0.8,0.3,1.4,0.4,2.1c0.1,0,0.1,0,0.2,0
		C2458.5-3718,2458.4-3718.5,2457.8-3718.7z M2491.5-3735.3c0.2,0.5,0.3,0.9,0.4,1.3c0.1-0.1,0.4-0.3,0.4-0.4
		C2492.4-3734.9,2492.3-3735.4,2491.5-3735.3L2491.5-3735.3z M2512.4-3735c-0.1-0.4-0.2-0.6-0.3-0.9c-0.1,0.3-0.2,0.5-0.3,0.8
		c0,0.3,0.1,0.6,0.2,0.9C2512.1-3734.5,2512.3-3734.7,2512.4-3735L2512.4-3735z M2467.6-3734.3c-0.2-0.5-0.4-0.8-0.5-1.1l-0.9,0.5
		c0,0.1,0.1,0.1,0.1,0.2C2466.7-3734.6,2467-3734.5,2467.6-3734.3L2467.6-3734.3z M2469.7-3736.6c0.4-1.1,0.5-2.2,0.3-3.4
		C2469.9-3738.8,2469.8-3737.7,2469.7-3736.6L2469.7-3736.6z M2462.9-3723.9c0,0.1,0,0.1,0,0.2c0.4,0.2,0.9,0.3,1.3,0.4
		c0.2,0,0.4-0.2,0.6-0.2c-0.2-0.1-0.3-0.2-0.5-0.3C2463.8-3723.9,2463.4-3723.9,2462.9-3723.9z"/>
	<path id="Path_1406" class="st0" d="M2463.5-3711.6c0.4,0.7,1.3,1,2,0.6c0.1,0,0.1-0.1,0.2-0.1c0.2-0.2,0.3-0.4,0.4-0.6
		c0,0.6,0.1,0.9,0.1,1.2c-0.3,0.3-0.6,0.5-0.9,0.8c0,0.1,0.1,0.1,0.1,0.2l0.9,0.1c0,0.1,0,0.1,0,0.2c-0.2,0-0.5,0.2-0.7,0.1
		c-0.7-0.3-0.9,0.1-1.1,0.8c0.7,0.1,1.2,0.2,1.8,0.4v0.4c-0.5-0.1-1-0.1-1.5-0.3c-0.8-0.3-1.1-0.1-1.1,0.9c0.5,0.1,0.9,0.3,1.4,0.4
		c0.5,0.1,1,0.2,1.4,0.3l-0.1,0.3c-1.3-0.3-2.6-0.6-4.1-0.9c1-0.6,1.2-1.1,1-1.5c0.3-0.3,0.7-0.5,1.1-0.9c-0.9-0.3-1.6-0.5-2.3-0.8
		c-0.2-0.1-0.4-0.4-0.6-0.5c1.6,0.8,3.1,0.9,3.5,0.3c-1.5-0.6-2.9-1.1-4.4-1.7l0,0c0.3,0,0.5,0.1,0.8,0.1
		C2462.1-3711.8,2462.7-3711,2463.5-3711.6L2463.5-3711.6z"/>
	<path id="Path_1407" class="st0" d="M2483.6-3728.5c-0.3-0.1-0.6-0.2-0.9-0.3c-2.4,0-4.8,0-7.1-0.2c3.4-0.2,6.9-0.3,10.3-0.5
		c0,0.1,0,0.2,0,0.3c-0.4,0.2-0.8,0.5-1.2,0.7C2484.3-3729.3,2484-3728.4,2483.6-3728.5z"/>
	<path id="Path_1408" class="st0" d="M2456.6-3730.6c2.6,0.4,5.3,0.8,7.9,1.2c-0.3,0.5-0.9,0.6-1.3,0.3c0,0,0,0,0,0
		c-1.1-0.7-2.3-0.1-3.5-0.4c-1-0.3-2.1-0.6-3.1-0.8C2456.5-3730.5,2456.5-3730.6,2456.6-3730.6z"/>
	<path id="Path_1409" class="st0" d="M2465-3729.2c0.4-0.7,1-0.6,3.7,0.9C2467.5-3728.6,2466.3-3728.9,2465-3729.2z"/>
	<path id="Path_1410" class="st0" d="M2459.4-3727.8c-1-0.4-1.9-0.7-2.9-1.1c0-0.1,0.1-0.2,0.1-0.2c1,0.3,2,0.7,3,1
		C2459.5-3728,2459.4-3727.9,2459.4-3727.8z"/>
	<path id="Path_1411" class="st0" d="M2458.6-3726.8c0.7,0.2,1.4,0.4,2.2,0.5c0,0.1,0,0.2-0.1,0.3c-0.7-0.2-1.4-0.3-2.2-0.5
		C2458.5-3726.5,2458.5-3726.7,2458.6-3726.8z"/>
	<path id="Path_1412" class="st0" d="M2456.6-3728.2c0.7,0.2,1.4,0.4,2.2,0.6c0,0.1-0.1,0.2-0.1,0.3c-0.7-0.2-1.4-0.5-2.2-0.7
		C2456.5-3728,2456.6-3728.1,2456.6-3728.2z"/>
	<path id="Path_1413" class="st0" d="M2508.2-3745.7c0.6,1.2,1.1,2.4,1.7,3.6c-0.1,0-0.1,0.1-0.2,0.1c-0.2-0.3-0.5-0.6-0.7-0.9
		c-0.2-0.5-0.5-1-0.8-1.6c-0.5-0.9-1-1.9-1.6-2.8c0.3,0.2,0.5,0.3,0.8,0.5C2507.8-3746.5,2508-3746.1,2508.2-3745.7z"/>
	<path id="Path_1414" class="st0" d="M2468.3-3707.7c0.1-0.4,0.1-0.8,0.2-1.2c0.1,0,0.2,0,0.3,0v2.8
		C2468.7-3706.6,2468.5-3707.1,2468.3-3707.7z"/>
	<path id="Path_1415" class="st0" d="M2473.2-3702.5c0.1-1,0.3-2.1,0.3-3.1c0-0.4-0.5-0.9,0.2-1.3c0,0.8,0,1.5,0,2.3
		c0,0.7,0.2,1.4,0.3,2.3c0.5-0.5,0.8-0.9,1.3-1.5c-0.3,1.2-1.6,1.6-1.2,3c0.2-0.2,0.4-0.3,0.7-0.5c-0.2,0.5-0.4,0.9-0.6,1.4
		c0.1,0.1,0.2,0.2,0.3,0.2c1-1.3,2-2.7,3-4c0.1,0,0.1,0.1,0.2,0.2c-0.9,1.2-1.7,2.5-2.5,3.7c0,0.1,0.1,0.2,0.1,0.2
		c0.4-0.2,0.7-0.3,1.1-0.5c0.1,0.1,0.2,0.4,0.3,0.4c0.7,0,1.4-0.2,2.1-0.2c0.1,0,0.1-0.2,0.2-0.2c1.7,0.1,3.4,0.2,5.1,0.4
		c0,0,0,0,0.3,0.3c-2.1,0.1-4,0.1-5.9,0.2c0,0.1,0,0.2,0,0.3l2.5,0.3c0,0.1,0,0.2,0,0.3c-3.9,0.4-7.8,0.1-11.5-0.9
		c0.1-0.1,0.3-0.3,0.4-0.4c0.9,0.9,1.1-0.2,1.5-0.6c0.2-0.2,0.4-0.4,0.6-0.6c-0.3,0.5-0.5,1-0.9,1.6c0.3,0,0.7,0.1,0.8-0.1
		c0.6-0.6,1-1.3,1.5-2C2473.6-3701.6,2473.3-3702.1,2473.2-3702.5z"/>
	<path id="Path_1416" class="st0" d="M2476.2-3714.6c-0.2-0.2-0.6-0.4-0.7-0.8c-0.7-2.1-1.2-4.3-1.8-6.4c0,0,0-0.1,0.2-0.4
		c0.7,2.2,1.3,4.1,1.9,6h0.2c0.3-0.8,0.5-1.6,0.8-2.4c0.1,0,0.2,0,0.3,0.1c-0.2,1.2-0.4,2.4-0.6,3.6
		C2476.4-3714.7,2476.3-3714.6,2476.2-3714.6z"/>
	<path id="Path_1417" class="st0" d="M2479.3-3713.5h1c0.4,1.3,0.8,2.6,1.2,3.9c-1.2,0.4-1.3,0.3-1.5-0.8
		C2479.8-3711.4,2479.6-3712.4,2479.3-3713.5z"/>
	<path id="Path_1418" class="st0" d="M2478.7-3708.9c0.2,2.2,0.3,4.1,0.5,6.1l-0.1,0.1c-0.7-2.3-1.4-4.5-2.1-6.8
		c0.1,0,0.1-0.1,0.2-0.1c0.3,0.6,0.6,1.2,0.9,1.9C2478.3-3708.2,2478.5-3708.4,2478.7-3708.9z"/>
	<path id="Path_1419" class="st0" d="M2480-3709.3c0.4,0,0.8,0,1.2,0.1c0.2,0,0.3,0.3,0.5,0.4c-0.2,0.1-0.4,0.2-0.6,0.3
		c0,0.3-0.1,0.7-0.1,1.1c-0.1,0-0.1,0-0.2,0C2480.5-3707.9,2480.3-3708.5,2480-3709.3z"/>
	<path id="Path_1420" class="st0" d="M2476.7-3712.9c0.2,1,0.3,1.9,0.4,2.8C2476.4-3710.8,2476.2-3711.9,2476.7-3712.9z"/>
	<path id="Path_1421" class="st0" d="M2472.8-3725.4v-1.3c0.3,0.1,0.6,0.3,0.7,0.3C2473.3-3726.1,2473.1-3725.7,2472.8-3725.4z"/>
	<path id="Path_1422" class="st0" d="M2480.2-3714.6c-1.1,0.4-1.2-0.1-1-0.9C2479.5-3715.2,2479.8-3715,2480.2-3714.6z"/>
	<path id="Path_1423" class="st0" d="M2501.8-3746c0.4-0.3,1-0.6,1.6-1c-1,1.2-1.9,2.3-2.8,3.4c-0.1-0.4-0.3-0.9-0.2-1.3
		c0.2-0.5,0.6-1,1-1.4C2501.5-3746.2,2501.7-3746.1,2501.8-3746z"/>
	<path id="Path_1424" class="st0" d="M2498.6-3740.6c0.3-0.3,0.5-0.5,0.8-0.8c0.1,0.3,0.3,0.6,0.5,1.1
		C2499.5-3740.4,2499.1-3740.5,2498.6-3740.6z"/>
	<path id="Path_1425" class="st0" d="M2504.7-3740c-0.3,0.2-0.5,0.4-0.8,0.6v-0.7c0.5-0.1,1.1-0.3,1.8-0.4c-0.2,0.2-0.3,0.5-0.5,0.7
		c0.3,0.1,0.6,0.1,0.9,0.2c0,0.1,0,0.2,0,0.2c-0.5-0.1-1-0.2-1.4-0.3C2504.7-3739.8,2504.7-3739.9,2504.7-3740z"/>
	<path id="Path_1426" class="st0" d="M2506.5-3740.6c-0.3-0.2-0.8-0.6-1.4-1h1.5C2506.6-3741.3,2506.6-3741,2506.5-3740.6z"/>
	<path id="Path_1427" class="st0" d="M2507.4-3732.4c-0.3-0.3-0.7-0.6-1-0.9c0.8-0.1,1.4-0.1,2.1-0.2c-0.3,0.2-0.7,0.5-1,0.8
		C2507.4-3732.7,2507.4-3732.5,2507.4-3732.4z"/>
	<path id="Path_1428" class="st0" d="M2461.9-3717c0.5,0.3,1,0.5,1.4,0.8c0,0,0,0.1,0,0.2c-0.7-0.2-1.4-0.4-2.2-0.6
		c0-0.1,0-0.1,0-0.2C2461.4-3716.9,2461.7-3717,2461.9-3717L2461.9-3717z"/>
</g>
</svg>
